/* XPM */
static char *_000[] = {
/* columns rows colors chars-per-pixel */
"64 64 186 2 ",
"   c None",
".  c #08050B",
"X  c #1E0F06",
"o  c #010110",
"O  c #170F0A",
"+  c #251205",
"@  c #291706",
"#  c #361A07",
"$  c #3C1E08",
"%  c #381B07",
"&  c #3E1E16",
"*  c #2D2303",
"=  c #392804",
"-  c #3F3003",
";  c #08083F",
":  c #15112B",
">  c #2B183E",
",  c #261423",
"<  c #2D2320",
"1  c #401F08",
"2  c #432109",
"3  c #4C250A",
"4  c #562A0B",
"5  c #5B2C0C",
"6  c #50270B",
"7  c #433305",
"8  c #4C3606",
"9  c #593D07",
"0  c #4A2418",
"q  c #452212",
"w  c #65310D",
"e  c #6B340E",
"r  c #6F3A0E",
"t  c #753A0F",
"y  c #71370F",
"u  c #7B3C10",
"i  c #7A3C19",
"p  c #582D2B",
"a  c #7F3F2C",
"s  c #643125",
"d  c #134626",
"f  c #574608",
"g  c #5F520D",
"h  c #4E4C10",
"j  c #4D5214",
"k  c #684F06",
"l  c #664409",
"z  c #6B5106",
"x  c #665309",
"c  c #745808",
"v  c #7D5E08",
"b  c #6B5E10",
"n  c #7F630A",
"m  c #0A0845",
"M  c #04034E",
"N  c #110C46",
"B  c #3E235C",
"V  c #0A0A69",
"C  c #0F106D",
"Z  c #15176F",
"A  c #1A166D",
"S  c #070771",
"D  c #0B0B73",
"F  c #0B0B78",
"G  c #110E71",
"H  c #111177",
"J  c #151579",
"K  c #1C1C7D",
"L  c #1C1C72",
"P  c #311D60",
"I  c #212275",
"U  c #542C51",
"Y  c #6B3747",
"T  c #5C3D67",
"R  c #813F11",
"E  c #ED1A22",
"W  c #ED1421",
"Q  c #EC2D23",
"!  c #ED2529",
"~  c #EF3139",
"^  c #ED2F2E",
"/  c #8C4513",
"(  c #854112",
")  c #9B4B14",
"_  c #934815",
"`  c #87420F",
"'  c #A04E15",
"]  c #A65116",
"[  c #AA5317",
"{  c #B15717",
"}  c #BA5A18",
"|  c #836408",
" . c #8A6909",
".. c #826305",
"X. c #916F0A",
"o. c #99750A",
"O. c #A17B0B",
"+. c #974B35",
"@. c #A04F2F",
"#. c #B45826",
"$. c #AE5626",
"%. c #C15E18",
"&. c #EB5A1C",
"*. c #C5601C",
"=. c #CD641B",
"-. c #D1661B",
";. c #E96D19",
":. c #E85720",
">. c #E87620",
",. c #F03F48",
"<. c #F0534F",
"1. c #ED6947",
"2. c #EE6B51",
"3. c #F25B61",
"4. c #F17062",
"5. c #F37470",
"6. c #AA820B",
"7. c #B1880C",
"8. c #CA9B0D",
"9. c #C5970C",
"0. c #E7871C",
"q. c #DDA90F",
"w. c #E4A60E",
"e. c #E1AE12",
"r. c #E98130",
"t. c #E6BD3E",
"y. c #E7AD28",
"u. c #EB914D",
"i. c #EF8E66",
"p. c #EF9D6C",
"a. c #F19474",
"s. c #EFB073",
"d. c #EED47D",
"f. c #242481",
"g. c #2C2C86",
"h. c #33338B",
"j. c #363386",
"k. c #3E3E91",
"l. c #454595",
"z. c #4A4A97",
"x. c #4D4D99",
"c. c #52529C",
"v. c #5A5A9D",
"b. c #5D5DA2",
"n. c #6262A5",
"m. c #6B6BAA",
"M. c #6767A8",
"N. c #7373AF",
"B. c #7575B0",
"V. c #7C7CB4",
"C. c #8E7086",
"Z. c #9C9B9E",
"A. c #8181B7",
"S. c #8484B9",
"D. c #8C8CBD",
"F. c #F69092",
"G. c #F4AA93",
"H. c #F9B5B7",
"J. c #F9B0AF",
"K. c #F0DA8D",
"L. c #F6CAAB",
"P. c #F6E9B7",
"I. c #8D8EC0",
"U. c #9494C1",
"Y. c #9B9CC6",
"T. c #9E9EC8",
"R. c #A2A2CA",
"E. c #AAAACE",
"W. c #ACACD0",
"Q. c #B2B2D3",
"!. c #B9B9D7",
"~. c #BCBCD9",
"^. c #C3C3DD",
"/. c #FCC7C9",
"(. c #FECFD0",
"). c #F7ECC5",
"_. c #CBCBE1",
"`. c #D3D3E6",
"'. c #DBDBEA",
"]. c #D5D5E8",
"[. c #ECECF4",
"{. c #E5E5F0",
"}. c #F5F5F9",
"|. c #FBFBFD",
" X c #F6F4F6",
".X c #FCE7E1",
/* pixels */
"                                                                                                                                ",
"                                                                                                                                ",
"                                                                                                                                ",
"                                                                                                                                ",
"                                                                                                                                ",
"                                                                                                                                ",
"                                                                                                                                ",
"                                                                                                                                ",
"                                                                                                                                ",
"                                                                                                                                ",
"                                                                                                                                ",
"                                                                                                                                ",
"                                                                                                                                ",
"                                                              q.q.                                                              ",
"                                                              f f                                                               ",
"                                                             XZ.Z. X                                                            ",
"                                                      /..X).a.(.(.p.L.J.H.                                                      ",
"                                    *                 ~ G.1.Q H.H.1.a.^ ! 3.                                                    ",
"                                  X.O.              E ! F.~ E H.J.,./.<.E E                                                     ",
"                                @ o.7.7         P.4.E Q r.^ E i.p.E 5.2.Q E 4.P.                                                ",
"                                  . f o.7       K.1.W <.s.^ E u.u.! ^ s.2.W   K.                                                ",
"                                  V m z |       d.G.:.>.y.0.;.w.w.;.&.y.0.&.0.t.                                                ",
"                                  D F    .v       t.e.8.6.6.6.6.6.6.6.6.9.7.8.                                                  ",
"                                  D D   - o.c       8.v b d h k k h d g l X                                                     ",
"                                  D D S   = o.c       7 n j x z z x j c =                                                       ",
"                                  D J l.    - o.c     * k 8 l 9 8 l 9 | *                                                       ",
"                                  D h._.b.    - X.v   = r / } w 3 ) 3 t 2                                                       ",
"                                  D H T.^.        n l [ -.=.u 2 / 6 u [ ( 3                                                     ",
"                                  D D A._.K       $ { =.[ / % [ ( 5 / e 4 ' $                                                   ",
"                                  D D f.T.K D   4 [ { e $ 4 $ *.[ u 5 % _ ) 4 u                                                 ",
"                                    D K Y.K D , ] y 2 w [ } 1 ] -.-.u @ e 5 5 t +                                               ",
"                                  D D K Y.K m q 3 + w =.=.=.w e =.=.=.u 3 4 / 2 _ $                                             ",
"                                  D D f.T.L o % u R e -.=.=.] % u =.-.=.%.) $ R =.3                                             ",
"                                D D D A._.Z O ) -./ e -.=.=.=.' % y #.+.+.p i =.=.) X                                           ",
"                                D D D U.`.Z 0 =.-._ $ } =.=.=.=._ @ > G G D U #.-.{ +                                           ",
"                                D D D U.`.Z 0 =.=.*.3 e =.=.=.+.P m C K g.V.I.C.#.{ +                                           ",
"                                  D D U.`.Z 0 =.=.=.] % t $.U A F l.T.`._.^.^.Y.T a X                                           ",
"                                  D D S.].I & %.=.=.-.) @ > D f.m.[.}.^.n.K H H D V M                                           ",
"                                    D f.T.v.o ` -.=.*.Y N V k._.}.^.m.K S D J l.m.m.m.                                          ",
"                                    D D f.f.; s @.U B G J A.].{.R.f.D D h.A.^.{.].~.n.f.                                        ",
"                                      D D D f.j.j.g.H z.~.[._.l.H D J x.].|.].V.g.J S f.g.h.                                    ",
"                                        D c._.W._.Q.R.U.T.M.f.D D f.T. X`.S.g.D D f.B.^.'.~.c.                                  ",
"                                          M.R.n.M.U.|.[.m.D D H k.Q.[.Q.h.D S g.N._._.N.z.x.f.D                                 ",
"                                            B.Y.S.E.D.W.].b.l.R.].E.c.J S J k.^.'.D.g.D D D D                                   ",
"                                              V.n.A.v.n.B.W.D.E.l.J S D z.R.'.Q.z.D D D D                                       ",
"                                                A.T.M.A.E.!.x.D D D f.M.[.}.V.H D ; <                                           ",
"                                                  A.Q.D.m.T.z.J v.U.^.}.Q.n.H D D : ..|                                         ",
"                                                    x.!._.E.n.Q. X}.~.U.f.D D D        . .                                      ",
"                                                      z.^.}.B.Q.m.x.J D D D             X.X.                                    ",
"                                                          Q.z.J D D D D                   k 7                                   ",
"                                                            K D D D                                                             ",
"                                                                                                                                ",
"                                                                                                                                ",
"                                                                                                                                ",
"                                                                                                                                ",
"                                                                                                                                ",
"                                                                                                                                ",
"                                                                                                                                ",
"                                                                                                                                ",
"                                                                                                                                ",
"                                                                                                                                ",
"                                                                                                                                ",
"                                                                                                                                ",
"                                                                                                                                "
};
