/* XPM */
static char *_006[] = {
/* columns rows colors chars-per-pixel */
"64 64 186 2 ",
"   c None",
".  c #08050B",
"X  c #1E0F06",
"o  c #010110",
"O  c #170F0A",
"+  c #251205",
"@  c #291706",
"#  c #361A07",
"$  c #3C1E08",
"%  c #381B07",
"&  c #3E1E16",
"*  c #2D2303",
"=  c #392804",
"-  c #3F3003",
";  c #08083F",
":  c #15112B",
">  c #2B183E",
",  c #261423",
"<  c #2D2320",
"1  c #401F08",
"2  c #432109",
"3  c #4C250A",
"4  c #562A0B",
"5  c #5B2C0C",
"6  c #50270B",
"7  c #433305",
"8  c #4C3606",
"9  c #593D07",
"0  c #4A2418",
"q  c #452212",
"w  c #65310D",
"e  c #6B340E",
"r  c #6F3A0E",
"t  c #753A0F",
"y  c #71370F",
"u  c #7B3C10",
"i  c #7A3C19",
"p  c #582D2B",
"a  c #7F3F2C",
"s  c #643125",
"d  c #134626",
"f  c #574608",
"g  c #5F520D",
"h  c #4E4C10",
"j  c #4D5214",
"k  c #684F06",
"l  c #664409",
"z  c #6B5106",
"x  c #665309",
"c  c #745808",
"v  c #7D5E08",
"b  c #6B5E10",
"n  c #7F630A",
"m  c #0A0845",
"M  c #04034E",
"N  c #110C46",
"B  c #3E235C",
"V  c #0A0A69",
"C  c #0F106D",
"Z  c #15176F",
"A  c #1A166D",
"S  c #070771",
"D  c #0B0B73",
"F  c #0B0B78",
"G  c #110E71",
"H  c #111177",
"J  c #151579",
"K  c #1C1C7D",
"L  c #1C1C72",
"P  c #311D60",
"I  c #212275",
"U  c #542C51",
"Y  c #6B3747",
"T  c #5C3D67",
"R  c #813F11",
"E  c #ED1A22",
"W  c #ED1421",
"Q  c #EC2D23",
"!  c #ED2529",
"~  c #EF3139",
"^  c #ED2F2E",
"/  c #8C4513",
"(  c #854112",
")  c #9B4B14",
"_  c #934815",
"`  c #87420F",
"'  c #A04E15",
"]  c #A65116",
"[  c #AA5317",
"{  c #B15717",
"}  c #BA5A18",
"|  c #836408",
" . c #8A6909",
".. c #826305",
"X. c #916F0A",
"o. c #99750A",
"O. c #A17B0B",
"+. c #974B35",
"@. c #A04F2F",
"#. c #B45826",
"$. c #AE5626",
"%. c #C15E18",
"&. c #EB5A1C",
"*. c #C5601C",
"=. c #CD641B",
"-. c #D1661B",
";. c #E96D19",
":. c #E85720",
">. c #E87620",
",. c #F03F48",
"<. c #F0534F",
"1. c #ED6947",
"2. c #EE6B51",
"3. c #F25B61",
"4. c #F17062",
"5. c #F37470",
"6. c #AA820B",
"7. c #B1880C",
"8. c #CA9B0D",
"9. c #C5970C",
"0. c #E7871C",
"q. c #DDA90F",
"w. c #E4A60E",
"e. c #E1AE12",
"r. c #E98130",
"t. c #E6BD3E",
"y. c #E7AD28",
"u. c #EB914D",
"i. c #EF8E66",
"p. c #EF9D6C",
"a. c #F19474",
"s. c #EFB073",
"d. c #EED47D",
"f. c #242481",
"g. c #2C2C86",
"h. c #33338B",
"j. c #363386",
"k. c #3E3E91",
"l. c #454595",
"z. c #4A4A97",
"x. c #4D4D99",
"c. c #52529C",
"v. c #5A5A9D",
"b. c #5D5DA2",
"n. c #6262A5",
"m. c #6B6BAA",
"M. c #6767A8",
"N. c #7373AF",
"B. c #7575B0",
"V. c #7C7CB4",
"C. c #8E7086",
"Z. c #9C9B9E",
"A. c #8181B7",
"S. c #8484B9",
"D. c #8C8CBD",
"F. c #F69092",
"G. c #F4AA93",
"H. c #F9B5B7",
"J. c #F9B0AF",
"K. c #F0DA8D",
"L. c #F6CAAB",
"P. c #F6E9B7",
"I. c #8D8EC0",
"U. c #9494C1",
"Y. c #9B9CC6",
"T. c #9E9EC8",
"R. c #A2A2CA",
"E. c #AAAACE",
"W. c #ACACD0",
"Q. c #B2B2D3",
"!. c #B9B9D7",
"~. c #BCBCD9",
"^. c #C3C3DD",
"/. c #FCC7C9",
"(. c #FECFD0",
"). c #F7ECC5",
"_. c #CBCBE1",
"`. c #D3D3E6",
"'. c #DBDBEA",
"]. c #D5D5E8",
"[. c #ECECF4",
"{. c #E5E5F0",
"}. c #F5F5F9",
"|. c #FBFBFD",
" X c #F6F4F6",
".X c #FCE7E1",
/* pixels */
"                                                                                                                                ",
"                                                                                                                                ",
"                                                                                                                                ",
"                                                                                                                                ",
"                                                                                                                                ",
"                                                                                                                                ",
"                                                                                                                                ",
"                                                                                                                                ",
"                                                                                                                                ",
"                                                                                                                                ",
"                                                                                                                                ",
"                                                                                                                                ",
"                                                                                                                                ",
"                                                              q.q.                                                              ",
"                                                              f f                                                               ",
"                                                             XZ.Z. X                                                            ",
"                                                      H.J.L.p.(.(.a.)..X/.                                                      ",
"                                                    3.! ^ a.1.H.H.Q 1.G.~                 *                                     ",
"                                                    E E <./.,.J.H.E ~ F.! E               O.X.                                  ",
"                                                P.4.E Q 2.5.E p.i.E ^ r.Q E 4.P.        7 7.X.@                                 ",
"                                                K.  W 2.s.^ ! u.u.E ^ s.<.W 1.K.      7 o.f .                                   ",
"                                                t.0.&.0.y.&.;.w.w.;.0.y.>.:.G.d.      | z m V                                   ",
"                                                  8.7.9.6.6.6.6.6.6.6.6.8.e.t.      v  .  F D                                   ",
"                                                    X l g d h k k h d b v 8.      c o.-   D D                                   ",
"                                                      = c j x z z x j n 7       c X.=   S D D                                   ",
"                                                      * | 9 l 8 9 l 8 k *     c o.-     z.J D                                   ",
"                                                      2 t 3 ) 3 w } / r =   v X.-     b._.h.D                                   ",
"                                                    3 ( [ u 6 / 2 u =.-.[ l n         ^.T.H D                                   ",
"                                                  $ ' 4 e / 5 ( [ % / [ =.{ %       K _.A.D D                                   ",
"                                                u 4 ) / % 5 u [ *.$ 4 $ e { [ 4   D K Y.f.D D                                   ",
"                                              + t 5 5 e @ u -.-.] 1 } [ w 2 y ] , D K Y.K D                                     ",
"                                            % / 2 / 4 3 u *.=.=.e w *.=.=.w + 3 q m K Y.K D D                                   ",
"                                            3 *.R $ ) %.=.-.*.u # ] =.=.-.e R u % o L T.f.D D                                   ",
"                                          X ) =.=.i p +.+.#.y % ' =.=.=.-.e / -.) O Z _.A.D D D                                 ",
"                                          + { -.#.U D G G > @ _ =.=.=.=.} $ _ -.*.0 Z `.U.D D D                                 ",
"                                          + { #.C.I.V.g.K C m P +.*.=.*.e 3 *.=.=.0 Z `.U.D D D                                 ",
"                                          X a T Y.^.^._.`.T.z.F A U $.t % ] =.=.=.0 Z `.U.D D                                   ",
"                                          M V D H H K n.^.}.[.m.f.D > @ ) -.=.=.%.& I ].S.D D                                   ",
"                                          m.m.m.z.J D S K m.^.|._.k.V N Y *.*.-.` o v.T.f.D                                     ",
"                                        f.n.!.'.{.^.A.h.D D f.R.{.'.S.J G B U @.s ; f.f.D D                                     ",
"                                    h.g.f.S J g.V.'.|.'.x.J D H z._.[.!.z.H g.j.j.f.D D D                                       ",
"                                  c.~.'.^.B.f.D D g.S.`.[.Y.f.D D f.M.Y.U.R.Q._.W._.c.D                                         ",
"                                D f.x.z.N._._.N.g.S D h.Q.[.Q.k.H D D m.[.|.U.M.n.R.M.                                          ",
"                                  D D D D g.D.'.^.k.J S J c.E.].R.l.b.'.W.D.E.S.Y.B.                                            ",
"                                      D D D D z.Q.'.R.z.D S J z.E.D.W.B.n.v.A.n.V.                                              ",
"                                          < ; D H V.}.[.M.f.D D D x.!.E.A.M.Y.A.                                                ",
"                                        | ..: D D H n.Q.|.^.U.v.J z.Y.m.D.Q.A.                                                  ",
"                                       . .      D D D f.U.~.}.[.Q.n.E._.!.x.                                                    ",
"                                    X.X.            D D D J x.m.Q.B.}.^.z.                                                      ",
"                                  7 k                   D D D D J z.Q.                                                          ",
"                                                            D D D K                                                             ",
"                                                                                                                                ",
"                                                                                                                                ",
"                                                                                                                                ",
"                                                                                                                                ",
"                                                                                                                                ",
"                                                                                                                                ",
"                                                                                                                                ",
"                                                                                                                                ",
"                                                                                                                                ",
"                                                                                                                                ",
"                                                                                                                                ",
"                                                                                                                                ",
"                                                                                                                                "
};
