/* XPM */
static char *_007[] = {
/* columns rows colors chars-per-pixel */
"64 64 163 2 ",
"   c None",
".  c #1C0E04",
"X  c #110812",
"o  c #251C02",
"O  c #3C1E19",
"+  c #302409",
"@  c #3E301C",
"#  c #1E1034",
"$  c #271F20",
"%  c #251538",
"&  c #401F08",
"*  c #4A240A",
"=  c #432108",
"-  c #53290A",
";  c #5D2D0C",
":  c #51270B",
">  c #4A3A05",
",  c #5B3D08",
"<  c #65310D",
"1  c #6B340E",
"2  c #73380F",
"3  c #7D3D0F",
"4  c #6A331D",
"5  c #753912",
"6  c #7C3D10",
"7  c #71361E",
"8  c #643226",
"9  c #2D491C",
"0  c #324D1D",
"q  c #564206",
"w  c #5A4406",
"e  c #5D4C0A",
"r  c #5F4906",
"t  c #5A5511",
"y  c #654B07",
"u  c #6C5307",
"i  c #675108",
"p  c #765A08",
"a  c #785708",
"s  c #7E640B",
"d  c #0D0B53",
"f  c #06075D",
"g  c #161350",
"h  c #2C1953",
"j  c #0E0F65",
"k  c #060669",
"l  c #1E1368",
"z  c #070772",
"x  c #0B0B74",
"c  c #070870",
"v  c #121175",
"b  c #151579",
"n  c #1C1C7D",
"m  c #331D60",
"M  c #21237F",
"N  c #512A44",
"B  c #492757",
"V  c #693B45",
"C  c #813F13",
"Z  c #EE2A2D",
"A  c #EE262E",
"S  c #EC3E2C",
"D  c #EF343D",
"F  c #EE3737",
"G  c #864112",
"H  c #8C4412",
"J  c #964914",
"K  c #A14E15",
"L  c #AC5416",
"P  c #AB541D",
"I  c #B65918",
"U  c #BB5B19",
"Y  c #B55817",
"T  c #826307",
"R  c #846409",
"E  c #95720A",
"W  c #944A27",
"Q  c #8D4531",
"!  c #9B4C33",
"~  c #A04F22",
"^  c #A8532D",
"/  c #C25E19",
"(  c #C66119",
")  c #CD641B",
"_  c #D2661B",
"`  c #EA6B1D",
"'  c #EB492C",
"]  c #ED4A37",
"[  c #ED563B",
"{  c #C56020",
"}  c #EC6E3F",
"|  c #F0464D",
" . c #F04047",
".. c #EE5E4B",
"X. c #EC7A47",
"o. c #EE6E52",
"O. c #EF7759",
"+. c #F25F62",
"@. c #F26564",
"#. c #F37777",
"$. c #AA820B",
"%. c #BA8E0C",
"&. c #C7980B",
"*. c #E78A18",
"=. c #E59511",
"-. c #E88D23",
";. c #E3B425",
":. c #E6B237",
">. c #EF8560",
",. c #1E1F80",
"<. c #252582",
"1. c #2B2B86",
"2. c #2C2B84",
"3. c #36368C",
"4. c #353183",
"5. c #3F3F91",
"6. c #424293",
"7. c #4A4A97",
"8. c #52539C",
"9. c #535393",
"0. c #64659D",
"q. c #5D5DA2",
"w. c #6363A6",
"e. c #6C6CAB",
"r. c #696AA5",
"t. c #7373AD",
"y. c #7777B2",
"u. c #7C7DB5",
"i. c #7D7FB8",
"p. c #957689",
"a. c #8484B9",
"s. c #8A8ABC",
"d. c #8282B7",
"f. c #9090BF",
"g. c #B8B6B8",
"h. c #F58689",
"j. c #F69995",
"k. c #F3BC95",
"l. c #F8BCAA",
"z. c #F9B2B6",
"x. c #F1CA89",
"c. c #F0D285",
"v. c #F5D5AB",
"b. c #F7DBB8",
"n. c #F5E0B0",
"m. c #9494C2",
"M. c #9B9BC6",
"N. c #9996C0",
"B. c #A3A3CA",
"V. c #A9A9CE",
"C. c #AFAFD1",
"Z. c #B3B3D4",
"A. c #BABAD8",
"S. c #B9B9D7",
"D. c #C5C5DE",
"F. c #FCD5D6",
"G. c #C9C9E0",
"H. c #D2D2E5",
"J. c #DADAEA",
"K. c #E1E1EE",
"L. c #E6E6F1",
"P. c #F3F3F8",
"I. c #F1F1F7",
/* pixels */
"                                                                                                                                ",
"                                                                                                                                ",
"                                                                                                                                ",
"                                                                                                                                ",
"                                                                                                                                ",
"                                                                                                                                ",
"                                                                                                                                ",
"                                                                                                                                ",
"                                                                                                                                ",
"                                                                                                                                ",
"                                                                                                                                ",
"                                                                                                                                ",
"                                                                                                                                ",
"                                                                                                                                ",
"                                                              y                                                                 ",
"                                                              g.g.                                                              ",
"                                                          z.k.l.l.b.F.                                                          ",
"                                                        h.A O.j.#.o.+.                                                          ",
"                                                        D D j.h.#.| |  .        E                                               ",
"                                                      v.Z ] @.o...S ' F n.    u E                                               ",
"                                                      x.Z >.F } [ [ O.Z c.    T +                                               ",
"                                                      :.` -.` =.*.*.-.X.c.  r y f                                               ",
"                                                        %.%.$.$.$.$.&.;.    R @ x                                               ",
"                                                        o e 9 e e 0 s &.  u T   x                                               ",
"                                                          > t i i t w     R   z x                                               ",
"                                                          q y , , w >   p p   3.v                                               ",
"                                                          - 1 1 G H - q T     M.n                                               ",
"                                                        * J 5 2 ; / I a     s.a.x                                               ",
"                                                        6 1 6 6 2 6 ( G     t.y.x                                               ",
"                                                      < G 1 - K H & ; L 1 k 8.5.x                                               ",
"                                                    . < ; : 6 _ 6 J 6 - C d 8.3.x                                               ",
"                                                    1 1 < ; U ( < U ) * = # 8.3.x                                               ",
"                                                    H 6 3 ( _ H < ) ( 6 2 X 9.5.x                                               ",
"                                                    L U 8 ! ~ - L ) ( 6 / O 0.y.x                                               ",
"                                                    I ! l x % 5 ) ) I 1 ) 7 0.d.x                                               ",
"                                                    P p.i.1.j h ^ _ H G _ 7 0.d.x                                               ",
"                                                    V N.D.H.m.,.m W - Y _ 7 0.d.x                                               ",
"                                                    k x n s.P.m.n % 5 ) ) 4 r.u.z                                               ",
"                                                  w.e.6.x v t.L.m.j N { ( O t.3.                                                ",
"                                                x 8.D.K.m.<.x u.K.u.v B Q % M x                                                 ",
"                                                1.v n s.P.B.b x i.L.e.n 4.<.x x                                                 ",
"                                              m.J.a.n x e.K.s.x b e.m.B.S.Z.6.                                                  ",
"                                              3.8.C.V.1.x e.J.w.x n D.H.w.a.                                                    ",
"                                              x z <.Z.C.n x q.D.i.t.S.M.m.s.                                                    ",
"                                                x c <.C.Z.1.z 5.M.M.w.e.t.w.                                                    ",
"                                                  $ d <.H.Z.<.z 1.V.m.i.a.                                                      ",
"                                                  T g x 7.H.D.w.4.a.d.M.                                                        ",
"                                                R y   x x 8.G.I.f.B.S.                                                          ",
"                                              p R       x x <.e.m.H.s.                                                          ",
"                                              w           x x x 1.m.                                                            ",
"                                                              x b                                                               ",
"                                                                                                                                ",
"                                                                                                                                ",
"                                                                                                                                ",
"                                                                                                                                ",
"                                                                                                                                ",
"                                                                                                                                ",
"                                                                                                                                ",
"                                                                                                                                ",
"                                                                                                                                ",
"                                                                                                                                ",
"                                                                                                                                ",
"                                                                                                                                ",
"                                                                                                                                "
};
