/* XPM */
static char *_010[] = {
/* columns rows colors chars-per-pixel */
"64 64 254 2 ",
"   c None",
".  c #371B07",
"X  c #2C1B23",
"o  c #2F1D3B",
"O  c #4C2508",
"+  c #52290A",
"@  c #552A0B",
"#  c #562A0B",
"$  c #5D2D0C",
"%  c #4C3905",
"&  c #4E3B05",
"*  c #473608",
"=  c #5E310C",
"-  c #5D3F08",
";  c #5A2D1E",
":  c #66320D",
">  c #68330D",
",  c #69330E",
"<  c #6C340E",
"1  c #70360F",
"2  c #70370F",
"3  c #72380D",
"4  c #73380F",
"5  c #75390F",
"6  c #773A0F",
"7  c #7F3E0F",
"8  c #693419",
"9  c #743911",
"0  c #763910",
"q  c #763A10",
"w  c #763A13",
"e  c #793B10",
"r  c #513E24",
"t  c #5D3228",
"y  c #4A460E",
"u  c #5D4606",
"i  c #52450A",
"p  c #5E4008",
"a  c #584B0B",
"s  c #4D4C11",
"d  c #4F4D10",
"f  c #654D0B",
"g  c #6A5107",
"h  c #6F5505",
"j  c #6F5406",
"k  c #61520B",
"l  c #63520B",
"z  c #705505",
"x  c #745904",
"c  c #745805",
"v  c #7C5F07",
"b  c #745109",
"n  c #765A08",
"m  c #7B5E08",
"M  c #664E12",
"N  c #696012",
"B  c #7B422E",
"V  c #7F432D",
"C  c #674031",
"Z  c #100E4F",
"A  c #301F4F",
"S  c #221556",
"D  c #211B5F",
"F  c #2B2247",
"G  c #0A096C",
"H  c #090A6E",
"J  c #110D65",
"K  c #1D1A69",
"L  c #070771",
"P  c #080872",
"I  c #090972",
"U  c #080873",
"Y  c #0B0B74",
"T  c #0A0B75",
"R  c #080976",
"E  c #0C0C74",
"W  c #0E0E75",
"Q  c #0F0F76",
"!  c #101076",
"~  c #121278",
"^  c #16167A",
"/  c #16177A",
"(  c #18187B",
")  c #19197C",
"_  c #1B1B7D",
"`  c #1C1C7D",
"'  c #1D1D7E",
"]  c #1F1F7F",
"[  c #28267F",
"{  c #442744",
"}  c #462446",
"|  c #582D4F",
" . c #4D2850",
".. c #653345",
"X. c #6F4A59",
"o. c #813F11",
"O. c #834011",
"+. c #844011",
"@. c #854112",
"#. c #8B4312",
"$. c #8B4412",
"%. c #8C4412",
"&. c #8D4513",
"*. c #944811",
"=. c #9E4D13",
"-. c #A24F14",
";. c #A45014",
":. c #A45015",
">. c #AB5316",
",. c #AC5415",
"<. c #AC5416",
"1. c #B05617",
"2. c #B15617",
"3. c #B75C17",
"4. c #BD5C17",
"5. c #B05619",
"6. c #B45818",
"7. c #BB5B19",
"8. c #806209",
"9. c #8A6909",
"0. c #894420",
"q. c #81432D",
"w. c #81442D",
"e. c #91482F",
"r. c #AC552B",
"t. c #A3582F",
"y. c #C05E19",
"u. c #C15E19",
"i. c #C35F18",
"p. c #C35F1A",
"a. c #C45F1C",
"s. c #CB631B",
"d. c #D06519",
"f. c #EB432A",
"g. c #EE483F",
"h. c #EC593B",
"j. c #EC5D3C",
"k. c #E97B21",
"l. c #EF4040",
"z. c #F0464D",
"x. c #ED5741",
"c. c #EE5D4B",
"v. c #F14850",
"b. c #EE684D",
"n. c #EF6E55",
"m. c #F06A59",
"M. c #F06C5F",
"N. c #EF7555",
"B. c #F26165",
"V. c #F26D66",
"C. c #F17564",
"Z. c #F2756A",
"A. c #F47278",
"S. c #A9820B",
"D. c #AA820B",
"F. c #B48A0B",
"G. c #BE910D",
"H. c #C3950C",
"J. c #E78515",
"K. c #E68C15",
"L. c #E88426",
"P. c #E78822",
"I. c #E5B72C",
"U. c #EE9A5A",
"Y. c #F28877",
"T. c #232381",
"R. c #252582",
"E. c #262683",
"W. c #272784",
"Q. c #282781",
"!. c #2B2B86",
"~. c #2A2C85",
"^. c #2C2C86",
"/. c #2A2B88",
"(. c #2F2F88",
"). c #312D81",
"_. c #2F3088",
"`. c #303089",
"'. c #34348B",
"]. c #37388C",
"[. c #38388D",
"{. c #3C3C8F",
"}. c #3F4092",
"|. c #3F4094",
" X c #404092",
".X c #444490",
"XX c #444494",
"oX c #464695",
"OX c #464696",
"+X c #4A4B9A",
"@X c #4C4C99",
"#X c #56579B",
"$X c #51519C",
"%X c #55559D",
"&X c #6363A6",
"*X c #6464A6",
"=X c #696BA5",
"-X c #6868A9",
";X c #6B6CA8",
":X c #6F6FAD",
">X c #7273AA",
",X c #7373AA",
"<X c #7374AA",
"1X c #7171AE",
"2X c #7272AE",
"3X c #7676B1",
"4X c #7777B1",
"5X c #7777B2",
"6X c #7C7CB4",
"7X c #887BA3",
"8X c #8080B6",
"9X c #8181B7",
"0X c #8383B8",
"qX c #8383BA",
"wX c #8686BA",
"eX c #8686BB",
"rX c #8787BE",
"tX c #8989BC",
"yX c #8B8BBD",
"uX c #8C8CBD",
"iX c #8F8FBF",
"pX c #F58A8C",
"aX c #F6BA9D",
"sX c #F8BAB2",
"dX c #F8C1AD",
"fX c #9393C1",
"gX c #9595C3",
"hX c #9696C3",
"jX c #9898C4",
"kX c #9A9AC5",
"lX c #9B9BC6",
"zX c #9F9FC8",
"xX c #A0A0C9",
"cX c #A3A3CA",
"vX c #A4A4CB",
"bX c #A6A6CC",
"nX c #ACACCF",
"mX c #ADADD0",
"MX c #B2B2D3",
"NX c #B4B2D1",
"BX c #B5B5D5",
"VX c #B4B5D6",
"CX c #B7B7D6",
"ZX c #BABAD8",
"AX c #BEBEDA",
"SX c #BFBFDB",
"DX c #C9C7C8",
"FX c #C9C8C9",
"GX c #C1C1DC",
"HX c #C2C2DC",
"JX c #C5C5DE",
"KX c #C7C7DF",
"LX c #FADCD1",
"PX c #E0E0ED",
/* pixels */
"                                                                                                                                ",
"                                                                                                                                ",
"                                                                                                                                ",
"                                                                                                                                ",
"                                                                                                                                ",
"                                                                                                                                ",
"                                                                                                                                ",
"                                                                                                                                ",
"                                                                                                                                ",
"                                                                                                                                ",
"                                                                                                                                ",
"                                                                                                                                ",
"                                                                                                                                ",
"                                                                                                                                ",
"                                                                                                                                ",
"                                                              DXFX                                                              ",
"                                                            LXdXaXsX                                                            ",
"                                                            V.Z.Y.l.                                                            ",
"                                                    8.      z.B.pXv.A.                                                          ",
"                                                    9.    C.f.x.m.g.M.                                                          ",
"                                                    * h   N.b.j.h.c.n.                                                          ",
"                                                      f   U.P.K.J.k.L.                                                          ",
"                                                    H M   I.G.S.S.F.H.                                                          ",
"                                                    R r h   N s s y                                                             ",
"                                                    R   c   a k k i                                                             ",
"                                                    ) _.z   % - p u                                                             ",
"                                                    {.rX  g = #.2 +                                                             ",
"                                                    T.eX  b 3.@.2 O.                                                            ",
"                                                    ) 2X  3 >.q o.6 @                                                           ",
"                                                    ! OXD *.$ 3 @.: q                                                           ",
"                                                    W |.A > O.%.2.@ $ .                                                         ",
"                                                    W }.o O 7.%.p.e < >                                                         ",
"                                                    W .XX 7 p.$.;.p.6 @.                                                        ",
"                                                    ) =Xt ;.p.2.q e.0.,.                                                        ",
"                                                    ) <XV =.6.s.; J | 5.                                                        ",
"                                                    ) ,Xw.,.-.r.S ~.7Xt.                                                        ",
"                                                    ] ,Xq.4.q  .+XKXNXX.                                                        ",
"                                                    ] <XB d.8 K VXkX^ H                                                         ",
"                                                      #XC a.{ ;XSXE.E.-X                                                        ",
"                                                      ^ { ..).SX%XE.ZXVX`.                                                      ",
"                                                      W [ Q.tXkXW tXKXW.]                                                       ",
"                                                        vXmXiX^.[.HX XE.VXcX                                                    ",
"                                                        5XvXgXW fX6X( kX5X(.                                                    ",
"                                                        eXkXcX9XzX] *XkX~ P                                                     ",
"                                                        2X:X5XkX!.'.VX].L                                                       ",
"                                                          9XiX@XW kXqXZ                                                         ",
"                                                          eX9XOXqXHX/.F c                                                       ",
"                                                            nXgXPX&XP   v                                                       ",
"                                                            MXbX$XW     n m                                                     ",
"                                                              OXP R       %                                                     ",
"                                                              ^ R                                                               ",
"                                                                                                                                ",
"                                                                                                                                ",
"                                                                                                                                ",
"                                                                                                                                ",
"                                                                                                                                ",
"                                                                                                                                ",
"                                                                                                                                ",
"                                                                                                                                ",
"                                                                                                                                ",
"                                                                                                                                ",
"                                                                                                                                ",
"                                                                                                                                ",
"                                                                                                                                "
};
