/* XPM */
static char *_001[] = {
/* columns rows colors chars-per-pixel */
"64 64 165 2 ",
"   c None",
".  c #170B09",
"X  c #221A02",
"o  c #362909",
"O  c #1E113D",
"+  c #251828",
"@  c #22133E",
"#  c #321B36",
"$  c #401F08",
"%  c #442109",
"&  c #53290B",
"*  c #5B2C0C",
"=  c #4B3905",
"-  c #5B3C08",
";  c #452115",
":  c #483715",
">  c #602F0D",
",  c #65310D",
"<  c #6A340E",
"1  c #72370E",
"2  c #74390F",
"3  c #783A0F",
"4  c #6C3512",
"5  c #7D3D11",
"6  c #7B3B1B",
"7  c #743815",
"8  c #643224",
"9  c #68383E",
"0  c #2E491C",
"q  c #314C1D",
"w  c #564205",
"e  c #5C4405",
"r  c #5C4B0A",
"t  c #594708",
"y  c #595510",
"u  c #664E05",
"i  c #654D08",
"p  c #6C5207",
"a  c #665109",
"s  c #6B520B",
"d  c #785709",
"f  c #78620C",
"g  c #0E0C4D",
"h  c #120B4E",
"j  c #121051",
"k  c #271654",
"l  c #0F1068",
"z  c #070771",
"x  c #0B0B74",
"c  c #121176",
"v  c #141479",
"b  c #1C1C7E",
"n  c #0A096A",
"m  c #281864",
"M  c #21217E",
"N  c #442559",
"B  c #482646",
"V  c #813F11",
"C  c #EE262D",
"Z  c #EE2B2F",
"A  c #EC392B",
"S  c #EE2E34",
"D  c #EF363D",
"F  c #844112",
"G  c #8B4412",
"H  c #914713",
"J  c #944813",
"K  c #9C4C15",
"L  c #A95316",
"P  c #A75118",
"I  c #B25717",
"U  c #BB5B19",
"Y  c #846507",
"T  c #826409",
"R  c #8A6A09",
"E  c #97730A",
"W  c #93492B",
"Q  c #8D4533",
"!  c #954A34",
"~  c #A45128",
"^  c #A15030",
"/  c #C15E1A",
"(  c #CC641B",
")  c #C56018",
"_  c #D2661B",
"`  c #E96A1D",
"'  c #EA701F",
"]  c #C15F22",
"[  c #EB4E2E",
"{  c #ED4638",
"}  c #EC653C",
"|  c #F03F46",
" . c #F04047",
".. c #F14C52",
"X. c #EE684E",
"o. c #EB7441",
"O. c #EF6750",
"+. c #EF785C",
"@. c #F26666",
"#. c #F47D7E",
"$. c #AA820B",
"%. c #BA8E0C",
"&. c #BE910B",
"*. c #C7970B",
"=. c #E78A17",
"-. c #E59111",
";. c #E88B24",
":. c #E79022",
">. c #E3B222",
",. c #E6B539",
"<. c #EE815B",
"1. c #232382",
"2. c #2B2B85",
"3. c #35358B",
"4. c #38388E",
"5. c #343083",
"6. c #3E3E91",
"7. c #4B4B8B",
"8. c #454595",
"9. c #494A96",
"0. c #4D4D9A",
"q. c #5A5A92",
"w. c #555698",
"e. c #616297",
"r. c #5F5FA4",
"t. c #6262A5",
"y. c #6666A8",
"u. c #6B6BAA",
"i. c #7272AE",
"p. c #7071A1",
"a. c #7C7CB4",
"s. c #977381",
"d. c #8080B6",
"f. c #8484B9",
"g. c #8D8DBE",
"h. c #948FBA",
"j. c #B8B6B8",
"k. c #F58585",
"l. c #F68C90",
"z. c #F69793",
"x. c #F4BC99",
"c. c #F8BCA9",
"v. c #F9B3B7",
"b. c #EFCD84",
"n. c #F1D08A",
"m. c #F5DBAE",
"M. c #F6D7B3",
"N. c #9595C3",
"B. c #9B9BC6",
"V. c #9E9EC8",
"C. c #A4A4CB",
"Z. c #A9A9CE",
"A. c #AEAED1",
"S. c #B8B8D7",
"D. c #BEBEDA",
"F. c #B7B7D6",
"G. c #C4C4DE",
"H. c #FCD7D6",
"J. c #CDCDE2",
"K. c #DDDDEC",
"L. c #D4D4E7",
"P. c #E2E2EF",
"I. c #E5E5F1",
"U. c #F2F2F7",
"Y. c #F3F3F8",
/* pixels */
"                                                                                                                                ",
"                                                                                                                                ",
"                                                                                                                                ",
"                                                                                                                                ",
"                                                                                                                                ",
"                                                                                                                                ",
"                                                                                                                                ",
"                                                                                                                                ",
"                                                                                                                                ",
"                                                                                                                                ",
"                                                                                                                                ",
"                                                                                                                                ",
"                                                                                                                                ",
"                                                                                                                                ",
"                                                              e u                                                               ",
"                                                              j.j.                                                              ",
"                                                          H.M.c.c.x.v.                                                          ",
"                                                          @.X.k.z.+.C l.                                                        ",
"                                              E         D .. .#.k.z.S |                                                         ",
"                                              E i     m.Z [ A O.O.@.{ S m.                                                      ",
"                                              o T     b.C <.{ } } { +.Z n.                                                      ",
"                                              g s e   n.o.:.=.-.-.' ;.` ,.                                                      ",
"                                              x : T     >.&.$.$.$.$.%.%.                                                        ",
"                                              x   Y i   *.f q i r 0 t X                                                         ",
"                                              x     T     r y a a y =                                                           ",
"                                              c 4.  d d   = e - - u w                                                           ",
"                                              1.B.    T = & J V 1 < &                                                           ",
"                                              x g.d.  w d U U * 2 5 H %                                                         ",
"                                              z d.y.    G / 2 5 5 5 < 3                                                         ",
"                                              z 8.0.  1 L * $ H K & 2 F ,                                                       ",
"                                              z 6.0.h F & F H 5 _ 2 & * > .                                                     ",
"                                              z 6.9.+ % & ( I < ( U * < < ,                                                     ",
"                                              z 8.7.. 3 5 ( ( > J _ ) 2 V F                                                     ",
"                                              z d.q.; / 5 ( ( L & ~ ! 8 / P                                                     ",
"                                              z g.q.6 ( < U ( ( 4 @ x m ~ I                                                     ",
"                                              z g.q.6 _ 5 J _ ^ k l 2.d.s.P                                                     ",
"                                              z g.q.6 _ L & W m 1.V.L.G.h.9                                                     ",
"                                              z f.e.7 ( ( 4 O b V.U.d.b x n                                                     ",
"                                              z 6.p.; ( ] B l V.I.u.x x 8.u.r.                                                  ",
"                                                x M # Q N c f.P.i.z 2.B.P.D.9.z                                                 ",
"                                                x x 2.5.b a.I.i.x b Z.U.d.b c 2.                                                ",
"                                                  9.S.S.C.N.t.c c B.K.t.x b g.L.g.                                              ",
"                                                    f.u.K.F.v x u.K.t.z 3.A.Z.0.3.                                              ",
"                                                    g.B.B.D.u.f.G.w.x 1.S.Z.1.z z                                               ",
"                                                    y.i.u.u.V.B.4.z 3.S.Z.M z x                                                 ",
"                                                      g.a.N.C.1.z 2.D.G.1.g +                                                   ",
"                                                        V.a.f.2.u.J.J.8.x j Y                                                   ",
"                                                          D.V.N.Y.G.9.z x   a Y                                                 ",
"                                                          N.J.N.y.b x x       R p                                               ",
"                                                            g.2.z z x           w                                               ",
"                                                              c x                                                               ",
"                                                                                                                                ",
"                                                                                                                                ",
"                                                                                                                                ",
"                                                                                                                                ",
"                                                                                                                                ",
"                                                                                                                                ",
"                                                                                                                                ",
"                                                                                                                                ",
"                                                                                                                                ",
"                                                                                                                                ",
"                                                                                                                                ",
"                                                                                                                                ",
"                                                                                                                                "
};
