/* XPM */
static char *xpm_[] = {
/* columns rows colors chars-per-pixel */
"64 64 204 2 ",
"   c #010100",
".  c #0A0705",
"X  c #0C0A05",
"o  c #03050C",
"O  c #0B0B0A",
"+  c #090709",
"@  c #100C07",
"#  c #120D0A",
"$  c #15110E",
"%  c #1C140C",
"&  c #1E1807",
"*  c #060813",
"=  c #0E1016",
"-  c #141514",
";  c #1B1B1B",
":  c #191514",
">  c #251A0F",
",  c #271C12",
"<  c #372A03",
"1  c #2E2012",
"2  c #33261B",
"3  c #34281A",
"4  c #382516",
"5  c #1B1C39",
"6  c #222323",
"7  c #2B2B2B",
"8  c #242429",
"9  c #362C23",
"0  c #39322A",
"q  c #343434",
"w  c #3D3D3C",
"e  c #2A2B34",
"r  c #441119",
"t  c #472F1B",
"y  c #4D341E",
"u  c #4C370E",
"i  c #741F2D",
"p  c #41382E",
"a  c #4B3628",
"s  c #553D28",
"d  c #453C31",
"f  c #7A2B35",
"g  c #5C4028",
"h  c #594436",
"j  c #634226",
"k  c #66482D",
"l  c #754E2D",
"z  c #664838",
"x  c #6B4D3C",
"c  c #684B32",
"v  c #715336",
"b  c #7D5330",
"n  c #74523F",
"m  c #7A522F",
"M  c #715606",
"N  c #292B4B",
"B  c #23285E",
"V  c #34384F",
"C  c #282D69",
"Z  c #252C7D",
"A  c #343676",
"S  c #333867",
"D  c #3F426B",
"F  c #434344",
"G  c #4D4D4F",
"H  c #594E41",
"J  c #474856",
"K  c #565656",
"L  c #695A4A",
"P  c #785642",
"I  c #685955",
"U  c #776755",
"Y  c #51516F",
"T  c #636362",
"R  c #6C6C6C",
"E  c #696561",
"W  c #747474",
"Q  c #6C6C70",
"!  c #A62B3F",
"~  c #825632",
"^  c #895C36",
"/  c #97643A",
"(  c #99653B",
")  c #9C693E",
"_  c #A82C40",
"`  c #825F4A",
"'  c #905047",
"]  c #B34953",
"[  c #9F6C41",
"{  c #916951",
"}  c #A26E43",
"|  c #A67246",
" . c #AF7B4E",
".. c #A5744A",
"X. c #B17C4E",
"o. c #A67957",
"O. c #B37F51",
"+. c #88786A",
"@. c #8D7B71",
"#. c #B07F63",
"$. c #D27C6E",
"%. c #CD9B0B",
"&. c #D8A40C",
"*. c #E0AA0C",
"=. c #B58154",
"-. c #B98456",
";. c #BB8758",
":. c #BF8A5B",
">. c #98846D",
",. c #B98769",
"<. c #AC957B",
"1. c #BD9577",
"2. c #AE8D72",
"3. c #C08B5C",
"4. c #C48C6C",
"5. c #D99C78",
"6. c #CA9170",
"7. c #DCA17D",
"8. c #E4A37F",
"9. c #2C3397",
"0. c #2D3599",
"q. c #30379A",
"w. c #353C9D",
"e. c #2E3489",
"r. c #3B419F",
"t. c #3E45A1",
"y. c #4D528E",
"u. c #5F6186",
"i. c #444AA4",
"p. c #4E54A9",
"a. c #575DAE",
"s. c #5C61AE",
"d. c #5C62B1",
"f. c #7376A8",
"g. c #656AB5",
"h. c #676CB7",
"j. c #6F74B7",
"k. c #757ABC",
"l. c #777BBB",
"z. c #94758E",
"x. c #7F808C",
"c. c #7D80BF",
"v. c #7F83C2",
"b. c #929292",
"n. c #B29B81",
"m. c #BBA286",
"M. c #9294B4",
"N. c #AAAAAA",
"B. c #A9AAB1",
"V. c #B1B1B1",
"C. c #B9B9B9",
"Z. c #A691A9",
"A. c #D99485",
"S. c #C7AB8D",
"D. c #D7AB8A",
"F. c #CDB393",
"G. c #D1B596",
"H. c #D5B999",
"J. c #C8AE90",
"K. c #E8A680",
"L. c #ECAC86",
"P. c #E5A782",
"I. c #EBB18C",
"U. c #F2B38D",
"Y. c #F6BE96",
"T. c #EAB48F",
"R. c #CFAEAB",
"E. c #DDC09F",
"W. c #F7C29C",
"Q. c #DEC1A0",
"!. c #E8C9A6",
"~. c #F6CEAB",
"^. c #F8C9A3",
"/. c #F3D1AD",
"(. c #FAD3AD",
"). c #FBD6B1",
"_. c #FDDCB5",
"`. c #FCDCB6",
"'. c #FFE0B9",
"]. c #9699CA",
"[. c #8D90C7",
"{. c #9EA0C9",
"}. c #9DA0D1",
"|. c #A2A4C8",
" X c #A5A8D3",
".X c #B7B9D9",
"XX c #B2B1C9",
"oX c #BFC1E0",
"OX c #C6C6C7",
"+X c #D3D3D3",
"@X c #DCDDDF",
"#X c #C4C6DB",
"$X c #C6C8E4",
"%X c #D4D6EA",
"&X c #DBDDF0",
"*X c #E4E4E3",
"=X c #E9E9E8",
"-X c #EBEBF6",
";X c #E4E5F2",
":X c #F3F3F3",
">X c #F3F4FA",
",X c #FEFEFE",
"<X c #F9F9F7",
"1X c None",
/* pixels */
"1X1X1X1X1X1X1X1X1X1X1X1X1X1X1X1X1X1X1X1X1X1X1X    1X1X1X1X1X1X1X1X1X1X1X1X1X1X1X1X1X1X1X1X1X1X1X1X1X1X1X1X1X1X1X1X1X1X1X1X1X1X1X",
"1X1X1X1X1X1X1X1X1X1X1X1X1X1X1X1X1X1X1X                      1X1X1X1X1X1X1X1X1X1X1X1X1X1X1X1X1X1X1X1X1X1X1X1X1X1X1X1X1X1X1X1X1X1X",
"1X1X1X1X1X1X1X1X1X1X1X1X1X1X1X1X1X                      6 ,     1X1X1X1X1X1X1X1X1X1X1X1X1X1X1X1X1X1X1X1X1X1X1X1X1X1X1X1X1X1X1X1X",
"1X1X1X1X1X1X1X1X1X1X1X1X1X1X1X1X                        7 7 - o   1X1X1X1X1X1X1X1X1X1X1X1X1X1X1X1X1X1X1X1X1X1X1X1X1X1X1X1X1X1X1X",
"1X1X1X1X1X1X1X1X1X1X1X1X1X1X                              - w -       1X1X1X1X1X1X1X1X1X1X1X1X1X1X1X1X1X1X1X1X1X1X1X1X1X1X1X1X1X",
"1X1X1X1X1X1X1X1X1X1X1X1X                                    - 7 7     1X1X1X1X1X1X1X1X1X1X1X1X1X1X1X1X1X1X1X1X1X1X1X1X1X1X1X1X1X",
"1X1X1X1X1X1X1X1X1X                                            7 F 8 *   1X1X1X1X1X1X1X1X1X1X1X1X1X1X1X1X1X1X1X1X1X1X1X1X1X1X1X1X",
"1X1X1X1X1X1X1X1X1X                      a z z z z z z a .     7 F h ;   1X1X1X1X1X1X1X1X1X1X1X1X1X1X1X1X1X1X1X1X1X1X1X1X1X1X1X1X",
"1X1X1X1X1X1X1X                        : ,.L.L.L.L.L.L.4.#     6 e O   o 1X1X1X1X1X1X1X1X1X1X1X1X1X1X1X1X1X1X1X1X1X1X1X1X1X1X1X1X",
"1X1X1X1X1X1X1X1X1X                  0 G.!./.).(./.(.W.4.$     & &     1X1X1X1X1X1X1X1X1X1X1X1X1X1X1X1X1X1X1X1X1X1X1X1X1X1X1X1X1X",
"1X1X1X1X1X1X1X1X1X1X1X1X1X1X1X1X1X  d H.h m.'.!.H n._.D.$   < &.&.<   1X1X1X1X1X1X1X1X1X1X1X1X1X1X1X1X1X1X1X1X1X1X1X1X1X1X1X1X1X",
"1X1X1X1X1X1X1X1X1X1X1X1X1X1X1X1X1X9 <.!.>.H.'./.>.G.`./.>.{ k M &.<   1X1X1X1X1X1X1X1X1X1X1X1X1X1X1X1X1X1X1X1X1X1X1X1X1X1X1X1X1X",
"1X1X1X1X1X1X1X1X1X1X1X1X1X1X1X1X1X0 m._.`.`.`._.'.'.`._.(.7.P < %.<   1X1X1X1X1X1X1X1X1X1X1X1X1X1X1X1X1X1X1X1X1X1X1X1X1X1X1X1X1X",
"1X1X1X1X1X1X1X1X1X1X1X1X1X1X1X1X1X  p !._.).~.~.).`.`.^.L.h u &.&.<   1X1X1X1X1X1X1X1X1X1X1X1X1X1X1X1X1X1X1X1X1X1X1X1X1X1X1X1X1X",
"1X1X1X1X1X1X1X1X1X1X1X1X1X1X1X1X1X1X- 7 F.A.] ] A.`.(.I.8.s < &.u                     1X1X1X1X1X1X1X1X1X1X1X1X1X1X1X1X1X1X1X1X1X",
"1X1X1X1X1X1X1X1X1X1X1X1X1X1X1X1X1X1X1X  0 f _ _ 6.Y.U.K.8.s @ u 5 J Q R N N Q W R Q K           1X1X1X1X1X1X1X1X1X1X1X1X1X1X1X1X",
"1X1X1X1X1X1X1X1X1X1X1X1X1X1X1X1X1X1X1X1X  r i i ' o.,.8.8.I F 5 e.v.,X,Xk.g.<X,X,X,XC.q q q q 8 1X1X1X1X1X1X1X1X1X1X1X1X1X1X1X1X",
"1X1X1X1X1X1X1X1X1X1X1X1X1X1X1X1X1X1X1X1X1X. + + + o 2 5.8.Z.-Xa.9.r.%X,X.Xt.$X,X,X,X<X:X:X:X>XM.*   1X1X1X1X1X1X1X1X1X1X1X1X1X1X",
"1X1X1X1X1X1X1X1X1X1X1X1X1X1X1X1X1X1X1X    R C.C.B.A A z.R.XX,X}.9.0.].,X;Xa.[.,X,X,X,X,X,X,X,XB.*   1X1X1X1X1X1X1X1X1X1X1X1X1X1X",
"1X1X1X1X1X1X1X1X1X1X1X1X1X1X1X1X1X1X8 E b.p.$X,X,Xj.0.r.oX,X,X$Xt.9.h.>X,XY N R R R R W %X,X,X].o   1X1X1X1X1X1X1X1X1X1X1X1X1X1X",
"1X1X1X1X1X1X1X1X1X1X1X1X1X1X1X1X1Xo G <X;Xa.i.|.*X.Xq.9.k.,X,X>Xa.9.t.&X,XE =           Y u.u.D o   1X1X1X1X1X1X1X1X1X1X1X1X1X1X",
"1X1X1X1X1X1X1X1X1X1X1X1X1X1X1X  o * Y -X,X#Xi.C 7 B.h.0.i.$X,X,X X0.0.[.,X:XW + 1X1X1X  . .         1X1X1X1X1X1X1X1X1X1X1X1X1X1X",
"1X1X1X1X1X1X1X1X1X1X1X1X1X1X1XO U 9 5 y..XQ = *   V.}.q.9.].,X,X%Xi.9.a.-X,X*XV.; 1X1X+ @.4.P   1X1X1X1X1X1X1X1X1X1X1X1X1X1X1X1X",
"1X1X1X1X1X1X1X1X1X1X1X1X1X1X1X$ G.!.L * 5 =       V.&Xr.9.s.>X,X>Xd.9.t.%X,X,X*X; 1X1X+ S.Y.o.. 1X1X1X1X1X1X1X1X1X1X1X1X1X1X1X1X",
"1X1X1X1X1X1X1X1X1X1X1X1X1X1X1XO >.!.H.o.2 1X1X1X  V.,Xg.0.t.$X,X,X].0.0.}.,X,X:Xb.q 1Xp G.D.{   1X1X1X1X1X1X1X1X1X1X1X1X1X1X1X1X",
"1X1X1X1X1X1X1X1X1X1X1X1X1X1X1X1X  U ).~.5.9   1X  V.,X[.0.0. X,X,XoXw.9.j.,X,X:X+Xq L (./.h # 1X1X1X1X1X1X1X1X1X1X1X1X1X1X1X1X1X",
"1X1X1X1X1X1X1X1X1X1X1X1X1X1X1X1X1X; I (.^.,.s     N.,X$Xw.9.j.,X,X-Xp.9.i.;X,XOX;   L _.T.9   1X1X1X1X1X1X1X1X1X1X1X1X1X1X1X1X1X",
"1X1X1X1X1X1X1X1X1X1X1X1X1X1X1X1X1X  0 `.`.^.1.L x K N.;Xi.9.p.-X,X,Xj.9.w.$XN.E +.>.J.(.P.9   1X1X1X1X1X1X1X1X1X1X1X1X1X1X1X1X1X",
"1X1X1X1X1X1X1X1X1X1X1X1X1X1X1X1X1X  9 m./.`.!.D.,., F OXy.e.e.C.+X+Xf.Z Z M.K $ <.<.G.).L.s $ 1X1X1X1X1X1X1X1X1X1X1X1X1X1X1X1X1X",
"1X1X1X1X1X1X1X1X1X1X1X1X1X1X1X1X1X    $ J.^.U @ #   o - * o o = - - = o o = .       U /.L.8.x   1X1X1X1X1X1X1X1X1X1X1X1X1X1X1X1X",
"1X1X1X1X1X1X1X1X1X1X1X1X1X1X1X1X1X.   O J.W.n . k v v v v v v v v v v v v v v v g   U ).L.L.P   1X1X1X1X1X1X1X1X1X1X1X1X1X1X1X1X",
"1X1X1X1X1X1X1X1X1X1X1X1X1X1X1X1X1X    O 1.U.n $ [ O.X.X. .X.X.X.X. .X.X.X.X.X...a h S.W.K.{ a   1X1X1X1X1X1X1X1X1X1X1X1X1X1X1X1X",
"1X1X1X1X1X1X1X1X1X1X1X1X1X1X1X1X1X  . , ` 6.P X ~ ( / ( / / / / / / / / / ( / ~ . ` ^.K.4.,   1X1X1X1X1X1X1X1X1X1X1X1X1X1X1X1X1X",
"1X1X1X1X1X1X1X1X1X1X1X1X1X1X1X1X1X  , ~ % z x X ^ ( ( ( ( ( ( ( / ( ) ( ( ( / ^ @ x 5.,.2     1X1X1X1X1X1X1X1X1X1X1X1X1X1X1X1X1X",
"1X1X1X1X1X1X1X1X1X1X1X1X1X1X1X1X1X  4 X.m 1 X $ ..| [ -.:.-.;.=.( ..;.;.-.[ / ~ @ X % %     1X1X1X1X1X1X1X1X1X1X1X1X1X1X1X1X1X1X",
"1X1X1X1X1X1X1X1X1X1X1X1X1X1X1X1X1X  3 ;.} k g c =.} } :.:.:.3.-.( =.3.:.:.[ / / y t y 4 + 1X1X1X1X1X1X1X1X1X1X1X1X1X1X1X1X1X1X1X",
"1X1X1X1X1X1X1X1X1X1X1X1X1X1X1X1X1X  3 ;.) | 3.3.:.[ } :.3.:.:.=.(  .3.:.:.} / / | ( ( ~ @ 1X1X1X1X1X1X1X1X1X1X1X1X1X1X1X1X1X1X1X",
"1X1X1X1X1X1X1X1X1X1X1X1X1X1X1X1X1X  3 -.) | 3.3.:.| ) :.:.:.3.-.( X.3.:.:.} / ) ;.| ( ~ @ 1X1X1X1X1X1X1X1X1X1X1X1X1X1X1X1X1X1X1X",
"1X1X1X1X1X1X1X1X1X1X1X1X1X1X1X1X1X  3 -.| | :.:.;.| | :.3.:.:.-.( X.3.:.:.} / ) ;.| / ~ $ 1X1X1X1X1X1X1X1X1X1X1X1X1X1X1X1X1X1X1X",
"1X1X1X1X1X1X1X1X1X1X1X1X1X1X1X1X1X  3 -.) | :.:.:.| ) :.:.:.:.-.(  .3.:.:.} / ) ;.| / ~ @ 1X1X1X1X1X1X1X1X1X1X1X1X1X1X1X1X1X1X1X",
"1X1X1X1X1X1X1X1X1X1X1X1X1X1X1X1X1X  3 -.[ | :.:.;.| ) ;.:.:.:.=.(  .3.:.:.} / ) ;.| / ~ @ 1X1X1X1X1X1X1X1X1X1X1X1X1X1X1X1X1X1X1X",
"1X1X1X1X1X1X1X1X1X1X1X1X1X1X1X1X1X  3 -.[ | :.:.:.} | :.:.:.:.;.) X.3.:.:.} / ( ;.| / ~ @ 1X1X1X1X1X1X1X1X1X1X1X1X1X1X1X1X1X1X1X",
"1X1X1X1X1X1X1X1X1X1X1X1X1X1X1X1X1X  3 -.[ | :.:.:.| ) :.:.3.:.=.(  .3.:.:.} / ) ;.| ( ~ @ 1X1X1X1X1X1X1X1X1X1X1X1X1X1X1X1X1X1X1X",
"1X1X1X1X1X1X1X1X1X1X1X1X1X1X1X1X1X  3 ;...} X.:.;.| | ;.:.:.:.;.(  .3.3.:.} / ) ;.| / ~ @ 1X1X1X1X1X1X1X1X1X1X1X1X1X1X1X1X1X1X1X",
"1X1X1X1X1X1X1X1X1X1X1X1X1X1X1X1X1X  3 -.:.| ) :.:.} ) :.3.:.3.=.) X.3.:.;.) / } =.| / ~ @ 1X1X1X1X1X1X1X1X1X1X1X1X1X1X1X1X1X1X1X",
"1X1X1X1X1X1X1X1X1X1X1X1X1X1X1X1X1X  3 -.:.| ) :.:.| | :.:.:.:.-.(  .:.;.} / } ;.| ( ( b @ 1X1X1X1X1X1X1X1X1X1X1X1X1X1X1X1X1X1X1X",
"1X1X1X1X1X1X1X1X1X1X1X1X1X1X1X1X1X1X, g o.| [ :.:.| | :.:.3.:.=.(  .3.;.) / | ;.) ( l 1 1X1X1X1X1X1X1X1X1X1X1X1X1X1X1X1X1X1X1X1X",
"1X1X1X1X1X1X1X1X1X1X1X1X1X1X1X1X1X1X1X. ^ [ [ :.:.| ) :.:.:.:.=.( X.3.:.) / )  .( ( j   1X1X1X1X1X1X1X1X1X1X1X1X1X1X1X1X1X1X1X1X",
"1X1X1X1X1X1X1X1X1X1X1X1X1X1X1X1X1X1X1X. l / [ ;.:.} [ :.:.:.:.=./  .:.=.) / / / ( ( k   1X1X1X1X1X1X1X1X1X1X1X1X1X1X1X1X1X1X1X1X",
"1X1X1X1X1X1X1X1X1X1X1X1X1X1X1X1X1X1X1XX m ( ( [ =.| ) :.:.:.=.) /  . .) ( ( / / / / j   1X1X1X1X1X1X1X1X1X1X1X1X1X1X1X1X1X1X1X1X",
"1X1X1X1X1X1X1X1X1X1X1X1X1X1X1X1X1X1X1X. 1 j ( ( ) ( ( [ [ [ [ / / ) ) / / / ( ( / y % 1X1X1X1X1X1X1X1X1X1X1X1X1X1X1X1X1X1X1X1X1X",
"1X1X1X1X1X1X1X1X1X1X1X1X1X1X1X1X1X1X1X1X  1 g j / ( ( ( / / / ( ( ( ( ( ( ( / j y %   1X1X1X1X1X1X1X1X1X1X1X1X1X1X1X1X1X1X1X1X1X",
"1X1X1X1X1X1X1X1X1X1X1X1X1X1X1X1X1X1X1X1X1X.   X j b ~ m m ~ b b b b b b b b b ,     1X1X1X1X1X1X1X1X1X1X1X1X1X1X1X1X1X1X1X1X1X1X",
"1X1X1X1X1X1X1X1X1X1X1X1X1X1X1X1X1X1X1X1X1X1X1X1XX X . @ . . O o X @ @ @ X X X 1X1X1X1X1X1X1X1X1X1X1X1X1X1X1X1X1X1X1X1X1X1X1X1X1X",
"1X1X1X1X1X1X1X1X1X1X1X1X1X1X1X1X1X1X1X1X1X1X1X1X1Xw G W @.Y C B C S S V 1X1X1X1X1X1X1X1X1X1X1X1X1X1X1X1X1X1X1X1X1X1X1X1X1X1X1X1X",
"1X1X1X1X1X1X1X1X1X1X1X1X1X1X1X1X1X1X1X1X1X1X1X1X1Xk.j.v.z.v.h.h.d.h.h.h.1X1X1X1X1X1X1X1X1X1X1X1X1X1X1X1X1X1X1X1X1X1X1X1X1X1X1X1X",
"1X1X1X1X1X1X1X1X1X1X1X1X1X1X1X1X1X1X1X1X1X1X1X1X1X1Xc.c.c.c.]. X}.[.f.f.1X1X1X1X1X1X1X1X1X1X1X1X1X1X1X1X1X1X1X1X1X1X1X1X1X1X1X1X",
"1X1X1X1X1X1X1X1X1X1X1X1X1X1X1X1X1X1X1X1X1X1X1X1X1X1Xc.y.D e V.<X,X=Xw ; 1X1X1X1X1X1X1X1X1X1X1X1X1X1X1X1X1X1X1X1X1X1X1X1X1X1X1X1X",
"1X1X1X1X1X1X1X1X1X1X1X1X1X1X1X1X1X1X1X1X1X1X1X1X1X1X- - q T OX+X>X=X6   1X1X1X1X1X1X1X1X1X1X1X1X1X1X1X1X1X1X1X1X1X1X1X1X1X1X1X1X",
"1X1X1X1X1X1X1X1X1X1X1X1X1X1X1X1X1X1X1X1X1X1X1X1X1X  = 1 G OX+XOXOXV.;   1X1X1X1X1X1X1X1X1X1X1X1X1X1X1X1X1X1X1X1X1X1X1X1X1X1X1X1X",
"1X1X1X1X1X1X1X1X1X1X1X1X1X1X1X1X1X1X1X1X1X1X1X1X  ; + K OX*X*XT O O     1X1X1X1X1X1X1X1X1X1X1X1X1X1X1X1X1X1X1X1X1X1X1X1X1X1X1X1X",
"1X1X1X1X1X1X1X1X1X1X1X1X1X1X1X1X1X1X1X1X1X1X1X  R b.- ; q q q -   1X1X1X1X1X1X1X1X1X1X1X1X1X1X1X1X1X1X1X1X1X1X1X1X1X1X1X1X1X1X1X",
"1X1X1X1X1X1X1X1X1X1X1X1X1X1X1X1X1X1X1X1X1X1X1X  K Q +           1X1X1X1X1X1X1X1X1X1X1X1X1X1X1X1X1X1X1X1X1X1X1X1X1X1X1X1X1X1X1X1X",
"1X1X1X1X1X1X1X1X1X1X1X1X1X1X1X1X1X1X1X1X1X1X1X          1X1X1X1X1X1X1X1X1X1X1X1X1X1X1X1X1X1X1X1X1X1X1X1X1X1X1X1X1X1X1X1X1X1X1X1X"
};
