/* XPM */
static char *xpm_[] = {
/* columns rows colors chars-per-pixel */
"62 64 202 2 ",
"   c #010101",
".  c #0A0605",
"X  c #0A0905",
"o  c #0B0B0A",
"O  c #02020A",
"+  c #130E0A",
"@  c #110D02",
"#  c #16120E",
"$  c #050811",
"%  c #070816",
"&  c #0E1018",
"*  c #131416",
"=  c #1C1D1C",
"-  c #181716",
";  c #251A0E",
":  c #261D03",
">  c #251A14",
",  c #261B14",
"<  c #290A0F",
"1  c #342804",
"2  c #36261D",
"3  c #382819",
"4  c #0F1232",
"5  c #12163A",
"6  c #232424",
"7  c #2C2C2C",
"8  c #2F2922",
"9  c #362B23",
"0  c #39332B",
"q  c #343333",
"w  c #38383A",
"e  c #2F2F32",
"r  c #4F3C05",
"t  c #46301C",
"y  c #473528",
"u  c #5B3C23",
"i  c #563B22",
"p  c #48372C",
"a  c #5C442D",
"s  c #57483B",
"d  c #6B4729",
"f  c #69482A",
"g  c #734D2D",
"h  c #6C4E34",
"j  c #634737",
"k  c #6E5034",
"l  c #755339",
"z  c #704F33",
"x  c #1E2244",
"c  c #272947",
"v  c #393C5A",
"b  c #3C3D4F",
"n  c #2D2F6C",
"m  c #474746",
"M  c #5A4D42",
"N  c #585858",
"B  c #414351",
"V  c #765743",
"C  c #675A4E",
"Z  c #7A6957",
"A  c #575865",
"S  c #5F6161",
"D  c #676867",
"F  c gray48",
"G  c #756E6B",
"H  c #9D2A3D",
"J  c #A42A3E",
"K  c #826307",
"L  c #875A34",
"P  c #905F37",
"I  c #966339",
"U  c #99663B",
"Y  c #9C693E",
"T  c #86603F",
"R  c #A63042",
"E  c #825D48",
"W  c #876049",
"Q  c #9E6B40",
"!  c #946842",
"~  c #846E5A",
"^  c #966C53",
"/  c #986D54",
"(  c #9C775E",
")  c #A16D42",
"_  c #A57246",
"`  c #A87448",
"'  c #AD794C",
"]  c #A57449",
"[  c #B07B4E",
"{  c #AA7B56",
"}  c #B37E51",
"|  c #897863",
" . c #AD7E62",
".. c #B07E62",
"X. c #B75655",
"o. c #C36665",
"O. c #BC9016",
"+. c #C8980B",
"@. c #D9A50C",
"#. c #F3B90D",
"$. c #E9B10D",
"%. c #B68153",
"&. c #B98556",
"*. c #BC8758",
"=. c #BF8A5B",
"-. c #9C8770",
";. c #B9896B",
":. c #BD9679",
">. c #AC8975",
",. c #C08B5C",
"<. c #CB9473",
"1. c #DB9D7A",
"2. c #D09977",
"3. c #D8A17E",
"4. c #E2A37E",
"5. c #262C83",
"6. c #323887",
"7. c #2B3297",
"8. c #2D3498",
"9. c #353C9C",
"0. c #353B98",
"q. c #3A419E",
"w. c #3C42A0",
"e. c #494D89",
"r. c #535790",
"t. c #5C6096",
"y. c #474DA5",
"u. c #4D53A8",
"i. c #545AAC",
"p. c #5B60A9",
"a. c #5F64B0",
"s. c #676BA6",
"d. c #6369B3",
"f. c #656BB4",
"g. c #6C71B8",
"h. c #797DBD",
"j. c #7377B8",
"k. c #7276AF",
"l. c #666992",
"z. c #8A749A",
"x. c #7F83BA",
"c. c #7E82C1",
"v. c #828282",
"b. c #9B9B9C",
"n. c #BAA286",
"m. c #BDA488",
"M. c #9E9EA5",
"N. c #9691B9",
"B. c #8286BE",
"V. c #A9AAA9",
"C. c #BDBDBD",
"Z. c gray70",
"A. c #A5A6BD",
"S. c #AF95A7",
"D. c #D69A88",
"F. c #C4AA8D",
"G. c #D7A382",
"H. c #D8BB9B",
"J. c #CCB192",
"K. c #EBA983",
"L. c #E8A680",
"P. c #F3B58E",
"I. c #E3B497",
"U. c #F3B993",
"Y. c #F4BB98",
"T. c #C0B8BD",
"R. c #DEC09F",
"E. c #F6C49E",
"W. c #E3C5A3",
"Q. c #EAC9A6",
"!. c #F9CAA3",
"~. c #F7CAA7",
"^. c #FBD3AD",
"/. c #FCDBB5",
"(. c #FFDFB8",
"). c #FAD6B1",
"_. c #FFE2BB",
"`. c #868AC4",
"'. c #9799C7",
"]. c #8C90C7",
"[. c #9EA0C9",
"{. c #A5A7C3",
"}. c #A7AAD4",
"|. c #AEB1D7",
" X c #BABCDC",
".X c #B9BACB",
"XX c #BEC1DF",
"oX c #C7C7C7",
"OX c #C7C8D7",
"+X c #D4D4D4",
"@X c #DCDCDC",
"#X c #D0D0CF",
"$X c #C9CAE3",
"%X c #D6D7EB",
"&X c #E2E2E2",
"*X c #EBE9EA",
"=X c #EBEBF4",
"-X c #E8E9F4",
";X c #F3F4FB",
":X c #FEFEFE",
">X c #F8F6F4",
",X c None",
/* pixels */
",X,X,X,X,X,X,X,X,X,X,X,X,X,X,X,X,X,X,X,X,X,X,X,X,X,X,X,X,X,X,X,X,X,X,X,X,X,X  ,X,X,X,X,X,X,X,X,X,X,X,X,X,X,X,X,X,X,X,X,X,X,X",
",X,X,X,X,X,X,X,X,X,X,X,X,X,X,X,X,X,X,X,X,X,X,X,X,X,X,X,X,X,X,X,X,X                      ,X,X,X,X,X,X,X,X,X,X,X,X,X,X,X,X,X,X",
",X,X,X,X,X,X,X,X,X,X,X,X,X,X,X,X,X,X,X,X,X,X,X,X,X,X,X,X,X,X,X    7 =                       ,X,X,X,X,X,X,X,X,X,X,X,X,X,X,X,X",
",X,X,X,X,X,X,X,X,X,X,X,X,X,X,X,X,X,X,X,X,X,X,X,X,X,X,X,X,X,X  X = 7 =                           ,X,X,X,X,X,X,X,X,X,X,X,X,X,X",
",X,X,X,X,X,X,X,X,X,X,X,X,X,X,X,X,X,X,X,X,X,X,X,X,X,X,X,X    X - w o                             ,X,X,X,X,X,X,X,X,X,X,X,X,X,X",
",X,X,X,X,X,X,X,X,X,X,X,X,X,X,X,X,X,X,X,X,X,X,X,X,X,X,X      e 7 o                                     ,X,X,X,X,X,X,X,X,X,X,X",
",X,X,X,X,X,X,X,X,X,X,X,X,X,X,X,X,X,X,X,X,X,X,X,X,X,X,X  + e m 7                                           ,X,X,X,X,X,X,X,X,X",
",X,X,X,X,X,X,X,X,X,X,X,X,X,X,X,X,X,X,X,X,X,X,X,X,X,X,X  & q m 6     + E / ^ ^ ^ ^ ^ 2                         ,X,X,X,X,X,X,X",
",X,X,X,X,X,X,X,X,X,X,X,X,X,X,X,X,X,X,X,X,X,X,X,X,X,X,X,X    6 -     , 1.P.U.U.U.U.Y.~ 9 O                     ,X,X,X,X,X,X,X",
",X,X,X,X,X,X,X,X,X,X,X,X,X,X,X,X,X,X,X,X,X,X,X,X,X,X,X,X  X r r @   , 3.~.W.H./.).H.H.m.X                 ,X,X,X,X,X,X,X,X,X",
",X,X,X,X,X,X,X,X,X,X,X,X,X,X,X,X,X,X,X,X,X,X,X,X,X,X,X,X  1 $.@.1 + 0 Q./.~ C )./.Z Z F.- ,X,X,X,X,X,X,X,X,X,X,X,X,X,X,X,X,X",
",X,X,X,X,X,X,X,X,X,X,X,X,X,X,X,X,X,X,X,X,X,X,X,X,X,X,X,X  1 +.1 W 3.H././.Q.R././.W.W.).-.,X,X,X,X,X,X,X,X,X,X,X,X,X,X,X,X,X",
",X,X,X,X,X,X,X,X,X,X,X,X,X,X,X,X,X,X,X,X,X,X,X,X,X,X,X,X  1 @.K f >.E.)./.(././.(.(.(.H.p ,X,X,X,X,X,X,X,X,X,X,X,X,X,X,X,X,X",
",X,X,X,X,X,X,X,X,X,X,X,X,X,X,X,X,X,X,X,X,X,X,X,X,X,X,X,X  : #.#.: a K.!././.I.D.D.~.J.Z . ,X,X,X,X,X,X,X,X,X,X,X,X,X,X,X,X,X",
",X,X,X,X,X,X,X,X,X,X,X,X,X,X,X,X,X,X,X,X,X,X,X,X,X,X,X,X,X,X,XO.: j K.K.!.~.o.R R >.M . ,X,X,X,X,X,X,X,X,X,X,X,X,X,X,X,X,X,X",
",X,X,X,X,X,X,X,X,X,X,X,X,X,X,X,X,X,X,X,X,X,X,X,X,X,X,X,X,X,X% n & j K.L.4.4.X.H H < . O       ,X,X,X,X,X,X,X,X,X,X,X,X,X,X,X",
",X,X,X,X,X,X,X,X,X,X,X,X,X,X,X,X,X,X,X,X,X,X,X,X,X,X,X,XS.OXe.7.6.T.U.<.y 2 < < < G V.V.V.M.c   ,X,X,X,X,X,X,X,X,X,X,X,X,X,X",
",X,X,X,X,X,X,X,X,X,X,X,X,X,X,X,X,X,X,X,X,X,X,X,X,X,X,Xz.N.;X`.8.q.XXQ.D.c B S S S #X:X:X:X:Xv   ,X,X,X,X,X,X,X,X,X,X,X,X,X,X",
",X,X,X,X,X,X,X,X,X,X,X,X,X,X,X,X,X,X= w A $X:X:Xh.7.9.|.*X:XXX0.7.`.>X*Xe.l.C.C.C.C.+X:X:X;Xv O ,X,X,X,X,X,X,X,X,X,X,X,X,X,X",
",X,X,X,X,X,X,X,X,X,X,X,X,X,X,X,X,Xo V.=Xg.y. X:X$Xq.7.x.:X:X-Xu.7.i.;X*Xe . o X . O q {.{.[.c   ,X,X,X,X,X,X,X,X,X,X,X,X,X,X",
",X,X,X,X,X,X,X,X,X,X,X,X,X,X,X  O c OX:X%Xu.0.A b.s.6.y.%X:X:X`.8.9. X:XoXw   ,X,X    O O % O   ,X,X,X,X,X,X,X,X,X,X,X,X,X,X",
",X,X,X,X,X,X,X,X,X,X,X,X,X,X  8 0 % t. XoXb 4   x.|.0.7.'.:X:X$X9.8.h.:X:XZ.D X ,X  , Z V >     ,X,X,X,X,X,X,X,X,X,X,X,X,X,X",
",X,X,X,X,X,X,X,X,X,X,X,X,X,X  C H.| % c b       -.-Xy.8.a.;X:X=Xi.8.u.-X:X:XZ.  ,X  p ^.L.y   ,X,X,X,X,X,X,X,X,X,X,X,X,X,X,X",
",X,X,X,X,X,X,X,X,X,X,X,X,X,X  M W.Q.( 2 . ,X,X  l.:Xj.8.w.$X:X:X`.7.9. X:X:X+XN ,Xo M Q.1.y   ,X,X,X,X,X,X,X,X,X,X,X,X,X,X,X",
",X,X,X,X,X,X,X,X,X,X,X,X,X,X,Xo 0 W.^.3.V   ,X  v.:X[.8.8.}.:X:X|.8.7.].:X:X>XoX- >.Q.J.9 ,X,X,X,X,X,X,X,X,X,X,X,X,X,X,X,X,X",
",X,X,X,X,X,X,X,X,X,X,X,X,X,X,X,X* s H.!.;.j .   v.:X%Xw.8.g.:X:X%Xy.7.d.;X:XM.- O n.).;.. ,X,X,X,X,X,X,X,X,X,X,X,X,X,X,X,X,X",
",X,X,X,X,X,X,X,X,X,X,X,X,X,X,X,X,X. F._.^.G.s p C V.-Xu.8.u.=X:X;Xd.8.y.%XV.G Z ~ H.!.} . ,X,X,X,X,X,X,X,X,X,X,X,X,X,X,X,X,X",
",X,X,X,X,X,X,X,X,X,X,X,X,X,X,X,X,XX -.W./.^.H.2.y 7 #Xp.5.6..X@X@Xs.5.6.A.q 0 n.F.Q.!.;.> ,X,X,X,X,X,X,X,X,X,X,X,X,X,X,X,X,X",
",X,X,X,X,X,X,X,X,X,X,X,X,X,X,X,X,X,X. Z /.;., - . O = * $ $ - = = * $ $ - X     . n.!.4.,.- ,X,X,X,X,X,X,X,X,X,X,X,X,X,X,X,X",
",X,X,X,X,X,X,X,X,X,X,X,X,X,X,X,X,X,X  Z ^.... y k k h z k k h h h k k k k k z y . n.!.4.1.>   ,X,X,X,X,X,X,X,X,X,X,X,X,X,X,X",
",X,X,X,X,X,X,X,X,X,X,X,X,X,X,X,X,X,X  V Y...X L [ [ [ [ [ [ [ [ [ [ [ [ [ [ ! 3 Z I.U.<.V # ,X,X,X,X,X,X,X,X,X,X,X,X,X,X,X,X",
",X,X,X,X,X,X,X,X,X,X,X,X,X,X,X,X,X,X  y ....X d U I I I I I I I I I I I U U d X F.P.1.E   ,X,X,X,X,X,X,X,X,X,X,X,X,X,X,X,X,X",
",X,X,X,X,X,X,X,X,X,X,X,X,X,X,X,X,X,X  X 2 W X g Y U I U Y Y Y Y U U Y Y Y Y d . ^ <.E @   ,X,X,X,X,X,X,X,X,X,X,X,X,X,X,X,X,X",
",X,X,X,X,X,X,X,X,X,X,X,X,X,X,X,X,X,X  a h o   T ,.%.U %.*.=.*.&.Q _ *.*.*._ d . X + ; t   ,X,X,X,X,X,X,X,X,X,X,X,X,X,X,X,X,X",
",X,X,X,X,X,X,X,X,X,X,X,X,X,X,X,X,X,X  k _ u z { ,.%.U %.,.,.=.*.Q ` ,.,.,._ L u u u d g X ,X,X,X,X,X,X,X,X,X,X,X,X,X,X,X,X,X",
",X,X,X,X,X,X,X,X,X,X,X,X,X,X,X,X,X,X  k %.Y &.,.=.%.U %.,.,.,.=.Y ` ,.,.,.) I U ` Q Y g X ,X,X,X,X,X,X,X,X,X,X,X,X,X,X,X,X,X",
",X,X,X,X,X,X,X,X,X,X,X,X,X,X,X,X,X,X  k %.U %.=.=.%.I %.,.=.,.*.Q ` =.,.,._ I Y *._ I g X ,X,X,X,X,X,X,X,X,X,X,X,X,X,X,X,X,X",
",X,X,X,X,X,X,X,X,X,X,X,X,X,X,X,X,X,X  k %.U %.=.=.%.U %.,.=.=.*.Q _ =.=.,.) I Y *._ U g X ,X,X,X,X,X,X,X,X,X,X,X,X,X,X,X,X,X",
",X,X,X,X,X,X,X,X,X,X,X,X,X,X,X,X,X,X  k %.U %.,.=.[ U %.,.=.,.*.Q ` =.=.,._ I Y &._ U g   ,X,X,X,X,X,X,X,X,X,X,X,X,X,X,X,X,X",
",X,X,X,X,X,X,X,X,X,X,X,X,X,X,X,X,X,X  k %.U %.,.=.%.U %.,.=.,.=.) _ ,.=.=._ I Y &._ U g X ,X,X,X,X,X,X,X,X,X,X,X,X,X,X,X,X,X",
",X,X,X,X,X,X,X,X,X,X,X,X,X,X,X,X,X,X  k &.U %.=.,.%.I %.,.,.,.*.Q ` ,.,.=._ I Y &._ U g X ,X,X,X,X,X,X,X,X,X,X,X,X,X,X,X,X,X",
",X,X,X,X,X,X,X,X,X,X,X,X,X,X,X,X,X,X  k &.U %.=.;.[ U %.,.=.,.*.Y ` =.,.=._ I Y &._ U g X ,X,X,X,X,X,X,X,X,X,X,X,X,X,X,X,X,X",
",X,X,X,X,X,X,X,X,X,X,X,X,X,X,X,X,X,XX k *.` Y %.=.%.U %.,.=.,.*.) ` =.,.,._ I Y *._ I g X ,X,X,X,X,X,X,X,X,X,X,X,X,X,X,X,X,X",
",X,X,X,X,X,X,X,X,X,X,X,X,X,X,X,X,X,X  k ,.%.I %.=.%.U %.,.=.=.*.Y _ ,.*.' Y Y ' [ Q U g X ,X,X,X,X,X,X,X,X,X,X,X,X,X,X,X,X,X",
",X,X,X,X,X,X,X,X,X,X,X,X,X,X,X,X,X,XX a %.%.U %.=.%.U %.=.=.=.=.Q ` =.=.Q I ) *.Q U L u X ,X,X,X,X,X,X,X,X,X,X,X,X,X,X,X,X,X",
",X,X,X,X,X,X,X,X,X,X,X,X,X,X,X,X,X,X,Xo 9 %.I ' =.[ U %.=.=.=.=.) _ =.*.) I ) &.Y U u   ,X,X,X,X,X,X,X,X,X,X,X,X,X,X,X,X,X,X",
",X,X,X,X,X,X,X,X,X,X,X,X,X,X,X,X,X,X,X  , U I %.=.%.U %.=.=.=.=.Q ` ,.=.) I U Y U U i   ,X,X,X,X,X,X,X,X,X,X,X,X,X,X,X,X,X,X",
",X,X,X,X,X,X,X,X,X,X,X,X,X,X,X,X,X,X,XX ; I I Y %.%.U &.,.=.=.` U ` &._ U I U I I U i . ,X,X,X,X,X,X,X,X,X,X,X,X,X,X,X,X,X,X",
",X,X,X,X,X,X,X,X,X,X,X,X,X,X,X,X,X,X,X,X; f P I ) _ U _ ' ' ` Y I ) _ I I I U U I d 3   ,X,X,X,X,X,X,X,X,X,X,X,X,X,X,X,X,X,X",
",X,X,X,X,X,X,X,X,X,X,X,X,X,X,X,X,X,X,X,X,XX d L L U U U I I I I I I I I U U I g g ;   ,X,X,X,X,X,X,X,X,X,X,X,X,X,X,X,X,X,X,X",
",X,X,X,X,X,X,X,X,X,X,X,X,X,X,X,X,X,X,X,X,X,Xo + t P I P P I P I I I I P I I I 3 X X ,X,X,X,X,X,X,X,X,X,X,X,X,X,X,X,X,X,X,X,X",
",X,X,X,X,X,X,X,X,X,X,X,X,X,X,X,X,X,X,X,X,X,X,X,X@ ; ; ; ; ; ; > ; ; ; ; ; ; ; + ,X,X,X,X,X,X,X,X,X,X,X,X,X,X,X,X,X,X,X,X,X,X",
",X,X,X,X,X,X,X,X,X,X,X,X,X,X,X,X,X,X,X,X,X,X,X,Xm 7 M M q 6 o & e x x 5 5 4   ,X,X,X,X,X,X,X,X,X,X,X,X,X,X,X,X,X,X,X,X,X,X,X",
",X,X,X,X,X,X,X,X,X,X,X,X,X,X,X,X,X,X,X,X,X,X,X|.'.N.].N.k.k.,X,Xa.a.a.a.d.d.,X,X,X,X,X,X,X,X,X,X,X,X,X,X,X,X,X,X,X,X,X,X,X,X",
",X,X,X,X,X,X,X,X,X,X,X,X,X,X,X,X,X,X,X,X,X,X,X`.g.j.j.c.x.].,X,Xk.h.c.`.].B.,X,X,X,X,X,X,X,X,X,X,X,X,X,X,X,X,X,X,X,X,X,X,X,X",
",X,X,X,X,X,X,X,X,X,X,X,X,X,X,X,X,X,X,X,X,X,X,Xi.s.`.c.r.s.,X,X,Xw b.:X:X&XN ,X,X,X,X,X,X,X,X,X,X,X,X,X,X,X,X,X,X,X,X,X,X,X,X",
",X,X,X,X,X,X,X,X,X,X,X,X,X,X,X,X,X,X,X,X,X,X,X- S >X+XD e ,X,X,X  v.:X&X+Xv.= ,X,X,X,X,X,X,X,X,X,X,X,X,X,X,X,X,X,X,X,X,X,X,X",
",X,X,X,X,X,X,X,X,X,X,X,X,X,X,X,X,X,X,X,X,X,X,X  m &X+X+Xm X ,X,X  D +XoX+X+Xv.X ,X,X,X,X,X,X,X,X,X,X,X,X,X,X,X,X,X,X,X,X,X,X",
",X,X,X,X,X,X,X,X,X,X,X,X,X,X,X,X,X,X,X,X,X,X,X  N ;X*X@XC.N   ,X  X * 6 oX&X@Xv.. ,X,X,X,X,X,X,X,X,X,X,X,X,X,X,X,X,X,X,X,X,X",
",X,X,X,X,X,X,X,X,X,X,X,X,X,X,X,X,X,X,X,X,X,X,X  - m N @X;X#XF o ,X,X,X,Xq w w 7 . ,X,X,X,X,X,X,X,X,X,X,X,X,X,X,X,X,X,X,X,X,X",
",X,X,X,X,X,X,X,X,X,X,X,X,X,X,X,X,X,X,X,X,X,X,X,X    X D F v.D X ,X,X,X,X          ,X,X,X,X,X,X,X,X,X,X,X,X,X,X,X,X,X,X,X,X,X",
",X,X,X,X,X,X,X,X,X,X,X,X,X,X,X,X,X,X,X,X,X,X,X,X,X,X,X          ,X,X,X,X,X,X,X,X,X,X,X,X,X,X,X,X,X,X,X,X,X,X,X,X,X,X,X,X,X,X",
",X,X,X,X,X,X,X,X,X,X,X,X,X,X,X,X,X,X,X,X,X,X,X,X,X,X,X,X,X,X,X,X,X,X,X,X,X,X,X,X,X,X,X,X,X,X,X,X,X,X,X,X,X,X,X,X,X,X,X,X,X,X",
",X,X,X,X,X,X,X,X,X,X,X,X,X,X,X,X,X,X,X,X,X,X,X,X,X,X,X,X,X,X,X,X,X,X,X,X,X,X,X,X,X,X,X,X,X,X,X,X,X,X,X,X,X,X,X,X,X,X,X,X,X,X"
};
