/* XPM */
static char *xpm_[] = {
/* columns rows colors chars-per-pixel */
"64 66 211 2 ",
"   c #010101",
".  c #090704",
"X  c #070806",
"o  c #0C0A06",
"O  c #0C0C0B",
"+  c #04060A",
"@  c #110E09",
"#  c #110B07",
"$  c #0F100F",
"%  c #14110B",
"&  c #1C130D",
"*  c #080915",
"=  c #0F1011",
"-  c #141414",
";  c #1B1612",
":  c #1B1C1C",
">  c #1B1A17",
",  c #261B0F",
"<  c #291D11",
"1  c #221B15",
"2  c #1C201F",
"3  c #2C2202",
"4  c #3A2C04",
"5  c #342804",
"6  c #2C231B",
"7  c #28231B",
"8  c #34261A",
"9  c #161823",
"0  c #1F2120",
"q  c #222323",
"w  c #2B2C2B",
"e  c #282727",
"r  c #3E2E23",
"t  c #332D26",
"y  c #343534",
"u  c #3C3C3B",
"i  c #373836",
"p  c #2B2C30",
"a  c #493804",
"s  c #571620",
"d  c #443324",
"f  c #46382D",
"g  c #5C3E24",
"h  c #533A27",
"j  c #443B32",
"k  c #483C35",
"l  c #583F30",
"z  c #512D33",
"x  c #6C3131",
"c  c #564104",
"v  c #494138",
"b  c #564739",
"n  c #694628",
"m  c #714C2C",
"M  c #684B3A",
"N  c #74533D",
"B  c #765638",
"V  c #1A1E5B",
"C  c #1E214B",
"Z  c #2B2F58",
"A  c #262847",
"S  c #1D2364",
"D  c #282D69",
"F  c #3E426E",
"G  c #3D4173",
"H  c #444443",
"J  c #4A4A4A",
"K  c #4A4845",
"L  c #494A58",
"P  c #5C5C5C",
"I  c #545353",
"U  c #515254",
"Y  c #675A4A",
"T  c #755441",
"R  c #7A5743",
"E  c #726454",
"W  c #796956",
"Q  c #6E6050",
"!  c #4F5060",
"~  c #5E617F",
"^  c #6C6D73",
"/  c #777675",
"(  c #746A6A",
")  c #835632",
"_  c #855833",
"`  c #8B5E38",
"'  c #8D613C",
"]  c #966339",
"[  c #99663C",
"{  c #9D693F",
"}  c #916037",
"|  c #A82D41",
" . c #AA3747",
".. c #8C644C",
"X. c #8C6542",
"o. c #946C47",
"O. c #9F6C41",
"+. c #91674F",
"@. c #986F56",
"#. c #916E54",
"$. c #A16E43",
"%. c #A57145",
"&. c #A87347",
"*. c #A3764E",
"=. c #AA764A",
"-. c #AD794C",
";. c #A7794F",
":. c #B17C4F",
">. c #A17359",
",. c #B27E51",
"<. c #8F7E68",
"1. c #987F68",
"2. c #AF7E61",
"3. c #B07E61",
"4. c #CC796F",
"5. c #CC9B0B",
"6. c #D4A10C",
"7. c #E3AC0D",
"8. c #EAB20D",
"9. c #B68253",
"0. c #B98456",
"q. c #BC8758",
"w. c #BF8A5B",
"e. c #9D8871",
"r. c #B78668",
"t. c #B9977A",
"y. c #A99278",
"u. c #C08B5C",
"i. c #C88F6E",
"p. c #C79676",
"a. c #DB9D7B",
"s. c #C08F70",
"d. c #E4A37E",
"f. c #2B3296",
"g. c #2D3499",
"h. c #353C9C",
"j. c #393F9E",
"k. c #313385",
"l. c #383FA0",
"z. c #3C429F",
"x. c #3C43A0",
"c. c #4B508E",
"v. c #716D90",
"b. c #444AA3",
"n. c #4B52A9",
"m. c #5358AA",
"M. c #5D63AE",
"N. c #5E64B2",
"B. c #666BB4",
"V. c #6C71B7",
"C. c #757ABC",
"Z. c #797CA8",
"A. c #7C80BF",
"S. c #878787",
"D. c #9B9B9B",
"F. c #929291",
"G. c #8D8B8F",
"H. c #B29C81",
"J. c #BAA286",
"K. c #9395B3",
"L. c #AAABAB",
"P. c #A7A6A6",
"I. c #B8B7B7",
"U. c #A4A5B3",
"Y. c #A492AE",
"T. c #D89283",
"R. c #C4AB8D",
"E. c #C0A78A",
"W. c #D9A987",
"Q. c #D6B898",
"!. c #C9AF91",
"~. c #EBAB85",
"^. c #E6A782",
"/. c #F1B48D",
"(. c #E8BA9B",
"). c #F4BB94",
"_. c #F0AF88",
"`. c #D0BABF",
"'. c #F7C39C",
"]. c #DEC2A1",
"[. c #E3C5A3",
"{. c #F5CDAA",
"}. c #F7CCA5",
"|. c #F3D2AD",
" X c #FBD3AD",
".X c #FBD6B0",
"XX c #FDDBB5",
"oX c #FFDEB8",
"OX c #F4D4B0",
"+X c #EFD0AD",
"@X c #FFE0B9",
"#X c #8589C4",
"$X c #9699C8",
"%X c #B8B9CC",
"&X c #A6A9D4",
"*X c #B1B4D9",
"=X c #BFC1E1",
"-X c #C2C2C2",
";X c #CACACA",
":X c #C7C7D6",
">X c #DCDCDD",
",X c #C7C8E3",
"<X c #D9DAED",
"1X c #CED0E7",
"2X c #EBECF6",
"3X c #E3E4F4",
"4X c #F4F4F5",
"5X c #F3F3FA",
"6X c #FEFEFE",
"7X c #EAEAED",
"8X c None",
/* pixels */
"8X8X8X8X8X8X8X8X8X8X8X8X8X8X8X8X8X8X8X+                   + 8X8X8X8X8X8X8X8X8X8X8X8X8X8X8X8X8X8X8X8X8X8X8X8X8X8X8X8X8X8X8X8X8X8X",
"8X8X8X8X8X8X8X8X8X8X8X8X8X8X8X8X8XO X                   e e   - 8X8X8X8X8X8X8X8X8X8X8X8X8X8X8X8X8X8X8X8X8X8X8X8X8X8X8X8X8X8X8X8X",
"8X8X8X8X8X8X8X8X8X8X8X8X8X8X8X- : X                     0 w : - q 8X8X8X8X8X8X8X8X8X8X8X8X8X8X8X8X8X8X8X8X8X8X8X8X8X8X8X8X8X8X8X",
"8X8X8X8X8X8X8X8X8X8X8X8X8X8Xq                             = k : O O - 8X8X8X8X8X8X8X8X8X8X8X8X8X8X8X8X8X8X8X8X8X8X8X8X8X8X8X8X8X",
"8X8X8X8X8X8X8X8X8X8X8X8XX                                   O w y . X $ 8X8X8X8X8X8X8X8X8X8X8X8X8X8X8X8X8X8X8X8X8X8X8X8X8X8X8X8X",
"8X8X8X8X8X8X8X8X8X: O O                                       w H p =   J 8X8X8X8X8X8X8X8X8X8X8X8X8X8X8X8X8X8X8X8X8X8X8X8X8X8X8X",
"8X8X8X8X8X8X8X> - O                     b ............M .     w H i - X I 8X8X8X8X8X8X8X8X8X8X8X8X8X8X8X8X8X8X8X8X8X8X8X8X8X8X8X",
"8X8X8X8X8X8X8X: : O                 O r r./././././.~.i.@     : e + O H 8X8X8X8X8X8X8X8X8X8X8X8X8X8X8X8X8X8X8X8X8X8X8X8X8X8X8X8X",
"8X8X8X8X8X8X8X8X8Xw                 i [.[. XXX X[.|.'.i.%   # 4 4 . - 8X8X8X8X8X8X8X8X8X8X8X8X8X8X8X8X8X8X8X8X8X8X8X8X8X8X8X8X8X",
"8X8X8X8X8X8X8X8X8X8X8X8X8X8X8X8X8XO k Q.i t.@X[.j y.oXQ.1   4 7.7.5 w 8X8X8X8X8X8X8X8X8X8X8X8X8X8X8X8X8X8X8X8X8X8X8X8X8X8X8X8X8X",
"8X8X8X8X8X8X8X8X8X8X8X8X8X8X8X8X8Xv R.OXE.[.@X|.E.[.oXOXE.r.B a 5.4 q 8X8X8X8X8X8X8X8X8X8X8X8X8X8X8X8X8X8X8X8X8X8X8X8X8X8X8X8X8X",
"8X8X8X8X8X8X8X8X8X8X8X8X8X8X8X8X8Xt e.XX@X@XXX@XoXoX.X.X Xr.B a 6.4 : 8X8X8X8X8X8X8X8X8X8X8X8X8X8X8X8X8X8X8X8X8X8X8X8X8X8X8X8X8X",
"8X8X8X8X8X8X8X8X8X8X8X8X8X8X8X8X8X$ k !..X{.(.(.{.@XXX}.~.h 4 8.5.3 9 8X8X8X8X8X8X8X8X8X8X8X8X8X8X8X8X8X8X8X8X8X8X8X8X8X8X8X8X8X",
"8X8X8X8X8X8X8X8X8X8X8X8X8X8X8X8X8X8XH > J.4. . .T..X}.~.d.z 5 5.3                   y 8X8X8X8X8X8X8X8X8X8X8X8X8X8X8X8X8X8X8X8X8X",
"8X8X8X8X8X8X8X8X8X8X8X8X8X8X8X8X8X8X8XI q x  .| 4./.~.^.d.h + 3 C v.D.D.! G D.D.D.D./ > - : : i -X8X8X8X8X8X8X8X8X8X8X8X8X8X8X8X",
"8X8X8X8X8X8X8X8X8X8X8X8X8X8X8X8X8X8X8X8XJ z s s x R ..d.d.( ^ Z f.V.2X6XA.N.5X6X6X6X;XP P P P L ^ 8X8X8X8X8X8X8X8X8X8X8X8X8X8X8X",
"8X8X8X8X8X8X8X8X8X8X8X8X8X8X8X8X8X8X8X8X-XY > : - + e a.T.Y.5XB.f.j.1X6X,Xz.:X6X6X6X6X6X6X6X6XK.* i 8X8X8X8X8X8X8X8X8X8X8X8X8X8X",
"8X8X8X8X8X8X8X8X8X8X8X8X8X8X8X8X8X8X8X- 9 v.>X>X:Xc.k.v.`.,X6X*Xg.g.#X6X2XM.A.4X4X4X4X4X6X6X8XZ.* w 8X8X8X8X8X8X8X8X8X8X8X8X8X8X",
"8X8X8X8X8X8X8X8X8X8X8X8X8X8X8X8X8Xe J F.L.n.&X6X6X#Xg.l.*X6X6X1Xb.f.M.2X4X! 9 A u u i J -X3X8XM.* e 8X8X8X8X8X8X8X8X8X8X8X8X8X8X",
"8X8X8X8X8X8X8X8X8X8X8X8X8X8X8X8XJ p ! 6X2XV.z.A.-X*Xx.f.B.5X6X5XB.f.z.1X6XS.q X J I y   A Z A C   w 8X8X8X8X8X8X8X8X8X8X8X8X8X8X",
"8X8X8X8X8X8X8X8X8X8X8X8X8X8X8Xw @ * G <X6X:Xz.C $ L.C.f.h.=X6X6X*Xh.g.A.6X6XG.i -X2XP.  - ; @   $ y 8X8X8X8X8X8X8X8X8X8X8X8X8X8X",
"8X8X8X8X8X8X8X8X8X8X8X8X8X8X8X; e.K 0 Z K.! X     I.&Xh.g.#X6X6X<Xn.f.m.3X6X4X;Xy F.P.o H.^.+.@ ^ 8X8X8X8X8X8X8X8X8X8X8X8X8X8X8X",
"8X8X8X8X8X8X8X8X8X8X8X8X8X8X8X@ Q.XX#.> * ^ P./ O L.3Xb.f.m.2X6X4XB.f.h.,X6X6X7X0 S.L.. R.).>.= 8X8X8X8X8X8X8X8X8X8X8X8X8X8X8X8X",
"8X8X8X8X8X8X8X8X8X8X8X8X8X8X8Xy E R. Xp.b / -X-XO L.6XV.f.h.,X6X6X&Xg.g.$X6X6X5X-X<.G.Y Q.t...H 8X8X8X8X8X8X8X8X8X8X8X8X8X8X8X8X",
"8X8X8X8X8X8X8X8X8X8X8X8X8X8X8X8Xq E ]. X^.d J D.O L.6X$Xf.g.$X6X6X1Xx.f.B.5X6X7XL.q Y oX{.f y 8X8X8X8X8X8X8X8X8X8X8X8X8X8X8X8X8X",
"8X8X8X8X8X8X8X8X8X8X8X8X8X8X8X8X8Xu v OX Xp.R O + P.6X,Xl.f.B.6X6X2Xm.f.x.3X6XI.-   W .X^.r 0 8X8X8X8X8X8X8X8X8X8X8X8X8X8X8X8X8X",
"8X8X8X8X8X8X8X8X8X8X8X8X8X8X8X8X8X: j .XoX XW.1.@.k S.2Xn.g.n.2X6X6XC.f.h.=XF.K J.R.[. X^.r = 8X8X8X8X8X8X8X8X8X8X8X8X8X8X8X8X8X",
"8X8X8X8X8X8X8X8X8X8X8X8X8X8X8X8X8Xy v <.[..X!.y.@.; u D.G S D G.P.P.v.V S v.v O E W H. X^.T j u 8X8X8X8X8X8X8X8X8X8X8X8X8X8X8X8X",
"8X8X8X8X8X8X8X8X8X8X8X8X8X8X8X8X8X8X8XO R.'.T   . . . O O o o o O O o o X O X X     Q .X~.^.T O 8X8X8X8X8X8X8X8X8X8X8X8X8X8X8X8X",
"8X8X8X8X8X8X8X8X8X8X8X8X8X8X8X8X8X8X8XO R.'.T o ` o.o.o.o.o.o.o.o.o.o.o.o.o.o.o.B @ W .X~.^.T $ 8X8X8X8X8X8X8X8X8X8X8X8X8X8X8X8X",
"8X8X8X8X8X8X8X8X8X8X8X8X8X8X8X8X8X8X8Xo r./.R # X.&.&.&.&.&.&.&.&.&.&.&.&.&.&.{ 6 Y Q./.d.N k u 8X8X8X8X8X8X8X8X8X8X8X8X8X8X8X8X",
"8X8X8X8X8X8X8X8X8X8X8X8X8X8X8X8X8X8X8XX b ,.R # _ [ ] ] ] ] ] ] ] ] ] ] ] ] ] _ X ..).d.>.& : 8X8X8X8X8X8X8X8X8X8X8X8X8X8X8X8X8X",
"8X8X8X8X8X8X8X8X8X8X8X8X8X8X8X8X8X8X8X  o l b O ' %.O.[ $.$.$.$.$.[ [ $.$.$.{ _ # l ,.@.1   q 8X8X8X8X8X8X8X8X8X8X8X8X8X8X8X8X8X",
"8X8X8X8X8X8X8X8X8X8X8X8X8X8X8X8X8X8X8X@ X.d   % ;.w.;.[ 0.w.w.w.w.{ %.w.w.w.-._ #   o # h , e 8X8X8X8X8X8X8X8X8X8X8X8X8X8X8X8X8X",
"8X8X8X8X8X8X8X8X8X8X8X8X8X8X8X8X8X8X8X% =.' m ' 0.w.-.[ 0.w.w.w.w.{ &.w.w.w.-.} m n n n _ < 7 8X8X8X8X8X8X8X8X8X8X8X8X8X8X8X8X8X",
"8X8X8X8X8X8X8X8X8X8X8X8X8X8X8X8X8X8X8X% *.=.{ w.w.w.-.[ 0.w.w.w.q.{ &.w.w.w.=.] ] &.%.[ } < 9 8X8X8X8X8X8X8X8X8X8X8X8X8X8X8X8X8X",
"8X8X8X8X8X8X8X8X8X8X8X8X8X8X8X8X8X8X8X% *.=.[ q.w.u.-.[ 0.w.w.w.w.$.%.w.w.u.-.] ] 9.:.] } , 0 8X8X8X8X8X8X8X8X8X8X8X8X8X8X8X8X8X",
"8X8X8X8X8X8X8X8X8X8X8X8X8X8X8X8X8X8X8X% *.=.{ q.w.u.-.[ 0.w.w.w.w.{ %.w.w.w.-.] ] 9.:.] } 7 0 8X8X8X8X8X8X8X8X8X8X8X8X8X8X8X8X8X",
"8X8X8X8X8X8X8X8X8X8X8X8X8X8X8X8X8X8X8X% *.=.[ w.w.u.-.{ 0.w.w.w.w.{ %.w.w.w.-.] ] 9.:.] ] < 0 8X8X8X8X8X8X8X8X8X8X8X8X8X8X8X8X8X",
"8X8X8X8X8X8X8X8X8X8X8X8X8X8X8X8X8X8X8X% *.=.O.w.w.u.-.[ w.w.w.w.w.{ &.w.w.w.=.] ] 9.:.] ] < 0 8X8X8X8X8X8X8X8X8X8X8X8X8X8X8X8X8X",
"8X8X8X8X8X8X8X8X8X8X8X8X8X8X8X8X8X8X8X% ;.&.{ q.w.w.-.{ q.w.w.w.w.$.%.w.w.w.-.] ] 9.9.] } < 7 8X8X8X8X8X8X8X8X8X8X8X8X8X8X8X8X8X",
"8X8X8X8X8X8X8X8X8X8X8X8X8X8X8X8X8X8X8X% *.=.{ q.w.w.-.[ 0.w.w.w.w.{ %.w.w.w.-.] ] 9.9.] ] 1 q 8X8X8X8X8X8X8X8X8X8X8X8X8X8X8X8X8X",
"8X8X8X8X8X8X8X8X8X8X8X8X8X8X8X8X8X8X8X% *.9.%.%.w.w.-.[ 0.w.w.w.w.{ %.w.w.w.-.] } 9.-.] ] 1 w 8X8X8X8X8X8X8X8X8X8X8X8X8X8X8X8X8X",
"8X8X8X8X8X8X8X8X8X8X8X8X8X8X8X8X8X8X8X% *.u.-.[ 0.w.-.{ 0.w.w.w.w.$.%.w.w.9.%.] %.9.&.] ' 3 e 8X8X8X8X8X8X8X8X8X8X8X8X8X8X8X8X8X",
"8X8X8X8X8X8X8X8X8X8X8X8X8X8X8X8X8X8X8X; o.u.,.{ 0.w.-.[ q.w.w.w.w.{ %.w.w.%.] { 0.&.] ] _ 8 u 8X8X8X8X8X8X8X8X8X8X8X8X8X8X8X8X8X",
"8X8X8X8X8X8X8X8X8X8X8X8X8X8X8X8X8X8X8X8X6 B ,.[ 0.w.-.[ 0.w.w.w.w.O.%.w.w.%.] { q.%.[ _ , I 8X8X8X8X8X8X8X8X8X8X8X8X8X8X8X8X8X8X",
"8X8X8X8X8X8X8X8X8X8X8X8X8X8X8X8X8X8X8X8X  g $.[ 0.w.-.[ 0.w.w.w.w.$.%.w.w.%.] [ $.{ [ B # u 8X8X8X8X8X8X8X8X8X8X8X8X8X8X8X8X8X8X",
"8X8X8X8X8X8X8X8X8X8X8X8X8X8X8X8X8X8X8X8X  h [ [ -.w.-.[ q.w.w.w.9.] %.q.9.O.] ] ] ] ] _ # u 8X8X8X8X8X8X8X8X8X8X8X8X8X8X8X8X8X8X",
"8X8X8X8X8X8X8X8X8X8X8X8X8X8X8X8X8X8X8X8XO h } ] ] -.=.[ 9.9.9.9.{ ] O.9.[ ] ] ] ] ] } m > u 8X8X8X8X8X8X8X8X8X8X8X8X8X8X8X8X8X8X",
"8X8X8X8X8X8X8X8X8X8X8X8X8X8X8X8X8X8X8X8X8Xt 8 } ] ] [ ] ] ] [ [ ] ] ] ] [ ] [ ] ] ] g : ( 8X8X8X8X8X8X8X8X8X8X8X8X8X8X8X8X8X8X8X",
"8X8X8X8X8X8X8X8X8X8X8X8X8X8X8X8X8X8X8X8X8X8Xe 8 5 m [ [ ] ] [ [ [ [ } ] [ [ ] [ n , 6 H 8X8X8X8X8X8X8X8X8X8X8X8X8X8X8X8X8X8X8X8X",
"8X8X8X8X8X8X8X8X8X8X8X8X8X8X8X8X8X8X8X8X8X8X8X0 e h g g g g n g g g n h g n h n r 2 y 8X8X8X8X8X8X8X8X8X8X8X8X8X8X8X8X8X8X8X8X8X",
"8X8X8X8X8X8X8X8X8X8X8X8X8X8X8X8X8X8X8X8X8X8X8X8X8X0   % @ X X X . X   % % X . $ i 8X8X8X8X8X8X8X8X8X8X8X8X8X8X8X8X8X8X8X8X8X8X8X",
"8X8X8X8X8X8X8X8X8X8X8X8X8X8X8X8X8X8X8X8X8X8X8X8X8X  1 2.r.6 : 8X8X@ 8 r.r.8 - 8X8X8X8X8X8X8X8X8X8X8X8X8X8X8X8X8X8X8X8X8X8X8X8X8X",
"8X8X8X8X8X8X8X8X8X8X8X8X8X8X8X8X8X8X8X8X8X8X8X8X8X  6 a.d.r   8X8X  r d.d.8   8X8X8X8X8X8X8X8X8X8X8X8X8X8X8X8X8X8X8X8X8X8X8X8X8X",
"8X8X8X8X8X8X8X8X8X8X8X8X8X8X8X8X8X8X8X8X8X8X8X8X8XX 6 a.d.r O 8X8X0 f i.a.b 7 8X8X8X8X8X8X8X8X8X8X8X8X8X8X8X8X8X8X8X8X8X8X8X8X8X",
"8X8X8X8X8X8X8X8X8X8X8X8X8X8X8X8X8X8X8X8X8X8X8X8X8X- t (.^.r X 8X8X8X8X7 r.d.N X 8X8X8X8X8X8X8X8X8X8X8X8X8X8X8X8X8X8X8X8X8X8X8X8X",
"8X8X8X8X8X8X8X8X8X8X8X8X8X8X8X8X8X8X8X8X8X8X8X8X2 Q J.{.d.r X 8X8X8X8XX t./.N X 8X8X8X8X8X8X8X8X8X8X8X8X8X8X8X8X8X8X8X8X8X8X8X8X",
"8X8X8X8X8X8X8X8X8X8X8X8X8X8X8X8X8X8X8X8X8X8X8XH b H.XX).^.r   8X8X8Xi W ].).T   8X8X8X8X8X8X8X8X8X8X8X8X8X8X8X8X8X8X8X8X8X8X8X8X",
"8X8X8X8X8X8X8X8X8X8X8X8X8X8X8X8X8X8X8X8X8X8Xu 7 J.XX(.>.@.7 X 8X8Xu b |. X/.T X 8X8X8X8X8X8X8X8X8X8X8X8X8X8X8X8X8X8X8X8X8X8X8X8X",
"8X8X8X8X8X8X8X8X8X8X8X8X8X8X8X8X8X8X8X8X8X> 7 y.].W.#.O X   $ 8X= W +X XW.a.M X 8X8X8X8X8X8X8X8X8X8X8X8X8X8X8X8X8X8X8X8X8X8X8X8X",
"8X8X8X8X8X8X8X8X8X8X8X8X8X8X8X8X8X8X8X8X8X> X > : ; t 8X8X8X8Xw e.Q. XW.f < % X 8X8X8X8X8X8X8X8X8X8X8X8X8X8X8X8X8X8X8X8X8X8X8X8X",
"8X8X8X8X8X8X8X8X8X8X8X8X8X8X8X8X8X8X8X8X8X8Xu y p i K 8X8X8X8XX v Y Y l K e w w 8X8X8X8X8X8X8X8X8X8X8X8X8X8X8X8X8X8X8X8X8X8X8X8X",
"8X8X8X8X8X8X8X8X8X8X8X8X8X8X8X8X8X8X8X8X8X8X8X8X8X8X8X8X8X8X8X: - $ = : 8X8X8X8X8X8X8X8X8X8X8X8X8X8X8X8X8X8X8X8X8X8X8X8X8X8X8X8X",
"8X8X8X8X8X8X8X8X8X8X8X8X8X8X8X8X8X8X8X8X8X8X8X8X8X8X8X8X8X8X8X8X8X8X8X8X8X8X8X8X8X8X8X8X8X8X8X8X8X8X8X8X8X8X8X8X8X8X8X8X8X8X8X8X",
"8X8X8X8X8X8X8X8X8X8X8X8X8X8X8X8X8X8X8X8X8X8X8X8X8X8X8X8X8X8X8X8X8X8X8X8X8X8X8X8X8X8X8X8X8X8X8X8X8X8X8X8X8X8X8X8X8X8X8X8X8X8X8X8X"
};
