/* XPM */
static char *xpm_[] = {
/* columns rows colors chars-per-pixel */
"64 64 197 2 ",
"   c #010101",
".  c #070805",
"X  c #0A0A06",
"o  c #04040B",
"O  c #0C0C0B",
"+  c #080706",
"@  c #110E0B",
"#  c #14100B",
"$  c #1C140C",
"%  c #171202",
"&  c #030411",
"*  c #060816",
"=  c #141414",
"-  c gray10",
";  c #191112",
":  c #231A05",
">  c #271C13",
",  c #312B01",
"<  c #312503",
"1  c #2C2115",
"2  c #3F2B19",
"3  c #362517",
"4  c #353001",
"5  c #101127",
"6  c #201E2C",
"7  c #242424",
"8  c #2D2D2C",
"9  c #3A2C23",
"0  c #3C342B",
"q  c #323232",
"w  c #3C3C3C",
"e  c #4A3905",
"r  c #422E1B",
"t  c #4A331D",
"y  c #453B31",
"u  c #4D372A",
"i  c #534303",
"p  c #6A5105",
"a  c #6C5306",
"s  c #4B4236",
"d  c #564B3E",
"f  c #6A4729",
"g  c #6C482A",
"h  c #724D2D",
"j  c #6A4D37",
"k  c #795433",
"l  c #745132",
"z  c #191C4E",
"x  c #1C215F",
"c  c #363743",
"v  c #282B53",
"b  c #2D2F4A",
"n  c #1F256B",
"m  c #393D63",
"M  c #3A3F7C",
"N  c #272C6E",
"B  c #3E416C",
"V  c #3E437E",
"C  c #454545",
"Z  c #484847",
"A  c #524B46",
"S  c #575757",
"D  c #58585C",
"F  c #4F5057",
"G  c #675A4A",
"H  c #6F6050",
"J  c #796957",
"K  c #4E506A",
"L  c #525468",
"P  c #414579",
"I  c #5B5D76",
"U  c #656565",
"Y  c #686868",
"T  c #717171",
"R  c #76767C",
"E  c #6C6C73",
"W  c #826407",
"Q  c #8F6D06",
"!  c #906E06",
"~  c #987303",
"^  c #8D5E36",
"/  c #825632",
"(  c #905F37",
")  c #97643A",
"_  c #99663B",
"`  c #9C693E",
"'  c #87613F",
"]  c #805B46",
"[  c #8C6643",
"{  c #8D6649",
"}  c #9F6C41",
"|  c #886A55",
" . c #A16D42",
".. c #A57146",
"X. c #AA7649",
"o. c #AD794C",
"O. c #B17C4F",
"+. c #A2765B",
"@. c #B27E51",
"#. c #8A7661",
"$. c #BF920A",
"%. c #B5953E",
"&. c #C3950A",
"*. c #D5A60A",
"=. c #EFBC0B",
"-. c #F4BB0C",
";. c #E5AF0C",
":. c #FFC50D",
">. c #FFC80D",
",. c #EFDB02",
"<. c #FED208",
"1. c #FFD907",
"2. c #EFC00A",
"3. c #EFE200",
"4. c #FFEB02",
"5. c #F8E303",
"6. c #B58153",
"7. c #B88355",
"8. c #BC8758",
"9. c #BE8A5B",
"0. c #99856E",
"q. c #93896E",
"w. c #AD967D",
"e. c #B49478",
"r. c #C08B5C",
"t. c #C89979",
"y. c #DD9F7A",
"u. c #E1A27D",
"i. c #2B3297",
"p. c #2D3499",
"a. c #353C9C",
"s. c #2B3187",
"d. c #3A419F",
"f. c #3940A0",
"g. c #42478D",
"h. c #4D529A",
"j. c #575A84",
"k. c #70728A",
"l. c #444AA3",
"z. c #4047A1",
"x. c #4C52A9",
"c. c #5359AA",
"v. c #5F64B2",
"b. c #5C61AD",
"n. c #666BB5",
"m. c #696EB6",
"M. c #6368B4",
"N. c #6D72B9",
"B. c #6C71B7",
"V. c #7176BB",
"C. c #757ABD",
"Z. c #7F83BD",
"A. c #7E82C1",
"S. c #8B8989",
"D. c #959595",
"F. c #999897",
"G. c #B39D82",
"H. c #BAA186",
"J. c #8D90B4",
"K. c #9FA0B7",
"L. c #AAAAAD",
"P. c #B2B2B2",
"I. c #BABAB9",
"U. c #CBAB8C",
"Y. c #D6BA9A",
"T. c #D0AA8A",
"R. c #E6A984",
"E. c #FBBF97",
"W. c #F4CBA6",
"Q. c #FAD2AC",
"!. c #FCDAB4",
"~. c #FDD7B1",
"^. c #E3C4AD",
"/. c #FFE0B9",
"(. c #878BC5",
"). c #989BCA",
"_. c #9EA1CF",
"`. c #A9ACD6",
"'. c #B3B5D6",
"]. c #A0A2C1",
"[. c #C7C7C9",
"{. c #C9C9D3",
"}. c #D7D7D8",
"|. c #E4CEC4",
" X c #C2C4E2",
".X c #CACCE5",
"XX c #C6C8E3",
"oX c #D6D7EB",
"OX c #DFE0EF",
"+X c gray91",
"@X c #EAEBF6",
"#X c #E7E8F5",
"$X c #F4F4FB",
"%X c #FEFEFE",
"&X c #F3F3F4",
"*X c #EFF0F7",
"=X c None",
/* pixels */
"=X=X=X=X=X=X=X=X=X=X=X=X=X=X=X=X=X=X=X=X                        =X=X=X=X=X=X=X=X=X=X=X=X=X=X=X=X=X=X=X=X=X=X=X=X=X=X=X=X=X=X=X=X",
"=X=X=X=X=X=X=X=X=X=X=X=X=X=X=X=X=X=X                      = q =   =X=X=X=X=X=X=X=X=X=X=X=X=X=X=X=X=X=X=X=X=X=X=X=X=X=X=X=X=X=X=X",
"=X=X=X=X=X=X=X=X=X=X=X=X=X=X=X=X                          O 8 7 =   =X=X=X=X=X=X=X=X=X=X=X=X=X=X=X=X=X=X=X=X=X=X=X=X=X=X=X=X=X=X",
"=X=X=X=X=X=X=X=X=X=X=X=X=X=X=X                                8 q X .   =X=X=X=X=X=X=X=X=X=X=X=X=X=X=X=X=X=X=X=X=X=X=X=X=X=X=X=X",
"=X=X=X=X=X=X=X=X=X=X=X=X=X                                    . = w -     =X=X=X=X=X=X=X=X=X=X=X=X=X=X=X=X=X=X=X=X=X=X=X=X=X=X=X",
"=X=X=X=X=X=X=X=X=X=X=X                                          O C w 7     =X=X=X=X=X=X=X=X=X=X=X=X=X=X=X=X=X=X=X=X=X=X=X=X=X=X",
"=X=X=X=X=X=X=X=X=X                                              O C w 8     =X=X=X=X=X=X=X=X=X=X=X=X=X=X=X=X=X=X=X=X=X=X=X=X=X=X",
"=X=X=X=X=X=X=X=X=X                                              o q =     =X=X=X=X=X=X=X=X=X=X=X=X=X=X=X=X=X=X=X=X=X=X=X=X=X=X=X",
"=X=X=X=X=X=X=X=X=X=X=X                                          : %     =X=X=X=X=X=X=X=X=X=X=X=X=X=X=X=X=X=X=X=X=X=X=X=X=X=X=X=X",
"=X=X=X=X=X=X=X=X=X=X=X=X=X=X=X=X  < p p p i                 : p &.e   =X=X=X=X=X=X=X=X=X=X=X=X=X=X=X=X=X=X=X=X=X=X=X=X=X=X=X=X=X",
"=X=X=X=X=X=X=X=X=X=X=X=X=X=X=X=X  W >.>.>.*.4 4 , , < , , , W :.:.e   =X=X=X=X=X=X=X=X=X=X=X=X=X=X=X=X=X=X=X=X=X=X=X=X=X=X=X=X=X",
"=X=X=X=X=X=X=X=X=X=X=X=X=X=X=X=X  W >.-.:.<.5.3.3.=.=.,.,.=.-.:.:.e   =X=X=X=X=X=X=X=X=X=X=X=X=X=X=X=X=X=X=X=X=X=X=X=X=X=X=X=X=X",
"=X=X=X=X=X=X=X=X=X=X=X=X=X=X=X=X  p ;.:.:.<.4.4.4.<.1.4.5.:.:.-.*.4   =X=X=X=X=X=X=X=X=X=X=X=X=X=X=X=X=X=X=X=X=X=X=X=X=X=X=X=X=X",
"=X=X=X=X=X=X=X=X=X=X=X=X=X=X=X=X=X. p -.-.:.>.>.>.>.>.:.:.:.:.&.% +                   =X=X=X=X=X=X=X=X=X=X=X=X=X=X=X=X=X=X=X=X=X",
"=X=X=X=X=X=X=X=X=X=X=X=X=X=X=X=X=X=X: e *.>.>.:.:.:.:.>.<.:.~ e z I F.D.m m D.D.D.F.Y           =X=X=X=X=X=X=X=X=X=X=X=X=X=X=X=X",
"=X=X=X=X=X=X=X=X=X=X=X=X=X=X=X=X=X=X=XX a ! Q Q Q Q ! ! ! 6.q.v s.C.$X%XA.M.$X%X%X%X[.S S S S c =X=X=X=X=X=X=X=X=X=X=X=X=X=X=X=X",
"=X=X=X=X=X=X=X=X=X=X=X=X=X=X=X=X=X=X=X=X  O = = # o o o o j.$XM.p.d..X%X Xf. X%X%X%X%X%X%X%X%X).&   =X=X=X=X=X=X=X=X=X=X=X=X=X=X",
"=X=X=X=X=X=X=X=X=X=X=X=X=X=X=X=X=X=X=X  X R }.}.[.d.s.s.Z.'.%X`.p.p.(.%X@Xb.Z.$X%X%X&X&X%X%X%X].&   =X=X=X=X=X=X=X=X=X=X=X=X=X=X",
"=X=X=X=X=X=X=X=X=X=X=X=X=X=X=X=X=X=X8 S.K.h.`.%X%X(.p.f.'.%X%XoXz.p.b.&X%XK 5 C C C Z F {.$X$XK.&   =X=X=X=X=X=X=X=X=X=X=X=X=X=X",
"=X=X=X=X=X=X=X=X=X=X=X=X=X=X=X=X=X& F %X*XB.f.(.[.'.f.i.B.&X%X&Xv.p.d.oX%XR 1           b m m v o   =X=X=X=X=X=X=X=X=X=X=X=X=X=X",
"=X=X=X=X=X=X=X=X=X=X=X=X=X=X=X  X * B oX%X{.g.n = L.V.i.d. X%X%X'.p.p.J.%X%XS.- =X=X=X  @ $ X       =X=X=X=X=X=X=X=X=X=X=X=X=X=X",
"=X=X=X=X=X=X=X=X=X=X=X=X=X=X=X@ 0.s 6 m ).S o     P.`.a.p.(.%X%XoXx.i.c.@X%X&X[.- =X=XO e.T.{   =X=X=X=X=X=X=X=X=X=X=X=X=X=X=X=X",
"=X=X=X=X=X=X=X=X=X=X=X=X=X=X=X@ Y.~.| ; 5 * =X  . P.OXz.p.c.@X%X$Xn.i.a.XX%X%X+X7 =X=X+ U.E.+.  =X=X=X=X=X=X=X=X=X=X=X=X=X=X=X=X",
"=X=X=X=X=X=X=X=X=X=X=X=X=X=X=XO J U.W.e.u > =X=X  P.%XB.i.d.XX%X%X_.p.p.).%X%X&XI.w 0 G Y.t.] . =X=X=X=X=X=X=X=X=X=X=X=X=X=X=X=X",
"=X=X=X=X=X=X=X=X=X=X=X=X=X=X=X=X  H ^.Q.u.u   =X. P.%X).p.p.).%X%X.Xd.p.m.$X%X+XP.7 H !.Q.y   =X=X=X=X=X=X=X=X=X=X=X=X=X=X=X=X=X",
"=X=X=X=X=X=X=X=X=X=X=X=X=X=X=X=X=XO d Q.Q.t.j     L.%XXXa.i.B.%X%X@Xc.p.l.OX%XI.= . J ~.R.9   =X=X=X=X=X=X=X=X=X=X=X=X=X=X=X=X=X",
"=X=X=X=X=X=X=X=X=X=X=X=X=X=X=X=X=X  y !./.Q.T.#.{ A S.@Xx.p.x.#X%X%XC.p.f.XXF.A G.H.Y.~.R.9   =X=X=X=X=X=X=X=X=X=X=X=X=X=X=X=X=X",
"=X=X=X=X=X=X=X=X=X=X=X=X=X=X=X=X=X=X9 q.w.H.w.e.+.> w L.g.n N F.I.P.j.N n k.Z # J #.0.e.+.1   =X=X=X=X=X=X=X=X=X=X=X=X=X=X=X=X=X",
"=X=X=X=X=X=X=X=X=X=X=X=X=X=X=X=X=X=X=X  . X O O X o . X X X . X X X X . O . . . . . . O X . .   =X=X=X=X=X=X=X=X=X=X=X=X=X=X=X=X",
"=X=X=X=X=X=X=X=X=X=X=X=X=X=X=X=X=X=X=X    j [ [ [ [ [ [ [ [ [ [ [ [ { [ { { [ [ [ ' ' [ ' h 1   =X=X=X=X=X=X=X=X=X=X=X=X=X=X=X=X",
"=X=X=X=X=X=X=X=X=X=X=X=X=X=X=X=X=X=X=X  . k o.X.X.X.X.X.X.X.X.X.X.X.X.X.X.X.X.X.X.X.X.X...` r   =X=X=X=X=X=X=X=X=X=X=X=X=X=X=X=X",
"=X=X=X=X=X=X=X=X=X=X=X=X=X=X=X=X=X=X=X  . g _ ) ) ) ) ) ) ) ) ) ) ) ) ) ) ) ) ) ) ) ) ) ) _ 2   =X=X=X=X=X=X=X=X=X=X=X=X=X=X=X=X",
"=X=X=X=X=X=X=X=X=X=X=X=X=X=X=X=X=X=X=X=X. l ` _ } } } ` _ _  .` } } _ _ } `  .` ) ) _ ) ) _ 2   =X=X=X=X=X=X=X=X=X=X=X=X=X=X=X=X",
"=X=X=X=X=X=X=X=X=X=X=X=X=X=X=X=X=X=X=X=X. [ O._ 6.9.9.O._ 6.9.9.9.9...} 8.9.9.o.) ) ) ) ) _ 2   =X=X=X=X=X=X=X=X=X=X=X=X=X=X=X=X",
"=X=X=X=X=X=X=X=X=X=X=X=X=X=X=X=X=X=X=X=X. [ 6._ 7.9.9.6._ 6.r.9.9.9...} 9.9.9.6.) ) ) ) ) _ 2   =X=X=X=X=X=X=X=X=X=X=X=X=X=X=X=X",
"=X=X=X=X=X=X=X=X=X=X=X=X=X=X=X=X=X=X=X=X. [ O._ 7.9.9.6.) 6.r.r.9.9...} 9.9.9.6.) ) } .._ _ 2   =X=X=X=X=X=X=X=X=X=X=X=X=X=X=X=X",
"=X=X=X=X=X=X=X=X=X=X=X=X=X=X=X=X=X=X=X=X. [ 6._ 7.9.9.6._ 6.r.9.9.9...} 9.9.9.o._ ) o.6._ _ 2   =X=X=X=X=X=X=X=X=X=X=X=X=X=X=X=X",
"=X=X=X=X=X=X=X=X=X=X=X=X=X=X=X=X=X=X=X=XX [ O._ 7.9.9.6._ 6.r.r.9.9...} 8.9.9.6.) ) o.7._ _ 2   =X=X=X=X=X=X=X=X=X=X=X=X=X=X=X=X",
"=X=X=X=X=X=X=X=X=X=X=X=X=X=X=X=X=X=X=X=X. [ O._ 7.9.9.6.[ 6.9.9.9.9...} 9.9.9.6.) ) X.7._ _ 2   =X=X=X=X=X=X=X=X=X=X=X=X=X=X=X=X",
"=X=X=X=X=X=X=X=X=X=X=X=X=X=X=X=X=X=X=X=X. [ O._ 7.9.9.6._ 8.r.9.9.9...} 9.9.9.O._ ) o.7._ ) 2   =X=X=X=X=X=X=X=X=X=X=X=X=X=X=X=X",
"=X=X=X=X=X=X=X=X=X=X=X=X=X=X=X=X=X=X=X=X. [ @._ 7.9.9.6._ 6.9.9.9.9.X.} 9.9.9.@.) ) o.6._ ) 2   =X=X=X=X=X=X=X=X=X=X=X=X=X=X=X=X",
"=X=X=X=X=X=X=X=X=X=X=X=X=X=X=X=X=X=X=X=X. [ @._ 7.9.9.6.) 6.9.9.9.9...} 9.9.9.@.) ) o.6._ _ 2   =X=X=X=X=X=X=X=X=X=X=X=X=X=X=X=X",
"=X=X=X=X=X=X=X=X=X=X=X=X=X=X=X=X=X=X=X=XX [ 7. ...6.9.6._ 6.9.9.9.9...} 8.9.9.O.) ) o.8._ _ 2   =X=X=X=X=X=X=X=X=X=X=X=X=X=X=X=X",
"=X=X=X=X=X=X=X=X=X=X=X=X=X=X=X=X=X=X=X=X+ [ r.6.) 6.9.O._ 6.9.9.9.9...} 9.9.8.X.) ..o.o._ ) 2   =X=X=X=X=X=X=X=X=X=X=X=X=X=X=X=X",
"=X=X=X=X=X=X=X=X=X=X=X=X=X=X=X=X=X=X=X=X. [ 9.@._ 6.9.6._ 6.r.9.9.9...} 9.9.o.) _ 6.o.[ _ ) 2   =X=X=X=X=X=X=X=X=X=X=X=X=X=X=X=X",
"=X=X=X=X=X=X=X=X=X=X=X=X=X=X=X=X=X=X=X=X=X1 j 6.) 6.9.6._ 6.r.9.9.9...} 9.9.X.) _ 6.o.) ^ 3 # =X=X=X=X=X=X=X=X=X=X=X=X=X=X=X=X=X",
"=X=X=X=X=X=X=X=X=X=X=X=X=X=X=X=X=X=X=X=X=X  r ..) 6.9.6._ 6.r.9.9.9...} 9.9.o.) _ ..} ) ^ $   =X=X=X=X=X=X=X=X=X=X=X=X=X=X=X=X=X",
"=X=X=X=X=X=X=X=X=X=X=X=X=X=X=X=X=X=X=X=X=X  2 ) ) X.8.6._ 6.r.9.9.8...} 8.6..._ ) ) ) _ ^ $   =X=X=X=X=X=X=X=X=X=X=X=X=X=X=X=X=X",
"=X=X=X=X=X=X=X=X=X=X=X=X=X=X=X=X=X=X=X=X=X  2 ) ) ) X.o._ O.8.8.7. .) } @.} ) ) ) ) _ ) / $   =X=X=X=X=X=X=X=X=X=X=X=X=X=X=X=X=X",
"=X=X=X=X=X=X=X=X=X=X=X=X=X=X=X=X=X=X=X=X=X=X# 1 ^ ) _ _ ) _ _ _ } _ ) _ _ ) ) ) ) ) _ g $ X =X=X=X=X=X=X=X=X=X=X=X=X=X=X=X=X=X=X",
"=X=X=X=X=X=X=X=X=X=X=X=X=X=X=X=X=X=X=X=X=X=X=XX 2 r g ` _ _ _ ) _ _ _ _ _ _ _ _ _ k 2 > . =X=X=X=X=X=X=X=X=X=X=X=X=X=X=X=X=X=X=X",
"=X=X=X=X=X=X=X=X=X=X=X=X=X=X=X=X=X=X=X=X=X=X=X=X    3 f f f f f f f f f f f f f g t     =X=X=X=X=X=X=X=X=X=X=X=X=X=X=X=X=X=X=X=X",
"=X=X=X=X=X=X=X=X=X=X=X=X=X=X=X=X=X=X=X=X=X=X=X=X=X=Xw   . . . o o . . . + X . . . . =X=X=X=X=X=X=X=X=X=X=X=X=X=X=X=X=X=X=X=X=X=X",
"=X=X=X=X=X=X=X=X=X=X=X=X=X=X=X=X=X=X=X=X=X=X=X=X=X=Xh.g.M M V V =X=X  9 e.+.>   =X=X=X=X=X=X=X=X=X=X=X=X=X=X=X=X=X=X=X=X=X=X=X=X",
"=X=X=X=X=X=X=X=X=X=X=X=X=X=X=X=X=X=X=X=X=X=X=X=X=X=XA.A.N.N.V.N.=X=X  s W.u.3   =X=X=X=X=X=X=X=X=X=X=X=X=X=X=X=X=X=X=X=X=X=X=X=X",
"=X=X=X=X=X=X=X=X=X=X=X=X=X=X=X=X=X=X=X=X=X=X=X=X=X=XT D D D D E =X=X  y W.y.3   =X=X=X=X=X=X=X=X=X=X=X=X=X=X=X=X=X=X=X=X=X=X=X=X",
"=X=X=X=X=X=X=X=X=X=X=X=X=X=X=X=X=X=X=X=X=X=X=X=X=X=X            =X=XR S.|.^.S.k.=X=X=X=X=X=X=X=X=X=X=X=X=X=X=X=X=X=X=X=X=X=X=X=X",
"=X=X=X=X=X=X=X=X=X=X=X=X=X=X=X=X=X=X=X=X=X=X=X=X=X    .   .     =X=XV.N.m.N.C.C.=X=X=X=X=X=X=X=X=X=X=X=X=X=X=X=X=X=X=X=X=X=X=X=X",
"=X=X=X=X=X=X=X=X=X=X=X=X=X=X=X=X=X=X=X=X=X=X=X=X=X= Y T T T T U O B N.m.M.n.m.m.=X=X=X=X=X=X=X=X=X=X=X=X=X=X=X=X=X=X=X=X=X=X=X=X",
"=X=X=X=X=X=X=X=X=X=X=X=X=X=X=X=X=X=X=X=X=X=X=X=X  o = = = = = =   c k.I L K K I =X=X=X=X=X=X=X=X=X=X=X=X=X=X=X=X=X=X=X=X=X=X=X=X",
"=X=X=X=X=X=X=X=X=X=X=X=X=X=X=X=X=X=X=X=X=X=X=X=X=X=X=X=X=X=X=X=X=X=X            =X=X=X=X=X=X=X=X=X=X=X=X=X=X=X=X=X=X=X=X=X=X=X=X",
"=X=X=X=X=X=X=X=X=X=X=X=X=X=X=X=X=X=X=X=X=X=X=X=X=X=X=X=X=X=X=X=X=X              =X=X=X=X=X=X=X=X=X=X=X=X=X=X=X=X=X=X=X=X=X=X=X=X",
"=X=X=X=X=X=X=X=X=X=X=X=X=X=X=X=X=X=X=X=X=X=X=X=X=X=X=X=X=X=X=X=X=X= D Y U U U S @ =X=X=X=X=X=X=X=X=X=X=X=X=X=X=X=X=X=X=X=X=X=X=X",
"=X=X=X=X=X=X=X=X=X=X=X=X=X=X=X=X=X=X=X=X=X=X=X=X=X=X=X=X=X=X=X=X  . 7 8 8 8 q 7 . =X=X=X=X=X=X=X=X=X=X=X=X=X=X=X=X=X=X=X=X=X=X=X"
};
