/* XPM */
static char *xpm_[] = {
/* columns rows colors chars-per-pixel */
"64 64 198 2 ",
"   c #010100",
".  c #080705",
"X  c #0B0A06",
"o  c #04040A",
"O  c #0C0C0A",
"+  c #070805",
"@  c #110B07",
"#  c #120E0B",
"$  c #16110B",
"%  c #19130B",
"&  c #030411",
"*  c #060816",
"=  c #141414",
"-  c #1C1411",
";  c gray10",
":  c #1E1A16",
">  c #20170A",
",  c #251C13",
"<  c #291D15",
"1  c #221E19",
"2  c #2F2403",
"3  c #3B2D03",
"4  c #352906",
"5  c #2A231D",
"6  c #36271D",
"7  c #362619",
"8  c #101127",
"9  c #201E2C",
"0  c #242424",
"q  c #2E2E2D",
"w  c #2D2523",
"e  c #382B22",
"r  c #3C342B",
"t  c #3C3C3C",
"y  c #323232",
"u  c #4B331D",
"i  c #4C380C",
"p  c #5C1923",
"a  c #4A352A",
"s  c #563B28",
"d  c #453B31",
"f  c #795E10",
"g  c #4B4237",
"h  c #4C4238",
"j  c #5B4436",
"k  c #6A4729",
"l  c #6D4A2B",
"z  c #644429",
"x  c #754E2D",
"c  c #6A4B3A",
"v  c #755439",
"b  c #1D1F4E",
"n  c #1C215F",
"m  c #292C53",
"M  c #333447",
"N  c #1F256B",
"B  c #393D63",
"V  c #272C6E",
"C  c #3D406A",
"Z  c #454545",
"A  c #474847",
"S  c #544C44",
"D  c #575757",
"F  c #54555C",
"G  c #4F5057",
"H  c #665747",
"J  c #745340",
"K  c #765845",
"L  c #6F6150",
"P  c #796856",
"I  c #414577",
"U  c #56576F",
"Y  c #666769",
"T  c #7A7A7D",
"R  c #7A6365",
"E  c #967208",
"W  c #846407",
"Q  c #835733",
"!  c #895B35",
"~  c #855C39",
"^  c #966339",
"/  c #99663B",
"(  c #9C683E",
")  c #906037",
"_  c #835D48",
"`  c #B74B55",
"'  c #BD585D",
"]  c #8C6643",
"[  c #8A624C",
"{  c #9E6B40",
"}  c #966A44",
"|  c #886B57",
" . c #8C6E5C",
".. c #A16E43",
"X. c #A67246",
"o. c #AB764A",
"O. c #AA794E",
"+. c #A2755B",
"@. c #AB7B5A",
"#. c #B37F51",
"$. c #897560",
"%. c #B88C0A",
"&. c #CE9D0B",
"*. c #EAB20D",
"=. c #B38155",
"-. c #B98556",
";. c #BC8758",
":. c #BE895B",
">. c #99856E",
",. c #BA8567",
"<. c #A58E75",
"1. c #AE967D",
"2. c #B49579",
"3. c #BD8E70",
"4. c #C08B5B",
"5. c #C89577",
"6. c #C68F6E",
"7. c #DEA07C",
"8. c #D0A07F",
"9. c #E3A37E",
"0. c #2B3089",
"q. c #2B3297",
"w. c #2D3499",
"e. c #353C9C",
"r. c #3B419F",
"t. c #3940A0",
"y. c #42478D",
"u. c #51529B",
"i. c #6B6F90",
"p. c #434AA3",
"a. c #4C52A9",
"s. c #5359AA",
"d. c #5F64B2",
"f. c #5C61AD",
"g. c #666BB4",
"h. c #6C71B7",
"j. c #7479BD",
"k. c #7F83BD",
"l. c #7F83C1",
"z. c #8B8B8B",
"x. c #959595",
"c. c #989897",
"v. c #B59D82",
"b. c #BAA286",
"n. c #9A9BA9",
"m. c #9093BF",
"M. c #A592AE",
"N. c #9EA0BF",
"B. c #AAAAAD",
"V. c #B2B2B2",
"C. c #BABAB9",
"Z. c #D39881",
"A. c #C6AC8E",
"S. c #CBAB8C",
"D. c #D7A988",
"F. c #CCB293",
"G. c #D7B898",
"H. c #EBAA84",
"J. c #E6A882",
"K. c #F2B48D",
"L. c #E7BA97",
"P. c #F7BD96",
"I. c #E9AD90",
"U. c #F9C49E",
"Y. c #F2C6A3",
"T. c #F5CAA5",
"R. c #F6CFAB",
"E. c #FACDAA",
"W. c #F3D3AE",
"Q. c #FBD3AD",
"!. c #F7D7B2",
"~. c #FDD6B0",
"^. c #FDDBB5",
"/. c #FFDFB9",
"(. c #E7CAA7",
"). c #878BC5",
"_. c #989BCA",
"`. c #A69EC1",
"'. c #9EA1CF",
"]. c #A9ACD6",
"[. c #B2B4D6",
"{. c #A0A2C1",
"}. c #C1BFDA",
"|. c #C7C7C9",
" X c #C9C9D3",
".X c #D7D7D8",
"XX c #C2C4E2",
"oX c #C9CBE5",
"OX c #D6D7EB",
"+X c #DFE0EF",
"@X c gray91",
"#X c #EAEBF6",
"$X c #E7E8F5",
"%X c #EFF1F9",
"&X c #F4F4FB",
"*X c #FEFEFE",
"=X c #F3F3F4",
"-X c None",
/* pixels */
"-X-X-X-X-X-X-X-X-X-X-X-X-X-X-X-X-X-X-X-X-X-X-X-X-X-X-X-X-X-X-X-X                        -X-X-X-X-X-X-X-X-X-X-X-X-X-X-X-X-X-X-X-X",
"-X-X-X-X-X-X-X-X-X-X-X-X-X-X-X-X-X-X-X-X-X-X-X-X-X-X-X-X-X-X-X  = y O                       -X-X-X-X-X-X-X-X-X-X-X-X-X-X-X-X-X-X",
"-X-X-X-X-X-X-X-X-X-X-X-X-X-X-X-X-X-X-X-X-X-X-X-X-X-X-X-X-X-X  = 0 q O                           -X-X-X-X-X-X-X-X-X-X-X-X-X-X-X-X",
"-X-X-X-X-X-X-X-X-X-X-X-X-X-X-X-X-X-X-X-X-X-X-X-X-X-X-X-X  + O y q                                 -X-X-X-X-X-X-X-X-X-X-X-X-X-X-X",
"-X-X-X-X-X-X-X-X-X-X-X-X-X-X-X-X-X-X-X-X-X-X-X-X-X-X-X    ; M : +                                     -X-X-X-X-X-X-X-X-X-X-X-X-X",
"-X-X-X-X-X-X-X-X-X-X-X-X-X-X-X-X-X-X-X-X-X-X-X-X-X-X    0 t Z O                                           -X-X-X-X-X-X-X-X-X-X-X",
"-X-X-X-X-X-X-X-X-X-X-X-X-X-X-X-X-X-X-X-X-X-X-X-X-X-X    q t Z O       . J [ [ [ [ [ ,                         -X-X-X-X-X-X-X-X-X",
"-X-X-X-X-X-X-X-X-X-X-X-X-X-X-X-X-X-X-X-X-X-X-X-X-X-X-X    = q O     < v D.K.K.K.K.I.c :                       -X-X-X-X-X-X-X-X-X",
"-X-X-X-X-X-X-X-X-X-X-X-X-X-X-X-X-X-X-X-X-X-X-X-X-X-X-X-X    @ >     c K.~.^.^.^.^.^.!.<.+                 -X-X-X-X-X-X-X-X-X-X-X",
"-X-X-X-X-X-X-X-X-X-X-X-X-X-X-X-X-X-X-X-X-X-X-X-X-X-X-X-X-X  3 E     K Q.A.b.!.^.G.v.!.v.+ W f   -X-X-X-X-X-X-X-X-X-X-X-X-X-X-X-X",
"-X-X-X-X-X-X-X-X-X-X-X-X-X-X-X-X-X-X-X-X-X-X-X-X-X-X-X-X-X  3 E   J S.~.v.<.!.^.A.>.(.G.$.f i   -X-X-X-X-X-X-X-X-X-X-X-X-X-X-X-X",
"-X-X-X-X-X-X-X-X-X-X-X-X-X-X-X-X-X-X-X-X-X-X-X-X-X-X-X-X-X  3 %.i ~ 5.T.^./.^.^././.^.^.F.5     -X-X-X-X-X-X-X-X-X-X-X-X-X-X-X-X",
"-X-X-X-X-X-X-X-X-X-X-X-X-X-X-X-X-X-X-X-X-X-X-X-X-X-X-X-X-X  2 &.*.3 s I.Q.^.^.^./.^./.F.1     -X-X-X-X-X-X-X-X-X-X-X-X-X-X-X-X-X",
"-X-X-X-X-X-X-X-X-X-X-X-X-X-X-X-X-X-X-X-X-X                    2 &.4 a H.Q.!.E.T.R.^.!.v.O -X-X-X-X-X-X-X-X-X-X-X-X-X-X-X-X-X-X-X",
"-X-X-X-X-X-X-X-X-X-X-X-X-X-X-X-X          Y x.x.x.x.B C x.c.U b 4   a H.Q.I.` ` ' R.<.1   -X-X-X-X-X-X-X-X-X-X-X-X-X-X-X-X-X-X-X",
"-X-X-X-X-X-X-X-X-X-X-X-X-X-X-X-XM D D D D |.*X*X*X&Xg.l.*X&Xj.0.m Y R H.L. .p p p  .S   -X-X-X-X-X-X-X-X-X-X-X-X-X-X-X-X-X-X-X-X",
"-X-X-X-X-X-X-X-X-X-X-X-X-X-X  & N.*X*X*X*X*X*X*X*XXXr.XX*XoXr.q.g.&XM.Z.5.w & = = = = -X-X-X-X-X-X-X-X-X-X-X-X-X-X-X-X-X-X-X-X-X",
"-X-X-X-X-X-X-X-X-X-X-X-X-X-X  & {.*X*X*X&X*X=X*X&Xk.f.#X*X).w.w.].*X}.`.u.V r.|..X.XT O   -X-X-X-X-X-X-X-X-X-X-X-X-X-X-X-X-X-X-X",
"-X-X-X-X-X-X-X-X-X-X-X-X-X-X  & N.&X&X XG Z Z A Z 8 G *X&Xf.q.p.OX*X*X[.t.w.).*X*X].a.n.z.q -X-X-X-X-X-X-X-X-X-X-X-X-X-X-X-X-X-X",
"-X-X-X-X-X-X-X-X-X-X-X-X-X-X  o m B B M           0 T *XOXr.q.d.%X*X&Xh.w.t.[.|.m.t.h.%X*XF & -X-X-X-X-X-X-X-X-X-X-X-X-X-X-X-X-X",
"-X-X-X-X-X-X-X-X-X-X-X-X-X-X      X - $   -X-X-X= z.*X*Xk.w.e.[.*X*XXXe.q.j.B.= n r.|.*XOXC * O   -X-X-X-X-X-X-X-X-X-X-X-X-X-X-X",
"-X-X-X-X-X-X-X-X-X-X-X-X-X-X-X-X  [ D.<.X -X-X; |.=X*X#Xs.q.a.OX*X*X).w.w.].V.  o o D _.B 9 h >.# -X-X-X-X-X-X-X-X-X-X-X-X-X-X-X",
"-X-X-X-X-X-X-X-X-X-X-X-X-X-X-X-X  +.U.A.. -X-X0 @X*X*XoXe.w.h.&X*X#Xs.w.r.$XV.    -X* * = | !.G.# -X-X-X-X-X-X-X-X-X-X-X-X-X-X-X",
"-X-X-X-X-X-X-X-X-X-X-X-X-X-X-X-X  _ 5.G.H d t C.&X*X*X_.w.w.'.*X*XoXe.w.h.*XV.+ -X-X, j 3.Y.F.P O -X-X-X-X-X-X-X-X-X-X-X-X-X-X-X",
"-X-X-X-X-X-X-X-X-X-X-X-X-X-X-X-X-X  d E.^.L 0 V.@X*X&Xh.q.r.oX*X*X_.w.w._.*XV.+ -X. a 9.Q.(.L   -X-X-X-X-X-X-X-X-X-X-X-X-X-X-X-X",
"-X-X-X-X-X-X-X-X-X-X-X-X-X-X-X-X-X  e H.!.P . = C.*XOXp.w.a.#X*X*Xh.q.e.oX*XB.    c 5.E.!.j O -X-X-X-X-X-X-X-X-X-X-X-X-X-X-X-X-X",
"-X-X-X-X-X-X-X-X-X-X-X-X-X-X-X-X-X  e H.~.G.b.v.D c.XXe.q.j.*X*X$Xa.q.a.#Xz.S [ $.S.E./.!.g   -X-X-X-X-X-X-X-X-X-X-X-X-X-X-X-X-X",
"-X-X-X-X-X-X-X-X-X-X-X-X-X-X-X-X-X< v J.!.b.$.P # A i.V N i.V.V.n.V N I B.M > +.2.G.^.(.>.w -X-X-X-X-X-X-X-X-X-X-X-X-X-X-X-X-X-X",
"-X-X-X-X-X-X-X-X-X-X-X-X-X-X-X-X  J J.H.~.L     . . X + + O X O O + + X O X . .   K T.A.X   -X-X-X-X-X-X-X-X-X-X-X-X-X-X-X-X-X-X",
"-X-X-X-X-X-X-X-X-X-X-X-X-X-X-X-X  J H.I.~.P X v ] ) ] ] ] ] ] ] ] ] ] ] ] ] ] v X v P.S.X   -X-X-X-X-X-X-X-X-X-X-X-X-X-X-X-X-X-X",
"-X-X-X-X-X-X-X-X-X-X-X-X-X-X-X-X-Xe K J.K.G.H 7 } o.o.o.o.o.o.o.o.o.o.o.o.o.o.( @ J K.3.X   -X-X-X-X-X-X-X-X-X-X-X-X-X-X-X-X-X-X",
"-X-X-X-X-X-X-X-X-X-X-X-X-X-X-X-X-X  > @.J.P.[ . Q / ^ ^ ^ ^ ^ ^ ^ ^ ^ ^ ^ ^ / Q X J ,.c O   -X-X-X-X-X-X-X-X-X-X-X-X-X-X-X-X-X-X",
"-X-X-X-X-X-X-X-X-X-X-X-X-X-X-X-X-X    , @.,.j @ ! ( ( { { ..{ { ^ / { { { / ^ Q @ j j X X   -X-X-X-X-X-X-X-X-X-X-X-X-X-X-X-X-X-X",
"-X-X-X-X-X-X-X-X-X-X-X-X-X-X-X-X-X  % j # . . # O.X.( ;.;.;.;.-.( o.:.:.:.X./ Q X   7 x $   -X-X-X-X-X-X-X-X-X-X-X-X-X-X-X-X-X-X",
"-X-X-X-X-X-X-X-X-X-X-X-X-X-X-X-X-X  < O.l z v ] -.X.{ ;.4.:.:.;.( o.:.:.:.X./ ) z z x ! $   -X-X-X-X-X-X-X-X-X-X-X-X-X-X-X-X-X-X",
"-X-X-X-X-X-X-X-X-X-X-X-X-X-X-X-X-X  < #...X.4.4.:.X.{ ;.4.:.:.-.( o.4.:.:.X.^ / X.../ ! $   -X-X-X-X-X-X-X-X-X-X-X-X-X-X-X-X-X-X",
"-X-X-X-X-X-X-X-X-X-X-X-X-X-X-X-X-X  , =.X.{ :.:.:.X.{ ;.4.:.4.-.( o.4.4.:.X.^ / -.o.^ ! %   -X-X-X-X-X-X-X-X-X-X-X-X-X-X-X-X-X-X",
"-X-X-X-X-X-X-X-X-X-X-X-X-X-X-X-X-X  , =.....:.:.:.o.{ :.:.:.:.;.( o.4.:.:.X.^ / -.o.^ ! %   -X-X-X-X-X-X-X-X-X-X-X-X-X-X-X-X-X-X",
"-X-X-X-X-X-X-X-X-X-X-X-X-X-X-X-X-X  , =.....:.:.:.o.{ ;.:.4.:.-.( o.4.:.:.X.^ / -.o.^ ! %   -X-X-X-X-X-X-X-X-X-X-X-X-X-X-X-X-X-X",
"-X-X-X-X-X-X-X-X-X-X-X-X-X-X-X-X-X  , =.X.{ :.:.:.X.{ ;.:.:.:.-.( o.4.:.:.X.^ / -.o.^ ! %   -X-X-X-X-X-X-X-X-X-X-X-X-X-X-X-X-X-X",
"-X-X-X-X-X-X-X-X-X-X-X-X-X-X-X-X-X  5 =.( X.;.:.:.X.{ ;.:.:.:.-.( o.4.:.:.X.^ / ;.o./ ! %   -X-X-X-X-X-X-X-X-X-X-X-X-X-X-X-X-X-X",
"-X-X-X-X-X-X-X-X-X-X-X-X-X-X-X-X-X  , =.X.{ ;.:.:.o.{ :.:.:.:.;.( o.4.:.:.X.^ / =.o.^ ! %   -X-X-X-X-X-X-X-X-X-X-X-X-X-X-X-X-X-X",
"-X-X-X-X-X-X-X-X-X-X-X-X-X-X-X-X-X  , =.o...o.;.4.X.( :.:.:.:.;.( o.4.:.4.X.^ / ;.o.^ ! $   -X-X-X-X-X-X-X-X-X-X-X-X-X-X-X-X-X-X",
"-X-X-X-X-X-X-X-X-X-X-X-X-X-X-X-X-X  , =.4.o.( ;.:.X.{ ;.:.4.4.;.( o.4.:.=.{ / X.#.X./ ! %   -X-X-X-X-X-X-X-X-X-X-X-X-X-X-X-X-X-X",
"-X-X-X-X-X-X-X-X-X-X-X-X-X-X-X-X-X  , =.4.o.( ;.4.X.{ :.:.4.:.-.( o.4.:.{ ^ { ;...^ ^ Q %   -X-X-X-X-X-X-X-X-X-X-X-X-X-X-X-X-X-X",
"-X-X-X-X-X-X-X-X-X-X-X-X-X-X-X-X-X-X-X7 } o.( ;.4.X.{ ;.:.:.:.-.( o.:.;...^ ..;.../ x > -X-X-X-X-X-X-X-X-X-X-X-X-X-X-X-X-X-X-X-X",
"-X-X-X-X-X-X-X-X-X-X-X-X-X-X-X-X-X-X-X  x ..( :.4.X.( :.4.:.:.;.( o.:.:.{ ^ ( X.( / l + -X-X-X-X-X-X-X-X-X-X-X-X-X-X-X-X-X-X-X-X",
"-X-X-X-X-X-X-X-X-X-X-X-X-X-X-X-X-X-X-X+ k / ( =.4.X.{ ;.4.:.;.#.( o.:.=.( / ^ ^ ^ / l . -X-X-X-X-X-X-X-X-X-X-X-X-X-X-X-X-X-X-X-X",
"-X-X-X-X-X-X-X-X-X-X-X-X-X-X-X-X-X-X-X+ z ^ ^ ( #.X.( =.;.-.#.( ^ o.#.^ ^ ^ ^ ^ ^ ) z . -X-X-X-X-X-X-X-X-X-X-X-X-X-X-X-X-X-X-X-X",
"-X-X-X-X-X-X-X-X-X-X-X-X-X-X-X-X-X-X-X-X% u / ^ ( ^ / ( ( ( ( ^ ^ / ^ ^ ^ ^ ^ ^ ^ u $ -X-X-X-X-X-X-X-X-X-X-X-X-X-X-X-X-X-X-X-X-X",
"-X-X-X-X-X-X-X-X-X-X-X-X-X-X-X-X-X-X-X-X-X> u u Q / / / / ^ / / ^ / / / ^ / ^ z 7 % -X-X-X-X-X-X-X-X-X-X-X-X-X-X-X-X-X-X-X-X-X-X",
"-X-X-X-X-X-X-X-X-X-X-X-X-X-X-X-X-X-X-X-X-X-X    u l k k k k k k k k k k k k k 5     -X-X-X-X-X-X-X-X-X-X-X-X-X-X-X-X-X-X-X-X-X-X",
"-X-X-X-X-X-X-X-X-X-X-X-X-X-X-X-X-X-X-X-X-X-X-X-X. + + + O X + + . + + + X X +   -X-X-X-X-X-X-X-X-X-X-X-X-X-X-X-X-X-X-X-X-X-X-X-X",
"-X-X-X-X-X-X-X-X-X-X-X-X-X-X-X-X-X-X-X-X-X-X-X-X-X-X  w <.+.,   -X-X  e 2.+.,   -X-X-X-X-X-X-X-X-X-X-X-X-X-X-X-X-X-X-X-X-X-X-X-X",
"-X-X-X-X-X-X-X-X-X-X-X-X-X-X-X-X-X-X-X-X-X-X-X-X-X-X  : D.J.e   -X-X  h T.9.6   -X-X-X-X-X-X-X-X-X-X-X-X-X-X-X-X-X-X-X-X-X-X-X-X",
"-X-X-X-X-X-X-X-X-X-X-X-X-X-X-X-X-X-X-X-X-X-X-X-X-X-X  e L.7.6   -X-X  g Y.7.6   -X-X-X-X-X-X-X-X-X-X-X-X-X-X-X-X-X-X-X-X-X-X-X-X",
"-X-X-X-X-X-X-X-X-X-X-X-X-X-X-X-X-X-X-X-X-X-X-X-X-X-X  h Y.7.6   -X-X  g Y.9.6   -X-X-X-X-X-X-X-X-X-X-X-X-X-X-X-X-X-X-X-X-X-X-X-X",
"-X-X-X-X-X-X-X-X-X-X-X-X-X-X-X-X-X-X-X-X-X-X-X-X-X-X  g Y.7.6   -X-X  g S.6.6   -X-X-X-X-X-X-X-X-X-X-X-X-X-X-X-X-X-X-X-X-X-X-X-X",
"-X-X-X-X-X-X-X-X-X-X-X-X-X-X-X-X-X-X-X-X-X-X-X-X-X-X  g Y.7.6   -X-X  1 0 6 >   -X-X-X-X-X-X-X-X-X-X-X-X-X-X-X-X-X-X-X-X-X-X-X-X",
"-X-X-X-X-X-X-X-X-X-X-X-X-X-X-X-X-X-X-X-X-X-X-X-X-X-X  g Y.7.6   -X-X            -X-X-X-X-X-X-X-X-X-X-X-X-X-X-X-X-X-X-X-X-X-X-X-X",
"-X-X-X-X-X-X-X-X-X-X-X-X-X-X-X-X-X-X-X-X-X-X-X-X-X-X  g Y.7.6   -X-X-X-X-X-X-X-X-X-X-X-X-X-X-X-X-X-X-X-X-X-X-X-X-X-X-X-X-X-X-X-X",
"-X-X-X-X-X-X-X-X-X-X-X-X-X-X-X-X-X-X-X-X-X-X-X-X-X-X  g G.6.6   -X-X-X-X-X-X-X-X-X-X-X-X-X-X-X-X-X-X-X-X-X-X-X-X-X-X-X-X-X-X-X-X",
"-X-X-X-X-X-X-X-X-X-X-X-X-X-X-X-X-X-X-X-X-X-X-X-X-X-X  1 w 6 %   -X-X-X-X-X-X-X-X-X-X-X-X-X-X-X-X-X-X-X-X-X-X-X-X-X-X-X-X-X-X-X-X",
"-X-X-X-X-X-X-X-X-X-X-X-X-X-X-X-X-X-X-X-X-X-X-X-X-X-X            -X-X-X-X-X-X-X-X-X-X-X-X-X-X-X-X-X-X-X-X-X-X-X-X-X-X-X-X-X-X-X-X"
};
