/* XPM */
static char *xpm_[] = {
/* columns rows colors chars-per-pixel */
"64 107 219 2 ",
"   c #020203",
".  c #0C0905",
"X  c #07080A",
"o  c #0B0B0B",
"O  c #080706",
"+  c #130D06",
"@  c #120E0B",
"#  c #16110A",
"$  c #1B120D",
"%  c #0E0F10",
"&  c #131314",
"*  c #1D1411",
"=  c #1A1B1C",
"-  c #1A1815",
";  c #0F1013",
":  c #22140B",
">  c #251B0B",
",  c #2B1C0C",
"<  c #2C170E",
"1  c #241A15",
"2  c #2A1C14",
"3  c #261C18",
"4  c #321F14",
"5  c #301E0F",
"6  c #2E220D",
"7  c #33230E",
"8  c #39270F",
"9  c #2A2218",
"0  c #312215",
"q  c #392612",
"w  c #3C2B14",
"e  c #34231D",
"r  c #362918",
"t  c #3D321E",
"y  c #1E1F20",
"u  c #222324",
"i  c #2C2622",
"p  c #272829",
"a  c #2A2A2B",
"s  c #282728",
"d  c #332D29",
"f  c #3A2A24",
"g  c #3C3222",
"h  c #3A322B",
"j  c #2E2F31",
"k  c #323334",
"l  c #3A3B3C",
"z  c #383736",
"x  c #472C17",
"c  c #4A3218",
"v  c #553B14",
"b  c #5E3A1A",
"n  c #57361A",
"m  c #572F1A",
"M  c #623C1C",
"N  c #61341E",
"B  c #432C25",
"V  c #482F27",
"C  c #4E3629",
"Z  c #473A29",
"A  c #55362E",
"S  c #573A27",
"D  c #5D3C33",
"F  c #4D352D",
"G  c #613E34",
"H  c #6B3E27",
"J  c #5B441A",
"K  c #594117",
"L  c #64421A",
"P  c #684719",
"I  c #6B4A1A",
"U  c #734D1D",
"Y  c #6E531D",
"T  c #73561F",
"R  c #7B541D",
"E  c #5B442A",
"W  c #4D443A",
"Q  c #5C4131",
"!  c #544A3C",
"~  c #684A26",
"^  c #714521",
"/  c #724E21",
"(  c #7A4728",
")  c #6E5325",
"_  c #7B5623",
"`  c #755923",
"'  c #755525",
"]  c #6B4439",
"[  c #664537",
"{  c #744A3D",
"}  c #794D3E",
"|  c #71473C",
" . c #67553C",
".. c #7B563F",
"X. c #7F642E",
"o. c #3E3F41",
"O. c #484848",
"+. c #554C45",
"@. c #5B5349",
"#. c #535253",
"$. c #5C5957",
"%. c #794D40",
"&. c #744B40",
"*. c #675849",
"=. c #7D5644",
"-. c #635B53",
";. c #776746",
":. c #68635B",
">. c #5D5E60",
",. c #666769",
"<. c #726C68",
"1. c #707174",
"2. c #803D2A",
"3. c #974E2F",
"4. c #855325",
"5. c #845B21",
"6. c #895926",
"7. c #9D532E",
"8. c #935A2A",
"9. c #9C5130",
"0. c #8E4E2C",
"q. c #A65C2F",
"w. c #A85C2F",
"e. c #A25631",
"r. c #A55931",
"t. c #AA5D31",
"y. c #856326",
"u. c #9F6C24",
"i. c #966829",
"p. c #9A6C2B",
"a. c #A1632D",
"s. c #A8692D",
"d. c #B46C2F",
"f. c #B0652F",
"g. c #AA752C",
"h. c #A77428",
"j. c #B5732E",
"k. c #B9722E",
"l. c #BB7B2D",
"z. c #B37D2C",
"x. c #AD6231",
"c. c #AA6A35",
"v. c #B16631",
"b. c #B46B31",
"n. c #B56F36",
"m. c #A97B36",
"M. c #B77032",
"N. c #BA7332",
"B. c #BE7A31",
"V. c #BA773A",
"C. c #C27D2F",
"Z. c #C27C31",
"A. c #C37E3A",
"S. c #845C43",
"D. c #885E44",
"F. c #8D6346",
"G. c #8C684A",
"H. c #91684C",
"J. c #927750",
"K. c #A37346",
"L. c #A37C51",
"P. c #BD812C",
"I. c #B8882E",
"U. c #B98833",
"Y. c #C5832E",
"T. c #C9862E",
"R. c #C4892F",
"E. c #CD8B2D",
"W. c #D18E2E",
"Q. c #CF912F",
"!. c #D0922F",
"~. c #C48333",
"^. c #C58933",
"/. c #CC8C32",
"(. c #CC8D39",
"). c #C78637",
"_. c #D18F31",
"`. c #C79632",
"'. c #CC9533",
"]. c #CC983A",
"[. c #D19531",
"{. c #D49C33",
"}. c #D1953B",
"|. c #D39C3A",
" X c #D89E35",
".X c #D7A335",
"XX c #D6A235",
"oX c #D6A034",
"OX c #D7A335",
"+X c #D9A536",
"@X c #D6A23B",
"#X c #D9A63B",
"$X c #DAA83F",
"%X c #BE8759",
"&X c #BE8859",
"*X c #B78F4D",
"=X c #B69B64",
"-X c #BB9F68",
";X c #AA9262",
":X c #C79546",
">X c #D59C43",
",X c #C28D54",
"<X c #DBA940",
"1X c #DBA54B",
"2X c #DDAA55",
"3X c #D8A756",
"4X c #C9A15B",
"5X c #E1B15E",
"6X c #DDB46B",
"7X c #DDB366",
"8X c #DDBA73",
"9X c #CFA661",
"0X c #E4BC6B",
"qX c #E1B66A",
"wX c #E2BB72",
"eX c #979696",
"rX c #A4A4A3",
"tX c None",
"yX c None",
/* pixels */
"tXtXtXtXtXtXtXtXtXtXtXtXtXtXtXtXtXtXtXtXtXtXtXtXtXtXtXtXtXtXtXtXtXtXtXtXtXtXtXtXtXtXtXtXtXtXtXtXtXtXtXtXtXtXtXtXtXtXtXtXtXtXtXtX",
"tXtXtXtXtXtXtXtXtXtXtXtXtXtXtXtXtXtXtXtXtXtXtXtXtXtXtXtXtXtXtXtXtXtXtXtXtXtXtXtXtXtXtXtXtXtXtXtXtXtXtXtXtXtXtXtXtXtXtXtXtXtXtXtX",
"tXtXtXtXtXtXtXtXtXtXtXtXtXtXtXtXtXtXtXtXtXtXtXtXtXtXtXa                 tXtXtXtXtXtXtXtXtXtXtXtXtXtXtXtXtXtXtXtXtXtXtXtXtXtXtXtX",
"tXtXtXtXtXtXtXtXtXtXtXtXtXtXtXtXtXtXtXtXtXtXtXtXtXp p [ M M M M M M M M Q & y tXtXtXtXtXtXtXtXtXtXtXtXtXtXtXtXtXtXtXtXtXtXtXtXtX",
"tXtXtXtXtXtXtXtXtXtXtXtXtXtXtXtXtXtXtXtXtXtXtXtX-.r 0 4.N.V.N.N.Z.N.N.Z.4.2 0 ! tXtXtXtXtXtXtXtXtXtXtXtXtXtXtXtXtXtXtXtXtXtXtXtX",
"tXtXtXtXtXtXtXtXtXtXtXtXtXtXtXtXtXtXtXtXtXtXi . c n.t.v.N.N.N.N.M.N.M.N.v.r.n.S o 9 tXtXtXtXtXtXtXtXtXtXtXtXtXtXtXtXtXtXtXtXtXtX",
"tXtXtXtXtXtXtXtXtXtXtXtXtXtXtXtXtXtXtXtXtXi i.p.c.M.t.v.N.N.N.N.M.N.M.M.v.t.n.a.u.i.i yXtXtXtXtXtXtXtXtXtXtXtXtXtXtXtXtXtXtXtXtX",
"tXtXtXtXtXtXtXtXtXtXtXtXtXtXtXtXtXtXtXtX+._ N.(.:X/.B.v.t.v.b.N.N.M.x.x.v.B./././.j.4.Z tXtXtXtXtXtXtXtXtXtXtXtXtXtXtXtXtXtXtXtX",
"tXtXtXtXtXtXtXtXtXtXtXtXtXtXtXtXtXtXtX@.M Y.).}.+X.X[.B.b.f.v.b.v.v.v.v.B.!.+X+X'.~.Y.L +.tXtXtXtXtXtXtXtXtXtXtXtXtXtXtXtXtXtXtX",
"tXtXtXtXtXtXtXtXtXtXtXtXtXtXtXtXtXtXd U Y.C.|..XXX.X+X.X{./.x.t.t.v.T.{..X.X.X.X+X{.B.Y.U d tXtXtXtXtXtXtXtXtXtXtXtXtXtXtXtXtXtX",
"tXtXtXtXtXtXtXtXtXtXtXtXtXtXtXtXtXu ( 9.b.{..X.X.X.X.X.X.X{.].B.l.}. X.X.X.X.X.X.X.X{.b.e.( i tXtXtXtXtXtXtXtXtXtXtXtXtXtXtXtXtX",
"tXtXtXtXtXtXtXtXtXtXtXtXtXtXtXtXtX@ 0.t.b..X.X.X.X.X.X.X.X.X.X).).$X.X+X.X.X.X.X.X.X.Xb.t.0.- tXtXtXtXtXtXtXtXtXtXtXtXtXtXtXtXtX",
"tXtXtXtXtXtXtXtXtXtXtXtXtXtXtXtX<.c a.v.f.{.XX.X.X.X.X.XXX+XXX).).#X.X.X.X.X.X.X.X.X{.v.x.c.S <.tXtXtXtXtXtXtXtXtXtXtXtXtXtXtXtX",
"tXtXtXtXtXtXtXtXtXtXtXtXtXtXtXtX4 n.N.v.v.R.{..X.X.X.X.XXXXX.X).~.{..X.X.X.X.X.X.X{.T.f.x.N.b.5 z tXtXtXtXtXtXtXtXtXtXtXtXtXtXtX",
"tXtXtXtXtXtXtXtXtXtXtXtXtXtXtXl r M.N.N.b.x.'.+X.X.X.X.XOX#X}.Z.Z.!. X+X.X.X.X.X.X'.x.v.N.N.b.2 #.tXtXtXtXtXtXtXtXtXtXtXtXtXtXtX",
"tXtXtXtXtXtXtXtXtXtXtXtXtXtXtX .8.b.N.N.v.t.T.{.+X.X.X.X+X}.b.x.x.b.E..X+X.X.X.X{.^.t.b.N.N.M.6.[ z tXtXtXtXtXtXtXtXtXtXtXtXtXtX",
"tXtXtXtXtXtXtXtXtXtXtXtXtXtX& ~ N.N.N.b.v.d.C.T.'.{.{./.Z.B.x.t.t.x.k.Z./.[.{.(.Z.k.d.f.b.N.N.Z.b y tXtXtXtXtXtXtXtXtXtXtXtXtXtX",
"tXtXtXtXtXtXtXtXtXtXtXtXtXtX& b N.N.b.v.d.E.Z.B.Z.T.T.f.r.t.b.N.N.N.t.r.b.Y.Y.v.x.b.E.d.v.b.N.N.b u tXtXtXtXtXtXtXtXtXtXtXtXtXtX",
"tXtXtXtXtXtXtXtXtXtXtXtXtXtXX b N.N.t.k.E..X{.[.Y.N.x.v.b.M.N.N.N.N.M.M.v.t.t.).'.{.{./.k.t.N.N.b y tXtXtXtXtXtXtXtXtXtXtXtXtXtX",
"tXtXtXtXtXtXtXtXtXtXtXtXtXtXo m t.t.Z.T.{..X.X{.!.C.w.v.N.N.N.N.N.N.M.N.v.t.Z.}.{..XOX X/.k.t.t.m y tXtXtXtXtXtXtXtXtXtXtXtXtXtX",
"tXtXtXtXtXtXtXtXtXtXtXtXtXtXX b b.x./.{.+X.X.X#X{.Q.t.x.N.N.N.M.N.N.N.N.v.c.}.{.+X.X.X.X{./.x.b.b y tXtXtXtXtXtXtXtXtXtXtXtXtXtX",
"tXtXtXtXtXtXtXtXtXtXtXtXtXtX  P /.B.'..X.X.X#X$X#X{.d.b.M.M.N.N.b.N.N.M.n.n.|.+X.X.X.X.X.X{.B.T.P y tXtXtXtXtXtXtXtXtXtXtXtXtXtX",
"tXtXtXtXtXtXtXtXtXtXtXtXtXtXX P T.B.{..X.X#X#X.X.X{._.b.t.N.M.N.N.M.N.x.n.E..X.X.X.X.X.XOX[.B.T.P y tXtXtXtXtXtXtXtXtXtXtXtXtXtX",
"tXtXtXtXtXtXtXtXtXtXtXtXtXtXX P W.T.B.'.$X<X.X.X+X+X{.M.t.N.M.M.N.N.M.t.M.{..X.X.X.X.X.X'.~.~./.P - tXtXtXtXtXtXtXtXtXtXtXtXtXtX",
"tXtXtXtXtXtXtXtXtXtXtXtXtXtXtXE 5.T.B.).#X.X.X.X.X.X.XN.r.x.v.v.v.x.x.t.N.+X.X.X.X.X.X{.R.l./.5. .tXtXtXtXtXtXtXtXtXtXtXtXtXtXtX",
"tXtXtXtXtXtXtXtXtXtXtXtXtXtXtXy 5 Y.Z.).E.oX{.oX{.{.'.l.x.b.v.v.v.v.b.x.N.'.{.{.{.{.oXE.Z.Z.).7 O.tXtXtXtXtXtXtXtXtXtXtXtXtXtXtX",
"tXtXtXtXtXtXtXtXtXtXtXtXtXtXtXa 7 P.Y.l.j.Y.Y.Y.R.P.q.j.^.`.`.`.].`.'.^.g.q.Y.Y.Y.R.R.j.Z.).P.6 #.tXtXtXtXtXtXtXtXtXtXtXtXtXtXtX",
"tXtXtXtXtXtXtXtXtXtXtXtXtX= & o O , , < , , , , , < : > 6 7 r 6 6 6 6 6 < : , , , , , 0 r , , O & = % tXtXtXtXtXtXtXtXtXtXtXtXtX",
"tXtXtXtXtXtXtXtXtXtXtXtXW I I L b b P P P P Y T Y Y T Y Y ` ` Y Y Y Y Y Y T Y Y T Y / / I P P M b L ) W tXtXtXtXtXtXtXtXtXtXtXtX",
"tXtXtXtXtXtXtXtXtXtXtXtX, T.W.~.N.B.Y.E.W.W.{.+X+X+X+X+X<X#X+X+X+X+X#X+X.X.X+X.X+X{.'._.W.E./.B.M.~.'.q l tXtXtXtXtXtXtXtXtXtXtX",
"tXtXtXtXtXtXtXtXtXtXtXtXw P.T.B.N.b.N.C.E.T.T.[.oX{.|.1X@X{.|.{.{.oX{.{.{.{.XX{.[.T.T.T.T.Y.M.M.M.B.U.w tXtXtXtXtXtXtXtXtXtXtXtX",
"tXtXtXtXtXtXtXtXtXtXtXtXtXg 0.r.e.e.r.q.w.w.w.a.a.x.c.c.x.x.a.x.x.x.x.a.x.x.a.x.a.w.w.w.t.r.r.r.r.4.w yXtXtXtXtXtXtXtXtXtXtXtXtX",
"yXyXyXyXtXtXtXtXyXyXyXyXtX@ 4.x.x.x.x.x.x.x.d.k.k.N.l.k.k.k.j.k.j.j.k.k.k.k.k.k.k.k.k.k.k.k.j.k.).K.X tXtXtXtXtXtXtXtXtXtXtXtXtX",
"yXyXyXyXtXtXtXtXyXyXyXyXtX@ 8.Z.l.N.N.N.N.C.T.W.E.E.W.!.!.!.!.!.Q.Q.!.!.!.!.!.Q.!.!.!.!.!.!.E.E.2X=X& tXtXtXtXtXtXtXtXtXtXtXtXtX",
"yXyXyXyXtXtXd # # - 1 # + . u.W.T.N.N.b.Z.E.E.E.E.E.{..XXXXXXX.XXX.X.X.X#X.X.X.X.X.X.X.XoX{.!.E.2X-X- # + # # # # d yXtXtXtXtXtX",
"yXyXyXyXyX3 5.I.I.U.I.g.( + u.W.T.N.N.N.B.E.E.E.E.!.XX.X.X.X.X.XXX.X.X#X$X.X.X.X.X.X.X.X.X{.E.E.2X-X* ( g.I.I.I.P.6.u tXtXtXtXtX",
"yXyXyXyXF ` ,X<XoX X{.W.8.# u.E.T.N.N.N.Z.T.W.E.E.E.XX+X.X.X.X.X.XXX$X$X.X.X.X.X.X.X.X.X.XoXE.E.2X-X# 8./.!. X[.2X,X` F tXyXyXyX",
"yXyXyXZ J >XqX*X5.5.5.4.b + u.Q.T.N.N.M.A.T.E.E.E.W.{.XX.X.X.X.X.X#X$X.X.X.X.X.X.X.X.X.X.X{.E.E.3X=X@ M 5.6.5.5.*X7X>XJ ! yXyXyX",
"yXyX  b }.qX:X/ .       O . a.W.C.N.M.A.Z._.E.W.E.E.{.+X.X.X.X.X#X$X.X.X.X.X.X.X.X.X.X.X.X{.!.E.2X=X. o O     O T (.qX}.J & yXyX",
"yXyX  J  X'.c d yXyXyXyXtX# u.E.T.A.V.n.l.E.E.E.E.E.XX.X.X.X.X.X#XXX.X.X.X.X.X.X.X.X.X.X.XoXE.E.2X=X& tXtXtXtXtX9 c :X<XJ = yXyX",
"yXyX  J #XT.8 X tXtXtXtXtX# h.E.T.A.V.N.N.Z.T.E.E.E.+X.X.X.X.X.XXX.X.X.X.X.X.X.X.X.X.X.X+X{.E.E.2X=X@ tXtXtXtXtXX w '..XK = tXtX",
"yXyX& E .X^.8 & tXtXtXtXtXO.' h.(.A.N.N.N.k.T.E.E._.{.+X.X.X.X.XXXXX.X.X.X.X.X.X.X.XXX$X{.{.E.>X*XJ.#.tXtXtXtXtX& x R.XXK y tXtX",
"yXyXy J OXR.8 & tXtXtXtXtXtX& P _.E.Z.N.N.k.T.W.E.E..X.X.X.X.X.X.X.X.X.X.X.X.XXXXXXX$X#X[.E.E.0X;.j tXtXtXtXtXtX; w R.XXK p tXtX",
"yXyXy J {.^.w & tXtXtXtXtXtX  P _.T.N.N.N.Z.T.T.E.E.{.+X.X.X.X.X.X.X.X.X.X.X.XXX#X<X#XXX{.E.E.0X;.y tXtXtXtXtXtX; w R.oXJ a tXtX",
"tXtXtX! L `.h.E tXtXtXtXyXyX  P W.W.B.N.N.N.T.W.E.E.}.|..X.X.X.X.X.X.X.X.X.X.X#X$X#X.X.X{.E./.0X;.y tXtXtXtXtXtX~ h.`.J -.tXtXtX",
"tXtXtXtX> `.!.Y O yXtXtXyXyX& P W.T.N.N.b.k.C.T./._._.{..X.X.X.X.X.X.X.X.X.XXX$X#XXX.X.X[.E./.0X;.u tXtXtXtXtXX I [.`.> O.tXtXtX",
"tXtXtXtX6 `.{.U   yXyXyXyXyXp ~ j.E.C.N.N.N.N.C./.}.E.{..X.X.X.X.X.X.X.X.X.X.X.XXX.X.X.X!.E.].4X;.z tXtXtXtXtX  I {.`.6 o.tXtXtX",
"tXtXtXtX> `.+XR % yXyXyXyXyXtXh x Y.T.Z.N.N.N.)._.E.E.{..X.X.X.X.X.X.X.X.X.X.X.XXXXXXX'.E.|.6XZ $.tXtXtXtXtXtX& R +X`.> O.tXtXtX",
"tXtXtXk > R..XI.y.z tXtXtXtXtXtX7 Y.E.C.N.N.M.)./.E.E.{..X.X.X.X.X.X.X.X.X.X.X.X.X.X+X[.T.>X8Xg l tXtXtXtXtXd 5.I.+XI., #.tXtXtX",
"tXtXtXtXh / I.OXm.: tXtXtXtXtXtX7 T.E.C.N.N.N.Z.Y.W.E.[.{..X.X.X.X.X.X.X.X.X.X.X.X.X.X!.E.}.8Xg l tXtXtXtXtX@ h. XI.' @.tXtXtXtX",
"tXtXtXtXyXo p.1XU.r -.tXtXtXtXtXc p.R.~.N.N.N.N.Z.W.E.T.!..X.X.X.X+X.X.X.X.X.X.X.X{.{.!.'.:X=X! #.tXtXtXtX:.w m. Xu.# yXtXtXtXtX",
"tXtXtXtXyX# i.3X6XU.x O.tXtXtXtXtX$ h.W.Y.N.N.b.l.T.E.W.Q..X.X.X.X$X#X.X.X.X.X.X+X{.E.E.1X-Xi tXtXtXtXtX#.x U.7X3X8.- yXtXtXtXtX",
"tXtXtXtXtXtXZ ` 1X6Xm.~ u tXtXtXyX. h./.T.N.t.v.N.Z.E.E.W.W..X#X<X#X.X.X.X.X.X.X.X{.E.E.2X-X- tXtXtXtXj ~ U.7X1X_ ! eXtXtXtXtXtX",
"tXtXtXtXtXtXtXE ` 3X2Xm.~ j tXtXyX+.~ u.E.C.v.f.v.N.T.E.W.E.|.<X#X.X.X.X.X.X.X.XXX!.E.1X*X:.<.tXtXtX#.~ m.3X3X_ *.>.yXtXtXtXtXtX",
"tXtXtXtXtXtXtXtXr i.3X2Xh.t tXtXtXtXj ) g.T.k.x.t.d.C.E.E./.@X.X.X.X.X.X.X.X.XXX!./.}.=X;.#.tXtXtX,.x h.3X3Xi.W 1.tXtXtXtXtXtXtX",
"tXtXtXtXtXtXtXtXtX1 p.[.{.P.w tXtXtXtXO.x Y.x.v.v.t.k.C.E./._.{..X.X.X.X.X.X.X!.E.|.wXc $.tXtXtXz w P.{.'.i.s eXtXtXtXtXtXtXtXtX",
"yXyXyXyXyXyXyXyXtXtXZ T _.E.s.E     tXp 7 R.T.d.t.e.t.b.C.E.E.W.'..X.X.X.X.X!.E.E.|.wXZ O.tXp X S a.W.W.R W rXtXtXtXtXtXtXtXtXtX",
"yXyXyXyXyXyXyXyXtXtXtX*.U A.A.8.N N e ; @ P l.Y.v.e.e.v.B.C.E.E.Q.!.!.{.!.!.E.E.>X4X .- = d m M 8.Z.C.U *.,.tXtXtXtXtXtXtXtXtXtX",
"yXyXyXyXyXyXyXyXtXtXtXtXh 0.4.a.v.e.x < < q 5.l.C.v.t.v.b.N.T.T.E.E.E.E.E.E.E.>X4XJ.q < < x e.v.q.4._ O.1.tXtXtXtXtXtXtXtXtXtXtX",
"yXyXyXyXyXyXyXyXtXtXtXtXyX- @ S 7.3.3.7.t.s.5 / T.T.B.f.t.N.N.C.E.E.E.E.E.E.].7XG.5 x.r.7.3.3.3.S # 3 eXtXtXtXtXtXtXtXtXtXtXtXtX",
"yXyXyXyXyXyXyXyXyXyXyXyXyXyXyX+.$ $ : H N.N.a.n M E.E.l.d.N.N.k.C.E.E.E.E.}.wX .S a.N.Z.^ : $ : @.tXtXtXtXtXtXtXtXtXtXtXtXtXtXtX",
"yXyXyXyXyXyXyXyXyXyXyXyXyXyXyXyXO.k O.@.x x n 2 $ b j.C.T.C.N.N.k.C.E.E.>X9X .# $ c x x *.,.$.>.tXtXtXtXtXtXtXtXtXtXtXtXtXtXtXtX",
"yXyXyXyXyXyXyXyXyXyXyXyXyXyXyXyXtXtXtX#.u - a a a z ( s.C.T.C.C.C.C.E.!.*X;XO.k k u u k ,.yXtXtXtXtXtXtXtXtXtXtXtXtXtXtXtXtXtXtX",
"yXyXyXyXyXyXyXyXyXyXyXyXyXyXyXyXtXtXtXtXtXtXtXtXtXtX- N f.T.T.T.T.T.E.[.R = tXtXyXyXyXyXyXyXtXtXtXtXtXtXtXtXtXtXtXtXtXtXtXtXtXtX",
"yXyXyXyXyXyXyXyXyXyXyXyXyXyXyXyXyXyXyXyXyXyXyXyXyXyXX N r.t.N.N.N.B.N.Z.^ @ tXtXtXtXtXtXtXtXtXtXtXtXtXtXtXtXtXtXtXtXtXtXtXtXtXtX",
"yXyXyXyXyXyXyXyXyXyXyXyXyXyXyXyXyXyXyXyXyXyXyXyXyXyXX N t.l.C.C.Y.Y.C.T./ o tXtXtXtXtXtXtXtXtXtXtXtXtXtXtXtXtXtXtXtXtXtXtXtXtXtX",
"yXyXyXyXyXyXyXyXyXyXyXyXyXyXyXyXyXyXyXyXyXyXyXyXyXyXX N N.E.!.[.!.[.'.{.5.o tXtXtXtXtXtXtXtXtXtXtXtXtXtXtXtXtXtXtXtXtXtXtXtXtXtX",
"yXyXyXyXyXyXyXyXyXyXyXyXyXyXyXyXyXyXyXyXyXyXyXyXyXyX1 ^ B.T.|.|.'.{.'.{.5.3 tXtXtXtXtXtXtXtXtXtXtXtXtXtXtXtXtXtXtXtXtXtXtXtXtXtX",
"yXyXyXyXyXyXyXyXyXyXyXyXyXyXyXyXyXyXyXyXyXyXyXyXtX* ( 3.e.t.x.r.r.r.x.w.7.( 9 yXtXtXtXtXtXtXtXtXtXtXtXtXtXtXtXtXtXtXtXtXtXtXtXtX",
"yXyXyXyXyXyXyXyXyXyXyXyXyXyXyXyXyXyXyXyXyXyXyXyXtX@ 7.n.M.).).).T.^.^.^./.m.# ,.tXtXtXtXtXtXtXtXtXtXtXtXtXtXtXtXtXtXtXtXtXtXtXtX",
"yXyXyXyXyXyXyXyXyXyXyXyXyXyXyXyXyXyXyXyXyXyXyXyXtXW ~ a.n.B.U.~.U.~.~.~.g.X.$.yXtXtXtXtXtXtXtXtXtXtXtXtXtXtXtXtXtXtXtXtXtXtXtXtX",
"yXyXyXyXyXyXyXyXyXyXyXyXyXyXyXyXyXyXyXyXyXyXyXyXtXtX= H t.x.r.r.q.q.w.t.M = yXyXtXtXtXtXtXtXtXtXtXtXtXtXtXtXtXtXtXtXtXtXtXtXtXtX",
"yXyXyXyXyXyXyXyXyXyXyXyXyXyXyXyXtXtXtXtXtXtXtXtXtXtXX ^ B.T.T.T.R.E.R.E.R . yXyXtXtXtXtXtXtXtXtXtXtXtXtXtXtXtXtXtXtXtXtXtXtXtXtX",
"yXyXyXyXyXyXyXyXyXyXyXyXyXyXyXyXtXtXtXtXtXtXtXtXtXtX  ^ Z.E.{.{.{.oX{.{.5.. yXyXtXtXtXtXtXtXtXtXtXtXtXtXtXtXtXtXtXtXtXtXtXtXtXtX",
"yXyXyXyXyXyXyXyXyXyXyXyXyXyXyXyXtXtXtXtXtXtXtXtXtXtX  ^ C.E.XX.X.X.X+X+Xy.- yXyXtXtXtXtXtXtXtXtXtXtXtXtXtXtXtXtXtXtXtXtXtXtXtXtX",
"yXyXyXyXyXyXyXyXyXyXyXyXyXyXyXyXtXtXtXtXtXtXtXtXtXtX  ^ Z.E.XXXX+X+X+X$Xy.o yXyXtXtXtXtXtXtXtXtXtXtXtXtXtXtXtXtXtXtXtXtXtXtXtXtX",
"yXyXyXyXyXyXyXyXyXyXyXyXyXyXyXyXtXtXtXtXtXtXtXtXtXtX  I Z.E.+X.X.X.X.X$Xy.  tXtXtXtXtXtXtXtXtXtXtXtXtXtXtXtXtXtXtXtXtXtXtXtXtXtX",
"yXyXyXyXyXyXyXyXyXyXyXyXyXyXyXyXtXtXtXtXtXtXtXtXtXtXO U Y._.+X+X+X#X$X$Xy.O tXtXtXtXtXtXtXtXtXtXtXtXtXtXtXtXtXtXtXtXtXtXtXtXtXtX",
"yXyXyXyXyXyXyXyXyXyXyXyXyXyXyXyXtXtXtXtXtXtXtXtXtXl o 0 M I Y Y Y ` ` T x X o.tXtXtXtXtXtXtXtXtXtXtXtXtXtXtXtXtXtXtXtXtXtXtXtXtX",
"yXyXyXyXyXyXyXyXyXyXyXyXyXyXyXyXtXtXtXtXtXtXtXtX:.0 , , , , 6 6 6 6 6 6 6 6 0 -.tXtXtXtXtXtXtXtXtXtXtXtXtXtXtXtXtXtXtXtXtXtXtXtX",
"tXtXtXtXtXtXtXtXtXtXtXtXtXtXtXtXtXtXtXtXtXtXtXi c l.v.v.M.Y.'.`.`.`.`.'.`.`.P.c a tXtXtXtXtXtXtXtXtXtXtXtXtXtXtXtXtXtXtXtXtXtXtX",
"tXtXtXtXtXtXtXtXtXtXtXtXtXtXtXtXtXtXtXtXtXo   V 2.9.9.3.9.9.e.e.r.e.r.e.e.e.9.2.V O O tXtXtXtXtXtXtXtXtXtXtXtXtXtXtXtXtXtXtXtXtX",
"tXtXtXtXtXtXtXtXtXtXtXtXtXtXtXtXtXtXtXtX@.;.;.L.,X%X%X%X&X&X%X%X&X&X%X%X%X&X&X,XL.;.;.+.tXtXtXtXtXtXtXtXtXtXtXtXtXtXtXtXtXtXtXtX",
"tXtXtXtXtXtXtXtXtXtXtXtXtXtXtXtXtXtXtX= t 7X6X6X6X6XqXqXqXqX0X0X0X0X0X0X0X0X0X0X0XwX6Xg p tXtXtXtXtXtXtXtXtXtXtXtXtXtXtXtXtXtXtX",
"tXtXtXtXtXtXtXtXtXtXtXtXtXtXtXtXtXtXtX= q ^.B.N.V.B.(.}.[./.+X+X+X+X.X+X.X+X+X#X@X}./.q p tXtXtXtXtXtXtXtXtXtXtXtXtXtXtXtXtXtXtX",
"tXtXtXtXtXtXtXtXtXtXtXtXtXtXtXtXtXtXtXa 7 Y.B.N.N.N./.'.E.'.{.+X+X+X#X+X+X+X+X+X{.W.R.8 k tXtXtXtXtXtXtXtXtXtXtXtXtXtXtXtXtXtXtX",
"tXtXtXtXtXtXtXtXtXtXtXtXtXtXtXtXtXk = = # v c m n S b v v v K J J J J K J J J J b v v # = & = tXtXtXtXtXtXtXtXtXtXtXtXtXtXtXtXtX",
"tXtXtXtXtXtXtXtXtXtXtXtXtXtXtXtXtX9 2 2 2 2 1 2 f r 0 0 0 0 0 0 0 9 0 0 0 0 0 9 0 0 0 2 2 2 9 tXtXtXtXtXtXtXtXtXtXtXtXtXtXtXtXtX",
"tXtXtXtXtXtXtXtXyXyXyXyXyXyXtXtX1 S.S.S.;.0.S.D.F.K.H.K.K.K.K.K.K.K.K.K.K.K.K.K.K.K.K.F.S.S.=.1 a tXtXtXtXtXtXtXtXtXtXtXtXtXtXtX",
"tXtXtXtXtXtXtXtXyXyXyXyXyXyXtX% * { %.| [ [ [ | } ..0.D.H.F.F.H.F.F.F.H.H.F.F.F.F.G.0.} } } { * z tXtXtXtXtXtXtXtXtXtXtXtXtXtXtX",
"tXtXtXtXtXtXtXtXyXyXyXyXyXyXyX% $ | &.G D D D ] } { %.S.F.F.F.F.G.F.H.H.F.F.F.F.G.S.} { { { | 1 o.tXtXtXtXtXtXtXtXtXtXtXtXtXtXtX",
"tXtXtXtXtXtXtXtXyXyXyXyXyXyXyXyX* | &.&.A f B V V A F A Q Q Q Q Q [ [ Q E E D E Q A A ] } { { 3 l tXtXtXtXtXtXtXtXtXtXtXtXtXtXtX",
"tXtXtXtXtXtXtXtXyXyXyXyXyXyXyXyX* | { G B O O tXtXtXtXtXtXtXtXtXtXtXtXtXtXtX      o O A } { { 1 a tXtXtXtXtXtXtXtXtXtXtXtXtXtXtX",
"tXtXtXtXtXtXtXtXyXyXyXyXyXyXyXyX$ &.S.| B O tXtXtXtXtXtXtXtXtXtXtXtXtXtXtXtXtXtXtXtX# A %.{ | * u tXtXtXtXtXtXtXtXtXtXtXtXtXtXtX",
"tXtXtXtXtXtXtXtXyXyXyXyXyXyXyXyX1 %.%.G B O tXtXtXtXtXtXtXtXtXtXtXtXtXtXtXtXtXtXtXtXo A } &.{ * s tXtXtXtXtXtXtXtXtXtXtXtXtXtXtX",
"tXtXtXtXtXtXtXtXyXyXyXyXyXyXyXyX3 &.%.| B O tXtXtXtXtXtXtXtXtXtXtXtXtXtXtXtXtXtXtXtXo A %.{ | # s tXtXtXtXtXtXtXtXtXtXtXtXtXtXtX",
"tXtXtXtXtXtXtXtXtXtXtXtXtXtXtX& 3 | &.| V @ @ $ $ < * * - $ 1 * - * * * * $ * # & $ @ D } { | * p tXtXtXtXtXtXtXtXtXtXtXtXtXtXtX",
"tXtXtXtXtXtXtXtXtXtXtXtXtXtXtX% $ &.{ G D A D G G G G &...................=.....;.=.] | { } | * a tXtXtXtXtXtXtXtXtXtXtXtXtXtXtX",
"tXtXtXtXtXtXtXtXtXtXtXtXtXtXtXtX$ G ] G G G G G %.%.D.F.F.F.F.F.F.F.F.F.F.F.y.G.H.H.F...&.&.{ $ u tXtXtXtXtXtXtXtXtXtXtXtXtXtXtX",
"tXtXtXtXtXtXtXtXtXtXtXtXtXtXtXtXo 4 e e e e e f B B A A C C C Z C C C C C C W ! A C C B B B B + u tXtXtXtXtXtXtXtXtXtXtXtXtXtXtX",
"tXtXtXtXtXtXtXtXtXtXtXtXtXtXtX@.: : : : : : : > 2 0 > > > > 6 6 6 6 6 6 > 6 r 6 6 > > > : : > : $.tXtXtXtXtXtXtXtXtXtXtXtXtXtXtX",
"tXtXtXtXtXtXtXtXtXtXtXtXtXtX= ~ Y.l.j.s.s.s.x.V.~.P.P.R.`.`.`.`.`.I.`.`.U.`.XX`.`.R.P.Y.l.Y.P.Y./ s tXtXtXtXtXtXtXtXtXtXtXtXtXtX",
"tXtXtXtXtXtXtXtXtXtXtXtXtXtX; P _.W.Z.Z.N.Z.A.).W.!.W. X+X+X+X+X+X+X+X+X$X+X+X+X+XXXW.W.W.!.W.!.I u tXtXtXtXtXtXtXtXtXtXtXtXtXtX",
"tXtXtXtXtXtXtXtXtXtXtXtXtXtXo 8 U I N M M ~ ~ P I I I T T T T ` ` T T ` ` T ` T T T U I I I I I q u tXtXtXtXtXtXtXtXtXtXtXtXtXtX",
"tXtXtXtXtXtXtXtXtXtXtXtXtXtX& O           tXtXtXtXtXtXtXtXtXtXtXtXtXtX  tXtXtXtXtX              o tXtXtXtXtXtXtXtXtXtXtXtXtXtXtX",
"tXtXtXtXtXtXtXtXtXtXtXtXtXtXtXtXtXtXtXtXtXtXtXtXtXtXtXtXtXtXtXtXtXtXtXtXtXtXtXtXtXtXtXtXtXtXtXtXtXtXtXtXtXtXtXtXtXtXtXtXtXtXtXtX",
"tXtXtXtXtXtXtXtXtXtXtXtXtXtXtXtXtXtXtXtXtXtXtXtXtXtXtXtXtXtXtXtXtXtXtXtXtXtXtXtXtXtXtXtXtXtXtXtXtXtXtXtXtXtXtXtXtXtXtXtXtXtXtXtX"
};
