/* XPM */
static char *xpm_[] = {
/* columns rows colors chars-per-pixel */
"38 64 212 2 ",
"   c #140E0B",
".  c #1E160D",
"X  c #1B1412",
"o  c #1D1915",
"O  c #1E1B19",
"+  c #161615",
"@  c #23190D",
"#  c #2A1A0C",
"$  c #201614",
"%  c #241B14",
"&  c #2B1C14",
"*  c #241D1A",
"=  c #2D1D18",
"-  c #2F210C",
";  c #32240D",
":  c #29211A",
">  c #322413",
",  c #3A2D15",
"<  c #33231E",
"1  c #3A251F",
"2  c #342A1C",
"3  c #3A2E1B",
"4  c #332811",
"5  c #2C2723",
"6  c #2E2924",
"7  c #3B2620",
"8  c #332D26",
"9  c #322C28",
"0  c #3C3224",
"q  c #34312C",
"w  c #363026",
"e  c #3C3531",
"r  c #3D3B37",
"t  c #442B18",
"y  c #4D3A1C",
"u  c #4C3418",
"i  c #553A16",
"p  c #593C16",
"a  c #5A3E1C",
"s  c #523A19",
"d  c #482E26",
"f  c #453124",
"g  c #4A3426",
"h  c #4D3923",
"j  c #4C3429",
"k  c #4C3B2B",
"l  c #463825",
"z  c #57372F",
"x  c #543C2B",
"c  c #543B26",
"v  c #5D3B32",
"b  c #463A32",
"n  c #613822",
"m  c #723D22",
"M  c #653F35",
"N  c #5B4016",
"B  c #5E451B",
"V  c #5F491A",
"C  c #56411A",
"Z  c #67471D",
"A  c #744D1E",
"S  c #77501E",
"D  c #7A531D",
"F  c #4F402D",
"G  c #5B4325",
"H  c #5D4328",
"J  c #51422B",
"K  c #4C413C",
"L  c #464135",
"P  c #534533",
"I  c #584938",
"U  c #6D4D2B",
"Y  c #664627",
"T  c #744B23",
"R  c #7C4E25",
"E  c #7B4A29",
"W  c #764528",
"Q  c #795628",
"!  c #664136",
"~  c #6A4A36",
"^  c #6A4439",
"/  c #6E4D39",
"(  c #694537",
")  c #744A3D",
"_  c #7A5B33",
"`  c #75523D",
"'  c #79563E",
"]  c #7C602C",
"[  c #59544B",
"{  c #5F5440",
"}  c #514D49",
"|  c #645A4B",
" . c #7B5440",
".. c #655B51",
"X. c #736345",
"o. c #835A1E",
"O. c #824D25",
"+. c #895525",
"@. c #835A23",
"#. c #895D23",
"$. c #875629",
"%. c #965D29",
"&. c #99592C",
"*. c #865E30",
"=. c #A25D31",
"-. c #A85A31",
";. c #876423",
":. c #8B6423",
">. c #8B6924",
",. c #8B642D",
"<. c #8C6C29",
"1. c #956523",
"2. c #9C632A",
"3. c #966C2A",
"4. c #99742C",
"5. c #977329",
"6. c #8C6833",
"7. c #8E6C3B",
"8. c #976C35",
"9. c #97723B",
"0. c #A56E27",
"q. c #A46C2B",
"w. c #A1642E",
"e. c #B36E2F",
"r. c #A67327",
"t. c #A97426",
"y. c #AB7329",
"u. c #A67B2C",
"i. c #AB7C2C",
"p. c #A5742A",
"a. c #B1762D",
"s. c #BB752E",
"d. c #B47B2B",
"f. c #BE7C2E",
"g. c #AD6431",
"h. c #AC6B31",
"j. c #B16631",
"k. c #B56C32",
"l. c #B86F31",
"z. c #AE7133",
"x. c #A97E38",
"c. c #B57431",
"v. c #BA7332",
"b. c #BD7A32",
"n. c #B97C37",
"m. c #C27E2F",
"M. c #C17D31",
"N. c #845741",
"B. c #956A47",
"V. c #966A48",
"C. c #926646",
"Z. c #8B7349",
"A. c #85714A",
"S. c #997D4D",
"D. c #86724C",
"F. c #AF802B",
"G. c #B1862D",
"H. c #B1882D",
"J. c #BD8B2E",
"K. c #BC812F",
"L. c #B48A32",
"P. c #B78435",
"I. c #AB803A",
"U. c #C5842F",
"Y. c #C9862E",
"T. c #C48B2E",
"R. c #CD8B2D",
"E. c #C7902F",
"W. c #CF912E",
"Q. c #D1932F",
"!. c #C48332",
"~. c #C98531",
"^. c #C58A34",
"/. c #CC8C32",
"(. c #C78A39",
"). c #CE9233",
"_. c #CA933A",
"`. c #D19432",
"'. c #D59E32",
"]. c #D59D32",
"[. c #D59F34",
"{. c #D59E35",
"}. c #D49C33",
"|. c #D29539",
" X c #D4993F",
".X c #D7A335",
"XX c #D7A234",
"oX c #D6A135",
"OX c #D7A436",
"+X c #D7A335",
"@X c #D9A435",
"#X c #D7A239",
"$X c #D8A539",
"%X c #DDA839",
"&X c #9E8350",
"*X c #B9904E",
"=X c #A38551",
"-X c #B78F52",
";X c #CA8A44",
":X c #CB9847",
">X c #C4974D",
",X c #CA9A4B",
"<X c #C89445",
"1X c #D59C44",
"2X c #C59159",
"3X c #C8935A",
"4X c #C19750",
"5X c #DFAE46",
"6X c #DAA245",
"7X c #8C8A86",
"8X c None",
"9X c None",
/* pixels */
"8X8X8X8X8X8X8X8X8X8X8X8X8X8X8X8X8X8X8X8X8X8X9X9X9X9X9X9X8X8X8X8X8X8X8X8X8X8X",
"8X8X8X8X8X8X8X8X8X8X8X8X8X8X8X8X8X# # # # 8X9X9X9X9X9X9X8X8X8X8X8X8X8X8X8X8X",
"8X8X8X8X8X8X8X8X8X8X8X8X8X8XK f E %.%.%.%.R t 9X9X9X9X9X8X8X8X8X8X8X8X8X8X8X",
"8X8X8X8X8X8X8X8X8X8X8X8X8XG R =.k.v.v.v.v.j.=.E G 9X9X9X8X8X8X8X8X8X8X8X8X8X",
"8X8X8X8X8X8X8X8X8X8X8X8XQ a._.!.l.j.l.l.j.e.!.^.a.U 8X8X8X8X8X8X8X8X8X8X8X8X",
"8X8X8X8X8X8X8X8X8X8X8XU z.|.oXoX/.M.j.j.M./.oX.X).a.U 8X8X8X8X8X8X8X8X8X8X8X",
"8X8X8X8X8X8X8X8X8X8Xf &.^.OXOXOXXX[.^.^.}.$XoX.XOX~.&.j 8X8X8X8X8X8X8X8X8X8X",
"8X8X8X8X8X8X8X8X8X8XW g.!.oXOXoXXXXX_.).@X$X@XoXOX!.g.U [ 8X8X8X8X8X8X8X8X8X",
"8X8X8X8X8X8X8X8X8Xf w.l.l.).$XOX$X#X(.!.'.XXOX$X|.k.l.w.k 8X8X8X8X8X8X8X8X8X",
"8X8X8X8X8X8X8X8X8X*.l.l.j.~.}.oX|.!.j.j.U.|.oX`.!.j.l.l.Q e 8X8X8X8X8X8X8X8X",
"8X8X8X8X8X8X8X8X% +.l.j.!.U.U.M.k.j.k.k.j.l.m.v.b.f.k.l.+.9 8X8X8X8X8X8X8X8X",
"8X8X8X8X8X8X8X8XX O.k.!.}.oX/.l.j.v.v.l.c.j.j.(.}.}.M.k.O.9 8X8X8X8X8X8X8X8X",
"8X8X8X8X8X8X8X8X. +.b.}.oXOXoXb.k.v.l.c.v.k.M.XX$XoX'.M.+.w 8X8X8X8X8X8X8X8X",
"8X8X8X8X8X8X8X8X% 1.~.{.$X$XOX).k.k.v.v.k.k.).XXoX$X}.~.1.w 8X8X8X8X8X8X8X8X",
"8X8X8X8X8X8X8X8X8XQ f.^.#XOXOXoXc.j.j.j.j.l.oX$XoX'.^.f.] 8X9X9X8X8X8X8X8X8X",
"8X8X8X8X8X8X8X8X8X, 0.b.^.E.E.K.h.c.n.c.c.c.K.T.E.^.b.p.k 9X9X9X8X8X8X8X8X8X",
"8X8X8X8X8X8X8X8X, & u p p p N i i Z Z V V s i N N N B s > 2 9X9X8X8X8X8X8X8X",
"8X8X8X8X8X8X8XB 0.w.2.0.t.F.H.H.L.L.H.H.H.H.G.G.d.y.y.q.2.q.U 9X8X8X8X8X8X8X",
"8X8X8X8X8X8X8XH q.j.j.l.m.s.U.!.(.!.^.K.!.^.^.K.m.s.s.k.g.2.H 9X8X8X8X8X8X8X",
"8X8X8X8X8X8X8X8XY j.g.j.j.s.s.s.c.s.s.s.s.s.s.s.s.s.s.s.M.' 9X9X8X8X8X8X8X8X",
"8X8X8X8X3 , 3 @ A Y.v.v.m.R.R.Q.'.'.'.'.}.oX{.'.].].].W.1XZ.% > 4 3 8X8X8X8X",
"8X8X8X_ P.L.d.Z S R.s.v.Y.R.R.].XXOXOXOXOX$XOXoX@XXXXXQ.1XZ.Z G.G.P._ 8X8X8X",
"8X8XQ >Xx.D S t S R.v.v.~.R.R.Q.XX$XoX$X$XoXOXoX@XXXXXW.1XA.t S D I.>X_ 8X8X",
"8X@ u.x.h 8X8X+ R /.M.v.~.R.W.`.XXXXOX$X$XOXOXOX@XXXXXW. XA.o 8X8Xu I.x.2 8X",
"8X: F.;.8X8X8X8XQ U.M.v.M.Y.R.`.XXXX@XXX.X.X.X.X.XOXoXQ.:XD.8X8X8X8X:.u.2 8X",
"8X2 u.:.8X8X8X8X3 3.~.v.v.Y.R.Q.$XXXoX@X.X.X.X.X$X$X`.|.=X} 8X8X8X8X:.u.0 8X",
"9X9XQ t.C 8X8X8X. 1.~.v.v.Y.R.`.oX.X@X.X.X.XoX$X$X.X`.|.=Xr 9X9X8XC r.] 8X8X",
"9X9X, J.A 8X8X8X8 :.~.v.l.M./.).}..X.X.X.X.X@X$XOX@X`.|.&X} 9X9X8XA J.l 8X8X",
"9X9X, T.;.8X8X8X8Xy d.m.s.v././.'.oXOXOXoXOX.X.XOX'.`.>X{ 8X9X9X8X>.J.l 8X8X",
"9X9X0 5.J.H 8X8X8X> d.U.v.v.~.R.}.oXoXOX.XOX.X.XoX}.`.*XL 8X9X9Xa J.5.I 8X8X",
"9X9X9XC ,X9.P 8X8X8XR U.b.l.m.R.R.oX.X$X$X@X.X.XoXQ.:XZ.[ 8X8XI 7._.G 9X8X8X",
"9X9X9X9X6.,X9.F 8X8Xy d.m.j.l.U.R.`.OX$XOXoX.X.X'.`.>X| 8X8XI 9.,X7...8X8X8X",
"8X8X8X8X8X6.:X<.k 9X9XQ s.k.j.M.R./.#XOXXXXXoX'._.>XD.7X9XP 3.<X7...9X9X9X9X",
"8X8X8X8X8X8X6.T.,.9X9Xe o.s.-.g.b.R.`.'.$XXX'.W.1XS.[ 8Xf #.T.6...9X9X9X9X9X",
"8X8X8X8X8X8XP *.h.O.n # u 0.l.-.j.m.R.W.`.`.R.|.*Xc = n R h.*...9X9X9X9X9X9X",
"8X8X8X8X8X8X8Xb g E W m O.A y.v.j.v.m.R.R.R.|.*X_ O.m W E j ..8X9X9X9X9X9X9X",
"8X8X8X8X8X8X8X8X8Xb = ! R c s q.m.M.s.m.R.|.*XP a E ~ e } 8X8X8X9X9X9X9X9X9X",
"8X8X8X8X8X8X8X8X8X8X8X8X6 9 e H 2.m.m.m.~.P.X.r 9 e 8X8X9X9X8X8X9X9X9X9X9X9X",
"8X8X8X8X8X8X8X8X8X8X8X8X9X9X9XO m l.M.M.U.#.5 8X8X8X8X8X9X9X9X9X9X9X9X9X9X9X",
"8X8X8X8X8X8X8X8X8X8X8X8X9X9X9X  W m./.Y./.:.o 8X8X8X8X8X9X9X9X9X9X9X9X9X9X9X",
"8X8X8X8X8X8X8X8X8X8X8X8X8X8X8Xt +.M.!.!.^.3.j 8X9X9X9X9X9X9X9X9X9X9X9X9X9X9X",
"8X8X8X8X8X8X8X8X8X8X8X8X8X8X8Xn g.l.b.b.n.c.U 8X9X9X9X9X9X9X9X9X9X9X9X9X9X9X",
"8X8X8X8X8X8X8X8X8X8X8X8X8X8X8Xk $.l.v.c.c.1.I 8X9X9X9X9X9X9X9X9X9X9X9X9X9X9X",
"8X8X8X8X8X8X8X8X8X8X8X8X8X8X8XX O.M.~.U.~.#.: 8X9X9X9X9X9X9X9X9X9X9X9X9X9X9X",
"8X8X8X8X8X8X8X8X8X8X8X8X8X8X8X  @.W.XX.X$X5.: 8X9X9X9X9X9X9X9X9X9X9X9X9X9X9X",
"8X8X8X8X8X8X8X8X8X8X8X8X8X8X8X8X@.W..XOX%X4.8X8X9X9X9X9X9X9X9X9X9X9X9X9X9X9X",
"8X8X8X8X8X8X8X8X8X8X8X8X8X8X8XX Z y.H.G.H.Q o 8X9X9X9X9X9X9X9X9X9X9X9X9X9X9X",
"8X8X8X8X8X8X8X8X8X8X8X8X8X8XP u t p V V Z C y P 9X9X9X9X9X9X9X9X9X9X9X9X9X9X",
"8X8X8X8X8X8X8X8X8X8X8X8X8X< W =.=.g.y.c.h.z.h.W < 8X8X8X9X9X9X9X9X9X9X9X9X9X",
"8X8X8X8X8X8X8X8X8X8X8X8XX.&X-X2X2X2X3X3X3X3X3X2X&XX.8X8X9X9X9X9X9X9X9X9X9X9X",
"8X8X8X8X8X8X8X8X8X8X8X* ,.;X;X;X6X6X5X5X5X5X5X5X6X,.5 8X9X9X9X9X9X9X9X9X9X9X",
"8X8X8X8X8X8X8X8X8X8X8XO i R R $.o.o.>.>.>.>.<.>.;.p O 8X9X9X9X9X9X9X9X9X9X9X",
"8X8X8X8X8X8X8X8X8X8Xj j g g x H H H H H H H H H H c g f 8X8X9X9X9X9X9X9X9X9X",
"8X8X8X8X8X8X8X8X8X% ^ ) ~ ) N.N.C.B.B.B.B.B.B.B.C.N.N.^ 6 8X9X9X9X9X9X9X9X9X",
"8X8X8X8X8X8X8X8X8XX M ^ j j v v ~ / / / ) / / ~ ( ! ) ! 9 9X9X9X9X9X9X9X9X9X",
"8X8X8X8X8X8X8X8X8XX M ^ =   8X8X8X8X8X8X8X8X8X8Xo < ) ! : 9X9X9X9X9X9X9X9X9X",
"8X8X8X8X8X8X8X8X8X$ ^ ^ = 8X8X8X8X8X8X8X8X8X8X8X8X5 ) M * 8X8X8X9X9X9X9X9X9X",
"8X8X8X8X8X8X8X8X8X% M ^ = X 8X8X8X8X8X8X8X8X8X* % 7 ) M : 8X8X8X9X9X9X9X9X9X",
"8X8X8X8X8X8X8X8X8XX v M z z ^ ^ ` ' '  .' ' `  . .)  .M * 8X8X8X9X9X9X9X9X9X",
"8X8X8X8X8X8X8X8X8Xo < 1 1 7 d j k x x x x x J H x g d 7 * 8X8X8X9X9X9X9X9X9X",
"8X8X8X8X8X8X8X8X8XT o.T T R @.#.;.>.;.>.>.>.<.>.;.o.D o.Q 8X8X8X9X9X9X9X9X9X",
"8X8X8X8X8X8X8X8X% D 0.2.&.w.r.t.F.G.G.F.G.G.G.G.G.t.t.t.D w 8X8X9X9X9X9X9X9X",
"8X8X8X8X8X8X8X8X8X@ # # > 8X8X8X8X8X8X8X8X8X8X8X4 - - - : 8X9X9X9X9X9X9X9X9X",
"8X8X8X8X8X8X8X8X8X8X8X8X8X8X8X8X8X8X8X8X8X8X8X8X8X8X8X8X9X9X9X9X9X9X9X9X9X9X"
};
