/* XPM */
static char *_bb7b50dca294833e69838f30b562828Dpv9JtY4BNbOkA6L_0[] = {
/* columns rows colors chars-per-pixel */
"62 64 215 2 ",
"   c #080505",
".  c #140A03",
"X  c #130907",
"o  c #1C0E04",
"O  c #140C11",
"+  c #1C1A17",
"@  c #200F04",
"#  c #231105",
"$  c #2B1506",
"%  c #24120C",
"&  c #331907",
"*  c #341A09",
"=  c #3B1D08",
"-  c #241917",
";  c #0D331C",
":  c #193D1E",
">  c #382A05",
",  c #3D3206",
"<  c #2D2512",
"1  c #352413",
"2  c #040426",
"3  c #0B0A33",
"4  c #312B26",
"5  c #37312C",
"6  c #401F08",
"7  c #4F270A",
"8  c #423305",
"9  c #4B3708",
"0  c #523E05",
"q  c #6C3510",
"w  c #773910",
"e  c #7B3C10",
"r  c #4A3A2B",
"t  c #793D35",
"y  c #0D5B38",
"u  c #584715",
"i  c #664E07",
"p  c #695109",
"a  c #775B0B",
"s  c #614D13",
"d  c #665216",
"f  c #7E6009",
"g  c #7A6711",
"h  c #584732",
"j  c #635734",
"k  c #07075C",
"l  c #130E53",
"z  c #2B205B",
"x  c #0A0A68",
"c  c #18136A",
"v  c #070770",
"b  c #0B0B73",
"n  c #110E71",
"m  c #111176",
"M  c #151578",
"N  c #1B1B7C",
"B  c #281965",
"V  c #21217F",
"C  c #713942",
"Z  c #5A574D",
"A  c #615A47",
"S  c #6A554F",
"D  c #6B6450",
"F  c #6C6B68",
"G  c #803F11",
"H  c #ED161F",
"J  c #ED1720",
"K  c #ED1B23",
"L  c #ED2928",
"P  c #EC3429",
"I  c #EE2B32",
"U  c #EE383A",
"Y  c #854112",
"T  c #8B4412",
"R  c #944814",
"E  c #954814",
"W  c #9B4B14",
"Q  c #A24F15",
"!  c #A55116",
"~  c #AB5316",
"^  c #B15617",
"/  c #B45817",
"(  c #B65918",
")  c #BC5C19",
"_  c #846709",
"`  c #8E6D0C",
"'  c #916E09",
"]  c #95710A",
"[  c #99750B",
"{  c #877015",
"}  c #A27C0A",
"|  c #8F4724",
" . c #894538",
".. c #964B34",
"X. c #A8532C",
"o. c #B75A25",
"O. c #C35F17",
"+. c #C15E1A",
"@. c #E75919",
"#. c #C6611C",
"$. c #CD641B",
"%. c #D1661B",
"&. c #E57A18",
"*. c #ED4132",
"=. c #EA6B31",
"-. c #EF3940",
";. c #F03E45",
":. c #8B504C",
">. c #F0494E",
",. c #F04C4C",
"<. c #F14A51",
"1. c #F36E72",
"2. c #AA810A",
"3. c #B78E0D",
"4. c #BF910C",
"5. c #C3950C",
"6. c #CA9A0C",
"7. c #CB9D14",
"8. c #E48616",
"9. c #E29A16",
"0. c #DAA70F",
"q. c #DBA90E",
"w. c #E0A40D",
"e. c #E1AC0E",
"r. c #E1AC13",
"t. c #E3B119",
"y. c #E88A34",
"u. c #E4B72F",
"i. c #918C7D",
"p. c #E9B34E",
"a. c #D7BD73",
"s. c #EEB46E",
"d. c #E8C150",
"f. c #EBC665",
"g. c #EDCF76",
"h. c #EED178",
"j. c #242481",
"k. c #2C2C86",
"l. c #2E2E89",
"z. c #34348A",
"x. c #3A3A8E",
"c. c #424292",
"v. c #4A4A97",
"b. c #4D4D98",
"n. c #54549C",
"m. c #58589F",
"M. c #625F9F",
"N. c #5D5DA1",
"B. c #5F60A4",
"V. c #6262A5",
"C. c #6C6CAA",
"Z. c #7272AE",
"A. c #7B76AB",
"S. c #7676B0",
"D. c #7B7BB3",
"F. c #F57F84",
"G. c #8E8C8A",
"H. c #95938D",
"J. c #969596",
"K. c #A09F9D",
"L. c #A4A29C",
"P. c #8181B6",
"I. c #8585B9",
"U. c #8C8CBC",
"Y. c #9090BF",
"T. c #A7A7A7",
"R. c #B8B9B9",
"E. c #F58A8B",
"W. c #C6B78B",
"Q. c #C0BEBD",
"!. c #F9B2B4",
"~. c #D3C28F",
"^. c #F0D289",
"/. c #F2DB98",
"(. c #F5C9A3",
"). c #F4D7A8",
"_. c #F4E2AD",
"`. c #F6E6B7",
"'. c #9494C1",
"]. c #9C9CC6",
"[. c #9F9FC8",
"{. c #A4A4CB",
"}. c #AAAACE",
"|. c #B8B9C5",
" X c #AEAED1",
".X c #B3B3D3",
"XX c #B9B9D7",
"oX c #BDBDD9",
"OX c #C3C4C4",
"+X c #C6C7C9",
"@X c #CACACC",
"#X c #C4C4DD",
"$X c #CBCCDE",
"%X c #D5D6D8",
"&X c #DADADB",
"*X c #FACDCA",
"=X c #FBD0CE",
"-X c #FBD1D2",
";X c #FAEFD4",
":X c #CCCCE2",
">X c #D3D3E6",
",X c #DBDBEA",
"<X c #E5E5E6",
"1X c #E2E2EE",
"2X c #ECEDEE",
"3X c #FDE7E8",
"4X c #FCF5E6",
"5X c #FDF9EE",
"6X c #E5E5F0",
"7X c #ECECF4",
"8X c #F2F2F6",
"9X c #FEF3F3",
"0X c #FEFCF4",
"qX c #F5F5F9",
"wX c white",
/* pixels */
"wXwXwXwXwXwXwXwXwXwXwXwXwXwXwXwXwXwXwXwXwXwXwXwXwXwXwXwXwXwXwXwXwXwXwXwXwXwXwXwXwXwXwXwXwXwXwXwXwXwXwXwXwXwXwXwXwXwXwXwXwXwX",
"wXwXwXwXwXwXwXwXwXwXwXwXwXwXwXwXwXwXwXwXwXwXwXwXwXwXwXwXwX5X_._.0XwXwXwXwXwXwXwXwXwXwXwXwXwXwXwXwXwXwXwXwXwXwXwXwXwXwXwXwXwX",
"wXwXwXwXwXwXwXwXwXwXwXwXwXwXwXwXwXwXwXwXwXwXwXwXwXwXwXwX0X^.r.t.h.5XwXwXwXwXwXwXwXwXwXwXwXwXwXwXwXwXwXwXwXwXwXwXwXwXwXwXwXwX",
"wXwXwXwXwXwXwXwXwXwXwXwXwXwXwXwXwXwXwXwXwXwXwXwXwXwXwXwX0X~.a a a.5XwXwXwXwXwXwXwXwXwXwXwXwXwXwXwXwXwXwXwXwXwXwXwXwXwXwXwXwX",
"wXwXwXwXwXwXwXwXwXwXwXwXwXwXwXwXwXwXwXwXwXwXwXwXwXwXwXwXwX@XO O @XwXwXwXwXwXwXwXwXwXwXwXwXwXwXwXwXwXwXwXwXwXwXwXwXwXwXwXwXwX",
"wXwXwXwXwXwXwXwXwXwXwXwXwXwXwXwXwXwXwXwXwXwXwXwXwXwXwXwXwX2XT.T.2XwXwXwXwXwXwXwXwXwXwXwXwXwXwXwXwXwXwXwXwXwXwXwXwXwXwXwXwXwX",
"wXwXwXwXwXwXwXwXwXwXwXwXwXwXwXwXwXwXwXwXwXwXwXwXwXwXwX0X).!.wXwX!.).5XwXwXwXwXwXwXwXwXwXwXwXwXwXwXwXwXwXwXwXwXwXwXwXwXwXwXwX",
"wXwXwXwXwXwXwXwXwXwXwXwXwXwXwXwXwXwXwXwXwXwX3X!.!.4X_./.=.,.9X9X,.8.f.E.F.E.E.3XwXwXwXwXwXwXwXwXwXwXwXwXwXwXwXwXwXwXwXwXwXwX",
"wXwXwXwXwXwXwX@XF F <XwXwXwXwXwXwXwXwXwXwXwX=XL U =X=.@.L <.9X9X>.=.s.P H K K 1.3XwXwXwXwXwXwXwXwXwXwXwXwXwXwXwXwXwXwXwXwXwX",
"wXwXwXwXwXwXOXj _ i F qXwXwXwXwXwXwXwXwXwX3X1.K U =X;.J K <.9X9X>.>.3X!.-.K K L *XwXwXwXwXwXwXwXwXwXwXwXwXwXwXwXwXwXwXwXwXwX",
"wXwXwXwXwX@Xh } r.2.5 8XwXwXwXwXwXwXwXwX3X1.K K U =X;.K K <.9X9X>.I E.3X<.K K K 1.3XwXwXwXwXwXwXwXwXwXwXwXwXwXwXwXwXwXwXwXwX",
"wXwXwXwXwXR., 0.e.2.r 2XwXwXwXwXwXwXwXwX-XL K K P s.U K K U s.f.U H ;.3X<.K K K L -XwXwXwXwXwXwXwXwXwXwXwXwXwXwXwXwXwXwXwXwX",
"wXwXwXwXwX<XF 0 a 5.{ F 2XwXwXwXwX4Xf.h.*XI K L &.9.P K K I (.).,.K I 1.y.&.P K I =X^.f.4XwXwXwXwXwXwXwXwXwXwXwXwXwXwXwXwXwX",
"wXwXwXwXwXwX%XF X p 6.g Z %XwXwXwX5X_.`.=XI K I (.).U K K L p.f.*.K K I (._.,.K I -X`._.5XwXwXwXwXwXwXwXwXwXwXwXwXwXwXwXwXwX",
"wXwXwXwXwXwXwX|.z F a 6.a Z 7XwXwX4Xg.^.*XI K L p.d.8.L L &.w.w.8.L K L p.p.*.K I *X^.g.4XwXwXwXwXwXwXwXwXwXwXwXwXwXwXwXwXwX",
"wXwXwXwXwXwX#Xz.l.$XH.s } 4 &XwXwX5X`.;X;Xy.&.8.w.w.w.8.8.w.e.e.e.8.&.8.w.w.8.&.8.p.u.).0XwXwXwXwXwXwXwXwXwXwXwXwXwXwXwXwXwX",
"wXwXwXwXwXwX.Xb j.>X+X1 4.[ A &XwXwX5Xf.d.t.e.r.0.0.0.q.q.0.0.0.0.q.q.q.0.0.q.q.q.q.u.4XwXwXwXwXwXwXwXwXwXwXwXwXwXwXwXwXwXwX",
"wXwXwXwXwXwX.Xb b c.%XH.s 6.[ Z <XwX0X/.t.r.e.5.0 8 , , 8 8 8 8 8 8 , , 8 0 3.u 9 W.;X0XwXwXwXwXwXwXwXwXwXwXwXwXwXwXwXwXwXwX",
"wXwXwXwXwXwX.Xb b j.,XqXH.p 6.` D <XwX0X`./.7.0 ` { y y g ' ' ' ' g y y { ` > + J.2XwXwXwXwXwXwXwXwXwXwXwXwXwXwXwXwXwXwXwXwX",
"wXwXwXwXwXwX.Xm b m N.8X8XH.s 5.` D <XwXwX0X~.< 4.3.: ; , 8 8 8 8 , ; ; 8 [ < T.qXwXwXwXwXwXwXwXwXwXwXwXwXwXwXwXwXwXwXwXwXwX",
"wXwXwXwXwXwX.Xm b b k.>XwXqXH.s 6.` D <XwXwX%X+ > , _ ] ] ] ] ] ] ] ] [ ] 8 + &XwXwXwXwXwXwXwXwXwXwXwXwXwXwXwXwXwXwXwXwXwXwX",
"wXwXwXwXwXwX.Xb b m j.n.,XwXqXH.d 6.` Z &XwX%X< ' [ 8 > > > > > > > > 9 4.] < &XwXwXwXwXwXwXwXwXwXwXwXwXwXwXwXwXwXwXwXwXwXwX",
"wXwXwXwXwXwX.Xb b x.:X.Xn.6XwX7XL.d 5.` Z &X%X- > > o e W W w . w W w . & & + OXwXwXwXwXwXwXwXwXwXwXwXwXwXwXwXwXwXwXwXwXwXwX",
"wXwXwXwXwXwX.Xb b c.7X>Xc.:XwXwXqXH.u 4.[ A R.1 T R W #.%.~ = o ~ ( = q ! R * 4 R.wXwXwXwXwXwXwXwXwXwXwXwXwXwXwXwXwXwXwXwXwX",
"wXwXwXwXwXwX.Xb b m C.qX:XN.1XwXwX7XH.u 5.} r W $.%.%.$.^ = o R ~ = # ! ) #.Q & 4 Q.wXwXwXwXwXwXwXwXwXwXwXwXwXwXwXwXwXwXwXwX",
"wXwXwXwXwXwX.Xb b v n.wX6Xx.XXwXwXwXqXT.< 9 Q #.$.$.%.^ & o R ( = $ ! ~ 7 R = R W 5 +XwXwXwXwXwXwXwXwXwXwXwXwXwXwXwXwXwXwXwX",
"wXwXwXwXwXwX.Xb b b b.8X1Xk.k. XqXwXwXR.% W $.$.#.^ ~ T . Y $.( $ T ^ q Y 7 & ! ( o 4 +XwXwXwXwXwXwXwXwXwXwXwXwXwXwXwXwXwXwX",
"wXwXwXwXwXwXXXN b b N V.,Xk.b k.1XwXQ.h W #.#.( R o @ o . ! %.( = & 6 Y = T ^ q ! $ e h Q.wXwXwXwXwXwXwXwXwXwXwXwXwXwXwXwXwX",
"wXwXwXwXwXwXqX[.m b b x.>Xk.b j.oXQ.r ~ #.( R o # $ R T o ! %.#.( ( W o   6 ! ) Q $ ~ W r R.qXwXwXwXwXwXwXwXwXwXwXwXwXwXwXwX",
"wXwXwXwXwXwXwXoXm b b x.>Xk.b b c 4 ~ #.Y # $ $ W ( $.~ . T #.$.$.%.^ $ . e 7 R & $ ! = . + +XwXwXwXwXwXwXwXwXwXwXwXwXwXwXwX",
"wXwXwXwXwXwX8X'.m b b x.>Xk.b x l = W Y .   R ) $.$.$.~ # # ^ $.$.$.#.~ & # e # $ Q ~ & T * J.qXwXwXwXwXwXwXwXwXwXwXwXwXwXwX",
"wXwXwXwXwXwXXXN b b b x.>Xk.x l % G # $ o . ~ %.$.$.$.#.W o W $.$.$.$.$.^ 6 & $ W ~ & $ ( ! - R.wXwXwXwXwXwXwXwXwXwXwXwXwXwX",
"wXwXwXwXwXwX.Xb b b b x.>Xk.k     . # ~ W o ! $.$.$.$.$.^ # o R #.$.$.$.$.+.) ) Q $ o R $.^ o R.wXwXwXwXwXwXwXwXwXwXwXwXwXwX",
"wXwXwXwXwX7XI.b b b N Z.,Xk.k   . R ~ #.! o ! $.$.$.$.$.#.R # . e #.$.$.$.%.%.( $ $ W $.$.( * G.8XwXwXwXwXwXwXwXwXwXwXwXwXwX",
"wXwXwXwXwX Xm b b b n.qX6Xk.k   & ) %.%.! o ~ %.$.$.$.$.$.$.~ & . e #.o.X.X.X.| - W $.$.$.$.~ 1 +XwXwXwXwXwXwXwXwXwXwXwXwXwX",
"wXwXwXwXwX}.b b b b n.wX6Xk.k % ~ $.$.%.! . Y #.$.$.$.$.$.$.$.~ $ o Y z c c c c c ..$.$.$.$.+.1 +XwXwXwXwXwXwXwXwXwXwXwXwXwX",
"wXwXwXwXwX}.b b b b n.wX6Xk.k % ) $.$.$.~ # o / $.$.$.$.$.$.$.o.| X 2 x b b b v v c C ) $.$.) 1 +XwXwXwXwXwXwXwXwXwXwXwXwXwX",
"wXwXwXwXwX}.b b b b n.wX6Xk.k % ) $.$.$.#.W o w #.$.$.$.%.$...B c 2 x b b v m n.V.B.M.:.+.%.) 1 +XwXwXwXwXwXwXwXwXwXwXwXwXwX",
"wXwXwXwXwX#Xx.b b v n.wX6Xk.k % ) $.$.$.$./ & . e #.$.$.X...B b b x M n.N.m.C.6XwXwXwXA.S #.O.1 +XwXwXwXwXwXwXwXwXwXwXwXwXwX",
"wXwXwXwXwXwXoXM b v n.wX6Xk.k % ) $.$.$.$.$.^ = . w +...B n b b M N.P.8XwXwXwX$X.XXXXX{.z.C  .- +XwXwXwXwXwXwXwXwXwXwXwXwXwX",
"wXwXwXwXwXwX>Xz.b v n.wX6Xk.k % +.$.$.$.$.$.$.~ $ . q B b b v M Z.8XwXwXwXXX{.z.b m m m b b x 3 +XwXwXwXwXwXwXwXwXwXwXwXwXwX",
"wXwXwXwXwXwXwX Xb b c.:X7XV.k X w +.$.$.$.$.$.#.| X 2 x b N C.I.8XwXwX#X{.k.b b b b b b b b v b Z.7XwXwXwXwXwXwXwXwXwXwXwXwX",
"wXwXwXwXwXwXwX>Xc.b b z.#X:Xc   . ~ $.$.%.%.$. .B 3 x v N U.wXwXwX:X}.z.b b b b b v m b.n.n.n.n.N.{.8XwXwXwXwXwXwXwXwXwXwXwX",
"wXwXwXwXwXwXwXwXXXm b b x.'.c 2 . ^ %.$.X... .B b x M n.D.qXwXwX#Xz.b b b b v m m.V.S.7XwXwXwX#X.Xx.U.8XwXwXwXwXwXwXwXwXwXwX",
"wXwXwXwXwXwXwXwX>Xb.b b b m b x 3 t  . .B n n b v M D.8XwXwXoX{.z.b b b b N C.I.7XwXwXwX#X X{.z.m b M P.1XwXwXwXwXwXwXwXwXwX",
"wXwXwXwXwXwXwXwXwX,Xn.b b b b b b b b b b b b j.D.'.qXwXwX}.j.b b b b b m D.qXwXwXwX.X].z.b b b b b b b m.1XwXwXwXwXwXwXwXwX",
"wXwXwXwXwXwXwXwXwXwX>Xn.b b N Z.D.D.D.D.D.C.M x.qXwXqX{.U.j.b b b b b V.U.8XwXwXoX[.k.b b b b b m V.D.D.D.D.,XwXwXwXwXwXwXwX",
"wXwXwXwXwXwXwXwXwXwXwX6XV.j.U.wX7X.XwX6X{.7X].'.U.P.S.N b b b b b M C.6XwXwXoX{.z.b b b b b M D.'.8XwXwXwX}.I.,XwXwXwXwXwXwX",
"wXwXwXwXwXwXwXwXwXwXwXwX1XI.{.6XZ.j.D.D.'.qXwXqXU.N v b b b b v N I.8XwXwX Xk.b b b b b M C.'.qXwX{.I.U.U.U.z.N.,XwXwXwXwXwX",
"wXwXwXwXwXwXwXwXwXwXwXwXwX6XD.U.P.D.C.j.D.wXwXwXwX'.M b b b M C.U.qXwX{.U.k.b b b b N P.[.qXwX XU.k.v b b v v b }.wXwXwXwXwX",
"wXwXwXwXwXwXwXwXwXwXwXwXwXwXXXb.6XU.'.}.{.{.'.}.wXqXU.N N D.].qXwX.XU.j.b b b b b m S.qXwX#X{.z.v b b b b x.v.b.#XwXwXwXwXwX",
"wXwXwXwXwXwXwXwXwXwXwXwXwXwX,XI.U.D.x.{.8XZ.b N D.[.1Xx.P.wXwX[.P.j.b b b b b N U.{.qXwX Xz.b b b b b c.N.:XwXqXwXwXwXwXwXwX",
"wXwXwXwXwXwXwXwXwXwXwXwXwXwXwX1XP.].D.j.N.C.D.D.V.z.,X{.Y.U.I.V v b b b b V I.{.qXwX}.I.j.b b b b v.C.>XwXwXwXwXwXwXwXwXwXwX",
"wXwXwXwXwXwXwXwXwXwXwXwXwXwXwXwX1XZ.U.{.Y.z.V.U.1XU.P.1Xx.v b b b b b b N Y.wXwXwX[.V b b b 3 2 3 |.wXwXwXwXwXwXwXwXwXwXwXwX",
"wXwXwXwXwXwXwXwXwXwXwXwXwXwXwXwXwX,XD.'.qX XI.k.D.1X}.1Xx.b b b b b N I.}.qXwXwX{.k.b b b x O p f A &XwXwXwXwXwXwXwXwXwXwXwX",
"wXwXwXwXwXwXwXwXwXwXwXwXwXwXwXwXwXwX6XU.Z.Y.8X}.z.b.V.>Xx.b b k.[.}..XqXwXqX'.Z.j.b b b b N.J.d 5.[ D %XwXwXwXwXwXwXwXwXwXwX",
"wXwXwXwXwXwXwXwXwXwXwXwXwXwXwXwXwXwXwX7XU.P.P.7X#X{.x.#Xx.k. X#XwXwXwXwXwXU.N v b b b b C.1XqXK.s 5.] A %XwXwXwXwXwXwXwXwXwX",
"wXwXwXwXwXwXwXwXwXwXwXwXwXwXwXwXwXwXwXwXwX8XU.D.8XwX#X1Xc.[.wXwXwX8XU.C.C.j.b b b b Z.{.6XwXwXwXT.d 5.2.D |.wXwXwXwXwXwXwXwX",
"wXwXwXwXwXwXwXwXwXwXwXwXwXwXwXwXwXwXwXwXwXwX8X].Z.7XwX7Xc.:X7XZ.N.N.N v b b b b M D.1XwXwXwXwXwXwXT.s 6.} h +XwXwXwXwXwXwXwX",
"wXwXwXwXwXwXwXwXwXwXwXwXwXwXwXwXwXwXwXwXwXwXwXqX{.S.7X7Xx.c.v.m v b b b b b M P.}.8XwXwXwXwXwXwXwXqXL.d 4.2.j +XwXwXwXwXwXwX",
"wXwXwXwXwXwXwXwXwXwXwXwXwXwXwXwXwXwXwXwXwXwXwXwXqX.XD.>Xx.v b b b b b b N '.XX8XwXwXwXwXwXwXwXwXwXwXqXJ.u 9 i.<XwXwXwXwXwXwX",
"wXwXwXwXwXwXwXwXwXwXwXwXwXwXwXwXwXwXwXwXwXwXwXwXwXwX XV.N b b b b m I. X.XqXwXwXwXwXwXwXwXwXwXwXwXwXwXqXR.T.<XwXwXwXwXwXwXwX",
"wXwXwXwXwXwXwXwXwXwXwXwXwXwXwXwXwXwXwXwXwXwXwXwXwXwXwX.X{.{.{.{.{.}.7XwXwXwXwXwXwXwXwXwXwXwXwXwXwXwXwXwXwXwXwXwXwXwXwXwXwXwX",
"wXwXwXwXwXwXwXwXwXwXwXwXwXwXwXwXwXwXwXwXwXwXwXwXwXwXwXwXwXwXwXwXwXwXwXwXwXwXwXwXwXwXwXwXwXwXwXwXwXwXwXwXwXwXwXwXwXwXwXwXwXwX"
};
