/* XPM */
static char *xpm_[] = {
/* columns rows colors chars-per-pixel */
"64 64 211 2 ",
"   c #030400",
".  c #070802",
"X  c #0B0C05",
"o  c #0D0E08",
"O  c #0B0601",
"+  c #0F100A",
"@  c #13130D",
"#  c #141612",
"$  c #161914",
"%  c #1A1B15",
"&  c #1C1F1A",
"*  c #161B1A",
"=  c #120500",
"-  c #250704",
";  c #330401",
":  c #380502",
">  c #261B17",
",  c #21110B",
"<  c #1D211D",
"1  c #24251E",
"2  c #1F2320",
"3  c #242622",
"4  c #292A24",
"5  c #2A2C27",
"6  c #31322D",
"7  c #2E3330",
"8  c #343631",
"9  c #363934",
"0  c #393B36",
"q  c #3B3D38",
"w  c #373E3D",
"e  c #372E29",
"r  c #46090A",
"t  c #521112",
"y  c #6A060A",
"u  c #711415",
"i  c #6B3433",
"p  c #583A3D",
"a  c #3F403B",
"s  c #42433E",
"d  c #48433E",
"f  c #3A4343",
"g  c #424A4B",
"h  c #4A4A45",
"j  c #51524D",
"k  c #4B5455",
"l  c #535551",
"z  c #5A5A55",
"x  c #525B5D",
"c  c #5D5E5A",
"v  c #545855",
"b  c #4E4F4E",
"n  c #5E615C",
"m  c #61635F",
"M  c #545E61",
"N  c #5C6669",
"B  c #656561",
"V  c #6D6E6A",
"C  c #686965",
"Z  c #6F716D",
"A  c #71726E",
"S  c #6A767C",
"D  c #747572",
"F  c #7D7E7A",
"G  c #787976",
"H  c #6B696C",
"J  c #765A59",
"K  c #89090D",
"L  c #91080D",
"P  c #98070C",
"I  c #901618",
"U  c #A4070D",
"Y  c #BA060F",
"T  c #BD0A13",
"R  c #B50810",
"E  c #A80B11",
"W  c #832A2D",
"Q  c #BB373D",
"!  c #CE0711",
"~  c #C70912",
"^  c #CF0913",
"/  c #CF0E18",
"(  c #D20A14",
")  c #D00F19",
"_  c #D60B15",
"`  c #D1111B",
"'  c #DE111A",
"]  c #CA0F16",
"[  c #E4141D",
"{  c #ED161E",
"}  c #D31D26",
"|  c #D81B24",
" . c #C11C24",
".. c #EC1821",
"X. c #ED1721",
"o. c #D4252E",
"O. c #D22C34",
"+. c #D6343C",
"@. c #DA343D",
"#. c #EC2C34",
"$. c #EF272F",
"%. c #D53F47",
"&. c #D83C43",
"*. c #C33B41",
"=. c #E63C44",
"-. c #95676B",
";. c #A8464F",
":. c #D6454C",
">. c #D65057",
",. c #D55259",
"<. c #D8535A",
"1. c #D54D54",
"2. c #EE484F",
"3. c #EB5B62",
"4. c #D96C71",
"5. c #D76268",
"6. c #E97075",
"7. c #F07177",
"8. c #81817E",
"9. c #6F7C83",
"0. c #DC7E83",
"q. c #75838A",
"w. c #728087",
"e. c #7D8C94",
"r. c #858682",
"t. c #888A88",
"y. c #91918E",
"u. c #808F97",
"i. c #83939C",
"p. c #86989D",
"a. c #9D9E9B",
"s. c #959593",
"d. c #AB9398",
"f. c #9FA19E",
"g. c #A1A29F",
"h. c #8B9BA5",
"j. c #8D9EA9",
"k. c #8698A1",
"l. c #8FA0AA",
"z. c #91A2AC",
"x. c #98A7B1",
"c. c #98A8B1",
"v. c #A5A5A2",
"b. c #ACACAA",
"n. c #A7A9A9",
"m. c #B0B1AE",
"M. c #A7B1B7",
"N. c #B3B4B2",
"B. c #B9B9B7",
"V. c #BCBDBB",
"C. c #B7B9B7",
"Z. c #DA888C",
"A. c #DD989C",
"S. c #CB9193",
"D. c #E88185",
"F. c #E98387",
"G. c #EB979B",
"H. c #F7999D",
"J. c #F8989C",
"K. c #EA8D92",
"L. c #DEA6A9",
"P. c #DFAAAD",
"I. c #DDA4A7",
"U. c #DFB3B6",
"Y. c #C8ACAE",
"T. c #E6A9AC",
"R. c #F6B4B7",
"E. c #C0C0BE",
"W. c #AFBBC3",
"Q. c #F0BEC0",
"!. c #B9C4CA",
"~. c #CDCDCC",
"^. c #C5C5C4",
"/. c #D0D1CF",
"(. c #C9CED1",
"). c #C2CBD0",
"_. c #CBD3D8",
"`. c #CCD2D4",
"'. c #D4D5D4",
"]. c #DBDCDB",
"[. c #D3D9DD",
"{. c #D0C8C8",
"}. c #E2C6C7",
"|. c #F9CACC",
" X c #E1CFD0",
".X c #E3DDDD",
"XX c #E1D1D2",
"oX c #F7D6D8",
"OX c #F7D9DA",
"+X c #E0E0DF",
"@X c #D6DDE0",
"#X c #F9DEE0",
"$X c #E4E4E4",
"%X c #E6E9E9",
"&X c #ECECEC",
"*X c #E8E8E7",
"=X c #FBECED",
"-X c #F5EDED",
";X c #ECEFF0",
":X c #EEF1F2",
">X c #F2F2F1",
",X c #F3F3F3",
"<X c #F9F9F9",
"1X c white",
"2X c #FEFEFE",
"3X c #FDFDFD",
"4X c #FEFFFF",
"5X c #FAF5F6",
"6X c #F4F0EF",
"7X c None",
"8X c black",
/* pixels */
"7X7X7X7X7X7X7X7X7X7X7X7X7X7X7X7X7X7X7X7X7X7X7X7X7X7X7X7X7X7X7X7X7X7X7X7X7X7X7X7X7X7X7X7X7X7X7X7X7X7X7X7X7X7X7X7X7X7X7X7X7X7X7X7X",
"7X7X7X7X7X7X7X7X7X7X7X7X7X7X7X7X7X7X7X7X7X7X7X7X7X7X7X7X7X7X7X7X7X7X7X7X7X7X7X7X7X7X7X7X7X7X7X7X7X7X7X7X7X7X7X7X7X7X7X7X7X7X7X7X",
"7X7X7X7X7X7X7X7X7X7X7X7X7X7X7X7X7X7X7X7X7X7X7X7X7X7X7X7X7X7X7X7X7X7X7X7X7X7X7X7X7X7X7X7X7X7X7X7X7X7X7X7X7X7X7X7X7X7X7X7X7X7X7X7X",
"7X7X7X7X7X7X7X7X7X7X7X7X7X7X7X7X7X7X7X7X7X7X7X7X7X7X7X& % 7X7X7X7X7X% 7X7X7X7X7X7X7X7X7X7X7X7X7X7X7X7X7X7X7X7X7X7X7X7X7X7X7X7X7X",
"7X7X7X7X7X7X7X7X7X7X7X7X7X7X7X7X7X7X7X7X7X7X7X7X7X7XC < < < < < 2 * * 3 7X7X7X7X7X7X7X7X7X7X7X7X7X7X7X7X7X7X7X7X7X7X7X7X7X7X7X7X",
"7X7X7X7X7X7X7X7X7X7X7X7X7X7X7X7X7X7X7X7X7X7X7XV @ @ g i.i.i.u.i.i.i.k.9.# @ 6 '.1X1X7X7X7X7X7X7X7X7X7X7X7X7X7X7X7X7X7X7X7X7X7X7X",
"7X7X7X7X7X7X7X7X7X7X7X7X7X7X7X7X7X7X7X7X7X$XA F r.r.n._._._._._._._.M.e.x k x c m.1X1X1X7X7X7X7X7X7X7X7X7X7X7X7X7X7X7X7X7X7X7X7X",
"7X7X7X7X7X7X7X7X7X7X7X7X7X7X7X7X7X7X7X1X&XV.6 y.1X1X1X1X1X1X1X1X1X1X!.l.z.z.u.2 G $X<X1X7X7X7X7X7X7X7X7X7X7X7X7X7X7X7X7X7X7X7X7X",
"7X7X7X7X7X7X7X7X7X7X7X7X7X7X7X7X7X7X1X1XF 0 ~.>X1X1X1X1X1X1X1X1X1X1XW.h.j.l.j.i.k 8 $X1X1X7X7X7X7X7X7X7X7X7X7X7X7X7X7X7X7X7X7X7X",
"7X7X7X7X7X7X7X7X7X7X7X7X7X7X7X7X7X1X*Xy.F t.,X1X1X1X1X1X1X1X1X1X1X1X@X).).M.j.z.S k 8.B.1X7X7X7X7X7X7X7X7X7X7X7X7X7X7X7X7X7X7X7X",
"7X7X7X7X7X7X7X7X7X7X7X7X7X7X7X7X7X1X~.@ s.1X1X1X1X1X1X1X1X1X1X1X1X1X1X1X1X!.j.j.l.i.$ B 1X1X7X7X7X7X7X7X7X7X7X7X7X7X7X7X7X7X7X7X",
"7X7X7X7X7X7X7X7X7X7X7X7X7X7X7X7X1X1X/.@ y.1X1X1X1X1X1X1X1X1X1X1X1X1X1X1X1X!.j.z.z.i.% B 1X1X7X7X7X7X7X7X7X7X7X7X7X7X7X7X7X7X7X7X",
"7X7X7X7X7X7X7X7X7X7X7X7X7X7X7X1X1X^.a.c C.1X1X1X1X1X1X1X1X1X1X1X1X1X1X1X1X!.j.j.l.i.$ C 1X1X7X7X7X7X7X7X7X7X7X7X7X7X7X7X7X7X7X7X",
"7X7X7X7X7X7X7X7X7X7X7X7X7X7X7X1X1Xc 6 &X1X1X5X3X1X1X1X1X<X<X1X1X1X1X1X1X1X!.z.z.j.i.& C <X1X7X7X7X7X7X7X7X7X7X7X7X7X7X7X7X7X7X7X",
"7X7X7X7X7X7X7X7X7X7X7X7X7X1X1X1X1Xc 6 &X1X*Xv v.1X1X1X5XV r.1X1X1X1X1X1X1X:X[.z.j.h.9.N j ].1X7X7X7X7X7X7X7X7X7X7X7X7X7X7X7X7X7X",
"7X7X7X7X7X7X7X7X7X7X7X7X7X1X1X1X1Xn 6 &X].a.@ 8.1X1X1X:X8 q B.6X1X1X1X1X1X1X:Xx.l.l.x.M @ ~.1X7X7X7X7X7X7X7X7X7X7X7X7X7X7X7X7X7X",
"7X7X7X7X7X7X7X7X7X7X7X7X7X1X1X1X1Xc 6 6XD .   r.1X1X1X,Xq   % ^.1X1X1X1X1X1X;Xx.l.l.l.N @ ~.1X1X7X7X7X7X7X7X7X7X7X7X7X7X7X7X7X7X",
"7X7X7X7X7X7X7X7X7X7X7X7X7X1X1X1X1Xc 6 6XZ     r.1X1X1X>Xq   X h y.<X1X1X1X1X;Xx.l.l.l.x % ~.1X1X7X7X7X7X7X7X7X7X7X7X7X7X7X7X7X7X",
"7X7X7X7X7X7X7X7X7X7X7X7X7X1X1X1X1Xc 6 ;XV     r.1X1X1X,Xq   .   h 5X1X1X1X1X;Xx.l.l.z.x @ ~.1X1X7X7X7X7X7X7X7X7X7X7X7X7X7X7X7X7X",
"7X7X7X7X7X7X7X7X7X7X7X7X7X7X1X1X1Xv 6 6XA     r.1X1X1X>Xq       h <X1X1X1X1X;Xc.l.l.z.N @ /.1X1X7X7X7X7X7X7X7X7X7X7X7X7X7X7X7X7X",
"7X7X7X7X7X7X7X7X7X7X7X7XB.B C V A t.v.<X^.a.a./.1X1X1X<XN.a.a.a.C.1X1X1X1X1X:Xc.l.l.l.M @ '.1X1X7X7X7X7X7X7X7X7X7X7X7X7X7X7X7X7X",
"7X7X7X7X7X7X7X7X7X7X<X].r.1 3 1 4 V.1X1X1X1X1X1X1X1X1X1X1X1X1X1X<X].].].].].'.z.l.l.z.N 3 N.&X1X7X7X7X7X7X7X7X7X7X7X7X7X7X7X7X7X",
"7X7X7X7X7X7X7X7X7X7X&X0 C $X$X$X$X<X1X1X1X1X1X1X1X1X1X1X1X1X1X1XE.1 < & < & 6 i.z.l.l.h.e.7 V 1X7X7X7X7X7X7X7X7X7X7X7X7X7X7X7X7X",
"7X7X7X7X7X7X7X7X1XV.G F N.1X1X1X1X1X<X:X<X1X3XY.8.8.N.1X1X1X<Xv.r.8.F 8.F F G N w.z.l.l.k.& z 7X7X7X7X7X7X7X7X7X7X7X7X7X7X7X7X7X",
"7X7X7X7X7X7X7X7X1X8.# ].1X1X1X1X1X1X<X$X>X1X1Xt.% @ A 1X1X5X$Xj m 1X1X1X1X1X].5 M k.h.l.k.2 v 7X7X7X7X7X7X7X7X7X7X7X7X7X7X7X7X7X",
"7X7X7X7X7X7X7X7X1X8.@ '.1X1X1X1X1X1X<X$X,X1X1X&X].].&X1X1XB.6 N.*X1X1X1X1X1X<X+XF 2 e.l.k.* z 7X7X7X7X7X7X7X7X7X7X7X7X7X7X7X7X7X",
"7X7X7X7X7X7X7X*Xa.8.D $X1X1X1X1X1X<X>X$X5X1X1X1X1X1X1X<XN.t.A +X1X1X1X1X1X1X1X1XC.Z h.j.k.& c 1X7X7X7X7X7X7X7X7X7X7X7X7X7X7X7X7X",
"7X7X7X7X7X7X7X7X$ B 1X1X1X1X1X1X,X*X$X$XT.R.1X3X1X1X1X<Xs j 1X1X1X1X1X1X1X1X1X1X3X<XM.z.k.& c 1X7X7X7X7X7X7X7X7X7X7X7X7X7X7X7X7X",
"7X7X7X7X7X7X7X7X% j 7X1X1X1X1X%XM._.$X$X6.7.=X3X1X1X3X|.6 v 1X1X1X1X1X1X1X1X1X1X1X<X].!.k.& z 1X1X7X7X7X7X7X7X7X7X7X7X7X7X7X7X7X",
"7X7X7X7X7X7X7X^.& 9 7X1X1X1X%X!.z.(.$X$X6...3.|.1X1X|.2.: 0 v.v.V.3X1X1X1X1X1X1X1X<X&XY.-.> n 1X1X7X7X7X7X7X7X7X7X7X7X7X7X7X7X7X",
"7X7X7X7X7X7X7X~.> 3 7X7X7X3XW.j.l.(.$X$X6.X.{ J.1X1XH.[ : = X . h 6X1X1X1X1X1X1X1X3X*XZ.~ ; n 1X1X7X7X7X7X7X7X7X7X7X7X7X7X7X7X7X",
"7X7X7X7X7X7X7X7X% # 7X7X7X7XW.j.l.(.$X$X6.X.X.F.&X3XH... .u X x H h E.1X1X1X1X1X1X3X*XZ.~ ; n 1X1X7X7X7X7X7X7X7X7X7X7X7X7X7X7X7X",
"7X7X7X7X7X7X7X7Xj v 7X7Xr.f.e.q.l.(.$X$X6.X.{ D.%X3XH.....P X 9.9.. b.1X1X1X1X1X1X3X:XZ.~ ; m 1X1X7X7X7X7X7X7X7X7X7X7X7X7X7X7X7X",
"7X7X7X7X7X7X7X7X<XF X + + + . 9 h.(.$X$X6.....D.%X3XH...' L X S S o b.3X1X1X1X1X1X1X1XG.~ ; m 5X3X7X7X7X7X7X7X7X7X7X7X7X7X7X7X7X",
"7X7X7X7X7X7X7X7X7X7XB % 3 N H x f m.*X$X6.X.X.F.%X3XH.X.) Q y.l f N N t.3X1X1X1X1X1X1XG.! P W z Y.7X7X7X7X7X7X7X7X7X7X7X7X7X7X7X",
"7X7X7X7X7X7X7X7X7X7X7Xs k q.h.S . a.*X$X6.X.{ D.%X3XH.X._ ,..Xa 7 h.f b ~.&X1X1X1X1X1XG.! _ L + c.7X7X7X7X7X7X7X7X7X7X7X7X7X7X7X",
"7X7X7X7X7X7X7X7X7X7X7X7XG $ 9.S o a.$X$X6.X.X.F.%X3XH...( ,.].s 7 h.h.9.$ v.1X1X1X1X1XG.! ( L @ m.8X7X7X7X7X7X7X7X7X7X7X7X7X7X7X",
"7X7X7X7X7X7X7X7X7X7X7X7X7Xt.x 7 X f.*X$X6.X.X.F.%X3XH...( ,..Xn.G g q.w.X a.1X1X<X:X1XG.! _ L @ C.8X7X7X7X7X7X7X7X7X7X7X7X7X7X7X",
"7X7X7X7X7X7X7X7X7X7X7X7X7X<Xc % X a.$X$X6.....F.%X3XH...( >.$X&Xn.X N q.X a.1X1X>X$X3XG.( ( L @ C.7X7X7X7X7X7X7X7X7X7X7X7X7X7X7X",
"7X7X7X7X7X7X7X7X7X7X7X7X7X7X&Xv.+ a.%X$X6.....F.%X3XG...( ,..X$Xv.+ S q.o a.1X1X>X$X3XG.! ( L @ C.7X7X7X7X7X7X7X7X7X7X7X7X7X7X7X",
"7X7X7X7X7X7X7X7X7X7X7X7X7X7X1Xb.+ a.&X$X6.X.X.F.%X3XH...^ ,.$X$XY.u p f . a.1X1X>X$X:XK.! ( L @ N.7X7X7X7X7X7X7X7X7X7X7X7X7X7X7X",
"7X7X7X7X7X7X7X7X7X7X7X7X7X7X1Xb.@ a.$X$X6.{ { F.%X3XH...( ,.$X$XL./ t =   a.1X1X>X$X$XZ.! ( L , v.$X7X7X7X7X7X7X7X7X7X7X7X7X7X7X",
"7X7X7X7X7X7X7X7X7X7X7X7X7X7X1Xb.X a.$X$X6.X...F.%X3XH.X.( ,.$X$XL.^ ~ K O a.1X1X:X+X$XZ.! ^ ~ E t k 7X7X7X7X7X7X7X7X7X7X7X7X7X7X",
"7X7X7X7X7X7X7X7X7X7X7X7X7X1X1Xb.@ a.*X$X6...{ D.%X3XH.X.( ,.+X$X}.4.} Y t -.V.<X:X$X$XP.,.} ( ~ - a 7X7X7X7X7X7X7X7X7X7X7X7X7X7X",
"7X7X7X7X7X7X7X7X7X7X7X7X7X1X1Xm.+ a.$X$X6.X.X.F.%X3XH.X._ 1.XX.X$X.X:.^ ( y 9 &X,X$X$X$X XO.^ ~ : 0 8X8X7X7X7X7X7X7X7X7X7X7X7X7X",
"7X7X7X7X7X7X7X7X7X7X7X7X7X1X1Xm.+ f.%X$X6.X.X.D.&X3XH.X.X.| &.U.$X.X:.! ] ;.k.,X3X,X$X$X XO.( ~ ; a 8X8X7X7X7X7X7X7X7X7X7X7X7X7X",
"7X7X7X7X7X7X7X7X7X7X7X7X7X1X1Xm.+ a.%X$X6...X.3.T.5XR.3.$.[ ) L.%X].1.! ~ ;.d.5X1X1X$X$X XO.^ ~ ; q 8X8X7X7X7X7X7X7X7X7X7X7X7X7X",
"7X7X7X7X7X7X7X7X7X7X7X7X7X1X1XN.+ f.%X$X6.....' o.#X3X#X2.[ ` L.$X+X:.! ] ^ #.=X1X<X$X$X XO.^ ~ : q 8X8X7X7X7X7X7X7X7X7X7X7X7X7X",
"7X7X7X7X7X7X7X7X7X7X7X7X7X1X1XN.X f.&X$XU.K.$.' o.#X1X=X=.{ ' T.$X$XP.4.) ^ +.=X1X<X$X$X.XU.4.~ U I h m.1X7X7X7X7X7X7X7X7X7X7X7X",
"7X7X7X7X7X7X7X7X7X7X7X7X7X1X1X^.s r.C.+X*X X#.' o.OX1X5X0.=._ 0.}.$X$XU.` ^ +.=X1X3X%X$X$X$XI.+.` P . f.1X1X7X7X7X7X7X7X7X7X7X7X",
"7X7X7X7X7X7X7X7X7X7X7X7X7X1X1X3X6Xj q ].$X}.#.' o.OX1X1X3XT./ / <.$X$XP.) ! +.=X1X=X0.U.$X$X.X}.@.P X g.1X1X7X7X7X7X7X7X7X7X7X7X",
"7X7X7X7X7X7X7X7X7X7X7X7X7X1X1X1X1Xj 6 ].y.d t r r j z B $XR./ ! ,.$X$XP./ ! +.=X1XoX} Z.%X$X$X.X:.~ u i G ,X1X7X7X7X7X7X7X7X7X7X",
"7X7X7X7X7X7X7X7X7X7X7X7X7X7X1X1X3Xj 5 C.m * < * * * + @ M.A./ ! >.+X$XP./ ^ +.=X1XoX} 5.I.XX$X.X&.! ( u k ;X1X7X7X7X7X7X7X7X7X7X",
"7X7X7X7X7X7X7X7X7X7X7X7X7X7X1X1X<Xl . $ N p.i.i.i.k.k   o t ^ ! >.+X$XP./ ^ +.=X1XoX} ^ ` L.$X.X%.! ( S.@X<X1X8X7X7X7X7X7X7X7X7X",
"7X7X7X7X7X7X7X7X7X7X7X7X7X7X1X1X<Xj     x z.z.z.z.z.M o D J y Y ,.+X%XP./ ^ +.=X1XoX} ^ / I.$X.X%.! ( A./.D b.8X7X7X7X7X7X7X7X7X",
"7X7X7X7X7X7X7X7X7X7X7X7X7X7X1X1X3XB @ . k e.e.e.u.u.g # W.d., U ,.$X$XP./ ^ +.=X1XoX} ! ` L.$X.X%.! ^ A.C.+ m 8X7X7X7X7X7X7X7X7X",
"7X7X7X7X7X7X7X7X7X7X7X7X7X7X1X1X1X$Xv.X X # @ $ $ # o   * t T ^ <.$X*XT.` ( @.=X1XoX} ^ ) I.*X.X:.! ^ A.C.+ 9.8X7X7X7X7X7X7X7X7X",
"7X7X7X7X7X7X7X7X7X7X7X7X7X7X1X1X1X1X+XD C V V 9 X q g f @ - y y i G G J y y W -X1XoX} ( / T.*X+X&.! / A./.G F -.7X7X7X7X7X7X7X7X",
"7X7X7X7X7X7X7X7X7X7X7X7X7X7X7X1X1X1X1X1X1X1X1XF @ q.k.i.3 o % % % , & $ # # q ].&X}. .T T S.'.{.+.R T S.`.'.v % 7X7X7X7X7X7X7X7X",
"7X7X7X7X7X7X7X7X7X7X7X7X7X7X7X1X1X1X1X1X1X1X1XF   * 2 2 . h /.'.'.'.'.].'.].B.0 4 4 - - - 1 4 3 , - - > 4 4 @ % 7X7X7X7X7X7X7X7X",
"7X7X7X7X7X7X7X7X7X7X7X7X7X7X7X7X1X1X1X1X1X1X1Xs.h h s s s Z 7X1X1X1X1X1X1X1X$Xb s a 0 0 9 6 6 6 8 a 9 9 9 8 6 9 7X7X7X7X7X7X7X7X",
"7X7X7X7X7X7X7X7X7X7X7X7X7X7X7X7X7X7X7X7X7X7X7X7X7X7X7X7X7X7X7X7X7X7X7X7X7X7X7X7X7X7X7X7X7X8X8X8X8X8X8X8X7X7X7X7X7X7X7X7X7X7X7X7X",
"7X7X7X7X7X7X7X7X7X7X7X7X7X7X7X7X7X7X7X7X7X7X7X7X7X7X7X7X7X7X7X7X7X7X7X7X7X7X7X7X7X7X7X7X7X7X8X8X8X8X8X8X7X7X7X7X7X7X7X7X7X7X7X7X",
"7X7X7X7X7X7X7X7X7X7X7X7X7X7X7X7X7X7X7X7X7X7X7X7X7X7X7X7X7X7X7X7X7X7X7X7X7X7X7X7X7X7X7X7X7X7X8X8X8X8X8X8X7X7X7X7X7X7X7X7X7X7X7X7X"
};
