/* XPM */
static char *d4aed1c584f74c4aa0e3beb7648af214ByehhgQ6z9RK0poQ[] = {
/* columns rows colors chars-per-pixel */
"65 65 53 1 ",
"  c #1D6D12",
". c #1E7412",
"X c #1F7A12",
"o c #207E12",
"O c #218312",
"+ c #228C11",
"@ c #278F19",
"# c #249311",
"$ c #239514",
"% c #249715",
"& c #259911",
"* c #259D13",
"= c #249915",
"- c #259E15",
"; c #299E16",
": c #289519",
"> c #2B9B1B",
", c #25A70F",
"< c #24BA0D",
"1 c #26A012",
"2 c #27A412",
"3 c #25A116",
"4 c #26A216",
"5 c #26A716",
"6 c #2AA217",
"7 c #27A813",
"8 c #27A814",
"9 c #27AC16",
"0 c #28AA13",
"q c #28AA14",
"w c #28AF17",
"e c #26A21B",
"r c #2CA219",
"t c #2EAA1A",
"y c #29B317",
"u c #29B417",
"i c #2ABB16",
"p c #2BBF17",
"a c #2CB518",
"s c #2ABA18",
"d c #2BBC19",
"f c #2BBF18",
"g c #229524",
"h c #219229",
"j c #26AC22",
"k c #2BC017",
"l c #2CC417",
"z c #2BC018",
"x c #2CC218",
"c c #2CC718",
"v c #2CC918",
"b c #31C31D",
"n c #2ED419",
/* pixels */
"&&&&&&#X..#&&X+#o+&&&&&&&&&&&oO+O#Oo&O o##Oo&+X5uO#&&&&&&&&&&&&&&",
"&&&#&&&###&&&#O+##&&&&&&&&&&#OOw4+OO&OXO..o#&&+OwwO&&&&#&&&&&&&&&",
"&&#O#&#X+&&&&ou++######&&&&#++O+u=O#O..O#OX#&&OX&*#&&&#X#&&&&&&&&",
"&#OyO+o .+&&#Xs+OOXX+o+&#&&O5-O#1+O+O###+O+O&+.X&&&&&&+.o#&&&&#&&",
"&#ozXXwX+O+#X+l+.Owf+ 5=+&&O8-OO4-o#OO#&O#5X+#8X&&&&&&+OwO#&&#X#&",
"#X#fO+&Xuz++X#k+OoXO+X+i%+##&O.Oy4O#q4O##&+ o5yX&&&*&&+X5wO#&#.X#",
"#X#O+#o+O*#o+#++XO+###O#u#.+O O#++#++y4.O+ X##O#&&7p&&&+XO+X#+.OX",
"Oy&.+X+&##&##&##X.+&####1Oo#oo####&##*+X#OX#&##&&&qv*&&#+X+.+X.X+",
"++#+XoO#&&&&&&&&X5#o-O+#OO#+..O+oO&&&+o##+#&&#+&&&0np&&#+u#.Ouf-X",
"&#&#.+.+OOO#+#&&Xs= #O+&XO+OOo++##+&#.o&&&&&&+.+&&0v2&*+X1+.+OOO+",
"O##OO#.O==OO.++##k+  O+#oO-+#&&o45O#O.o&&&&&&+X#+&*2##p&##X X++#&",
"oO#.##.X45+o.+=+#0+. XO+oOy9+#&+w5.O+Oo&&&&&&+#fO+&&+.#&&#++#&&&&",
"&=OO#+$+ooo#OOw5+O#O .#+O++5-OO+5+.+#O+&&+#&&#+-OO+&+.o+&&&&&&&&&",
"*u+##+zOO#&&&O#uO.#X.#&++&++&o.+O.+&++&#+.O#&&#.X+X#o.OO#&&&&&&&&",
"&&&&&*cOXO#&+#&&O#&O+&&&&&&&&++&++&&&&&O...o&&#OO+.+=#O+&&&#++#&&",
"&&&&&*pO+OO#.+&&&&&&&&&O+&&&&&&&&&&&&&&&####&&+X&+.+w4OO#&&# .#&&",
"&&&&&&&O##.Oo#&&&&&&&&O.XO#&&&&&&&&&&&&&&&&&&&+O#o.OXXO&&&#OX.#&&",
"&&&&&#oXX#..X#&O+&&&&&O.X.+&O4-+&++&+XO&&+O&+O&+XXXO&&&&&&#O+.#&&",
"&&&&&&+++#O#+o#+#&&&&&&XOX+&o+y%+OO&O+-XXo+&55O#OO&&&&&&&&&&#..o&",
"&#O#&#O#&&&&OOo#&&&&&&&XOo+O=$#u%O#+.X44XX&&yuX&#+&&&#O#&&&&#.+#&",
"#O5O#o X#&&#.+X+OXX+O+&++#OO++#2+O+O++&&#-O&&+X&&&&&&+.O#&&&#O#&&",
"#X4.X4XOO#&OO#X.4y#o.+O+&&oOoO++OO5=+&&O#5X+OoX&&&&&&+X4O#&&#O#&&",
"o+#.+cO#8+#.+&Xo#$OO.+8#+&+#O.O#Oo2y=+&##+.o++X&&&&&&+Xw5O#&#.o#&",
".#OO#$+O8w+O#O4+OOO#+O*y#X++.X#+O#+#u-X++..+#O+&&&&&&#OO=5O##X4O#",
"+#.#OO#+#w##&+z+.#&&&+#0OX#oX#&+#&++1#.+O.+&#+&&&&1pkkp-OfX#X.#+#",
"O&5OO#&&&&22&*c+XO#&O+&&+#&+#&&&&&&&&#+&#+&&&&&&&&*yuuw%&z.oOOOO#",
"O&w+&u+XX#puO#wO+5++XOwy&&&&++++&++&+X+&&+O&+O2wO&&&&&+.*w.OoooO#",
"&&#&&0#++#pi+o#+#l+.O#ip&&&&oO8%+OO&O.OXXO+&1-+y4O&&&&#+#X oOOO#&",
"&#O#&#O#&&iuO4+#&p+X#&22&1&+=$#y%O#+..O+XX&&1=X12+&&&#O&#OOO&&&&&",
"#OOO#O X#&11X-O+Oo.+O+&&2l+O#++2+O+O+O++#-O&#.X&&&&&&+.O&&&&&&&&&",
"#.+.XO.-+#&OOwO.OO+O.+O+2lOOoO++OO5%+&&O=yX++%X&&O#&&+X4O#&&#O#&&",
"+5&.O#X59+#.#v+oOooO.hj++*+#O.%5OO2y%+&#45.o5uX&#.+&&+Xy5O#&#.o#&",
"o5OO#OOO5+oO#=+OOOO#5ge&Oo++.X1&O#+#1Oo+#..+&#+&#.X#&#OO-4O##X-O#",
"+#Xw+O#+#&+#&+#XX#&&w##&XX#oX#&+#&++&O.+O.+&#+&&&O.o#&#oOfX#o.#+#",
"+#+=:&&&&&<<#&&X$+#&O#&&+#&+#&&#++&&&#+&#+&&*2222&.XO##O#z.oOOOO#",
"+##+6*&&&&,2&&&X49+#X+&&#&&&&&&#XO#&&&&&&&&&*2222&X#+#+.1y.OOOOO#",
"&&&&&#OoO#&#O#&X+f+.O#&+o&&&++++&++&+o+&&++&#+&#O&#&&&*4#o.oOOO#&",
"&&&&&#OOO#&&+O#+#tOX#&&+X#&&oO4#+Oo&O+$OOO+&#O+#OO&&&&1y#OOO&&&&&",
"&#O#&&+#&&&&+=+#&;+#&&&#+&&+$#--OO++.+#O.X&&&+X&#+&&&#+&&&&&&&&&&",
"#+4+#O.o#&&#Xs+++OO#+#&&&&+$5#+&OO+#$O+#OO+&#XX#&&&&&+.O&&&&&&&&&",
"#XzXoo.XO#&+Oz+X-4+O.++#&&X=+O++OO+#4&&OXOX#OXX&*&&&&+X%+&&&#+#&&",
"++pXo#.#5+#.+woX45+O.++O#&++OXO+OO&+O&iw4+.O++X&iw&&&+oy=+&&#.O#&",
".#+OOOOOq+OO#+OOOoo#XXOO4&#+. O#OOO+OO884X.+#O+&1pw&*#O+-OO&#.oO#",
"O#X5. #O#&O#&O#XX#&&X++O=OOo O#..Oo++..o..O&#+&&&1pwpw*#.+.#O OO#",
"+#O-X#+#&&&&&&&X++#+.#1O..+o +$o.O&&&Oo&++&&&#+&&&1pbcw4O+.+-$OO#",
"+##O.fO++OO#+#&X5#OO..#&XO+Ooo+#+++&#Xo&&&&&&+.+&&&1xu#.##.+85OO#",
"+#&+OzOoOooO.++O#&XX.++#oO=+#&&o45O#O.o&&&&##+X#+&&&*##O#O.OoXO#&",
"-+#.#cXXOOOo.+%+#&XOXXO+oOy8+#&+w5.O+Oo&&&&OO+Ou#+&&+.+&#oXO#&&&&",
"i=OO##OOoXo#OOy4+OO-O.++O++88+O#1+.+#O+&O+&OO#o#4O+&+.o+&&&&&&&&&",
"*u+#&-#.O#&&&O#uO.#X.+&O+&++y#.+O +&++&&#O+OO&#.X+X#O.OO&**&&&&&&",
"&&&&*u*.++#&+#&&O+&O+&&##&&&&++&++&&&&&&&#OO#&#OO+.+#+o+&yu***&&&",
"&&&&&&#Xw-+#X+&&&&&&&&#X#&&&&&&&&&&&&&&&&&##&&+X&+.=y5OO&*uuui*&&",
"&&&&&&#.O8oOoO&&+#&1par.Oti*&+#+#&+#&#+#&&##&#OO#oO4XXO#&&*uiiu&&",
"&&&&&&#XXX..+O+#O#&*uw6XO6y*&X+#+#XO&oo++++-w#O##X.O#&&&&&&*ui*&&",
"&&#+&&#+&#O#&+o+#&&&&&&#O#&&+++y4+o+#.%$X.4vlwOOw4O&&&##&&&&**&&&",
"&#+++#O.+&&&#.+.#+++###&+o#+o5+#u+O#OXX+#+:;&#XO&&&&&&O.#&&&&&&&&",
"&+OsXO..++&&+o#.OXXXO.+##.+X+X+##X+OO#&&o-=O#+XO&&&&&&O.+#&&&##2&",
"&++f.o+Xu#+#.##.X+++X +++O#O+XOo+X+&OO#&+=+XO4=o&&&&&&O$uo#&&+Ow&",
"#o*9O#+X#i++o#+XOXXX+o+u%++##.X##o+##OO+rf#.+#OO&&&#&&+#w++#&+.o+",
"#O+X#+o+o*uO##o+.O#&&#O#iO.+XXy7O+&O+&o.>@ O&+O&&&#o+&&+.#yX#O.Oo",
"&##X+o#&#&&&&&&#.O+&&##&&O+&Ow0&&&&&&&O+t:O&&#OO+&#.+&&#O=u.+OOo+",
"#O##o#&&&&&&&&&#Xy#+#.+&&#&&&&&&&&&&&&##tr&##O.o+#O.+&&+X1= #fw+X",
"&&&&#&&&&&&&&&&#o&iOOO#&&&&&&&&&&&&&&&+O-*#oX..X##O.+&&+O#O.OXXo#",
"&&&&&&&&&&&&&&&&#&&.Xu1&&&&&&&&&&&&&&&#+&&&#++++#&&O#&&&&+..O###&",
"&&&&&&&&&&&&&&&&&&#X+*&&&&&&&&&&&&&&&&&&&&&&&&&&&&&&&&&&&&###&&&&"
};
