/* XPM */
static char *b2492b817707454ac57ea89b47e48fa6dtg4zxwCA1BpAy6j[] = {
/* columns rows colors chars-per-pixel */
"65 65 47 1 ",
"  c #1C6C12",
". c #1D7412",
"X c #1F7C13",
"o c #207E14",
"O c #1F8113",
"+ c #208513",
"@ c #218B13",
"# c #278F19",
"$ c #229414",
"% c #239C14",
"& c #289619",
"* c #2B9E1B",
"= c #24A315",
"- c #24A415",
"; c #25A915",
": c #26AF15",
"> c #28AF17",
", c #26AC1F",
"< c #2CAA1A",
"1 c #2AAD19",
"2 c #26B015",
"3 c #27B415",
"4 c #28B017",
"5 c #28B117",
"6 c #29B417",
"7 c #26B913",
"8 c #29B817",
"9 c #2ABE17",
"0 c #2DB21B",
"q c #2ABA18",
"w c #2BBC19",
"e c #2ABE18",
"r c #229424",
"t c #21972A",
"y c #26AF23",
"u c #2AC017",
"i c #2AC417",
"p c #25CA10",
"a c #2BC018",
"s c #2BC218",
"d c #2BC618",
"f c #2CC718",
"g c #2BC818",
"h c #2CC918",
"j c #2DCD19",
"k c #31C41D",
"l c #2ED61A",
/* pixels */
"::::::;X..=2:+%:+%2:::::::::2+$$@:@+2$ +--$+2%+68+-::::::::::::::",
":::;:::=--:::=@%-:2:2:::::::;+@8-$@@:@O$XX+;::$+85+::::;:::::::::",
"::-@=:-O%::::+6$%;;;:;::::::$$@%u%@;$..@-@+;::$O22;::2=O-::::::::",
":;+6+%+ X=::;Oq@$+XO%+%::::@-%@-2$+%+=-;%+$+:%XO:::::2=.+-::::;::",
":-+sXX5+%@=:+%h@.$6e$ ;%$:2+;%+$;=+;$$:2$$;O%$;O:::::2%+5@-:2-O-:",
";O=s+%;+8s@%O=d@@+++%O%s%$;-:@.@9=@:6-$;-;$.+55+::22:2=O25+-2-.O-",
"=O=@%-+%@;-+%;$%+$==;;+=9$X%$.+;%$;$$9=.$%.O-=@-::8g2::%X+%+;=X$O",
"+6;X%+%:-::-::-;XX%2:;--2@+;++;;=-2;-2$O-$X-2;-:::8j2:::$O%X%O.O%",
"%@;=O+$;22222:2:O-$+-@%=$@=%XX$%+$2:2$+;-%-22-%:::8ld22=$8=.+6e-O",
":-:;X%X=$@$-%-2:+q%.$+$2+$%+++%%$$%2=X+2::2:2%.%::8j622=+2=X$@++%",
"$::$@=X+%%@@.%%--d@  @$=+$-$=22+=-+=@X+:::::2%X$%:28-=d:--X.O%%=:",
"+$-X-;X+-;$+.%=$;9%. +@=+$u:$=2%6-X@%$+::2222$$s@%:2%X%:2:=%=:22:",
":%$@-%$$+++-$$8-$$-$.X=%+=%2-@$=2@.%=@%2:%;22=$=$+%:%.+$::222::::",
"29$;:$s++;2::$-u+X=OX=2$=2$%2+.%@.$2%$:-%X$=::=XX%X-+.@$::::22:::",
"::::23h+X$;:%;2:$=:$=2:::::::%%2%%:::::@XXX+:2-$$%.$%$+%:2:;$$;::",
"::::22d+%@$-X%2:::::::2$%2:::::::::::::::::::2%X:%.@>-$@::2- .-2:",
":::::::@-:X++-2:::::::$.X@-2::::::::::::::::::=$-+.$++@::::$X.;2:",
":::::;+X+=XX+=:@=2::::$XX.%2$;-$2$$2%X$::%$2=$:=OOO@::::::;@%X-::",
"::::::%%%;@=%+==;:::::2+$X%2+$8%%@+2@@=OO+=:6;$;$@:::::2::::-.X+;",
":;@;2;@-2:::@$+=2::::::+$+=$%%=8%@-%.X=;++::u6O:;%::2-@::::2-X%=:",
";@-@-+ O-:::X%X%$O+=$%2%=:$@$$=8$@%+$$;-$=$:;@O:22::2%.+::::;$:2:",
"-X;X+-X@+-:@$-XX-5%+.$$%22+$+@%%@+2%$22$$;+%++O:::::2%X=@:::;@;::",
"+$-X$f+=:@=X%:X+$$@@X$2$%2=-+.@-@+88%$2-=$.+%%O:::::2%O8;@:2-.+;:",
".=@$;%$+65@$;$=$$$$-%+;6$+%%.O-%@=%%9=+$=XX%=+%::::::;$+%-@:-X=@;",
"%-X=@$;%;8%;:%d@X-2:2%-9@O-+O-2==2=%6%X=$.%2-%::::3dhhd%+eX=+.$%;",
"@;;@$:::::66:2j@++=2$=22%-2%=2::2222:=%2-%::2:::::2uuu8%=s.+$$$@;",
"$:8%:u$O+-du@=9+%:$=O$99:::2$%%%2%$2%O$22%$2=$86$:::::%X26X@+++$;",
"2::228=$%;du%+=%-j@X@-id:::2+@2%%@+2@X@OO+%:2=$8-$::::;%-+.+$$$::",
":;@;2;$;2:du$=$=2d@O-266232$%%=8%@=%X.@$++2:3=O22%::2-@:;$$$:22::",
";@$+-+.O;:32X-+%$+.%$%::6j%@$$=8$+%+$$=%$%$2=XO::2::2%.+:222:::::",
"-X%.O@.%$-:@$8+X$$$+.$$%6h@$+@%%@+2%%22$%5+%$$O::$-22%X=$:::;@;::",
"$;;X@-X2>$=X=j@++++@Xty$%3=-+X%2@+88%$2=:;.+:6O:;X%22%O8-$:2-.+;:",
"+:$$;@@@5%+$;%$+@$$-:r,-++%%.X:-@=%=:@+%=XX%;$%:;XO;2;$@%-$:-X%$;",
"%=X6$$;%;:%;:%-XX-229==2+O-+X=2%=2=%2$X%$.%2-%:::$.+;2;++eX=+.$$;",
"$-$%&;2:::pp:2:X$$=2$=2:%=2%=2::%%22:=%2=%2::2:::;XO+;-@=sX+$$@@;",
"%;:$12222:77:::O;5$=O$2:;::22:2-O@:::22:222::2::2;+=$:%X38X@+++$;",
"2::2::$+@-::$-:X%s@X@-2%+:::%%%%:%%2%+%22=$2=$2=$:;:2::;;+.+@@$::",
"::2:::$@@;2:$@-%-0+O-22%X::2+@:$%@+2$@%++@%2-@$-@$::::3u;$@$:222:",
"::$;2:$;2:::$%$-25%-2:2-$:2%%$;;@@%=X+%@X+2:2%O:-$:::-$::222::22:",
";$-$;$.+;2::Xq@%$+@-%=222:%%=$%2@@=$%+%=@@%2-OO::2::2%.$:::::22::",
"-XsX++.+@;:$@s@+==$@.$%=2:+%$@%%@@%$;22$+$+-@XO:22::2%X%$:::;$:::",
"$$sX+-X=;$-X%9++=-$+.$%@=2%=+X@%@+2%+-d6;$X@%%O:d92:2%+8%$:2-.@::",
"X=%+$$+$6$@@-$+@@++=+O$@:-=%X @=@@@%$+;-=+.%-@$:3d922;@$=@$:-.+$;",
"@=X:X =$-:$-:$=X+;2:O@$@=+$+ +%XX@+%%X.+X.$2=$2::3d9d9:$X%X-@.+@;",
"%-$%X$$;222:22:X@$-%X$:$.X=+ @%+X@2:2$+2%$::2-%:::3dkh8=$%.$%$+$;",
"$;:+Xe+=%$$;%;:O:%@+.X=2+$%+++%=$$=2-O+::::22%.%:::3hs=X:=.$:-$@;",
"$::$@s+++++@.%%+=:O+X$%-+$=$=22+=-+-@X+::::--%X$%::::%-$;@.@++@::",
"%%-X;hXO$$$+.%%$;2O+X++=+$u:$=2%5-X@%$+:::2+@%@8$%:2%.%:-++@::22:",
"u%$+;%+$+++-$$8-$$+=+X=%+%=5:$$=:@.%-@$2$%2+@=+%=+%2%.+%:::::::::",
"29$;:=-X@;22:$-u+X=OX=2$%2$%u$.%@.$2%$::=+%+@2=XX%X;+.@$:22::::::",
"::::2u:X@$;2%;::$=:$%2:-::::2$%2%$::::222-++=2;$$%X$$@+%:ui222:::",
"::::::;X6%$;X%2:2:::::;X-2:::2:2::2::22:22--22%O:%.%5;$$:2uuuu2::",
"::::::;.$:+@+$::%;:2de<X@0d2:=;%;2=-:=%-22--2-$$-++-+O+:::2udiu::",
":::2:2-+O+.X%+%;@-:2uq<o@5u2:X%%$;+$2++$%%$-9%@-=X.@:::2:::2uu2::",
":2;%:2:%::+=:%+%:222:::-$-::=$$8=$+%=X$%O.=jj9@+9;$:::-=2:::22:::",
":;%@%;$.%:::-X%X-%%%;=;:$+-=+-$=u@$=+XX%-$&<2-O+2::::2$X=2:::222:",
"2%+qX$X.@%::%+=X$+OO$X==;X%O%O%=;+$$@;::+=%@-$X+2::::2$.$=2::;-82",
":%$e.+%O8$%-X-;.X$%%O.%$$@-@=O@+%O$2$$;2$=$+@-%+2::::2$$8+=:2%+62",
";+:>+;%+=e$$+-%+$+XO=+%9%%%;=XX==+%--$$%<e$.$-@$2::::2%$5$@=2%.+%",
";$%X-%+=+:9@-;+%X$;::;+-s+X=OX68@%:@%:+.*#.$:$$:2::+=2:%X$5+;@X$+",
":-=+$+;:::2::::;.+%::-;::+%:+58:::::::@$0&$:2-$@%2:X%2:;@%6X%@++%",
";$:=+;::::::::2;X6$%;X=2:::::22:::::::::00:::+.+%:@.%22$+2=.$e6$+",
":::::::::::::::;+;s+$@-2:::::::::::::2%@>5:+X..O;:$.%22%@;@X$OX+;",
":::::::::::::::2:::XX83:::::::::::::::-=:::=%%%=:::+=2:::%XX+;;::",
"::::::::::::::::::;X%22::::::::::::::::2:::22222::::::::::;;;::::"
};
