/* XPM */
static char *xpm_[] = {
/* columns rows colors chars-per-pixel */
"62 64 221 2 ",
"   c #180703",
".  c #130318",
"X  c #290401",
"o  c #360400",
"O  c #3F0900",
"+  c #241602",
"@  c #291F08",
"#  c #35170D",
"$  c #280D17",
"%  c #1C3101",
"&  c #372A01",
"*  c #372519",
"=  c #0D062F",
"-  c #1F0A20",
";  c #0D0833",
":  c #18083F",
">  c #181035",
",  c #3D1429",
"<  c #31143A",
"1  c #2F2937",
"2  c #451000",
"3  c #4F1700",
"4  c #441B01",
"5  c #492600",
"6  c #5A2000",
"7  c #463401",
"8  c #523503",
"9  c #43291C",
"0  c #623E00",
"q  c #64330D",
"w  c #763B10",
"e  c #5D343C",
"r  c #384E14",
"t  c #5F4B0F",
"y  c #74631F",
"u  c #55452D",
"i  c #684227",
"p  c #655423",
"a  c #685736",
"s  c #726639",
"d  c #110B4C",
"f  c #0D0C57",
"g  c #0C095D",
"h  c #120E5E",
"j  c #191252",
"k  c #1B185B",
"l  c #28255A",
"z  c #0B0A62",
"x  c #0E0C64",
"c  c #090B68",
"v  c #0E0A69",
"b  c #0B0B6D",
"n  c #120F67",
"m  c #120E6B",
"M  c #141064",
"N  c #1D1D62",
"B  c #1B1A67",
"V  c #14136A",
"C  c #0F0C70",
"Z  c #100C76",
"A  c #242168",
"S  c #252571",
"D  c #313072",
"F  c #3D3D70",
"G  c #583B57",
"H  c #784A44",
"J  c #7D5052",
"K  c #776A52",
"L  c #796B5A",
"P  c #504F7D",
"I  c #764E6B",
"U  c #C92C11",
"Y  c #D42F1E",
"T  c #C42B2F",
"R  c #D62426",
"E  c #D53233",
"W  c #E12227",
"Q  c #E83C39",
"!  c #814518",
"~  c #8F4C1B",
"^  c #A2531E",
"/  c #AF5C1D",
"(  c #866E18",
")  c #834B26",
"_  c #8B522D",
"`  c #955528",
"'  c #9E5C2E",
"]  c #874F3F",
"[  c #955A3B",
"{  c #BF4428",
"}  c #A95D2C",
"|  c #816F2B",
" . c #8C6F2A",
".. c #936F31",
"X. c #8F7832",
"o. c #84733A",
"O. c #B8652B",
"+. c #A96536",
"@. c #B96935",
"#. c #C74103",
"$. c #CE4119",
"%. c #C5621B",
"&. c #C6661F",
"*. c #CB651A",
"=. c #CF601E",
"-. c #E04E2D",
";. c #C26423",
":. c #CC6522",
">. c #C1662B",
",. c #C86828",
"<. c #D56823",
"1. c #C56E30",
"2. c #C26938",
"3. c #E77C2A",
"4. c #A95341",
"5. c #9A6151",
"6. c #B26743",
"7. c #C54243",
"8. c #E3524A",
"9. c #C06549",
"0. c #E27C4A",
"q. c #E26658",
"w. c #EA7C6F",
"e. c #998134",
"r. c #B68D23",
"t. c #AA923F",
"y. c #E99D2B",
"u. c #DBA133",
"i. c #D3A33C",
"p. c #EFA635",
"a. c #AD974E",
"s. c #9D9475",
"d. c #A09677",
"f. c #C1A757",
"g. c #FEAB4E",
"h. c #E0B163",
"j. c #FFC27F",
"k. c #383583",
"l. c #454388",
"z. c #47488F",
"x. c #4A4D8C",
"c. c #53568A",
"v. c #58568F",
"b. c #524F90",
"n. c #575994",
"m. c #626091",
"M. c #706B98",
"N. c #7A7899",
"B. c #605EA0",
"V. c #6868A4",
"C. c #6E6CAC",
"Z. c #7673A3",
"A. c #7E7EA3",
"S. c #7475AE",
"D. c #7B79B9",
"F. c #968481",
"G. c #A09380",
"H. c #AB9E80",
"J. c #AB9F84",
"K. c #A2908C",
"L. c #A99B94",
"P. c #AAA899",
"I. c #8A88AC",
"U. c #8F8DB0",
"Y. c #8482B9",
"T. c #908FB9",
"R. c #9D9EB3",
"E. c #ACA4A3",
"W. c #BCBBA9",
"Q. c #BCB7B1",
"!. c #DD9A94",
"~. c #E88C8C",
"^. c #CCBA85",
"/. c #C4B69B",
"(. c #FCA990",
"). c #E3CF94",
"_. c #F7C59E",
"`. c #E7D49D",
"'. c #CDC0A6",
"]. c #C9C2B8",
"[. c #FFC3B1",
"{. c #FAC3BF",
"}. c #FBE0A3",
"|. c #FDE2BA",
" X c #8888C2",
".X c #8D8BCA",
"XX c #9394C9",
"oX c #9FA1C4",
"OX c #9EA0D4",
"+X c #A3A2CB",
"@X c #A6A5CB",
"#X c #A5A5CD",
"$X c #ACAACF",
"%X c #ADACD1",
"&X c #ADABDD",
"*X c #A2A1E4",
"=X c #B8B7E6",
"-X c #BCBAE8",
";X c #C0BDCC",
":X c #F9C2C1",
">X c #FFDEDB",
",X c #FAECC7",
"<X c #FFE6DB",
"1X c #C1C3E6",
"2X c #CCCAED",
"3X c #C7C6F6",
"4X c #D2D0FF",
"5X c #D8DBFE",
"6X c #F8DFE2",
"7X c #FFF9ED",
"8X c #E1E0FF",
"9X c #E9E9FF",
"0X c #F0EDFF",
"qX c #EDF0FF",
"wX c #F2F1FF",
"eX c #F6F4FF",
"rX c #F7FAFF",
"tX c #FBFBFF",
"yX c #FFFAFF",
"uX c #FAFEFF",
"iX c None",
/* pixels */
"iXiXiXiXiXiXiXiXiXiXiXiXiXiXiXiXiXiXiXiXiXiXiXiXiXiXiXiXiXiXiXiXiXiXiXiXiXiXiXiXiXiXiXiXiXiXiXiXiXiXiXiXiXiXiXiXiXiXiXiXiXiX",
"iXiXiXiXiXiXiXiXiXiXiXiXiXiXiXiXiXiXiXiXiXiXiXiXiXiXiXiXiXiXiX,XiXiXiXiXiXiXiXiXiXiXiXiXiXiXiXiXiXiXiXiXiXiXiXiXiXiXiXiXiXiX",
"iXiXiXiXiXiXiXiXiXiXiXiXiXiXiXiXiXiXiXiXiXiXiXiXiXiXiXiXiXiXf.f.`.iXiXiXiXiXiXiXiXiXiXiXiXiXiXiXiXiXiXiXiXiXiXiXiXiXiXiXiXiX",
"iXiXiXiXiXiXiXiXiXiXiXiXiXiXiXiXiXiXiXiXiXiXiXiXiXiXiXiXiXiXy y ^.iXiXiXiXiXiXiXiXiXiXiXiXiXiXiXiXiXiXiXiXiXiXiXiXiXiXiXiXiX",
"iXiXiXiXiXiXiXiXiXiXiXiXiXiXiXiXiXiXiXiXiXiXiXiXiXiXiXiXiXiX    iXiXiXiXiXiXiXiXiXiXiXiXiXiXiXiXiXiXiXiXiXiXiXiXiXiXiXiXiXiX",
"iXiXiXiXiXiXiXiXiXiXiXiXiXiXiXiXiXiXiXiXiXiXiXiXiXiXiXiXiXiXE.E.6XiXiXiXiXiXiXiXiXiXiXiXiXiXiXiXiXiXiXiXiXiXiXiXiXiXiXiXiXiX",
"iXiXiXiXiXiXiXiXiXiXiXiXiXiXiXiXiXiXiXiXiXiXiXiXiXiXiXiX{._.7X7X_.[.,XiXiXiXiXiXiXiXiXiXiXiXiXiXiXiXiXiXiXiXiXiXiXiXiXiXiXiX",
"iXiXiXiXiXiXiXiXiXiXiXiXiXiXiXiXiXiXiXiXiXiXiX:X{.>X|.[.q.9.<X>X9.0.(.!.~.~.!.6XiXiXiXiXiXiXiXiXiXiXiXiXiXiXiXiXiXiXiXiXiXiX",
"iXiXiXiXiXiXiXiXK L iXiXiXiXiXiXiXiXiXiXiXiX:X4.4.[.q.8.E q.<X>X9.q.(.4.T T T w.iXiXiXiXiXiXiXiXiXiXiXiXiXiXiXiXiXiXiXiXiXiX",
"iXiXiXiXiXiX].a s t L iXiXiXiXiXiXiXiXiXiXiXw.T 7.[.Q R R 8.<X<X8.8.[.(.Q W W E {.iXiXiXiXiXiXiXiXiXiXiXiXiXiXiXiXiXiXiXiXiX",
"iXiXiXiXiXiXp X.f.e.7 iXiXiXiXiXiXiXiXiXiXw.T E 7.[.Q W W 8.<X<X8.E ~.>X8.W W T w.6XiXiXiXiXiXiXiXiXiXiXiXiXiXiXiXiXiXiXiXiX",
"iXiXiXiXiXiX7 f.i.e.8 iXiXiXiXiXiXiXiXiX:X7.E R { (.Q W W -.(.(.E R 7.>X8.Y R E 7.{.iXiXiXiXiXiXiXiXiXiXiXiXiXiXiXiXiXiXiXiX",
"iXiXiXiXiXiXK 8 y a.| K iXiXiXiXiXiX)._.[.7.R Q 0.w.E W W Y j._.8.W E q.w.0.Q R 7.[._.`.iXiXiXiXiXiXiXiXiXiXiXiXiXiXiXiXiXiX",
"iXiXiXiXiXiXiXL   p a.y a iXiXiXiXiX}.}.[.7.R Y j.j.-.U Y $.g.j.-.Y Y $.j.j.-.Y 7.[.}.}.iXiXiXiXiXiXiXiXiXiXiXiXiXiXiXiXiXiX",
"iXiXiXiXiXiXiXiX1 K p f.p a iXiXiXiX)._.[.{ U $.g.g.3.#.#.3.y.y.3.#.#.#.g.g.-.U { _.j.).iXiXiXiXiXiXiXiXiXiXiXiXiXiXiXiXiXiX",
"iXiXiXiXiXiXiXiXiXiXd.t X.& iXiXiXiX|.|.}.0.3.3.y.u.y.3.3.y.y.y.p.3.3.3.y.y.3.3.0.h.h.`.iXiXiXiXiXiXiXiXiXiXiXiXiXiXiXiXiXiX",
"iXiXiXiXiXiXiXiXiXiX].& t.X.a iXiXiX,X).h.p.y.p.i.i.i.i.i.i.i.i.i.i.i.i.i.u.u.u.i.f.h.iXiXiXiXiXiXiXiXiXiXiXiXiXiXiXiXiXiXiX",
"iXiXiXiXiXiXiXiXiXiXiXG.t a.X.a iXiXiX).h.i.u.r.0 7 7 7 7 8 8 5 8 7 7 7 8 0 r.t 8 ^.iXiXiXiXiXiXiXiXiXiXiXiXiXiXiXiXiXiXiXiX",
"iXiXiXiXiXiXiXiXiXiXiXiXG.p a.| s iXiXiX,X`.a.0 ( ( r r y ( (  . .y r r | ( 7 + d.iXiXiXiXiXiXiXiXiXiXiXiXiXiXiXiXiXiXiXiXiX",
"iXiXiXiXiXiXiXiXiXiXiXiXiXH.t a.| s iXiXiXiX'.& t.t.% % & 7 7 7 7 & % % 7 X.@ iXiXiXiXiXiXiXiXiXiXiXiXiXiXiXiXiXiXiXiXiXiXiX",
"iXiXiXiXiXiXiXiXiXiXiXiXiXiXH.t a.( s iXiXiXiX+ 5 7 y o.o.|  . . .| o.X.( 8 @ iXiXiXiXiXiXiXiXiXiXiXiXiXiXiXiXiXiXiXiXiXiXiX",
"iXiXiXiXiXiXiXiXiXiXiXiXiXiXiXd.t f.| p iXiXiX@ o...8 5 5 5 5 5 5 5 5 8 t. .* iXiXiXiXiXiXiXiXiXiXiXiXiXiXiXiXiXiXiXiXiXiXiX",
"iXiXiXiXiXiXiXiXiXiXiXiXiXiXiXiXH.p a.| a iXiX@ 5 6 O w ~ ~ i X w ~ w X 3 2 + iXiXiXiXiXiXiXiXiXiXiXiXiXiXiXiXiXiXiXiXiXiXiX",
"iXiXiXiXiXiXiXiXiXiXiXiXiXiXiXiXiXs.t a.o.a /.& ) ~ ~ +.@.` 4 o ` ' 3 q ` _ # * iXiXiXiXiXiXiXiXiXiXiXiXiXiXiXiXiXiXiXiXiXiX",
"iXiXiXiXiXiXiXiXn iXiXiXiXiXiXiXiXiXJ.u a.e.q ~ O.,.,.O.' 3 o ) [ 3 O _ +.+._ 4 9 iXiXiXiXiXiXiXiXiXiXiXiXiXiXiXiXiXiXiXiXiX",
"iXiXiXiXiXiXiXiXn n iXiXiXiXiXiXiXiXiXL.5 q ` O.,.,.;.} 3 o ~ ' 3 2 [ ` 6 ! 6 ) H 9 iXiXiXiXiXiXiXiXiXiXiXiXiXiXiXiXiXiXiXiX",
"iXiXiXiXiXiXiXiXn V iXiXiXiXiXiXiXiXiXiXO ~ O.1.O.^ ' ! o ! @./ 2 i [ q ! 6 3 ` [ X 9 ].iXiXiXiXiXiXiXiXiXiXiXiXiXiXiXiXiXiX",
"iXiXiXiXiXiXiXiXn C V iXiXiXiXiXiXiXiXi _ +.O.} ~ O O O o ` >./ 3 3 6 w 3 ! ' w _ 4 i u ].iXiXiXiXiXiXiXiXiXiXiXiXiXiXiXiXiX",
"iXiXiXiXiXiXiXiXN C x z.iXiXiXiXiXiXq ' +.' _ o O 2 ~ ! O _ ,.%./ } ) O   4 ' +._ O [ ] u iXiXiXiXiXiXiXiXiXiXiXiXiXiXiXiXiX",
"iXiXiXiXiXiXiXiXN b c z.iXiXiXiXiX* [ +.! O O 2 ` } 2.^ o ) >.*.*.;.} 2 X i 6 _ 2 2 _ 3 X + iXiXiXiXiXiXiXiXiXiXiXiXiXiXiXiX",
"iXiXiXiXiXiXiXiXV c b z.iXiXiXiX> # ] ) X X ~ } O.;.,.^ O o ^ &.:.%.;.^ 2 X i o 2 _ [ 2 ) 4 K.iXiXiXiXiXiXiXiXiXiXiXiXiXiXiX",
"iXiXiXiXiXiXiXn x C c x.iXiXiXiX- i o O X X ^ ,.*.*.%.>._ o ~ @.;.:.=.,.' 3 4 O ) _ 4 2 ' _ # iXiXiXiXiXiXiXiXiXiXiXiXiXiXiX",
"iXiXiXiXiXiXiXM C C z iXiXiXiX;   X 2 [ ] o ^ &.*.*.*.;.} 2 o ) O.&.:.%.>.O.} } _ O O ~ O.} X Q.iXiXiXiXiXiXiXiXiXiXiXiXiXiX",
"iXiXiXiXiXiXiXx C C A iXiXiXiX- X ) ` +._ O ^ &.*.*.*.&.O.~ O o w O.>.>.2.@.9.4.O 2 ~ @.;./ 4 F.iXiXiXiXiXiXiXiXiXiXiXiXiXiX",
"iXiXiXiXiXiXk x C z z.iXiXiX> - 2 } 1.1.` O ^ ,.%.:.*.&.:.>.` 2 o w +.+.[ 5.J H 2 _ @.,.<.>.` 4 iXiXiXiXiXiXiXiXiXiXiXiXiXiX",
"iXiXiXiXiXiXf v C z x.iXiXiX; - [ >.:.;.` O ! >.,.:.:.*.*.;.@.[ # X H 9 , < < < , J 6.>.:.;.+.4 iXiXiXiXiXiXiXiXiXiXiXiXiXiX",
"iXiXiXiXiXiXx Z Z x x.iXiXiX; - 6.&.%.,.' O O } ,.=.=.=.*.,.6.5.J . = : f M h d : < H 4.>.;.+.4 iXiXiXiXiXiXiXiXiXiXiXiXiXiX",
"iXiXiXiXiXiXx Z Z x z.iXiXiX; - } :.%.;.O.` O w O.,.:.:.>.6.] , < = d f z z m B.B.m.I J +.@.[ 5 iXiXiXiXiXiXiXiXiXiXiXiXiXiX",
"iXiXiXiXiXiXl.C C g c.iXiXiX; $ } *.*.&.>.} 3 o w } ,.2.[ J < j f f k v.v.v.Z.8XtXtXyXF.H 5.5.4 iXiXiXiXiXiXiXiXiXiXiXiXiXiX",
"iXiXiXiXiXiX-XB m z c.iXiXiX- $ +.&.*.*.,.O.' 3 o w 6.] , : k g B B.Y.0XtXrXrX3X&X=X=X+XG G J # iXiXiXiXiXiXiXiXiXiXiXiXiXiX",
"iXiXiXiXiXiXiXF h z n.iXiXN = $ +.&.=.=.:.,.>.^ O X e < j M g k Z.0XyXyXtX=X*Xk.h M M M h j d = iXiXiXiXiXiXiXiXiXiXiXiXiXiX",
"iXiXiXiXiXiXiX#Xf x l.iXiXiX= . w / =.<.=.;.>.6.J . = d g S C. X0XyXyX1X&XD c c c v C v g f f d M.iXiXiXiXiXiXiXiXiXiXiXiXiX",
"iXiXiXiXiXiXiXiXl.M M k.iXiXj . X ' :.=.:.2.6.H < : d f k  XtXuXrX3X&XD f c b C c g M b.v.m.v.v.m.$XiXiXiXiXiXiXiXiXiXiXiXiX",
"iXiXiXiXiXiXiXiX2Xh M v l.#Xk = X 5.9.9.4.] J < d f k v.S.eXrXuX1XF f M c b c x B.B.S.9XeXeXyX3X=XF U.iXiXiXiXiXiXiXiXiXiXiX",
"iXiXiXiXiXiXiXiXiXP M m x m v h : G I I < j d j f j A.9XuXrX1XOXk.m m c m B C.T.9XtXuXrX3X*X*Xk.C m B Y.iXiXiXiXiXiXiXiXiXiX",
"iXiXiXiXiXiXiXiXiXiXb.x v Z z h j : : : f g z S D.XXeXyXtX&XS z b b z x B D.0XtXyXyX%XoXD h z m C v h d m.iXiXiXiXiXiXiXiXiX",
"iXiXiXiXiXiXiXiXiXiXiXb.M x A S.A.A.N.I.Z.C.k F wXwXeXOX.XS x C C C M B.T.0XtXuX1XOXD f x c c x h B.S.A.A.N.iXiXiXiXiXiXiXiX",
"iXiXiXiXiXiXiXiXiXiXiXiXV.A  XrX9X&XtX8X%X9XoXT.T.Y.D.B M v m v b M C.8XyXyX=XOXk.z x c c z B D.XX9XrXwXrX%XI.iXiXiXiXiXiXiX",
"iXiXiXiXiXiXiXiXiXiXiXiXiXI.+X8XS.A D.S.T.wXuXqXT.k z Z Z b m g B Y.wXyXyX&XD x b c b z B C.XXqXrX+X X X.X.Xk.B.iXiXiXiXiXiX",
"iXiXiXiXiXiXiXiXiXiXiXiXiXiXN.T.Y.D.C.A A.rXuXuXrXXXm Z b m h C..XqXrX%X XD C C C b B  XOXqXtX&XT.D f h f f h j #XiXiXiXiXiX",
"iXiXiXiXiXiXiXiXiXiXiXiXiXiX$XP 8X XXX&X+X+XT.%XuXqX XB A S.OXqXeX=X XS z b b c g k Z.eXtX3X*Xk.g v m x f l.l.P ;XiXiXiXiXiX",
"iXiXiXiXiXiXiXiXiXiXiXiXiXiXiXI.I.A.F OXqXZ.j k A.oX8XF D.eXrXOXY.A M c b c x S .X+XeXyX%XD h v C m g l.m.-XiXiXiXiXiXiXiXiX",
"iXiXiXiXiXiXiXiXiXiXiXiXiXiXiXiXI.oXZ.l B.C.D.D.m.F 5XoXXX.X XS g b b c m S Y.+XwXtX&X XA h f g g b.M.2XiXiXiXiXiXiXiXiXiXiX",
"iXiXiXiXiXiXiXiXiXiXiXiXiXiXiXiXiXN.T.OX.XD B..X8X XA.8Xk.f M z b C z M B  XuXuXuXoXA x m h : = = ;XiXiXiXiXiXiXiXiXiXiXiXiX",
"iXiXiXiXiXiXiXiXiXiXiXiXiXiXiXiXiX2XA.T.0X&XY.D D.8X%X5Xk.v b C m g A  X%XeXuXrXOXD c C v j . u s a iXiXiXiXiXiXiXiXiXiXiXiX",
"iXiXiXiXiXiXiXiXiXiXiXiXiXiXiXiXiXiXiXI.N.T.0X&XF P m.4Xk.m z D *X&X&XwXyXwXT.S.S c b Z x M.L.p a.X.s iXiXiXiXiXiXiXiXiXiXiX",
"iXiXiXiXiXiXiXiXiXiXiXiXiXiXiXiXiXiXiXiXU.A.I.9X1XoXF 3Xk.D &X1XtXyXtXtXrX XB z b C v g V.iXiXJ.t t.| p iXiXiXiXiXiXiXiXiXiX",
"iXiXiXiXiXiXiXiXiXiXiXiXiXiXiXiXiXiXiXiXiXiXI.A.qXuX1X5Xl.OXrXrXuXwXI.Z.C.S C c v g S.$XiXiXiXiXJ.p t.e.s '.iXiXiXiXiXiXiXiX",
"iXiXiXiXiXiXiXiXiXiXiXiXiXiXiXiXiXiXiXiXiXiXiXR.N.9XrXqXF 3X9XS.B.B.B g x v v m k Y.iXiXiXiXiXiXiXJ.t a.X.t '.iXiXiXiXiXiXiX",
"iXiXiXiXiXiXiXiXiXiXiXiXiXiXiXiXiXiXiXiXiXiXiXiX$XN.9X9XF l.l.M x c c m m g B D.$XiXiXiXiXiXiXiXiXiXH.t a.e.a ;XiXiXiXiXiXiX",
"iXiXiXiXiXiXiXiXiXiXiXiXiXiXiXiXiXiXiXiXiXiXiXiXiX$XA.4Xk.x m m C Z g f k XX-XiXiXiXiXiXiXiXiXiXiXiXiXG.u 9 F.iXiXiXiXiXiXiX",
"iXiXiXiXiXiXiXiXiXiXiXiXiXiXiXiXiXiXiXiXiXiXiXiXiXiX#Xm.A h M g x h Y.$X-XiXiXiXiXiXiXiXiXiXiXiXiXiXiXiXW.P.6XiXiXiXiXiXiXiX",
"iXiXiXiXiXiXiXiXiXiXiXiXiXiXiXiXiXiXiXiXiXiXiXiXiXiXiX;X#X@XiXiX@X@XiXiXiXiXiXiXiXiXiXiXiXiXiXiXiXiXiXiXiXiXiXiXiXiXiXiXiXiX",
"iXiXiXiXiXiXiXiXiXiXiXiXiXiXiXiXiXiXiXiXiXiXiXiXiXiXiXiXiXiXiXiXiXiXiXiXiXiXiXiXiXiXiXiXiXiXiXiXiXiXiXiXiXiXiXiXiXiXiXiXiXiX"
};
