/* XPM */
static char *ecd0e142c02149d3eacb7b3e907428d1VhrfvDz5AZznhl6N[] = {
/* columns rows colors chars-per-pixel */
"64 64 196 2 ",
"   c None",
".  c None",
"X  c None",
"o  c None",
"O  c None",
"+  c None",
"@  c None",
"#  c None",
"$  c None",
"%  c None",
"&  c None",
"*  c None",
"=  c None",
"-  c None",
";  c None",
":  c None",
">  c None",
",  c None",
"<  c None",
"1  c None",
"2  c None",
"3  c None",
"4  c None",
"5  c None",
"6  c None",
"7  c None",
"8  c None",
"9  c None",
"0  c None",
"q  c None",
"w  c None",
"e  c None",
"r  c None",
"t  c None",
"y  c None",
"u  c None",
"i  c None",
"p  c None",
"a  c None",
"s  c None",
"d  c None",
"f  c None",
"g  c None",
"h  c None",
"j  c None",
"k  c None",
"l  c None",
"z  c None",
"x  c None",
"c  c None",
"v  c None",
"b  c None",
"n  c None",
"m  c None",
"M  c None",
"N  c None",
"B  c None",
"V  c None",
"C  c None",
"Z  c None",
"A  c None",
"S  c None",
"D  c None",
"F  c None",
"G  c None",
"H  c None",
"J  c None",
"K  c None",
"L  c None",
"P  c None",
"I  c None",
"U  c None",
"Y  c None",
"T  c None",
"R  c None",
"E  c None",
"W  c None",
"Q  c None",
"!  c None",
"~  c None",
"^  c None",
"/  c None",
"(  c None",
")  c None",
"_  c None",
"`  c None",
"'  c None",
"]  c None",
"[  c None",
"{  c None",
"}  c None",
"|  c None",
" . c None",
".. c None",
"X. c None",
"o. c None",
"O. c None",
"+. c None",
"@. c None",
"#. c None",
"$. c None",
"%. c None",
"&. c None",
"*. c None",
"=. c None",
"-. c None",
";. c None",
":. c None",
">. c None",
",. c None",
"<. c None",
"1. c None",
"2. c None",
"3. c None",
"4. c None",
"5. c None",
"6. c None",
"7. c None",
"8. c None",
"9. c None",
"0. c None",
"q. c None",
"w. c None",
"e. c None",
"r. c None",
"t. c None",
"y. c None",
"u. c None",
"i. c None",
"p. c None",
"a. c None",
"s. c None",
"d. c None",
"f. c None",
"g. c None",
"h. c None",
"j. c None",
"k. c None",
"l. c None",
"z. c None",
"x. c None",
"c. c None",
"v. c None",
"b. c None",
"n. c None",
"m. c None",
"M. c None",
"N. c None",
"B. c None",
"V. c None",
"C. c None",
"Z. c None",
"A. c None",
"S. c None",
"D. c None",
"F. c None",
"G. c None",
"H. c None",
"J. c None",
"K. c None",
"L. c None",
"P. c None",
"I. c None",
"U. c None",
"Y. c None",
"T. c None",
"R. c None",
"E. c None",
"W. c None",
"Q. c None",
"!. c None",
"~. c None",
"^. c None",
"/. c None",
"(. c None",
"). c None",
"_. c None",
"`. c None",
"'. c None",
"]. c None",
"[. c None",
"{. c None",
"}. c None",
"|. c None",
" X c None",
".X c None",
"XX c None",
"oX c None",
"OX c None",
"+X c None",
"@X c None",
"#X c None",
"$X c None",
"%X c None",
"&X c None",
"*X c None",
/* pixels */
"                                                                                                                                ",
"                                                                                                                                ",
"                                                                                                                                ",
"                                                                                                                                ",
"                                                                                                                                ",
"                                                                                                                                ",
"                                                            . 9 i .                                                             ",
"                                                            . g G .                                                             ",
"                                                            p R 3.i.                                                            ",
"                                                          o H / y.Z.@                                                           ",
"                                                          & J ! t.v.,                                                           ",
"                                                        . 0 x K ;.w._ .                                                         ",
"                                                        . e x K :.w.) .                                                         ",
"                                                        . 0 x K =.=.g .                                                         ",
"                                                        m M a K *.#.T o                                                         ",
"                                                        I.R.N ..3.f.W.4                                                         ",
"                                                        I.].(.]..X X*X3                                                         ",
"                                                      V _.).}.+X%XXX*XI.V                                                       ",
"                                                      Z (.^.}.XX%XXX*X*XC                                                       ",
"                                                      K./.`.}.XX%XXX*X*XH.                                                      ",
"                                                    1 (.^._.XXXX%XXX*X*XoX1                                                     ",
"                                                    1 /.~._.XXXX%XXX*X*X%X1                                                     ",
"                                                    - U.E.(.XXXX%XXX&X$X{.,                                                     ",
"                                                  + 9 U n L.+XXX%X@X!.t.t.+..                                                   ",
"                                                  9 ! f t u.x.x.Z.C.l.:.9.p..                                                   ",
"                                                  6 R l j L Q ~ &.~ :.:.9.p..                                                   ",
"                                                < d.X.a J E ! #.&.#.:.:.>.T.P.1                                                 ",
"                                                1 Q.R.s.| Q ! &.&.:.:.t.T.$XoX2                                                 ",
"                                                B ^.^.~.C.f.f.j.j.M.M.G.*X*X%X3 .                                               ",
"                                              . H.(.~./.}.}.}.#X#X*X*X*X*X*X*XJ..                                               ",
"                                              . H./.~._.XXXXXX%X#X*X*X*X*X*X*XJ..                                               ",
"                                              o u.R.E._.+XXXXX%X#X*X*X*X*X$XOXz.@                                               ",
"                                            O G h n N L.Y.'.XX%X%X*X*X*X&XM.e.r.c.#                                             ",
"                                            O K b j j F Q A.'.[.[.OX!.D.B.0.:.y.Z.#                                             ",
"                                            5 R h j z K ! }  .2.2.0.6.:.:.:.:.w.b.c                                             ",
"                                        X O f E v j x ! ! ! ! &.&.:.:.:.:.:.:.:.0.' O +                                         ",
"                                    X * 8 ; f x l l x ! ! ! ! &.&.:.:.:.:.:.:.:.0.o.g A 9 o                                     ",
"                              . . : r j j X u x j h R ! ! ! ! &.&.:.:.:.:.:.:.:.8.r.w i ! G p . .                               ",
"                            X = : r l l 8 0 h z j D ^ ! ! ! ! &.&.:.:.:.:.:.:.:.>.y., 6 ^ ^ P p 9 O                             ",
"                      . . ; r j l l l l ; H I j j D ! ! ! ! ! &.&.:.:.:.:.:.:.:.:.y., 6 ^ ! ! ^ E K 0 .                         ",
"                    X X ; r l z z z z z : H D j l F ^ ! ! ! / *.&.:.:.:.:.:.:.:.:.y.k e ! / / / / #.R p + O                     ",
"                  O a h D D D K ! ! ! A 0 K x j z E ! ! ! ^ -.;.&.:.:.:.:.:.:.:.:.6.N._ W :.;.;.;.;.:.;.=.W $                   ",
"                . * E #.^ ! ! ! ! ! ^ A u x j l z ! ! ! ! ^ ;.;.&.:.:.:.:.:.:.:.:.6.V.` ( >.:.:.:.:.:.:.>.7.9 .                 ",
"                . * Y [ $.#.! ! ! ! ^ P u s l l z ! ! ! ! ^ ;.;.&.:.:.:.:.:.:.6.6.q.+.M *.>.:.:.:.6.6.y.n.h.y .                 ",
"                . * l j v / ;.$.! ! ! ^ K % : l J ! ! ! ! ^ ;.;.&.:.:.:.:.:.:.t.S.a.G *.>.>.>.>.:.m.S.5.<.^ 5 .                 ",
"                . O r j j I { / %./ ^ ! ! d 8 t K ^ ! ! ! ^ ;.;.&.:.:.6.6.7.b.g.` O.*.8.:.>.9.0.n.h.k. .E G $ .                 ",
"                    X o : r j z b %.*.! ! ^ R R F E ^ ! ! ^ ;.>.;.:.6.V.F.w > 1.%.:.>.:.t.y.l.l.<.^ H p + +                     ",
"                        . ; r j l I ! %.#./ ^ ! R A 9 9 9 0 / H $.&.%.] M S T -.>.:.9.0.B.F.,.^ ! R 0 .                         ",
"                            X ; : r z z Y ^ #.%./ E K P P P ! E -.;.;.*.*.>.8.>.6.y.l.h.<. .R d 0 +                             ",
"                              . . : r j l j [ =.%.#./ ! ! ! ! / ;.>.:.>.>.:.:.0.t.N.<.! ! H p . .                               ",
"                                    X * q l z z Y $.-.%./ ! ! / ;.:.:.:.6.y.n.h.k.} ^ S 0 O                                     ",
"                                        o O 7 z j z I } ;.-.^ ^ ;.:.:.0.B.5.<.^ / g & $                                         ",
"                                            % ; q j j I { %.&.2.6.6.n.b.k.} E G 0 5                                             ",
"                                                o = 8 r j z b @.4.#.<.,.H p $ $                                                 ",
"                                                    . = t j l z E ^ ! R 9 .                                                     ",
"                                                        o ; 7 t H d 0 +                                                         ",
"                                                            . 7 u .                                                             ",
"                                                                                                                                ",
"                                                                                                                                ",
"                                                                                                                                ",
"                                                                                                                                ",
"                                                                                                                                ",
"                                                                                                                                ",
"                                                                                                                                "
};
