/* XPM */
static char *xpm_[] = {
/* columns rows colors chars-per-pixel */
"64 64 206 2 ",
"   c #040500",
".  c #0B0601",
"X  c #0A0A04",
"o  c #0C0E09",
"O  c #070905",
"+  c #140905",
"@  c #0E120C",
"#  c #13130E",
"$  c #151511",
"%  c #1A1A15",
"&  c #1A1D19",
"*  c #161814",
"=  c #2A0704",
"-  c #360806",
";  c #380A08",
":  c #1E211E",
">  c #23231E",
",  c #222421",
"<  c #2D2E29",
"1  c #282B28",
"2  c #33332E",
"3  c #2E3332",
"4  c #353632",
"5  c #3A3A35",
"6  c #3C3E3B",
"7  c #343A3A",
"8  c #332E2E",
"9  c #490A09",
"0  c #5D0909",
"q  c #5F1818",
"w  c #68090A",
"e  c #6F0F11",
"r  c #4E3332",
"t  c #79373A",
"y  c #3D413F",
"u  c #42423D",
"i  c #393F40",
"p  c #3B4242",
"a  c #494944",
"s  c #484B49",
"d  c #4E504D",
"f  c #52524E",
"g  c #4B5457",
"h  c #585A57",
"j  c #474F51",
"k  c #664646",
"l  c #615A5F",
"z  c #66625F",
"x  c #555F62",
"c  c #576165",
"v  c #5C666B",
"b  c #5B6569",
"n  c #656562",
"m  c #6C6E6D",
"M  c #656A69",
"N  c #72726E",
"B  c #646F75",
"V  c #657176",
"C  c #68757B",
"Z  c #7A7A76",
"A  c #767673",
"S  c #6C706F",
"D  c #8B090E",
"F  c #91090E",
"G  c #9B080E",
"H  c #990A10",
"J  c #8A1619",
"K  c #A7050D",
"L  c #AA0B12",
"P  c #B60A12",
"I  c #A11418",
"U  c #B01E26",
"Y  c #8F272C",
"T  c #B73339",
"R  c #C8050F",
"E  c #CE0711",
"W  c #C70913",
"Q  c #CE0913",
"!  c #CF0E18",
"~  c #C70710",
"^  c #D20A14",
"/  c #D10F19",
"(  c #D50A14",
")  c #C8121C",
"_  c #D1111A",
"`  c #DE101A",
"'  c #E6141C",
"]  c #D31E27",
"[  c #D11F28",
"{  c #EC1921",
"}  c #E41C23",
"|  c #F11C24",
" . c #D4232C",
".. c #DF232C",
"X. c #D32B33",
"o. c #D6343C",
"O. c #D9333B",
"+. c #EE252D",
"@. c #EE3037",
"#. c #D53840",
"$. c #F03B42",
"%. c #AF4347",
"&. c #AE5661",
"*. c #AF6B6D",
"=. c #D54047",
"-. c #D5434B",
";. c #D84148",
":. c #D55057",
">. c #D55158",
",. c #D95158",
"<. c #D24C53",
"1. c #EF4D54",
"2. c #D9767B",
"3. c #E96F74",
"4. c #E97175",
"5. c #E7787C",
"6. c #80807D",
"7. c #6D7A80",
"8. c #EA7D81",
"9. c #75838A",
"0. c #76848C",
"q. c #7C8A93",
"w. c #858582",
"e. c #8C8C8A",
"r. c #888986",
"t. c #94918E",
"y. c #868B94",
"u. c #83929C",
"i. c #969693",
"p. c #9E9E9C",
"a. c #999997",
"s. c #978381",
"d. c #AD8F90",
"f. c #A1A19E",
"g. c #8797A1",
"h. c #8A9AA4",
"j. c #8D9EA9",
"k. c #8FA0AB",
"l. c #91A2AD",
"z. c #9EA2A0",
"x. c #94A5B1",
"c. c #98A7B2",
"v. c #9BAAB4",
"b. c #A6A7A5",
"n. c #ACADAB",
"m. c #A9A7A7",
"M. c #A3ACB5",
"N. c #A7B5BE",
"B. c #AAB5BC",
"V. c #BABBB9",
"C. c #B6B7B5",
"Z. c #B2ACAB",
"A. c #DB8589",
"S. c #DE9A9D",
"D. c #DA9397",
"F. c #DB8F93",
"G. c #E88185",
"H. c #EB979B",
"J. c #E7969A",
"K. c #F79A9D",
"L. c #F7979A",
"P. c #F18C90",
"I. c #F89EA2",
"U. c #DEA7A9",
"Y. c #DEA9AC",
"T. c #DDA3A6",
"R. c #DEB3B5",
"E. c #E1AAAD",
"W. c #EEAFB2",
"Q. c #B2BEC5",
"!. c #BCBFC1",
"~. c #A8B6C0",
"^. c #BCC5CA",
"/. c #CCCCCB",
"(. c #C6C7C8",
"). c #D1D1CF",
"_. c #C9CED2",
"`. c #C4CCD2",
"'. c #D4D4D3",
"]. c #DBDBDB",
"[. c #E3C8C9",
"{. c #E1CFD0",
"}. c #E3DCDC",
"|. c #E2D4D4",
" X c #F7D6D8",
".X c #F8D9DA",
"XX c #FAC3C5",
"oX c #D6DCE0",
"OX c #F9DEE0",
"+X c #E4E5E4",
"@X c #E6E9E9",
"#X c #ECEDEC",
"$X c #E3E8E7",
"%X c #FBECED",
"&X c #FAE5E6",
"*X c #ECEFF1",
"=X c #F3F3F3",
"-X c #F9F9FA",
";X c white",
":X c #FEFEFE",
">X c #FDFDFD",
",X c #FEFFFF",
"<X c #F8F6F7",
"1X c #F6F0F1",
"2X c None",
"3X c None",
/* pixels */
"2X2X2X2X2X2X2X2X2X2X2X2X2X2X2X2X2X2X2X2X2X2X2X2X2X2X2X. .         X O   2X2X2X2X2X2X2X2X2X2X2X2X2X2X2X2X2X2X2X2X2X2X2X2X2X2X2X2X",
"2X2X2X2X2X2X2X2X2X2X2X2X2X2X2X2X2X2X2X2X2X2X2X2X    7 v v v v v v v v g o   . 2X2X2X2X2X2X2X2X2X2X2X2X2X2X2X2X2X2X2X2X2X2X2X2X2X",
"2X2X2X2X2X2X2X2X2X2X2X2X2X2X2X2X2X2X2X2X2X2X2X2 4 2 B N.N.N.N.N.N.N.v.0.1 : : 2X2X2X2X2X2X2X2X2X2X2X2X2X2X2X2X2X2X2X2X2X2X2X2X2X",
"2X2X2X2X2X2X2X2X2X2X2X2X2X2X2X2X2X2X2X2X2X2X  Z =X*X=X-X-X-X-X-X-X-X^.h.h.g.0.$ 2X2X2X2X2X2X2X2X2X2X2X2X2X2X2X2X2X2X2X2X2X2X2X2X",
"2X2X2X2X2X2X2X2X2X2X2X2X2X2X2X2X2X2X2X2X3X> e.(.;X;X;X;X;X;X;X;X;X>X^.k.k.k.h.v y   2X2X2X2X2X2X2X2X2X2X2X2X2X2X2X2X2X2X2X2X2X2X",
"2X2X2X2X2X2X2X2X2X2X2X2X2X2X2X2X2X2X2X2X> a *X;X;X;X;X;X;X;X;X;X;X>X^.v.v.c.k.x.c & 2X2X2X2X2X2X2X2X2X2X2X2X2X2X2X2X2X2X2X2X2X2X",
"2X2X2X2X2X2X2X2X2X2X2X2X2X2X2X2X2X2X2X. e.1X;X;X;X;X;X;X;X;X;X;X;X;X-X=X=X^.k.k.h.0.&   2X2X2X2X2X2X2X2X2X2X2X2X2X2X2X2X2X2X2X2X",
"2X2X2X2X2X2X2X2X2X2X2X2X2X2X2X2X2X2X2X  i.;X;X;X;X;X;X;X;X;X;X;X;X;X;X>X>X^.j.k.k.u.& . 2X2X2X2X2X2X2X2X2X2X2X2X2X2X2X2X2X2X2X2X",
"2X2X2X2X2X2X2X2X2X2X2X2X2X2X2X2X2X2X2X% p.;X;X;X;X;X;X;X;X;X;X;X;X;X;X;X;X^.j.k.k.u.&   2X2X2X2X2X2X2X2X2X2X2X2X2X2X2X2X2X2X2X2X",
"2X2X2X2X2X2X2X2X2X2X2X2X2X2X2X2X2X  2 (.#X;X;X;X;X;X;X;X;X;X;X;X;X;X;X;X;X^.j.j.k.u.*   2X2X2X2X2X2X2X2X2X2X2X2X2X2X2X2X2X2X2X2X",
"2X2X2X2X2X2X2X2X2X2X2X2X2X2X2X2X2X  4 =X;X=Xb.).;X;X;X-Xn.V.;X;X;X;X;X;X;XoXQ.l.l.g.g 3 2X2X2X2X2X2X2X2X2X2X2X2X2X2X2X2X2X2X2X2X",
"2X2X2X2X2X2X2X2X2X2X2X2X2X2X2X2X2X  4 *X-X).% 6.;X;X;X<X5 f =X>X;X;X;X;X;X;X*Xc.k.j.l.x   2X2X2X2X2X2X2X2X2X2X2X2X2X2X2X2X2X2X2X",
"2X2X2X2X2X2X2X2X2X2X2X2X2X2X2X2X2X  4 #Xi.< O w.;X;X;X=X6 # a '.;X;X;X;X;X;X*Xc.k.k.x.c   2X2X2X2X2X2X2X2X2X2X2X2X2X2X2X2X2X2X2X",
"2X2X2X2X2X2X2X2X2X2X2X2X2X2X2X2X2X  4 1Xm     w.;X;X;X=X5   X t./.>X;X;X;X;X*Xc.k.k.k.x . 2X2X2X2X2X2X2X2X2X2X2X2X2X2X2X2X2X2X2X",
"2X2X2X2X2X2X2X2X2X2X2X2X2X2X2X2X2X  4 *XN   . w.;X;X;X=X6     . d <X;X;X;X;X*Xc.k.k.l.x   2X2X2X2X2X2X2X2X2X2X2X2X2X2X2X2X2X2X2X",
"2X2X2X2X2X2X2X2X2X2X2X2X2X2X2X2X2X  2 *Xm     6.;X;X;X=X5       a -X;X;X;X;X*Xc.k.k.l.c   2X2X2X2X2X2X2X2X2X2X2X2X2X2X2X2X2X2X2X",
"2X2X2X2X2X2X2X2X2X2X2X2X2X2X2X2X2X5 n =Xa.a a b.;X;X;X<XN a a a Z -X;X>X;X;X*Xc.k.k.k.c . 2X2X2X2X2X2X2X2X2X2X2X2X2X2X2X2X2X2X2X",
"2X2X2X2X2X2X2X2X2X2X2X2X2X.   . X n.<X;X-X-X-X-X;X;X;X;X-X<X<X<X>X;X;X>X;X;X*Xc.k.k.k.x . 2X2X2X2X2X2X2X2X2X2X2X2X2X2X2X2X2X2X2X",
"2X2X2X2X2X2X2X2X2X2X2X  f f.p.p.f.+X;X;X;X;X;X;X;X;X;X;X;X;X;X;X'.M z z z z m j.k.k.k.q.c : 2X2X2X2X2X2X2X2X2X2X2X2X2X2X2X2X2X2X",
"2X2X2X2X2X2X2X2X2X2X2X< w.;X;X;X;X;X;X<X>X;X;X@X).).+X;X;X;X;X+Xm.2 < < < < 6 0.h.k.k.k.h.: . 2X2X2X2X2X2X2X2X2X2X2X2X2X2X2X2X2X",
"2X2X2X2X2X2X2X2X2X2X% /.<X;X;X;X;X;X-X+X=X;X;Xr.# # N ;X;X;X-Xf h @X#X#X#X#X(., c x.k.k.g.: O 2X2X2X2X2X2X2X2X2X2X2X2X2X2X2X2X2X",
"2X2X2X2X2X2X2X2X2X2X% '.;X;X;X;X;X;X-X+X=X;X;X(.e.e.V.;X;X).Z e.C.;X;X;X;X;X#Xa.S j g.k.g.,   2X2X2X2X2X2X2X2X2X2X2X2X2X2X2X2X2X",
"2X2X2X2X2X2X2X2X2X> 5 ].;X;X;X;X;X;X<X+X=X>X;X;X;X;X>X>X@Xf.2 ).;X;X;X;X;X;X;X;Xi.< q.x.g.: . 2X2X2X2X2X2X2X2X2X2X2X2X2X2X2X2X2X",
"2X2X2X2X2X2X2X2X  A @X-X;X;X;X;X;X#X+X+X X&X;X;X;X;X;X<Xh l +X<X;X;X;X;X;X;X;X;X=X].v.k.g.:   2X2X2X2X2X2X2X2X2X2X2X2X2X2X2X2X2X",
"2X2X2X2X2X2X2X2X  Z ;X;X;X;X;X*X`.].+X+X4.P.;X;X;X;X;X%Xu f ;X;X;X;X;X;X;X;X;X;X;X-X`.N.u.,   2X2X2X2X2X2X2X2X2X2X2X2X2X2X2X2X2X",
"2X2X2X2X2X2X2X2X  Z ;X;X;X;X-XoXl./.+X+X4.$.I.%X;X;X%X8.; d +X@X#X>X;X;X;X;X;X;X;X>X@X(.y.:   2X2X2X2X2X2X2X2X2X2X2X2X2X2X2X2X2X",
"2X2X2X2X2X2X2X2X  Z ;X;X>X>X^.x.l.`.+X+X4.' { L.;X;XI.} - @ < , z >X;X;X;X;X;X;X;X>X@XD.) ; O 2X2X2X2X2X2X2X2X2X2X2X2X2X2X2X2X2X",
"2X2X2X2X2X2X2X2X  Z ;X;X>X-X^.k.k.`.+X+X4.{ { P.=X;XK.} J 9   4 h a.].;X;X;X;X;X;X>X@XA.~ -   2X2X2X2X2X2X2X2X2X2X2X2X2X2X2X2X2X",
"2X2X2X2X2X2X2X2X  A -X=X=X=XN.k.l._.+X+X3.' | 8.@X>XK.} | I o C 7.X n.;X;X;X;X;X;X-X#XA.W -   2X2X2X2X2X2X2X2X2X2X2X2X2X2X2X2X2X",
"2X2X2X2X2X2X2X2X2X4 r u y p < j l._.+X+X3.| | G.@X>XK.{ ` F X C 7.X n.;X;X;X;X;X;X;X>XJ.W -   2X2X2X2X2X2X2X2X2X2X2X2X2X2X2X2X2X",
"2X2X2X2X2X2X2X2X2X2X    $ 3 3 p V !.+X+X4.' | G.@X>XK.{ ( U s v b 7 r.(.>X;X;X;X;X;X;XH.~ w 9 2X2X2X2X2X2X2X2X2X2X2X2X2X2X2X2X2X",
"2X2X2X2X2X2X2X2X2X2X2X  7 h.k.V o f.@X+X4.| ' G.@X>XK.{ ( >.].y < g.7 a =X;X;X;X;X;X;XH.Q ^ F . 2X2X2X2X2X2X2X2X2X2X2X2X2X2X2X2X",
"2X2X2X2X2X2X2X2X2X2X2X2X: 7 q.7.+ p.@X+X4.{ { G.@X>XK.' ^ >.].6 1 j.0.V f C.;X;X;X;X;XH.Q ^ F . 2X2X2X2X2X2X2X2X2X2X2X2X2X2X2X2X",
"2X2X2X2X2X2X2X2X2X2X2X2X2X. b g X p.+X+X4.{ { G.@X;XK.{ ( >.}.N g 7.g.7.X p.;X;X-X-X;XH.Q ^ F . 2X2X2X2X2X2X2X2X2X2X2X2X2X2X2X2X",
"2X2X2X2X2X2X2X2X2X2X2X2X2X2XX X X f.@X+X4.{ { G.@X>XK.{ ( >.}.+Xb.# V 9.X p.;X;X=X+X>XH.E ^ F . 2X2X2X2X2X2X2X2X2X2X2X2X2X2X2X2X",
"2X2X2X2X2X2X2X2X2X2X2X2X2X2X2X. X p.+X+X4.| { G.@X>XK.{ ( >.+X@Xb.o V 9.@ p.;X;X=X$X>XH.^ ^ F . 2X2X2X2X2X2X2X2X2X2X2X2X2X2X2X2X",
"2X2X2X2X2X2X2X2X2X2X2X2X2X2X2X2XX p.@X+X4.{ { G.@X>XK.{ ( :.}.+XZ.; l v X p.;X;X1X+X<XH.Q ^ F . 2X2X2X2X2X2X2X2X2X2X2X2X2X2X2X2X",
"2X2X2X2X2X2X2X2X2X2X2X2X2X2X2X2X. p.$X+X4.{ { G.@X>XK.{ ( :.+X+XE.) 9 X . p.;X;X*X+X$XA.Q ^ F . 2X2X2X2X2X2X2X2X2X2X2X2X2X2X2X2X",
"2X2X2X2X2X2X2X2X2X2X2X2X2X2X2X2X. p.@X+X4.{ { G.@X>XK.} ( :.+X+XY._ G 0 . f.;X;X=X+X$XA.E ^ P w = 2X2X2X2X2X2X2X2X2X2X2X2X2X2X2X",
"2X2X2X2X2X2X2X2X2X2X2X2X2X2X2X2X. p.@X+X4.{ { G.@X>XK.{ ( :.+X+XR.o.` L = t.*X;X*X+X+XF. .! ! W ;   2X2X2X2X2X2X2X2X2X2X2X2X2X2X",
"2X2X2X2X2X2X2X2X2X2X2X2X2X2X2X2XX p.@X+X3.{ { G.@X;XK.{ E >.oX+X}.[.-.~ P q f 1X*X+X+X|.R. .^ ~ -   2X2X2X2X2X2X2X2X2X2X2X2X2X2X",
"2X2X2X2X2X2X2X2X2X2X2X2X2X2X2X2XX p.+X+X4.{ { G.@X;XK.{ ' O.2.[.+X}.-.Q W Y V =X-X#X+X+X'.X.^ Q -   2X2X2X2X2X2X2X2X2X2X2X2X2X2X",
"2X2X2X2X2X2X2X2X2X2X2X2X2X2X2X2XX p.@X+X4.' | 5.}.-XI.+.{ } Q U.$X}.<.E Q &.M.-X;X;X+X+X{.X.! W -   2X2X2X2X2X2X2X2X2X2X2X2X2X2X",
"2X2X2X2X2X2X2X2X2X2X2X2X2X2X2X2XX p.@X+X4.' } +.-.%X%XXX$.' ! Y.$X}.;.R Q ) <.%X;X-X$X+X{.X.E W - O 2X2X2X2X2X2X2X2X2X2X2X2X2X2X",
"2X2X2X2X2X2X2X2X2X2X2X2X2X2X2X2XX f.@X+XH.1.+.`  .&X;X%X$.} ! U.$X}.2.#.! E o.%X;X-X@X+X|.2.#.W e 9 2X2X2X2X2X2X2X2X2X2X2X2X2X2X",
"2X2X2X2X2X2X2X2X2X2X2X2X2X2X2X2XX a.].}.+X[.@.`  ..X;X%X1.} ! T.+X+X+XY./ E o.%X;X;X@X+X+X@XS.) ^ G . 2X2X2X2X2X2X2X2X2X2X2X2X2X",
"2X2X2X2X2X2X2X2X2X2X2X2X2X2X2X2X2X< l ].#XXX@.' X.&X;X;XOXP.^ o.2.+X+XY./ Q o.%X;X<XR.{.+X+X[.S.O.G . 2X2X2X2X2X2X2X2X2X2X2X2X2X",
"2X2X2X2X2X2X2X2X2X2X2X2X2X2X2X2X2X  5 ].V.6.Y F J d.m.B.-XW.Q E :.}.+XY./ Q o.%X;X XX.F.$X+X+X}.;.K 9 = 2X2X2X2X2X2X2X2X2X2X2X2X",
"2X2X2X2X2X2X2X2X2X2X2X2X2X2X2X2X3X  6 '.n X . .   O O % _.W./ E >.}.$XY._ E o.%X;X X .2.|.}.+X}.#.E Q 9 O 3X3X3X3X3X3X3X3X3X3X3X",
"2X2X2X2X2X2X2X2X2X2X2X2X2X2X2X2X3X  * a c V V V V V p X r t ^ E >.+X+XY._ E o.%X;X X]  .o.R.+X}.;.^ ! *.z.3X3X3X3X3X3X3X3X3X3X3X",
"2X2X2X2X2X2X2X2X2X2X2X2X2X2X2X2X3X      x c.l.l.x.x.x . 8 r G R :.}.$XY._ E O.%X;X X] E W U.+X}.=.E Q S.].3X2X2X3X3X3X3X3X3X3X3X",
"2X2X2X2X2X2X2X2X2X2X2X2X2X2X2X2X3X. X   c l.k.k.k.x.g @ /.b.+ G :.+X$XY._ E O.%X;X X] Q / U.+X}.=.E ! S.V.# 2X2X3X3X3X3X3X3X3X3X",
"2X2X2X2X2X2X2X2X2X2X2X2X2X2X2X2X2X2X    , p 7 i p i , O j k D R ,.+X@XE./ ( O.%X;X X] E / U.$X}.=.E Q S.C.@ 2X2X3X3X3X3X3X3X3X3X",
"2X2X2X2X2X2X2X2X2X2X2X2X2X2X2X2X2X2X2X. .         * & &   - L K %.V.V.d.L K T %X;X X] Q ! Y.$X}.=.E Q S.(.5 , 2X3X3X3X3X3X3X3X3X",
"2X2X2X2X2X2X2X2X2X2X2X2X2X2X2X2X2X2X2X2X2X2X2X. * 0.g.q., . + + + % $ + + . 8 *X;X.X] Q / Y.@X}.;.^ ^ S.+X].h . 3X3X3X3X3X3X3X3X",
"2X2X2X2X2X2X2X2X2X2X2X2X2X2X2X2X2X2X2X2X2X2X2X. o p g j * . 2X2X2X3X3X3X3X3X, m N z 0 0 0 k M z q 0 0 k n n <   3X3X3X3X3X3X3X3X",
"2X2X2X2X2X2X2X2X2X2X2X2X2X2X2X2X2X2X2X2X2X2X2X2X. .   . . . 2X2X2X2X2X2X2X2X2X          O                 .   O 3X3X3X3X3X3X3X3X",
"2X2X2X2X2X2X2X2X2X2X2X2X2X2X2X2X2X2X2X2X2X2X2X2X2X2X2X2X2X2X2X2X2X2X2X2X2X2X2X2X3X3X3X3X3X3X3X3X3X2X2X2X2X3X3X3X3X3X3X3X3X3X3X3X",
"2X2X2X2X2X2X2X2X2X2X2X2X2X2X2X2X2X2X2X2X2X2X2X2X2X2X2X2X2X2X2X2X2X2X2X2X2X2X2X2X3X3X3X3X3X3X3X3X3X3X2X2X2X2X3X3X3X3X3X3X3X3X3X3X",
"2X2X2X2X2X2X2X2X2X2X2X2X2X2X2X2X2X2X2X2X2X2X2X2X2X2X2X2X2X2X2X2X2X2X2X2X2X2X2X2X3X3X3X3X3X3X3X3X3X3X2X2X2X2X3X3X3X3X3X3X3X3X3X3X",
"2X2X2X2X2X2X2X2X2X2X2X2X2X2X2X2X2X2X2X2X2X2X2X2X2X2X2X2X2X2X2X2X2X2X2X2X2X2X2X2X3X3X3X3X3X3X3X3X3X3X3X3X3X3X3X3X3X3X3X3X3X3X3X3X",
"2X2X2X2X2X2X2X2X2X2X2X2X2X2X2X2X2X2X2X2X2X2X2X2X2X2X2X2X2X2X2X2X2X2X2X2X2X2X2X2X3X3X3X3X3X3X3X3X3X3X3X3X3X3X3X3X3X3X3X3X3X3X3X3X",
"2X2X2X2X2X2X2X2X2X2X2X2X2X2X2X2X2X2X2X2X2X2X2X2X2X2X2X2X2X2X2X2X2X2X2X2X2X2X2X2X3X3X3X3X3X3X3X3X3X3X3X3X3X3X3X3X3X3X3X3X3X3X3X3X",
"2X2X2X2X2X2X2X2X2X2X2X2X2X2X2X2X2X2X2X2X2X2X2X2X2X2X2X2X2X2X2X2X2X2X2X2X2X2X2X2X3X3X3X3X3X3X3X3X3X3X3X3X3X3X3X3X3X3X3X3X3X3X3X3X"
};
