/* XPM */
static char *xpm_[] = {
/* columns rows colors chars-per-pixel */
"64 64 200 2 ",
"   c #040400",
".  c #0B0701",
"X  c #0A0A04",
"o  c #0D0E09",
"O  c #060A08",
"+  c #1B0602",
"@  c #140A06",
"#  c #0F100B",
"$  c #13130D",
"%  c #1A140E",
"&  c #141611",
"*  c #1A1B15",
"=  c #191A16",
"-  c #360805",
";  c #370706",
":  c #270F0D",
">  c #1D201D",
",  c #24241E",
"<  c #222522",
"1  c #2A2A25",
"2  c #252B2A",
"3  c #292C2A",
"4  c #34322D",
"5  c #2D3433",
"6  c #353632",
"7  c #3A3A35",
"8  c #3C3E3A",
"9  c #3D3634",
"0  c #3D2623",
"q  c #48090A",
"w  c #560608",
"e  c #4B0D10",
"r  c #66090B",
"t  c #7A090C",
"y  c #582B2B",
"u  c #722E30",
"i  c #41413D",
"p  c #3D4547",
"a  c #484A48",
"s  c #4B5254",
"d  c #4D5558",
"f  c #545552",
"g  c #515A5E",
"h  c #575854",
"j  c #514E4D",
"k  c #62625E",
"l  c #555F62",
"z  c #596366",
"x  c #696965",
"c  c #71716E",
"v  c #626D73",
"b  c #69757B",
"n  c #6A767C",
"m  c #7A7A77",
"M  c #7D7D7A",
"N  c #747470",
"B  c #8A0A0E",
"V  c #92090E",
"C  c #9C080E",
"Z  c #8F1114",
"A  c #AC060E",
"S  c #AF0910",
"D  c #B20B12",
"F  c #B90810",
"G  c #B0050D",
"H  c #B31A21",
"J  c #B5373C",
"K  c #CE0711",
"L  c #C70912",
"P  c #CE0913",
"I  c #C90B14",
"U  c #D30A14",
"Y  c #D10F19",
"T  c #D20913",
"R  c #D0111A",
"E  c #DD1019",
"W  c #E6151D",
"Q  c #D31C25",
"!  c #EC1921",
"~  c #E41A22",
"^  c #D4242D",
"/  c #D22A33",
"(  c #D7343C",
")  c #D8343C",
"_  c #CC232B",
"`  c #EB2C33",
"'  c #ED2830",
"]  c #BA3943",
"[  c #CD3E45",
"{  c #92575B",
"}  c #A35660",
"|  c #897475",
" . c #D54047",
".. c #D5444B",
"X. c #D5484F",
"o. c #D64A51",
"O. c #D65057",
"+. c #D55259",
"@. c #D85057",
"#. c #F1424A",
"$. c #E84A51",
"%. c #D96A6F",
"&. c #D9777C",
"*. c #F3696F",
"=. c #E97175",
"-. c #E9767A",
";. c #E86C71",
":. c #82827F",
">. c #6D7B81",
",. c #707D84",
"<. c #B97E87",
"1. c #DC7C81",
"2. c #748189",
"3. c #798389",
"4. c #7D8B94",
"5. c #858583",
"6. c #8E8E8C",
"7. c #898987",
"8. c #91918E",
"9. c #82929B",
"0. c #959592",
"q. c #9E9E9C",
"w. c #9A9A97",
"e. c #9A8E8F",
"r. c #BC8788",
"t. c #9EA19F",
"y. c #A0A09F",
"u. c #8797A1",
"i. c #8A9BA5",
"p. c #8D9EA9",
"a. c #8598A2",
"s. c #8FA0AB",
"d. c #91A2AD",
"f. c #94A5B0",
"g. c #98A7B2",
"h. c #9BAAB4",
"j. c #A5A5A3",
"k. c #ACADAB",
"l. c #A8A9A6",
"z. c #B1B1AF",
"x. c #A7B4BD",
"c. c #B7B8B6",
"v. c #DA868A",
"b. c #DF9A9D",
"n. c #DB9498",
"m. c #D18A8D",
"M. c #E88185",
"N. c #EA8488",
"B. c #E18D91",
"V. c #EB979B",
"C. c #EA9C9F",
"Z. c #F79A9D",
"A. c #F68C90",
"S. c #DEA6A9",
"D. c #DFAAAD",
"F. c #DBB8BA",
"G. c #CDAEB1",
"H. c #E1AAAC",
"J. c #F8B6B9",
"K. c #E8B3B6",
"L. c #C1C1BF",
"P. c #B2BEC5",
"I. c #BAC5CB",
"U. c #B8C3CA",
"Y. c #C3C4C3",
"T. c #CDCECD",
"R. c #C6C8C7",
"E. c #D0D0CF",
"W. c #C9CED1",
"Q. c #CBD2D6",
"!. c #D4D5D4",
"~. c #D2D9DE",
"^. c #DBDCDB",
"/. c #E2C7C9",
"(. c #F7C2C3",
"). c #E1CFD0",
"_. c #E3DDDD",
"`. c #E5D3D4",
"'. c #F7D6D8",
"]. c #F8D9DB",
"[. c #D8DEE2",
"{. c #F9DFE0",
"}. c #DEE1E3",
"|. c #E4E5E4",
" X c #E6E9E9",
".X c #ECEDED",
"XX c #E3E7EA",
"oX c #FCECED",
"OX c #F9E8E9",
"+X c #ECEFF1",
"@X c #EEF1F2",
"#X c #F3F3F3",
"$X c white",
"%X c #FEFEFE",
"&X c #FDFDFD",
"*X c #FEFEFE",
"=X c #FBF3F4",
"-X c #F0F0F0",
";X c None",
":X c None",
/* pixels */
";X;X;X;X;X;X;X;X;X;X;X;X;X;X;X;X;X;X;X;X;X;X;X;X;X;X;X                ;X;X;X;X;X;X;X;X;X;X;X;X;X;X;X;X;X;X;X;X;X;X;X;X;X;X;X;X;X",
";X;X;X;X;X;X;X;X;X;X;X;X;X;X;X;X;X;X;X;X;X;X;X;X;X;X> < < < < < 2 < < < ;X;X;X;X;X;X;X;X;X;X;X;X;X;X;X;X;X;X;X;X;X;X;X;X;X;X;X;X",
";X;X;X;X;X;X;X;X;X;X;X;X;X;X;X;X;X;X;X;X;X;X;X;X    a a.u.u.u.u.u.u.a.>.o     ;X;X;X;X;X;X;X;X;X;X;X;X;X;X;X;X;X;X;X;X;X;X;X;X;X",
";X;X;X;X;X;X;X;X;X;X;X;X;X;X;X;X;X;X;X;X;X;X  k w.w.c.~.~.~.~.~.~.~.x.9.z z g & ;X;X;X;X;X;X;X;X;X;X;X;X;X;X;X;X;X;X;X;X;X;X;X;X",
";X;X;X;X;X;X;X;X;X;X;X;X;X;X;X;X;X;X;X;X;X;X3 w.$X$X$X$X$X$X$X$X$X$XU.p.f.d.9.3 = ;X;X;X;X;X;X;X;X;X;X;X;X;X;X;X;X;X;X;X;X;X;X;X",
";X;X;X;X;X;X;X;X;X;X;X;X;X;X;X;X;X;X;X;X  1 !.#X$X$X$X$X$X$X$X$X$X&XP.p.s.s.p.u.s   ;X;X;X;X;X;X;X;X;X;X;X;X;X;X;X;X;X;X;X;X;X;X",
";X;X;X;X;X;X;X;X;X;X;X;X;X;X;X;X;X;X;X;Xx w.#X$X$X$X$X$X$X$X$X$X$X$X}.Q.Q.x.s.d.,.s = ;X;X;X;X;X;X;X;X;X;X;X;X;X;X;X;X;X;X;X;X;X",
";X;X;X;X;X;X;X;X;X;X;X;X;X;X;X;X;X;X;X  0.$X$X$X$X$X$X$X$X$X$X$X$X$X$X$X$XI.p.s.d.u.*   ;X;X;X;X;X;X;X;X;X;X;X;X;X;X;X;X;X;X;X;X",
";X;X;X;X;X;X;X;X;X;X;X;X;X;X;X;X;X;X;X  0.$X$X$X$X$X$X$X$X$X$X$X$X$X$X$X$XI.p.s.s.9.=   ;X;X;X;X;X;X;X;X;X;X;X;X;X;X;X;X;X;X;X;X",
";X;X;X;X;X;X;X;X;X;X;X;X;X;X;X;X;X;X1 x L.$X$X$X$X$X$X$X$X$X$X$X$X$X$X$X$XU.p.p.s.9.=   ;X;X;X;X;X;X;X;X;X;X;X;X;X;X;X;X;X;X;X;X",
";X;X;X;X;X;X;X;X;X;X;X;X;X;X;X;X;X  6 -X$X$X#X=X$X$X$X$X#X#X$X$X$X$X$X$X$XW.d.d.s.9.2 o ;X;X;X;X;X;X;X;X;X;X;X;X;X;X;X;X;X;X;X;X",
";X;X;X;X;X;X;X;X;X;X;X;X;X;X;X;X;X  6 -X$X|.a w.$X$X$X#Xk m $X$X$X$X$X$X$X#X[.f.p.i.4.s   ;X;X;X;X;X;X;X;X;X;X;X;X;X;X;X;X;X;X;X",
";X;X;X;X;X;X;X;X;X;X;X;X;X;X;X;X;X  6 -XE.6.# 5.$X$X$X#X6 6 k..X$X$X$X$X$X$X@Xf.s.d.f.l   ;X;X;X;X;X;X;X;X;X;X;X;X;X;X;X;X;X;X;X",
";X;X;X;X;X;X;X;X;X;X;X;X;X;X;X;X;X  6 -Xc     5.$X$X$X#X8   % Y.$X$X$X$X$X$X+Xh.s.p.f.l   ;X;X;X;X;X;X;X;X;X;X;X;X;X;X;X;X;X;X;X",
";X;X;X;X;X;X;X;X;X;X;X;X;X;X;X;X;X  6 -Xc     5.$X$X$X#X8   X 8 5.&X$X$X$X$X.Xf.s.s.f.l   ;X;X;X;X;X;X;X;X;X;X;X;X;X;X;X;X;X;X;X",
";X;X;X;X;X;X;X;X;X;X;X;X;X;X;X;X;X  6 -Xc     5.$X$X$X-X8       a #X$X$X$X$X+Xf.s.s.s.l X ;X;X;X;X;X;X;X;X;X;X;X;X;X;X;X;X;X;X;X",
";X;X;X;X;X;X;X;X;X;X;X;X;X;X;X;X;X  6 -Xc .   7.$X$X$X-Xi   X X a &X$X$X$X$X@Xf.s.s.d.l   ;X;X;X;X;X;X;X;X;X;X;X;X;X;X;X;X;X;X;X",
";X;X;X;X;X;X;X;X;X;X;X;X;X        :.c.&X!.z.z.^.$X$X$X&XY.z.z.z.R.$X$X$X$X$X@Xh.s.s.d.g   ;X;X;X;X;X;X;X;X;X;X;X;X;X;X;X;X;X;X;X",
";X;X;X;X;X;X;X;X;X;X;X;X1 6 6 6 7 L.$X$X$X$X&X$X$X$X$X$X$X$X$X$X#XE.E.E.T.E.R.d.s.s.d.v < ;X;X;X;X;X;X;X;X;X;X;X;X;X;X;X;X;X;X;X",
";X;X;X;X;X;X;X;X;X;X;X  x -X-X.X-X&X$X$X$X$X$X$X$X$X$X$X$X$X$X$XL.* $ & & $ 3 u.d.s.d.i.4.<   ;X;X;X;X;X;X;X;X;X;X;X;X;X;X;X;X;X",
";X;X;X;X;X;X;X;X;X;X* 5.L.$X$X$X$X$X&X.X#X$X$Xc.x c j.$X$X$X&X0.| 0.0.0.0.0.5.d >.d.s.d.u.<   ;X;X;X;X;X;X;X;X;X;X;X;X;X;X;X;X;X",
";X;X;X;X;X;X;X;X;X;X* ^.$X$X$X$X$X$X&X|.#X$X$X8., , M $X$X#X!.h c &X&X&X$X$X^.7 z 4.i.s.u.<   ;X;X;X;X;X;X;X;X;X;X;X;X;X;X;X;X;X",
";X;X;X;X;X;X;X;X;X;X* !.$X$X$X$X$X$X&X|.#X$X$X#X|. X.X$X$Xc.1 c.#X$X$X$X$X$X&X.X:.= 4.d.u.<   ;X;X;X;X;X;X;X;X;X;X;X;X;X;X;X;X;X",
";X;X;X;X;X;X;X;X;Xh 8. X$X$X$X&X$X#X.X|.#X$X$X$X$X$X$X&Xj.M 7.|.$X$X$X$X$X$X$X$XY.7.i.s.9.<   ;X;X;X;X;X;X;X;X;X;X;X;X;X;X;X;X;X",
";X;X;X;X;X;X;X;X  m $X$X$X$X$X&X-X X|.|.C.J.$X$X$X$X$X&Xi f $X$X$X$X$X$X$X$X$X$X$X&Xx.d.u.<   ;X;X;X;X;X;X;X;X;X;X;X;X;X;X;X;X;X",
";X;X;X;X;X;X;X;X  m $X$X$X$X$XXXh.Q.|.|.*.*.OX$X$X$X&X(.0 h $X$X$X$X$X$X$X$X$X$X$X&X^.U.u.<   ;X;X;X;X;X;X;X;X;X;X;X;X;X;X;X;X;X",
";X;X;X;X;X;X;X;X  m $X$X$X&X}.U.p.W.|.|.-.! #.J.$X$X(. .- 4 8.6.k.$X$X$X$X$X$X$X$X&X XG.} :   ;X;X;X;X;X;X;X;X;X;X;X;X;X;X;X;X;X",
";X;X;X;X;X;X;X;X  m $X$X$X&XP.p.s.T.|.|.-.! ! A.$X$XZ.W q . . X a  X=X$X$X$X$X$X$X&X Xv.L - O ;X;X;X;X;X;X;X;X;X;X;X;X;X;X;X;X;X",
";X;X;X;X;X;X;X;X  m $X$X$X$XU.p.s.W.|.|.=.! ! A..X&XZ.! Q Z X z v 7 c.$X$X$X$X$X$X&X Xv.L -   ;X;X;X;X;X;X;X;X;X;X;X;X;X;X;X;X;X",
";X;X;X;X;X;X;X;X  x k.k.k.k.3.>.s.W.|.|.=.! ! 1. X&XZ.! W Z o n >.X k.$X$X$X$X$X$X$X@XB.L -   ;X;X;X;X;X;X;X;X;X;X;X;X;X;X;X;X;X",
";X;X;X;X;X;X;X;X;X;XX X X # X 6 i.W.}.|.=.! ! N. X&XZ.! E B # n n $ l.$X$X$X$X$X$X$X$XV.L ; . ;X;X;X;X;X;X;X;X;X;X;X;X;X;X;X;X;X",
";X;X;X;X;X;X;X;X;X;X;X  3 n n z 6 k.|.|.=.! ! 1. X&XZ.~ U  .d.j p b d m &X$X$X$X$X$X$XV.P D t . ;X;X;X;X;X;X;X;X;X;X;X;X;X;X;X;X",
";X;X;X;X;X;X;X;X;X;X;X  6 >.i.b @ q.|.|.=.! ! M. X$XZ.! U +._.i 2 i.s s c.|.$X$X$X$X$XV.P U V . ;X;X;X;X;X;X;X;X;X;X;X;X;X;X;X;X",
";X;X;X;X;X;X;X;X;X;X;X;X;X# >.b X y.|.|.=.! ! M. X$XZ.! U +.^.i 5 i.p.,.$ y.$X$X$X$X$XV.P T V . ;X;X;X;X;X;X;X;X;X;X;X;X;X;X;X;X",
";X;X;X;X;X;X;X;X;X;X;X;X;X;X6 2 X y. X|.=.! ! M. X&XZ.! U +._.c.5.8 2.2.# q.$X$X#X#X$XV.T U V X ;X;X;X;X;X;X;X;X;X;X;X;X;X;X;X;X",
";X;X;X;X;X;X;X;X;X;X;X;X;X;X    . y. X|.=.! ! M. X&XZ.! U @.|. Xl.X v 2.o w.$X$X@X|.&XV.K U V   ;X;X;X;X;X;X;X;X;X;X;X;X;X;X;X;X",
";X;X;X;X;X;X;X;X;X;X;X;X;X;X;X;XX w. X|.=.! ! M. X&XZ.~ U O.|.|.l.# v 2.o y.$X$X#X|.&XV.P U V . ;X;X;X;X;X;X;X;X;X;X;X;X;X;X;X;X",
";X;X;X;X;X;X;X;X;X;X;X;X;X;X;X;XX t. X|.=.! ! M. X&XZ.! U O._. XG.Z y 5 X w.$X$X-X|.+XB.K U V X ;X;X;X;X;X;X;X;X;X;X;X;X;X;X;X;X",
";X;X;X;X;X;X;X;X;X;X;X;X;X;X;X;X. q. X|.=.! ! M. X&XZ.! T O.|.|.S.Y r + . q.$X$X-X|. Xv.P T C + ;X;X;X;X;X;X;X;X;X;X;X;X;X;X;X;X",
";X;X;X;X;X;X;X;X;X;X;X;X;X;X;X;X. q. X|.=.! ! M. X$XZ.! T O.}. XS.Y L V . t.$X$X-X|.|.v.K P I D -   ;X;X;X;X;X;X;X;X;X;X;X;X;X;X",
";X;X;X;X;X;X;X;X;X;X;X;X;X;X;X;XX y. X|.;.! ! N. X&XZ.! U +.}.|./.1./ F r { l.#X@X|.|.F.%.Q P I -   ;X;X;X;X;X;X;X;X;X;X;X;X;X;X",
";X;X;X;X;X;X;X;X;X;X;X;X;X;X;X;XX y.|.|.;.! ! N. X&XZ.~ U X./._.|.}.X.P P r 7 +X#X X|.|.)./ P L -   ;X;X;X;X;X;X;X;X;X;X;X;X;X;X",
";X;X;X;X;X;X;X;X;X;X;X;X;X;X;X;XX y. X|.=.! ! N. X&XZ.W ! ~ / D.|._.X.K T } d.#X&X#X|.|.)./ P L - . ;X;X;X;X;X;X;X;X;X;X;X;X;X;X",
";X;X;X;X;X;X;X;X;X;X;X;X;X;X;X;XX w. X|.=.! ! $.V.=X(.*.` W Y D.XX_.X.K P ] <.#X$X&X|.|.)./ K I - O ;X;X;X;X;X;X;X;X;X;X;X;X;X;X",
";X;X;X;X;X;X;X;X;X;X;X;X;X;X;X;X. q. X|.-.! ! W ^ {.$XoX#.W R S.XX_.o.U P P ) oX$X&X|.|.).( R I ; . ;X;X;X;X;X;X;X;X;X;X;X;X;X;X",
";X;X;X;X;X;X;X;X;X;X;X;X;X;X;X;XX y. X|./.H.' E ^ {.$XoX#.W R D. X|.F.1.R P ) oX&X&X|.|._./.&.L D B . ;X;X;X;X;X;X;X;X;X;X;X;X;X",
";X;X;X;X;X;X;X;X;X;X;X;X;X;X;X;XX c j._. X).` W ^ {.$X=XA.$.R &.F.|.|.D.R K ) oX$X=X X|.|. XD. .R C @ ;X;X;X;X;X;X;X;X;X;X;X;X;X",
";X;X;X;X;X;X;X;X;X;X;X;X;X;X;X;X;X  7 ^.}.F.` R _ '.#X#X&XK.P P O.|.|.D.R P ) oX$XOX%.D.|.|.}.). .C @ ;X;X;X;X;X;X;X;X;X;X;X;X;X",
";X;X;X;X;X;X;X;X;X;X;X;X;X;X;X;X;X  7 }.:.4 - ; - 7 p j }.J.P K O.|.|.D.R K ( oX&X'.R v. X|.|._. .L V q   ;X;X;X;X;X;X;X;X;X;X;X",
";X;X;X;X;X;X;X;X;X;X;X;X;X;X;X;X;X  3 j.k 1 3 2 2 2 = o p.1.P P O._.XXD.R K ( oX$X'.^ O.m./.|._. .U K u 8 ;X;X;X;X;X;X;X;X;X;X;X",
";X;X;X;X;X;X;X;X;X;X;X;X;X;X;X;X;X. X o z p.i.i.i.p.g   O e L K O._.|.D.Y L ) oX$X'.^ K R S.|._. .K P n.[.;X;X;X;X;X;X;X;X;X;X;X",
";X;X;X;X;X;X;X;X;X;X;X;X;X;X;X;X;X  .   l d.d.d.d.f.g o 6.| q A O.|.XXD.Y K ) oX$X'.^ K Y S.|._. .P P n.Y.* ;X;X;X;X;X;X;X;X;X;X",
";X;X;X;X;X;X;X;X;X;X;X;X;X;X;X;X;X. .   a 2.2.2.,.2.p & z.e.- A O._.XXD.R L ) oX$X'.Q P R S.|._. .K P b.c.$ ;X;X;X;X;X;X;X;X;X;X",
";X;X;X;X;X;X;X;X;X;X;X;X;X;X;X;X;X;X;X. o # o $ # # X   O e L K O.|.XXD.R K ) oX$X'.Q T R D. X_. .K P b.c.$ ;X;X;X;X;X;X;X;X;X;X",
";X;X;X;X;X;X;X;X;X;X;X;X;X;X;X;X;X;X;X;X;X;X;X  o s g d & + w w y k k j w w u -X&X'.Q T R H. X|. .T U b.!.0.a   ;X;X;X;X;X;X;X;X",
";X;X;X;X;X;X;X;X;X;X;X;X;X;X;X;X;X;X;X;X;X;X;X  = >.4.4.<     X             3 R.^.F.H S D r.I.G.J G D r.Y.Y.f   ;X;X;X;X;X;X;X;X",
";X;X;X;X;X;X;X;X;X;X;X;X;X;X;X;X;X;X;X;X;X;X;XX X & = = X . :X:X:X:X:X:X:X:X:X* > * + + @ % * * @ + + % = = # . ;X;X;X;X;X;X;X;X",
";X;X;X;X;X;X;X;X;X;X;X;X;X;X;X;X;X;X;X;X;X;X;X;X        X :X:X:X:X:X:X:X:X:X:X:X:X:X:X:X;X;X;X;X:X;X;X;X;X;X  ;X;X;X;X;X;X;X;X;X",
";X;X;X;X;X;X;X;X;X;X;X;X;X;X;X;X;X;X;X;X;X;X;X;X;X;X;X;X;X;X:X:X:X:X:X:X:X:X:X:X:X:X:X:X;X;X;X;X:X:X;X;X;X;X;X;X;X;X;X;X;X;X;X;X",
";X;X;X;X;X;X;X;X;X;X;X;X;X;X;X;X;X;X;X;X;X;X;X;X;X;X;X;X;X;X:X:X:X:X:X:X:X:X:X:X:X:X:X:X;X;X;X;X:X:X;X;X;X;X;X;X;X;X;X;X;X;X;X;X",
";X;X;X;X;X;X;X;X;X;X;X;X;X;X;X;X;X;X;X;X;X;X;X;X;X;X;X;X:X:X:X:X:X:X:X:X:X:X:X:X:X:X:X:X:X:X:X:X:X:X:X:X;X;X;X;X;X;X;X;X;X;X;X;X",
";X;X;X;X;X;X;X;X;X;X;X;X;X;X;X;X;X;X;X;X;X;X;X;X;X;X;X;X:X:X:X:X:X:X:X:X:X:X:X:X:X:X:X:X:X:X:X:X:X:X:X:X;X;X;X;X;X;X;X;X;X;X;X;X",
";X;X;X;X;X;X;X;X;X;X;X;X;X;X;X;X;X;X;X;X;X;X;X;X;X;X;X;X:X:X:X:X:X:X:X:X:X:X:X:X:X:X:X:X:X:X:X:X:X:X:X:X;X;X;X;X;X;X;X;X;X;X;X;X",
";X;X;X;X;X;X;X;X;X;X;X;X;X;X;X;X;X;X;X;X;X;X;X;X;X;X;X;X:X:X:X:X:X:X:X:X:X:X:X:X:X:X:X:X:X:X:X:X:X:X:X:X;X;X;X;X;X;X;X;X;X;X;X;X"
};
