/* XPM */
static char *xpm_[] = {
/* columns rows colors chars-per-pixel */
"64 64 198 2 ",
"   c #040500",
".  c #0B0701",
"X  c #0A0A05",
"o  c #0D0E09",
"O  c #1A0602",
"+  c #12120D",
"@  c #131511",
"#  c #1A1B15",
"$  c #1C1E1B",
"%  c #230504",
"&  c #200A06",
"*  c #360806",
"=  c #3B0806",
"-  c #241A16",
";  c #1D211E",
":  c #23221D",
">  c #1C2222",
",  c #222521",
"<  c #2A2D2B",
"1  c #292A26",
"2  c #30312C",
"3  c #353631",
"4  c #353C3C",
"5  c #3D3D39",
"6  c #383A35",
"7  c #362E2C",
"8  c #420808",
"9  c #520C0E",
"0  c #63090B",
"q  c #620508",
"w  c #7A090C",
"e  c #7E1213",
"r  c #4F3938",
"t  c #702A2C",
"y  c #41423D",
"u  c #3F4647",
"i  c #484A48",
"p  c #4E504C",
"a  c #4A5153",
"s  c #4F585B",
"d  c #575A58",
"f  c #4C504F",
"g  c #555F62",
"h  c #5A6469",
"j  c #676864",
"k  c #72726E",
"l  c #636E73",
"z  c #69767C",
"x  c #767673",
"c  c #7A7A77",
"v  c #7C7C7A",
"b  c #6F706D",
"n  c #6B5252",
"m  c #8C090E",
"M  c #92090E",
"N  c #9D080E",
"B  c #8F1014",
"V  c #B8060F",
"C  c #AA0910",
"Z  c #B90A12",
"A  c #A6040C",
"S  c #BB1B23",
"D  c #BD393F",
"F  c #CE0711",
"G  c #C60912",
"H  c #CE0913",
"J  c #D30A14",
"K  c #D00F19",
"L  c #D20913",
"P  c #D1111A",
"I  c #DC1019",
"U  c #CC0F17",
"Y  c #E3141C",
"T  c #ED161E",
"R  c #D31D26",
"E  c #DF1E26",
"W  c #EC1921",
"Q  c #E71720",
"!  c #D3242D",
"~  c #D32A33",
"^  c #D6343C",
"/  c #D9343D",
"(  c #EC2B33",
")  c #ED3037",
"_  c #BB3C45",
"`  c #D83D45",
"'  c #9B4D56",
"]  c #9F5F69",
"[  c #866768",
"{  c #D54047",
"}  c #D6454D",
"|  c #D5484F",
" . c #D65057",
".. c #D55259",
"X. c #D85158",
"o. c #D54B52",
"O. c #E6454C",
"+. c #F14249",
"@. c #EB585E",
"#. c #D75D63",
"$. c #F25C62",
"%. c #DA7378",
"&. c #E97175",
"*. c #E97378",
"=. c #EE6E73",
"-. c #7F807F",
";. c #82827F",
":. c #6D7A81",
">. c #707E85",
",. c #DA7F83",
"<. c #F57F83",
"1. c #748189",
"2. c #7C8A93",
"3. c #858582",
"4. c #8D8D8A",
"5. c #858A8A",
"6. c #82929C",
"7. c #9E9E9C",
"8. c #979593",
"9. c #9FA19E",
"0. c #A1A19F",
"q. c #8796A0",
"w. c #8A9BA5",
"e. c #8D9EA9",
"r. c #8598A2",
"t. c #8FA0AB",
"y. c #91A2AD",
"u. c #93A5B0",
"i. c #98A7B2",
"p. c #98A8B2",
"a. c #A3A3A1",
"s. c #ACADAB",
"d. c #A8AAAA",
"f. c #B1B1AF",
"g. c #A3B2BB",
"h. c #B5B5B3",
"j. c #BCBCBA",
"k. c #B7B9B8",
"l. c #B6868F",
"z. c #DB888C",
"x. c #DE9A9D",
"c. c #D49093",
"v. c #C88D90",
"b. c #E88185",
"n. c #E98387",
"m. c #EB979B",
"M. c #E79396",
"N. c #F79A9D",
"B. c #F8989C",
"V. c #EC8E92",
"C. c #DEA6A9",
"Z. c #DFAAAD",
"A. c #DFA1A5",
"S. c #DEB5B7",
"D. c #D0ACAF",
"F. c #E8A9AC",
"G. c #F8B8BB",
"H. c #B2BEC5",
"J. c #BBC6CD",
"K. c #B8C3C9",
"L. c #CCCDCC",
"P. c #C6C5C4",
"I. c #C9CED2",
"U. c #C3CDD2",
"Y. c #CBD3D9",
"T. c #CED1D3",
"R. c #D3D3D3",
"E. c #DBDBDB",
"W. c #D6D9DA",
"Q. c #E1C2C4",
"!. c #E2CCCD",
"~. c #F8C7C9",
"^. c #E1CFD0",
"/. c #E3DDDD",
"(. c #E1D0D1",
"). c #F7D6D8",
"_. c #F7D8D9",
"`. c #E0E0DF",
"'. c #D7DDE1",
"]. c #F9DEE0",
"[. c #E4E4E4",
"{. c #E6E9E9",
"}. c #ECECEC",
"|. c #E6E7E8",
" X c #FCECED",
".X c #F7EAEB",
"XX c #ECEFF1",
"oX c #EEF1F2",
"OX c #F3F3F3",
"+X c #F9F9F9",
"@X c white",
"#X c #FEFEFE",
"$X c #FCFCFC",
"%X c #FEFFFF",
"&X c #F9F6F6",
"*X c #F0F0EF",
"=X c None",
"-X c None",
/* pixels */
"=X=X=X=X=X=X=X=X=X=X=X=X=X=X=X=X=X=X=X=X=X=X=X=X=X=X=X=X=X=X=X=X=X=X=X=X=X=X=X=X=X=X=X=X=X=X=X=X=X=X=X=X=X=X=X=X=X=X=X=X=X=X=X=X",
"=X=X=X=X=X=X=X=X=X=X=X=X=X=X=X=X=X=X=X=X=X=X=X=X=X=X=X=X=X=X=X=X=X=X=X=X=X=X=X=X=X=X=X=X=X=X=X=X=X=X=X=X=X=X=X=X=X=X=X=X=X=X=X=X",
"=X=X=X=X=X=X=X=X=X=X=X=X=X=X=X=X=X=X=X=X=X=X=X=X=X=X=X=X=X=X=X=X=X=X=X=X=X=X=X=X=X=X=X=X=X=X=X=X=X=X=X=X=X=X=X=X=X=X=X=X=X=X=X=X",
"=X=X=X=X=X=X=X=X=X=X=X=X=X=X=X=X=X=X=X=X=X=X=X=X=X=X=X                =X=X=X=X=X=X=X=X=X=X=X=X=X=X=X=X=X=X=X=X=X=X=X=X=X=X=X=X=X",
"=X=X=X=X=X=X=X=X=X=X=X=X=X=X=X=X=X=X=X=X=X=X=X=X=X=X# $ $ > $ $ $ ; ; ; =X=X=X=X=X=X=X=X=X=X=X=X=X=X=X=X=X=X=X=X=X=X=X=X=X=X=X=X",
"=X=X=X=X=X=X=X=X=X=X=X=X=X=X=X=X=X=X=X=X=X=X=X=X    i 6.r.2.6.6.6.6.6.z o     =X=X=X=X=X=X=X=X=X=X=X=X=X=X=X=X=X=X=X=X=X=X=X=X=X",
"=X=X=X=X=X=X=X=X=X=X=X=X=X=X=X=X=X=X=X=X=X=X=Xd 4.3.s.Y.Y.Y.Y.Y.Y.Y.g.2.s s a @ =X=X=X=X=X=X=X=X=X=X=X=X=X=X=X=X=X=X=X=X=X=X=X=X",
"=X=X=X=X=X=X=X=X=X=X=X=X=X=X=X=X=X=X=X=X=X=X: 8.@X@X@X@X@X@X@X@X@X@XK.y.y.y.6.1 @ =X=X=X=X=X=X=X=X=X=X=X=X=X=X=X=X=X=X=X=X=X=X=X",
"=X=X=X=X=X=X=X=X=X=X=X=X=X=X=X=X=X=X=X=X=X1 L.OX@X@X@X@X@X@X@X@X@X@XH.e.t.t.e.6.a   =X=X=X=X=X=X=X=X=X=X=X=X=X=X=X=X=X=X=X=X=X=X",
"=X=X=X=X=X=X=X=X=X=X=X=X=X=X=X=X=X=X=X=Xd 4.OX@X@X@X@X@X@X@X@X@X@X@X'.U.I.g.t.t.:.u # =X=X=X=X=X=X=X=X=X=X=X=X=X=X=X=X=X=X=X=X=X",
"=X=X=X=X=X=X=X=X=X=X=X=X=X=X=X=X=X=X=X  8.@X@X@X@X@X@X@X@X@X@X@X@X@X@X@X@XK.e.t.y.6.$   =X=X=X=X=X=X=X=X=X=X=X=X=X=X=X=X=X=X=X=X",
"=X=X=X=X=X=X=X=X=X=X=X=X=X=X=X=X=X=X=X  8.$X@X@X@X@X@X@X@X@X@X@X@X@X@X@X@XK.e.t.e.6.$   =X=X=X=X=X=X=X=X=X=X=X=X=X=X=X=X=X=X=X=X",
"=X=X=X=X=X=X=X=X=X=X=X=X=X=X=X=X=X=X=Xd k.@X@X@X@X@X@X@X@X@X@X@X@X@X@X@X@XK.e.t.y.6.$   =X=X=X=X=X=X=X=X=X=X=X=X=X=X=X=X=X=X=X=X",
"=X=X=X=X=X=X=X=X=X=X=X=X=X=X=X=X=X  3 }.@X$X&X+X@X@X@X@X&X$X@X@X@X@X@X@X@XJ.y.t.y.6.> X =X=X=X=X=X=X=X=X=X=X=X=X=X=X=X=X=X=X=X=X",
"=X=X=X=X=X=X=X=X=X=X=X=X=X=X=X=X=X  3 *X@X|.d 0.@X@X@X&Xj ;.@X@X@X@X@X@X@XoXW.u.e.e.>.a   =X=X=X=X=X=X=X=X=X=X=X=X=X=X=X=X=X=X=X",
"=X=X=X=X=X=X=X=X=X=X=X=X=X=X=X=X=X  3 *XR.7.+ ;.@X@X@XOX6 5 h.OX@X@X@X@X@X@XoXp.t.t.u.g   =X=X=X=X=X=X=X=X=X=X=X=X=X=X=X=X=X=X=X",
"=X=X=X=X=X=X=X=X=X=X=X=X=X=X=X=X=X  3 *Xx     3.@X@X@XOX5   @ P.@X@X@X@X@X@XXXi.t.t.y.g   =X=X=X=X=X=X=X=X=X=X=X=X=X=X=X=X=X=X=X",
"=X=X=X=X=X=X=X=X=X=X=X=X=X=X=X=X=X  3 OXk     3.@X@X@XOX5   X i 4.+X@X@X@X@XXXi.t.t.y.g   =X=X=X=X=X=X=X=X=X=X=X=X=X=X=X=X=X=X=X",
"=X=X=X=X=X=X=X=X=X=X=X=X=X=X=X=X=X  3 *Xx     3.@X@X@XOX5       i &X@X@X@X@XXXi.t.t.y.g . =X=X=X=X=X=X=X=X=X=X=X=X=X=X=X=X=X=X=X",
"=X=X=X=X=X=X=X=X=X=X=X=X=X=X=X=X=X  3 }.k     3.@X@X@XOX5       i +X@X@X@X@XoXp.t.t.y.h   =X=X=X=X=X=X=X=X=X=X=X=X=X=X=X=X=X=X=X",
"=X=X=X=X=X=X=X=X=X=X=X=X=X        -.d.+XL.0.a.R.@X@X@X+Xk.0.a.0.j.@X@X@X@X@XoXp.t.t.y.h   =X=X=X=X=X=X=X=X=X=X=X=X=X=X=X=X=X=X=X",
"=X=X=X=X=X=X=X=X=X=X=X=X: 1 1 1 < D.@X@X$X$X@X@X@X@X@X@X@X@X@X@X+XE.E.E.W.E.T.y.t.t.t.h $ =X=X=X=X=X=X=X=X=X=X=X=X=X=X=X=X=X=X=X",
"=X=X=X=X=X=X=X=X=X=X=X  j |.|.|.{.+X@X@X@X@X@X@X@X@X@X@X@X@X@X@XP.: # # # # 3 w.y.t.t.w.2.>   =X=X=X=X=X=X=X=X=X=X=X=X=X=X=X=X=X",
"=X=X=X=X=X=X=X=X=X=X# x h.@X@X@X%X%X$XXX&X@X@Xj.v v f.@X@X@X$X0.;.3.;.;.3.3.v s 1.y.t.t.q.,   =X=X=X=X=X=X=X=X=X=X=X=X=X=X=X=X=X",
"=X=X=X=X=X=X=X=X=X=X# E.@X@X@X@X%X@X+X[.OX@X@X4.# # x @X@X&X`.p j @X@X@X@X@XE.2 g 6.t.y.q.,   =X=X=X=X=X=X=X=X=X=X=X=X=X=X=X=X=X",
"=X=X=X=X=X=X=X=X=X=X# R.@X@X@X@X@X@X+X[.OX@X@X}.E.E.}.@X$Xj.2 h.}.@X@X@X@X@X+X[.v > 2.y.6.>   =X=X=X=X=X=X=X=X=X=X=X=X=X=X=X=X=X",
"=X=X=X=X=X=X=X=X=Xp ;.|.@X@X@X@X@X&XoX|.OX$X@X@X@X@X@X$Xs.;.c `.@X@X@X@X@X@X$X@Xj.x w.t.w.,   =X=X=X=X=X=X=X=X=X=X=X=X=X=X=X=X=X",
"=X=X=X=X=X=X=X=X  c @X@X@X@X@X$XOX|.[.[.F.G.@X@X@X@X@X+Xi p @X@X@X@X@X@X@X@X@X@X@X+Xg.t.6.,   =X=X=X=X=X=X=X=X=X=X=X=X=X=X=X=X=X",
"=X=X=X=X=X=X=X=X  c @X@X@X@X@X{.g.T.[.[.=.=. X$X@X@X@X~.7 d @X@X@X@X@X@X@X@X@X@X@X+XE.K.w.,   -X=X=X=X=X=X=X=X=X=X=X=X=X=X=X=X=X",
"=X=X=X=X=X=X=X=X  c @X@X@X$X{.J.y.U.[.[.&.W $.~.@X@X~.O.* 3 7.7.k.$X@X@X@X@X@X@X@X$X}.D.] -   -X=X=X=X=X=X=X=X=X=X=X=X=X=X=X=X=X",
"=X=X=X=X=X=X=X=X  c @X@X@X$XH.e.y.I.[.[.&.W T V.@X@XN.Q 8       p }.$X@X@X@X@X@X@X$X{.z.G *   -X=X=X=X=X=X=X=X=X=X=X=X=X=X=X=X=X",
"=X=X=X=X=X=X=X=X  c @X@X@X@XH.y.t.I.[.[.&.W W n.}.%XN.Q R e X h l y j.@X@X@X@X@X@X$X{.z.G *   =X=X=X=X=X=X=X=X=X=X=X=X=X=X=X=X=X",
"=X=X=X=X=X=X=X=X  j j.j.k.k.2.1.t.I.[.[.&.W W b.{.@XN.W W N X >.z X s.@X@X@X@X@X@X@X*Xz.G *   =X=X=X=X=X=X=X=X=X=X=X=X=X=X=X=X=X",
"=X=X=X=X=X=X=X=X=X=Xo o o o o 3 w.L.[.[.&.W W b.{.@XN.Q I M o z z + s.@X@X@X@X@X@X@X@Xm.G *   =X=X=X=X=X=X=X=X=X=X=X=X=X=X=X=X=X",
"=X=X=X=X=X=X=X=X=X=X=X  1 l l h 4 f.|.[.&.W W b.{.%XN.W K _ 8.a i l d 3.$X@X@X@X@X@X@Xm.H C w X =X=X=X=X=X=X=X=X=X=X=X=X=X=X=X=X",
"=X=X=X=X=X=X=X=X=X=X=X  4 1.w.z X 7.|.[.&.W T b.{.%XN.W J X./.y 1 e.u a P.}.@X@X@X@X@Xm.F J m   =X=X=X=X=X=X=X=X=X=X=X=X=X=X=X=X",
"=X=X=X=X=X=X=X=X=X=X=X=X-X+ 1.z o 7.|.[.&.W W b.{.%XN.Q J X.E.y < e.e.:.# 0.@X@X@X@X@Xm.L J M   =X=X=X=X=X=X=X=X=X=X=X=X=X=X=X=X",
"=X=X=X=X=X=X=X=X=X=X=X=X-X-X4 2 X 9.|.[.&.W W b.{.%XN.Q J ../.f.1.u 1.1.X 7.@X@X+X}.@Xm.L J M . =X=X=X=X=X=X=X=X=X=X=X=X=X=X=X=X",
"=X=X=X=X=X=X=X=X=X=X=X=X-X-X    X 7.|.[.&.W W b.{.@XN.Q L  .[.|.s.. l 1.o 7.@X@XOX[.@Xm.H L M . =X=X=X=X=X=X=X=X=X=X=X=X=X=X=X=X",
"=X=X=X=X=X=X=X=X=X=X=X=X-X-X-X-XX 7.|.[.&.W W b.{.@XN.W J ../.|.s.o l 1.o 7.@X@XoX[.%Xm.H L M . =X=X=X=X=X=X=X=X=X=X=X=X=X=X=X=X",
"=X=X=X=X=X=X=X=X-X-X-X-X-X-X-X-X. 7.|.[.&.W W b.{.%XN.Q J ..[.[.D.m r 4 X 7.@X@X*X[.*Xz.F L M X =X=X=X=X=X=X=X=X=X=X=X=X=X=X=X=X",
"=X=X=X=X=X=X=X=X-X-X-X-X-X-X-X-X. 9.|.[.&.T W b.{.%XN.Q L ..[.[.A.U 9 O   7.@X@XOX[.{.z.H L M O =X=X=X=X=X=X=X=X=X=X=X=X=X=X=X=X",
"=X=X=X=X=X=X=X=X-X-X-X-X-X-X-X-XX 7.{.[.&.W W b.{.%XB.W L ..[.[.C.U G M   0.@X@X*X[.[.z.F H G C *   =X=X=X=X=X=X=X=X=X=X=X=X=X=X",
"=X=X=X=X=X=X=X=X-X-X-X-X-X-X-X-X. 7.|.[.&.W T b.{.@XN.W J X./.|.Q.%.! V 0 [ h.OXoX[.{.Z.#.R J G *   =X=X=X=X=X=X=X=X=X=X=X=X=X=X",
"=X=X=X=X=X=X=X=X-X-X-X-X-X-X-X-X. 0.|.[.&.W W b.{.@XB.Q J | !./.[.`.} F J 0 6 }.OX[.[.[.^.~ L G *   -X-X=X=X=X=X=X=X=X=X=X=X=X=X",
"=X=X=X=X=X=X=X=X-X-X-X-X-X-X-X-X. 7.|.[.&.W W b.}.$XB.Q Q E ^ S.|./.| F H ' t.OX$X&X[.[.^.~ L G * X -X-X=X=X=X=X=X=X=X=X=X=X=X=X",
"=X=X=X=X=X=X=X=X-X-X-X-X-X-X-X-Xo 7.|.[.*.W W @.A.&XG.$.( Y K C.{./.} F H _ l.&X@X%X|.[.^.~ F G *   -X-X=X=X=X=X=X=X=X=X=X=X=X=X",
"=X=X=X=X=X=X=X=X-X-X-X-X-X-X-X-X  7.|.|.*.W W I ! ].$X X+.Y K C.{./.| H H H ^  X@X+X[.[.R.^ J G = . -X-X=X=X=X=X=X=X=X=X=X=X=X=X",
"=X=X=X=X=X=X=X=X=X=X=X=X=X=X=X=Xo 9.}.[.Q.M.( I ! ].@X X+.Y K Z.{.`.S.%.U F ^  X$X$X|.`.`.S.%.H C e X =X=X=X=X=X=X=X=X=X=X=X=X=X",
"=X=X=X=X=X=X=X=X=X=X=X=X=X=X=X=X. c f.`.[.!.) I ! ].@X&X<.O.K ,.Q.[.{.Z.P F ^  X@X$X|.[.[.{.C.^ I N X =X=X=X=X=X=X=X=X=X=X=X=X=X",
"=X=X=X=X=X=X=X=X=X=X=X=X=X=X=X=X=X  5 E.[.Q.( I ! _.$X$X$XF.K H ..`.[.C.P F ^  X@X.X%.S.[.[./.^.` N . -X=X=X=X=X=X=X=X=X=X=X=X=X",
"=X=X=X=X=X=X=X=X=X=X=X=X=X=X=X=X=X  6 E.4.r 8 = 8 y p d [.G.H F  .[.{.Z.P F ^  X$X).R z.{.[.`./.` V m 8   =X=X=X=X=X=X=X=X=X=X=X",
"=X=X=X=X=X=X=X=X=X=X=X=X=X=X=X=X-X  2 f.h > , > > , @ + d.v.K F  .[.[.C.P F ^  X@X).R #.x.^.[./.{ L J t 2 -X=X=X=X=X=X=X=X=X=X=X",
"=X=X=X=X=X=X=X=X=X=X=X=X=X=X=X=X-XX X + g w.q.6.q.w.s   o 9 H F  .`.[.Z.P F ^  X@X).R H K C.{.E.{ F G c.W.-X=X=X=X=X=X=X=X=X=X=X",
"=X=X=X=X=X=X=X=X=X=X=X=X=X=X=X=X-X  .   h y.y.y.y.u.g o >.[ 0 V  .`.{.Z.P F ^  X@X).R L K C.[./.{ F J x.P.; =X=X=X=X=X=X=X=X=X=X",
"=X=X=X=X=X=X=X=X=X=X=X=X=X=X=X=X-X.     f 2.2.2.2.2.i o j.8.% A X.[.[.Z.P F ^  X@X).R H K C.[./.{ F H m.k.@ =X=X=X=X=X=X=X=X=X=X",
"=X=X=X=X=X=X=X=X=X=X=X=X=X=X=X=X=X=X=X  o # @ + @ + X   @ 9 Z H X.[.{.F.P F ^  X@X).R F J F.|./.` F H x.k.+ =X=X=X=X=X=X=X=X=X=X",
"=X=X=X=X=X=X=X=X=X=X=X=X=X=X=X=X=X=X=X.     .   o u a a @ % 0 0 t b b n 0 q t *X$X).! F P C.{./.{ F L x.R.;.i =X=X=X=X=X=X=X=X=X",
"=X=X=X=X=X=X=X=X=X=X=X=X=X=X=X=X=X=X=X=X=X=X=X  @ 1.q.2.,                   < R.[.Q.S Z Z v.T.P.D V Z v.L.L.d   =X=X=X=X=X=X=X=X",
"=X=X=X=X=X=X=X=X=X=X=X=X=X=X=X=X=X=X=X=X=X=X=X    $ ; ; o   =X=X=X=X=X=X=X=X=X1 1 : O O O - ; : & O O - : : +   =X=X=X=X=X=X=X=X",
"=X=X=X=X=X=X=X=X=X=X=X=X=X=X=X=X=X=X=X=X=X=X=X=X.         =X=X=X=X=X=X=X=X=X=X=X      X           X           . =X=X=X=X=X=X=X=X",
"=X=X=X=X=X=X=X=X=X=X=X=X=X=X=X=X=X=X=X=X=X=X=X=X=X=X=X=X=X=X=X=X=X=X=X=X=X=X=X=X-X-X-X-X-X-X-X-X-X-X-X-X=X=X=X=X=X=X=X=X=X=X=X=X",
"=X=X=X=X=X=X=X=X=X=X=X=X=X=X=X=X=X=X=X=X=X=X=X=X=X=X=X=X=X=X=X=X=X=X=X=X=X=X=X=X-X-X-X-X-X-X-X-X-X-X-X-X=X=X=X=X=X=X=X=X=X=X=X=X",
"=X=X=X=X=X=X=X=X=X=X=X=X=X=X=X=X=X=X=X=X=X=X=X=X=X=X=X=X=X=X=X=X=X=X=X=X=X=X=X=X-X-X-X-X-X-X-X-X-X-X-X-X=X=X=X=X=X=X=X=X=X=X=X=X"
};
