/* XPM */
static char *xpm_[] = {
/* columns rows colors chars-per-pixel */
"64 64 207 2 ",
"   c #040400",
".  c #0A0701",
"X  c #0A0A05",
"o  c #0D0E09",
"O  c #040802",
"+  c #160503",
"@  c #0D100B",
"#  c #12130E",
"$  c #141411",
"%  c #1A1A15",
"&  c #1C1E1A",
"*  c #161814",
"=  c #270704",
"-  c #360806",
";  c #390A08",
":  c #1E201D",
">  c #23231E",
",  c #232522",
"<  c #2B2E2B",
"1  c #292A27",
"2  c #33332E",
"3  c #353531",
"4  c #3A3A35",
"5  c #353B3B",
"6  c #3E3E3A",
"7  c #373936",
"8  c #323030",
"9  c #450807",
"0  c #530C0C",
"q  c #6A080A",
"w  c #65090A",
"e  c #730D10",
"r  c #4D3130",
"t  c #6A2222",
"y  c #7D292E",
"u  c #42423E",
"i  c #3F4546",
"p  c #494945",
"a  c #464947",
"s  c #52524E",
"d  c #4C5558",
"f  c #545A5C",
"g  c #5D5E5A",
"h  c #575853",
"j  c #494F4F",
"k  c #6D4D4C",
"l  c #61615D",
"z  c #555E62",
"x  c #625D62",
"c  c #576165",
"v  c #5A6365",
"b  c #5E696F",
"n  c #5B666A",
"m  c #5F6B70",
"M  c #6D6D6A",
"N  c #646968",
"B  c #6F716E",
"V  c #71716E",
"C  c #606C71",
"Z  c #69757B",
"A  c #757673",
"S  c #7A7A77",
"D  c #7D7E7B",
"F  c #786966",
"G  c #91090E",
"H  c #9C080E",
"J  c #8F1015",
"K  c #A8050D",
"L  c #B7060F",
"P  c #AB0A12",
"I  c #B30A11",
"U  c #A01418",
"Y  c #A01C22",
"T  c #B4282E",
"R  c #CE040E",
"E  c #CE0711",
"W  c #C70913",
"Q  c #CE0A14",
"!  c #C90913",
"~  c #D20A14",
"^  c #D10F19",
"/  c #D50A14",
"(  c #D1111A",
")  c #DD111A",
"_  c #C41019",
"`  c #E6141D",
"'  c #D31D26",
"]  c #D51E28",
"[  c #C81822",
"{  c #EC1921",
"}  c #E41B23",
"|  c #F01C24",
" . c #D4242D",
".. c #DF272F",
"X. c #D32B33",
"o. c #D6343C",
"O. c #D9333C",
"+. c #ED2229",
"@. c #EE3037",
"#. c #803E41",
"$. c #D33B43",
"%. c #F03D44",
"&. c #B5454A",
"*. c #AD5762",
"=. c #AA6568",
"-. c #D54047",
";. c #D6444B",
":. c #D64C53",
">. c #D55057",
",. c #D55158",
"<. c #D95158",
"1. c #CD4C55",
"2. c #EF4A50",
"3. c #D97076",
"4. c #E96F74",
"5. c #E97175",
"6. c #E8787C",
"7. c #82827F",
"8. c #6D7A80",
"9. c #717E85",
"0. c #DA7C81",
"q. c #75838A",
"w. c #76838B",
"e. c #7C8B93",
"r. c #858582",
"t. c #8C8C8A",
"y. c #83939C",
"u. c #959593",
"i. c #9E9E9C",
"p. c #989795",
"a. c #8A8B95",
"s. c #AE9292",
"d. c #A1A19F",
"f. c #8696A0",
"g. c #8A9AA4",
"h. c #8D9EA9",
"j. c #8FA0AB",
"k. c #91A2AD",
"l. c #94A5B1",
"z. c #98A7B2",
"x. c #9AAAB4",
"c. c #ADADAB",
"v. c #A5A4A3",
"b. c #A3B2BC",
"n. c #ACB8BF",
"m. c #BBBCBA",
"M. c #B4B6B4",
"N. c #ADAAAE",
"B. c #DB868A",
"V. c #DF9A9D",
"C. c #DA9296",
"Z. c #E88185",
"A. c #EC888D",
"S. c #EB979B",
"D. c #E79398",
"F. c #F79A9D",
"G. c #F48D91",
"H. c #F89EA2",
"J. c #DEA6A9",
"K. c #DEA9AC",
"L. c #DDA4A7",
"P. c #DEB2B4",
"I. c #CFB7B8",
"U. c #E1AAAD",
"Y. c #F4B4B7",
"T. c #F8A3A7",
"R. c #C0C0BF",
"E. c #B2BDC5",
"W. c #AEBAC2",
"Q. c #BBC5CC",
"!. c #BCC3C6",
"~. c #C3C4C3",
"^. c #C9CBCD",
"/. c #C9CED2",
"(. c #D5D5D4",
"). c #DBDCDB",
"_. c #D6D8D9",
"`. c #CCD0D2",
"'. c #E3C6C7",
"]. c #E1CFD0",
"[. c #E2D4D5",
"{. c #E3DDDD",
"}. c #F6D6D8",
"|. c #FADADB",
" X c #E0E0DF",
".X c #D8DEE2",
"XX c #EEDFE0",
"oX c #E4E5E5",
"OX c #E6E9E9",
"+X c #ECECEC",
"@X c #FCECED",
"#X c #FBE7E8",
"$X c #ECEFF1",
"%X c #EEF0F2",
"&X c #F5F5F5",
"*X c #F2F3F2",
"=X c #F5F7F8",
"-X c #F7F7F8",
";X c #F9F9F9",
":X c white",
">X c #FEFEFE",
",X c #FDFDFD",
"<X c #FEFEFE",
"1X c #F8F6F6",
"2X c #F0F0EF",
"3X c None",
"4X c None",
/* pixels */
"3X3X3X3X3X3X3X3X3X3X3X3X3X3X3X3X3X3X3X3X3X3X3X3X3X3X3X3X3X3X3X3X3X3X3X3X3X3X3X3X3X3X3X3X3X3X3X3X3X3X3X3X3X3X3X3X3X3X3X3X3X3X3X3X",
"3X3X3X3X3X3X3X3X3X3X3X3X3X3X3X3X3X3X3X3X3X3X3X3X3X3X3X3X3X3X3X3X3X3X3X3X3X3X3X3X3X3X3X3X3X3X3X3X3X3X3X3X3X3X3X3X3X3X3X3X3X3X3X3X",
"3X3X3X3X3X3X3X3X3X3X3X3X3X3X3X3X3X3X3X3X3X3X3X3X3X3X3X    O     .   O   3X3X3X3X3X3X3X3X3X3X3X3X3X3X3X3X3X3X3X3X3X3X3X3X3X3X3X3X",
"3X3X3X3X3X3X3X3X3X3X3X3X3X3X3X3X3X3X3X3X3X3X3X3X    5 v c c c c c c v d o     3X3X3X3X3X3X3X3X3X3X3X3X3X3X3X3X3X3X3X3X3X3X3X3X3X",
"3X3X3X3X3X3X3X3X3X3X3X3X3X3X3X3X3X3X3X3X3X3X3X1 < 1 N b.b.b.b.b.b.b.x.w., : & 3X3X3X3X3X3X3X3X3X3X3X3X3X3X3X3X3X3X3X3X3X3X3X3X3X",
"3X3X3X3X3X3X3X3X3X3X3X3X3X3X3X3X3X3X3X3X3X3X  7.+X+X$X;X=X;X=X;X-X=XE.g.y.y.q.$ 3X3X3X3X3X3X3X3X3X3X3X3X3X3X3X3X3X3X3X3X3X3X3X3X",
"3X3X3X3X3X3X3X3X3X3X3X3X3X3X3X3X3X3X3X3X3X> 7.~.>X>X>X>X>X>X>X>X>X>X!.h.k.k.f.c 5 3X3X3X3X3X3X3X3X3X3X3X3X3X3X3X3X3X3X3X3X3X3X3X",
"3X3X3X3X3X3X3X3X3X3X3X3X3X3X3X3X3X3X3X3X& a +X>X>X>X>X>X>X>X>X>X>X>XQ.x.x.k.j.l.z * 3X3X3X3X3X3X3X3X3X3X3X3X3X3X3X3X3X3X3X3X3X3X",
"3X3X3X3X3X3X3X3X3X3X3X3X3X3X3X3X3X3X3X  t.OX>X>X>X>X>X>X>X>X>X>X>X>X;X*X&X!.h.j.f.q.*   3X3X3X3X3X3X3X3X3X3X3X3X3X3X3X3X3X3X3X3X",
"3X3X3X3X3X3X3X3X3X3X3X3X3X3X3X3X3X3X3X  u.>X>X>X>X>X>X>X>X>X>X>X>X>X>X>X>XQ.h.h.k.f.&   3X3X3X3X3X3X3X3X3X3X3X3X3X3X3X3X3X3X3X3X",
"3X3X3X3X3X3X3X3X3X3X3X3X3X3X3X3X3X3X3X# i.>X>X>X>X>X>X>X>X>X>X>X>X>X>X>X>XQ.h.j.l.e.&   3X3X3X3X3X3X3X3X3X3X3X3X3X3X3X3X3X3X3X3X",
"3X3X3X3X3X3X3X3X3X3X3X3X3X3X3X3X3X  2 R.OX>X>X>X>X>X>X>X>X>X>X>X>X>X>X>X>XQ.h.j.k.y.*   3X3X3X3X3X3X3X3X3X3X3X3X3X3X3X3X3X3X3X3X",
"3X3X3X3X3X3X3X3X3X3X3X3X3X3X3X3X3X  3 *X>X*Xc.(.>X>X>X>Xm.~.>X>X>X>X>X>X>X_.W.k.k.f.j < 4X4X3X3X3X3X3X3X3X3X3X3X3X3X3X3X3X3X3X3X",
"3X3X3X3X3X3X3X3X3X3X3X3X3X3X3X3X3X  3 $X>X(.& r.>X>X>X*X4 s *X>X>X>X>X>X>X>X$Xz.k.h.k.z O 4X3X3X3X3X3X3X3X3X3X3X3X3X3X3X3X3X3X3X",
"3X3X3X3X3X3X3X3X3X3X3X3X3X3X3X3X3X  3 2Xu.4 X r.>X>X>X*X4 * s _.>X>X>X>X>X>X2Xz.h.h.l.z O 3X3X3X3X3X3X3X3X3X3X3X3X3X3X3X3X3X3X3X",
"3X3X3X3X3X3X3X3X3X3X3X3X3X3X3X3X3X  3 2XM     r.>X>X>X*X6   X u.(.>X>X>X>X>X$Xz.h.k.k.z . 3X3X3X3X3X3X3X3X3X3X3X3X3X3X3X3X3X3X3X",
"3X3X3X3X3X3X3X3X4X4X4X4X4X4X3X3X3X  3 2XV     r.>X>X>X*X6     X s ;X>X>X>X>X$Xz.j.j.j.z   3X3X3X3X3X3X3X3X3X3X3X3X3X3X3X3X3X3X3X",
"3X3X3X3X3X3X3X3X4X4X4X4X4X4X3X3X3X  2 *XB     r.>X>X>X*X4       p ;X>X>X>X>X$Xz.j.j.k.z   3X3X3X3X3X3X3X3X3X3X3X3X3X3X3X3X3X3X3X",
"3X3X3X3X3X3X3X3X4X4X4X4X4X3X3X3X3X2 g *Xu.6 6 d.>X>X>X&XM 6 u 6 A ;X>X>X>X>X$Xz.j.j.k.c . 3X3X3X3X3X3X3X3X3X3X3X3X3X3X3X3X3X3X3X",
"3X3X3X3X3X3X3X3X4X4X4X4X4X.     . c.&X,X-X&X&X-X>X>X>X>X&X&X&X&X1X>X>X>X>X>X2Xz.j.j.l.z   3X3X3X3X3X3X3X3X3X3X3X3X3X3X3X3X3X3X3X",
"3X3X3X3X3X3X3X3X3X3X3X4Xs u.u.u.u. X>X>X>X>X>X>X>X>X>X>X>X>X>X>X_.V M M M M A g.j.j.j.w.f : 3X3X3X3X3X3X3X3X3X3X3X3X3X3X3X3X3X3X",
"3X3X3X3X3X3X3X3X3X3X3X, 7.>X>X>X>X>X>X,X>X>X>X+X).).oX>X>X>X>XOXc.< > 1 , , 4 e.g.j.j.k.f.,   3X3X3X3X3X3X3X3X3X3X3X3X3X3X3X3X3X",
"3X3X3X3X3X3X3X3X3X3X& ~.*X>X>X>X>X>X;XoX&X>X>Xt.* * A >X>X>X>Xh g oXOXOXOX+X~., v l.j.k.f.,   3X3X3X3X3X3X3X3X3X3X3X3X3X3X3X3X3X",
"3X3X3X3X3X3X3X3X3X3X% _.>X>X>X>X>X>X;XoX*X>X>XR.7.7.M.>X>X(.7.7.c.>X>X>X>X>X+Xt.B d f.k.y.,   3X3X3X3X3X3X3X3X3X3X3X3X3X3X3X3X3X",
"3X3X3X3X3X3X3X3X3X& 2 ).>X>X>X>X>X>X;XoX&X>X>X>X>X>X>X>X+Xv.1 `.>X>X>X>X>X>X>X>Xu., y.k.y.,   3X3X3X3X3X3X3X3X3X3X3X3X3X3X3X3X3X",
"3X3X3X3X3X3X3X3X  V oX;X>X>X>X>X>X2XoXoX}.#X>X>X>X>X>X;Xg l ).;X>X>X>X>X>X>X>X>X$X_.z.h.y.,   3X3X3X3X3X3X3X3X3X3X3X3X3X3X3X3X3X",
"3X3X3X3X3X3X3X3X  S >X>X>X>X>X*X/.).oXoX6.G.>X>X>X>X>X@Xu h >X>X>X>X>X>X>X>X>X>X>X;X^.b.f.,   3X3X3X3X3X3X3X3X3X3X3X3X3X3X3X3X3X",
"3X3X3X3X3X3X3X3X  S >X>X>X>X,X.Xk.^.oXoX5.%.T.@X>X>X@XZ.; s +X+X*X>X>X>X>X>X>X>X>X;XOX!.a.,   3X3X3X3X3X3X3X3X3X3X3X3X3X3X3X3X3X",
"3X3X3X3X3X3X3X3X  S >X>X>X>XQ.x.k./.oXoX4.{ | F.>X>XT.} - $ 2 < N >X>X>X>X>X>X>X>X>X+XC.T -   3X3X3X3X3X3X3X3X3X3X3X3X3X3X3X3X3X",
"3X3X3X3X3X3X3X3X  S >X>X>X>XW.h.k./.oXoX4.{ { G.;X>XF.} e ; . < h i.oX>X>X>X>X>X>X;XOXB.W - O 3X3X3X3X3X3X3X3X3X3X3X3X3X3X3X3X3X",
"3X3X3X3X3X3X3X3X  S ;X;X;X&XW.g.h./.oXoX4.{ { A.OX,XF.{ +.U o Z Z # c.>X>X>X>X>X>X>XOXB.W - O 3X3X3X3X3X3X3X3X3X3X3X3X3X3X3X3X3X",
"3X3X3X3X3X3X3X3X3X4 p p p p 3 j k./.oXoX5.{ { 0.OX,XF.{ ` G . 8.8.X c.>X>X>X>X>X>X>X;XD.W -   3X3X3X3X3X3X3X3X3X3X3X3X3X3X3X3X3X",
"3X3X3X3X3X3X3X3X3X3X    # 1 1 i Z ~.oXoX5.{ { Z.OX>XF.{ / Y u b v 3 t.`.,X>X>X>X>X>X>XS.! q ; 3X3X3X3X3X3X3X3X3X3X3X3X3X3X3X3X3X",
"3X3X3X3X3X3X3X3X3X3X3X  5 g.h.Z # d.oXoX5.{ { Z.OX>XF.{ ~ >._.i < f.5 j &X>X>X>X>X>X>XS.E ~ G . 3X3X3X3X3X3X3X3X3X3X3X3X3X3X3X3X",
"3X3X3X3X3X3X3X3X3X3X3X3X, 5 e.Z o i.oXoX5.{ { Z.OX,XF.| ~ ,.).r < h.9.C g m.>X>X>X>X>XS.E ~ G . 3X3X3X3X3X3X3X3X3X3X3X3X3X3X3X3X",
"3X3X3X3X3X3X3X3X3X3X3X3X3XO n z o i.OXoX5.{ { Z.OX,XF.` ~ ,.{.M j 9.f.q.X i.>X>X>X;X>XS.Q ~ G . 3X3X3X3X3X3X3X3X3X3X3X3X3X3X3X3X",
"3X3X3X3X3X3X3X3X3X3X3X3X3X3X@ o X d.oXoX5.{ { Z.OX,XF.{ E ,.oXoXv.$ Z q.o i.>X>X*XOX,XS.E ~ G . 3X3X3X3X3X3X3X3X3X3X3X3X3X3X3X3X",
"3X3X3X3X3X3X3X3X3X3X3X3X3X3X3X  . i.OXoX5.{ { Z.OX,XF.{ / ,. XoXv.o C q.o i.>X>X2XoX,XS.Q ~ G . 3X3X3X3X3X3X3X3X3X3X3X3X3X3X3X3X",
"3X3X3X3X3X3X3X3X3X3X3X3X3X3X3X3XX i.oXoX5.{ { Z.OX,XF.} ~ >.oXOXc.; v C o i.>X>X2XOX;XS.E ~ G . 3X3X3X3X3X3X3X3X3X3X3X3X3X3X3X3X",
"3X3X3X3X3X3X3X3X3X3X3X3X3X3X3X3XX i.oXoX5.{ { Z.OX,XF.{ ~ >. XoXK._ 0 @   i.>X>X2XoXOXB.E ~ G   3X3X3X3X3X3X3X3X3X3X3X3X3X3X3X3X",
"3X3X3X3X3X3X3X3X3X3X3X3X3X3X3X3XX i.oXoX5.{ { 0.OX>XF.{ ~ >. XoXK.Q G w . i.>X>X*XoXoXB.E / I q = 3X3X3X3X3X3X3X3X3X3X3X3X3X3X3X",
"3X3X3X3X3X3X3X3X3X3X3X3X3X3X3X3XX i.oXoX5.| | Z.OX>XF.{ ~ >.oXoXP.X.( K = p.*X>X*XoXoXC.' ^ E ! ; O 3X3X3X3X3X3X3X3X3X3X3X3X3X3X",
"3X3X3X3X3X3X3X3X3X3X3X3X3X3X3X3XX i.OXoX4.{ | 0.OX>XF.{ ~ ,.oXoX X'.-.W I t h +X2XoXoX(.P. .E W -   3X3X3X3X3X3X3X3X3X3X3X3X3X3X",
"3X3X3X3X3X3X3X3X3X3X3X3X3X3X3X3XX i.OXoX4.| | A.OX>XF.| ) O.0.'.oX X;.E ~ y n *X1X+XoXoX(.X.~ W ; O 3X3X3X3X3X3X3X3X3X3X3X3X3X3X",
"3X3X3X3X3X3X3X3X3X3X3X3X3X3X3X3XX i.oXoX4.{ | 5.{.>XH.+.| ) ^ J.OX{.:.R E *.b.1X>X,XoXoX].X.E ! -   3X3X3X3X3X3X3X3X3X3X3X3X3X3X",
"3X3X3X3X3X3X3X3X3X3X3X3X3X3X3X3XX i.oXoX4.{ { +.:.#X@XY.%.} ^ J.OX X;.R Q [ 1.@X>X,XoXoX[. .E W -   3X3X3X3X3X3X3X3X3X3X3X3X3X3X",
"3X3X3X3X3X3X3X3X3X3X3X3X3X3X3X3XX i.OXoXD.2.+.)  .|.,X@X2.` ^ J.oXoX3.X.Q E o.@X>X;XoXoX[.3.$.! e 9 3X3X3X3X3X3X3X3X3X3X3X3X3X3X",
"3X3X3X3X3X3X3X3X3X3X3X3X3X3X3X3XX p. XoXoX'.@.)  .|.,X@X2.} ^ L.oX XoXL.( E o.@X>X,XOXoXoXoXC.^ ~ H . 3X3X3X3X3X3X3X3X3X3X3X3X3X",
"3X3X3X3X3X3X3X3X3X3X3X3X3X3X3X3X3X2 N ).OX'.@.` ..|.>X>X}.A.^ $.0. XOXK.( E o.@X,X1X'.(.oXoX'.C.X.H . 3X4X4X4X4X4X4X4X4X4X4X4X4X",
"3X3X3X3X3X3X3X3X3X3X3X3X3X3X3X3X3X  3 _.m.s.Y H Y d.M.m.%XY.Q R >. XOXK.( E o.@X>X|.X.C.oXoXOX{.;.K 9 = 4X4X4X4X4X4X4X4X4X4X4X4X",
"3X3X3X3X3X3X3X3X3X3X3X3X3X3X3X3X3X  4 _.l . .     X X & _.Y.Q E >. XoXK.( E o.@X>X}.' 0.). X X{.$.E W 9 O 4X3X3X4X4X4X4X4X4X4X4X",
"3X3X3X3X3X3X3X3X3X3X3X3X3X3X3X3X3X  % s v C C b b C 5 X a #.Q E ,. XOXK.( E o.@X>X}.'  .$.P.oX{.-.~ ~ =.p.3X3X3X4X4X4X4X4X4X4X4X",
"3X3X3X3X3X3X3X3X3X3X3X3X3X3X3X3X3XO     z l.k.k.k.l.z X 1 r K W ,.oXoXU.( E O.@X>X}.] E Q J.oX{.-.E Q S..X4X3X3X4X4X4X4X4X4X4X4X",
"3X3X3X3X3X3X3X3X3X3X3X3X3X3X3X3X3X. .   z l.k.j.j.l.d # ^.v.+ H <. XoXU.( E O.@X>X}.] E ^ J.OX{.-.E Q V.m.$ 3X3X4X4X4X4X4X4X4X4X",
"3X3X3X3X3X3X3X3X3X3X3X3X3X3X3X3X3X3XO . 1 i a i a i , X h k G W <.XXOXU.' E O.@X>X}.] E ^ J.oX{.-.E ^ V.M.# 3X3X4X4X4X4X4X4X4X4X",
"3X3X3X3X3X3X3X3X3X3X3X3X3X3X3X3X3X3X3XO           $ * *   - K K &.R.~.s.P I T @X>X}.] E ^ J.OX{.-.E Q V.!.3 > 3X4X4X4X4X4X4X4X4X",
"3X3X3X3X3X3X3X3X3X3X3X3X3X3X3X3X3X3X3X3X3X3X3X  $ 9.y.e., . + + # % & $ + + 8 #X>X|.] ^ ^ U.OX{.-.R ~ V.oX(.g   4X4X4X4X4X4X4X4X",
"3X3X3X3X3X3X3X3X3X3X3X3X3X3X3X3X3X3X3X3X3X3X3XO @ j f d * . 3X3X4X4X4X4X3X3X, A D F w w w k B M t w w k B B 2 O 4X4X4X4X4X4X4X4X",
"3X3X3X3X3X3X3X3X3X3X3X3X3X3X3X3X3X3X3X3X3X3X3X3X        O . 3X3X4X4X4X4X3X3X3X      O   O       O O         O . 4X4X4X4X4X4X4X4X",
"3X3X3X3X3X3X3X3X3X3X3X3X3X3X3X3X3X3X3X3X3X3X3X3X3X3X3X3X3X3X3X3X4X4X4X4X3X3X3X3X3X3X3X3X3X3X3X3X3X3X3X3X3X3X4X4X4X4X4X4X4X4X4X4X",
"3X3X3X3X3X3X3X3X3X3X3X3X3X3X3X3X3X3X3X3X3X3X3X3X3X3X3X3X3X3X3X3X3X3X3X3X3X3X3X3X3X3X3X3X3X3X3X3X3X3X3X3X4X4X4X4X4X4X4X4X4X4X4X4X",
"3X3X3X3X3X3X3X3X3X3X3X3X3X3X3X3X3X3X3X3X3X3X3X3X3X3X3X3X3X3X3X3X3X3X3X3X3X3X3X3X3X3X3X3X3X3X3X3X3X3X3X3X4X4X4X4X4X4X4X4X4X4X4X4X",
"3X3X3X3X3X3X3X3X3X3X3X3X3X3X3X3X3X3X3X3X3X3X3X3X3X3X3X3X3X3X3X3X3X3X3X3X3X3X3X3X3X3X3X3X3X3X3X3X3X3X3X3X4X4X4X4X4X4X4X4X4X4X4X4X",
"3X3X3X3X3X3X3X3X3X3X3X3X3X3X3X3X3X3X3X3X3X3X3X3X3X3X3X3X3X3X3X3X3X3X3X3X3X3X3X3X3X3X3X3X3X3X3X3X3X3X3X3X4X4X4X4X4X4X4X4X4X4X4X4X"
};
